<svg width="45" height="35" viewBox="0 0 45 35" fill="none" xmlns="http://www.w3.org/2000/svg">
<rect x="0.75" y="0.75" width="43.5" height="33.5" rx="16.75" fill="#F0FFFB"/>
<rect x="0.75" y="0.75" width="43.5" height="33.5" rx="16.75" stroke="#34967C" stroke-width="1.5"/>
<path d="M18.634 14.52L15.484 22.08C15.428 22.2293 15.344 22.346 15.232 22.43C15.12 22.514 14.994 22.556 14.854 22.556C14.6487 22.556 14.4947 22.5 14.392 22.388C14.2893 22.2667 14.2333 22.1173 14.224 21.94C14.224 21.8747 14.238 21.8 14.266 21.716L17.822 13.12C17.8873 12.9613 17.9807 12.84 18.102 12.756C18.2327 12.672 18.3727 12.6347 18.522 12.644C18.662 12.644 18.7927 12.686 18.914 12.77C19.0353 12.854 19.124 12.9707 19.18 13.12L22.694 21.59C22.7313 21.6833 22.75 21.7767 22.75 21.87C22.75 22.0753 22.68 22.2433 22.54 22.374C22.4093 22.4953 22.26 22.556 22.092 22.556C21.952 22.556 21.8213 22.514 21.7 22.43C21.588 22.3367 21.504 22.22 21.448 22.08L18.27 14.562L18.634 14.52ZM16.044 20.092L16.674 18.748H20.636L20.874 20.092H16.044ZM25.4744 21.786C25.4744 21.9913 25.4044 22.164 25.2644 22.304C25.1338 22.4347 24.9704 22.5 24.7744 22.5C24.5784 22.5 24.4104 22.4347 24.2704 22.304C24.1398 22.164 24.0744 21.9913 24.0744 21.786V12.854C24.0744 12.6487 24.1444 12.4807 24.2844 12.35C24.4244 12.21 24.5924 12.14 24.7884 12.14C24.9938 12.14 25.1571 12.21 25.2784 12.35C25.4091 12.4807 25.4744 12.6487 25.4744 12.854V21.786ZM29.0701 21.786C29.0701 21.9913 29.0001 22.164 28.8601 22.304C28.7295 22.4347 28.5661 22.5 28.3701 22.5C28.1741 22.5 28.0061 22.4347 27.8661 22.304C27.7355 22.164 27.6701 21.9913 27.6701 21.786V12.854C27.6701 12.6487 27.7401 12.4807 27.8801 12.35C28.0201 12.21 28.1881 12.14 28.3841 12.14C28.5895 12.14 28.7528 12.21 28.8741 12.35C29.0048 12.4807 29.0701 12.6487 29.0701 12.854V21.786Z" fill="#34967C"/>
</svg>
