<svg width="42" height="31" viewBox="0 0 42 31" fill="none" xmlns="http://www.w3.org/2000/svg">
<rect x="0.75" y="0.75" width="40.5" height="29.5" rx="14.75" fill="#F0FFFB"/>
<rect x="0.75" y="0.75" width="40.5" height="29.5" rx="14.75" stroke="#34967C" stroke-width="1.5"/>
<path d="M17.972 13.16L15.272 19.64C15.224 19.768 15.152 19.868 15.056 19.94C14.96 20.012 14.852 20.048 14.732 20.048C14.556 20.048 14.424 20 14.336 19.904C14.248 19.8 14.2 19.672 14.192 19.52C14.192 19.464 14.204 19.4 14.228 19.328L17.276 11.96C17.332 11.824 17.412 11.72 17.516 11.648C17.628 11.576 17.748 11.544 17.876 11.552C17.996 11.552 18.108 11.588 18.212 11.66C18.316 11.732 18.392 11.832 18.44 11.96L21.452 19.22C21.484 19.3 21.5 19.38 21.5 19.46C21.5 19.636 21.44 19.78 21.32 19.892C21.208 19.996 21.08 20.048 20.936 20.048C20.816 20.048 20.704 20.012 20.6 19.94C20.504 19.86 20.432 19.76 20.384 19.64L17.66 13.196L17.972 13.16ZM15.752 17.936L16.292 16.784H19.688L19.892 17.936H15.752ZM23.8352 19.388C23.8352 19.564 23.7752 19.712 23.6552 19.832C23.5432 19.944 23.4032 20 23.2352 20C23.0672 20 22.9232 19.944 22.8032 19.832C22.6912 19.712 22.6352 19.564 22.6352 19.388V11.732C22.6352 11.556 22.6952 11.412 22.8152 11.3C22.9352 11.18 23.0792 11.12 23.2472 11.12C23.4232 11.12 23.5632 11.18 23.6672 11.3C23.7792 11.412 23.8352 11.556 23.8352 11.732V19.388ZM26.9173 19.388C26.9173 19.564 26.8573 19.712 26.7373 19.832C26.6253 19.944 26.4853 20 26.3173 20C26.1493 20 26.0053 19.944 25.8853 19.832C25.7733 19.712 25.7173 19.564 25.7173 19.388V11.732C25.7173 11.556 25.7773 11.412 25.8973 11.3C26.0173 11.18 26.1613 11.12 26.3293 11.12C26.5053 11.12 26.6453 11.18 26.7493 11.3C26.8613 11.412 26.9173 11.556 26.9173 11.732V19.388Z" fill="#34967C"/>
</svg>
