<svg width="39" height="27" viewBox="0 0 39 27" fill="none" xmlns="http://www.w3.org/2000/svg">
<rect x="0.75" y="0.75" width="37.5" height="25.5" rx="12.75" fill="#F0FFFB"/>
<rect x="0.75" y="0.75" width="37.5" height="25.5" rx="12.75" stroke="#34967C" stroke-width="1.5"/>
<path d="M16.979 11.87L14.954 16.73C14.918 16.826 14.864 16.901 14.792 16.955C14.72 17.009 14.639 17.036 14.549 17.036C14.417 17.036 14.318 17 14.252 16.928C14.186 16.85 14.15 16.754 14.144 16.64C14.144 16.598 14.153 16.55 14.171 16.496L16.457 10.97C16.499 10.868 16.559 10.79 16.637 10.736C16.721 10.682 16.811 10.658 16.907 10.664C16.997 10.664 17.081 10.691 17.159 10.745C17.237 10.799 17.294 10.874 17.33 10.97L19.589 16.415C19.613 16.475 19.625 16.535 19.625 16.595C19.625 16.727 19.58 16.835 19.49 16.919C19.406 16.997 19.31 17.036 19.202 17.036C19.112 17.036 19.028 17.009 18.95 16.955C18.878 16.895 18.824 16.82 18.788 16.73L16.745 11.897L16.979 11.87ZM15.314 15.452L15.719 14.588H18.266L18.419 15.452H15.314ZM21.3764 16.541C21.3764 16.673 21.3314 16.784 21.2414 16.874C21.1574 16.958 21.0524 17 20.9264 17C20.8004 17 20.6924 16.958 20.6024 16.874C20.5184 16.784 20.4764 16.673 20.4764 16.541V10.799C20.4764 10.667 20.5214 10.559 20.6114 10.475C20.7014 10.385 20.8094 10.34 20.9354 10.34C21.0674 10.34 21.1724 10.385 21.2504 10.475C21.3344 10.559 21.3764 10.667 21.3764 10.799V16.541ZM23.6879 16.541C23.6879 16.673 23.6429 16.784 23.5529 16.874C23.4689 16.958 23.3639 17 23.2379 17C23.1119 17 23.0039 16.958 22.9139 16.874C22.8299 16.784 22.7879 16.673 22.7879 16.541V10.799C22.7879 10.667 22.8329 10.559 22.9229 10.475C23.0129 10.385 23.1209 10.34 23.2469 10.34C23.3789 10.34 23.4839 10.385 23.5619 10.475C23.6459 10.559 23.6879 10.667 23.6879 10.799V16.541Z" fill="#34967C"/>
</svg>
