<svg width="145" height="31" viewBox="0 0 145 31" fill="none" xmlns="http://www.w3.org/2000/svg">
<rect x="0.75" y="0.75" width="143.5" height="29.5" rx="14.75" fill="white"/>
<rect x="0.75" y="0.75" width="143.5" height="29.5" rx="14.75" stroke="#E9E9E9" stroke-width="1.5"/>
<path d="M18.656 11.6C19.392 11.6 19.948 11.78 20.324 12.14C20.708 12.5 20.9 13.024 20.9 13.712C20.9 14.072 20.812 14.4 20.636 14.696C20.468 14.984 20.216 15.212 19.88 15.38C19.552 15.548 19.14 15.636 18.644 15.644L18.668 15.2C18.932 15.2 19.216 15.236 19.52 15.308C19.832 15.38 20.124 15.504 20.396 15.68C20.668 15.856 20.892 16.096 21.068 16.4C21.244 16.696 21.332 17.068 21.332 17.516C21.332 18.004 21.252 18.412 21.092 18.74C20.932 19.06 20.72 19.312 20.456 19.496C20.192 19.68 19.9 19.812 19.58 19.892C19.268 19.964 18.96 20 18.656 20H15.584C15.416 20 15.272 19.944 15.152 19.832C15.032 19.712 14.972 19.564 14.972 19.388V12.212C14.972 12.036 15.032 11.892 15.152 11.78C15.272 11.66 15.416 11.6 15.584 11.6H18.656ZM18.488 12.776H16.124L16.268 12.584V15.164L16.136 15.032H18.512C18.8 15.024 19.052 14.928 19.268 14.744C19.492 14.552 19.604 14.272 19.604 13.904C19.604 13.528 19.504 13.248 19.304 13.064C19.104 12.872 18.832 12.776 18.488 12.776ZM18.572 16.208H16.184L16.268 16.124V18.956L16.172 18.848H18.644C19.06 18.848 19.396 18.74 19.652 18.524C19.908 18.3 20.036 17.964 20.036 17.516C20.036 17.14 19.96 16.86 19.808 16.676C19.656 16.492 19.468 16.368 19.244 16.304C19.02 16.24 18.796 16.208 18.572 16.208ZM28.7278 16.844C28.7278 17.484 28.5878 18.052 28.3078 18.548C28.0278 19.036 27.6478 19.42 27.1678 19.7C26.6878 19.98 26.1478 20.12 25.5478 20.12C24.9478 20.12 24.4078 19.98 23.9278 19.7C23.4478 19.42 23.0638 19.036 22.7758 18.548C22.4958 18.052 22.3558 17.484 22.3558 16.844C22.3558 16.196 22.4958 15.628 22.7758 15.14C23.0638 14.644 23.4478 14.256 23.9278 13.976C24.4078 13.688 24.9478 13.544 25.5478 13.544C26.1478 13.544 26.6878 13.688 27.1678 13.976C27.6478 14.256 28.0278 14.644 28.3078 15.14C28.5878 15.628 28.7278 16.196 28.7278 16.844ZM27.5278 16.844C27.5278 16.404 27.4398 16.024 27.2638 15.704C27.0878 15.376 26.8478 15.12 26.5438 14.936C26.2478 14.744 25.9158 14.648 25.5478 14.648C25.1798 14.648 24.8438 14.744 24.5398 14.936C24.2358 15.12 23.9958 15.376 23.8198 15.704C23.6438 16.024 23.5558 16.404 23.5558 16.844C23.5558 17.268 23.6438 17.644 23.8198 17.972C23.9958 18.3 24.2358 18.556 24.5398 18.74C24.8438 18.924 25.1798 19.016 25.5478 19.016C25.9158 19.016 26.2478 18.924 26.5438 18.74C26.8478 18.556 27.0878 18.3 27.2638 17.972C27.4398 17.644 27.5278 17.268 27.5278 16.844ZM36.1341 16.844C36.1341 17.484 35.9941 18.052 35.7141 18.548C35.4341 19.036 35.0541 19.42 34.5741 19.7C34.0941 19.98 33.5541 20.12 32.9541 20.12C32.3541 20.12 31.8141 19.98 31.3341 19.7C30.8541 19.42 30.4701 19.036 30.1821 18.548C29.9021 18.052 29.7621 17.484 29.7621 16.844C29.7621 16.196 29.9021 15.628 30.1821 15.14C30.4701 14.644 30.8541 14.256 31.3341 13.976C31.8141 13.688 32.3541 13.544 32.9541 13.544C33.5541 13.544 34.0941 13.688 34.5741 13.976C35.0541 14.256 35.4341 14.644 35.7141 15.14C35.9941 15.628 36.1341 16.196 36.1341 16.844ZM34.9341 16.844C34.9341 16.404 34.8461 16.024 34.6701 15.704C34.4941 15.376 34.2541 15.12 33.9501 14.936C33.6541 14.744 33.3221 14.648 32.9541 14.648C32.5861 14.648 32.2501 14.744 31.9461 14.936C31.6421 15.12 31.4021 15.376 31.2261 15.704C31.0501 16.024 30.9621 16.404 30.9621 16.844C30.9621 17.268 31.0501 17.644 31.2261 17.972C31.4021 18.3 31.6421 18.556 31.9461 18.74C32.2501 18.924 32.5861 19.016 32.9541 19.016C33.3221 19.016 33.6541 18.924 33.9501 18.74C34.2541 18.556 34.4941 18.3 34.6701 17.972C34.8461 17.644 34.9341 17.268 34.9341 16.844ZM38.1883 20C38.0203 20 37.8763 19.944 37.7563 19.832C37.6443 19.712 37.5883 19.564 37.5883 19.388V11.732C37.5883 11.556 37.6443 11.412 37.7563 11.3C37.8763 11.18 38.0203 11.12 38.1883 11.12C38.3643 11.12 38.5083 11.18 38.6203 11.3C38.7323 11.412 38.7883 11.556 38.7883 11.732V19.388C38.7883 19.564 38.7323 19.712 38.6203 19.832C38.5083 19.944 38.3643 20 38.1883 20ZM42.1003 13.664C42.2523 13.664 42.3843 13.728 42.4963 13.856C42.6083 13.984 42.6643 14.112 42.6643 14.24C42.6643 14.4 42.5883 14.548 42.4363 14.684L38.6803 18.044L38.6323 16.664L41.6563 13.856C41.7843 13.728 41.9323 13.664 42.1003 13.664ZM42.2443 19.988C42.0763 19.988 41.9323 19.92 41.8123 19.784L39.4123 17.252L40.3243 16.412L42.6643 18.944C42.7923 19.08 42.8563 19.232 42.8563 19.4C42.8563 19.576 42.7843 19.72 42.6403 19.832C42.5043 19.936 42.3723 19.988 42.2443 19.988ZM53.9556 11.6C54.1156 11.6 54.2436 11.656 54.3396 11.768C54.4436 11.872 54.4956 12.004 54.4956 12.164V19.388C54.4956 19.564 54.4356 19.712 54.3156 19.832C54.2036 19.944 54.0596 20 53.8836 20C53.8036 20 53.7156 19.984 53.6196 19.952C53.5316 19.92 53.4636 19.876 53.4156 19.82L48.4836 13.424L48.7596 13.268V19.448C48.7596 19.6 48.7076 19.732 48.6036 19.844C48.4996 19.948 48.3676 20 48.2076 20C48.0396 20 47.9036 19.948 47.7996 19.844C47.7036 19.732 47.6556 19.6 47.6556 19.448V12.212C47.6556 12.028 47.7156 11.88 47.8356 11.768C47.9556 11.656 48.0996 11.6 48.2676 11.6C48.3556 11.6 48.4476 11.62 48.5436 11.66C48.6476 11.692 48.7236 11.744 48.7716 11.816L53.5836 18.08L53.4036 18.248V12.164C53.4036 12.004 53.4556 11.872 53.5596 11.768C53.6636 11.656 53.7956 11.6 53.9556 11.6ZM62.3724 16.844C62.3724 17.484 62.2324 18.052 61.9524 18.548C61.6724 19.036 61.2924 19.42 60.8124 19.7C60.3324 19.98 59.7924 20.12 59.1924 20.12C58.5924 20.12 58.0524 19.98 57.5724 19.7C57.0924 19.42 56.7084 19.036 56.4204 18.548C56.1404 18.052 56.0004 17.484 56.0004 16.844C56.0004 16.196 56.1404 15.628 56.4204 15.14C56.7084 14.644 57.0924 14.256 57.5724 13.976C58.0524 13.688 58.5924 13.544 59.1924 13.544C59.7924 13.544 60.3324 13.688 60.8124 13.976C61.2924 14.256 61.6724 14.644 61.9524 15.14C62.2324 15.628 62.3724 16.196 62.3724 16.844ZM61.1724 16.844C61.1724 16.404 61.0844 16.024 60.9084 15.704C60.7324 15.376 60.4924 15.12 60.1884 14.936C59.8924 14.744 59.5604 14.648 59.1924 14.648C58.8244 14.648 58.4884 14.744 58.1844 14.936C57.8804 15.12 57.6404 15.376 57.4644 15.704C57.2884 16.024 57.2004 16.404 57.2004 16.844C57.2004 17.268 57.2884 17.644 57.4644 17.972C57.6404 18.3 57.8804 18.556 58.1844 18.74C58.4884 18.924 58.8244 19.016 59.1924 19.016C59.5604 19.016 59.8924 18.924 60.1884 18.74C60.4924 18.556 60.7324 18.3 60.9084 17.972C61.0844 17.644 61.1724 17.268 61.1724 16.844ZM71.0866 13.628C71.2386 13.628 71.3706 13.688 71.4826 13.808C71.6026 13.92 71.6626 14.068 71.6626 14.252C71.6626 14.292 71.6586 14.332 71.6506 14.372C71.6426 14.412 71.6306 14.448 71.6146 14.48L69.7786 19.616C69.7306 19.752 69.6466 19.856 69.5266 19.928C69.4066 19.992 69.2826 20.016 69.1546 20C68.9226 19.984 68.7506 19.856 68.6386 19.616L67.2826 16.016L67.5586 16.04L66.3106 19.616C66.1986 19.856 66.0266 19.984 65.7946 20C65.6746 20.016 65.5506 19.992 65.4226 19.928C65.3026 19.856 65.2186 19.752 65.1706 19.616L63.3226 14.48C63.2906 14.408 63.2746 14.332 63.2746 14.252C63.2746 14.084 63.3266 13.94 63.4306 13.82C63.5426 13.692 63.6906 13.628 63.8746 13.628C64.0026 13.628 64.1146 13.66 64.2106 13.724C64.3146 13.788 64.3866 13.884 64.4266 14.012L65.9626 18.344L65.6866 18.32L66.9346 15.044C67.0386 14.796 67.2226 14.672 67.4866 14.672C67.6306 14.672 67.7426 14.704 67.8226 14.768C67.9026 14.832 67.9666 14.924 68.0146 15.044L69.2866 18.332L68.9626 18.368L70.5106 14.012C70.5906 13.756 70.7826 13.628 71.0866 13.628ZM74.419 19.964C74.419 20.212 74.347 20.46 74.203 20.708C74.059 20.956 73.879 21.16 73.663 21.32C73.447 21.488 73.219 21.572 72.979 21.572C72.899 21.572 72.815 21.54 72.727 21.476C72.647 21.42 72.607 21.312 72.607 21.152C72.607 20.992 72.655 20.896 72.751 20.864C72.855 20.84 72.955 20.804 73.051 20.756C73.163 20.7 73.251 20.628 73.315 20.54C73.379 20.46 73.411 20.364 73.411 20.252C73.411 20.156 73.371 20.076 73.291 20.012C73.219 19.948 73.123 19.916 73.003 19.916C72.955 19.916 72.899 19.924 72.835 19.94C72.779 19.948 72.727 19.968 72.679 20C72.607 19.96 72.547 19.912 72.499 19.856C72.451 19.8 72.427 19.716 72.427 19.604C72.435 19.396 72.535 19.216 72.727 19.064C72.927 18.904 73.155 18.824 73.411 18.824C73.715 18.824 73.959 18.932 74.143 19.148C74.327 19.364 74.419 19.636 74.419 19.964ZM82.7154 11.6C83.1394 11.6 83.5314 11.716 83.8914 11.948C84.2514 12.172 84.5394 12.48 84.7554 12.872C84.9714 13.264 85.0794 13.704 85.0794 14.192C85.0794 14.68 84.9714 15.124 84.7554 15.524C84.5394 15.916 84.2514 16.232 83.8914 16.472C83.5314 16.704 83.1394 16.82 82.7154 16.82H80.3994L80.4954 16.628V19.388C80.4954 19.564 80.4394 19.712 80.3274 19.832C80.2234 19.944 80.0834 20 79.9074 20C79.7394 20 79.5994 19.944 79.4874 19.832C79.3834 19.712 79.3314 19.564 79.3314 19.388V12.212C79.3314 12.036 79.3914 11.892 79.5114 11.78C79.6314 11.66 79.7754 11.6 79.9434 11.6H82.7154ZM82.7154 15.668C82.9234 15.668 83.1114 15.6 83.2794 15.464C83.4554 15.328 83.5954 15.148 83.6994 14.924C83.8114 14.7 83.8674 14.456 83.8674 14.192C83.8674 13.928 83.8114 13.688 83.6994 13.472C83.5954 13.256 83.4554 13.084 83.2794 12.956C83.1114 12.82 82.9234 12.752 82.7154 12.752H80.3754L80.4954 12.572V15.824L80.3874 15.668H82.7154ZM91.5198 13.592C91.6958 13.592 91.8398 13.652 91.9518 13.772C92.0638 13.884 92.1198 14.028 92.1198 14.204V19.388C92.1198 19.564 92.0638 19.712 91.9518 19.832C91.8398 19.944 91.6958 20 91.5198 20C91.3518 20 91.2078 19.944 91.0878 19.832C90.9758 19.712 90.9198 19.564 90.9198 19.388V18.524L91.1718 18.56C91.1718 18.704 91.1118 18.864 90.9918 19.04C90.8798 19.216 90.7238 19.388 90.5238 19.556C90.3238 19.716 90.0878 19.852 89.8158 19.964C89.5438 20.068 89.2518 20.12 88.9398 20.12C88.3878 20.12 87.8918 19.98 87.4518 19.7C87.0118 19.412 86.6638 19.02 86.4078 18.524C86.1518 18.028 86.0238 17.464 86.0238 16.832C86.0238 16.184 86.1518 15.616 86.4078 15.128C86.6638 14.632 87.0078 14.244 87.4398 13.964C87.8798 13.684 88.3678 13.544 88.9038 13.544C89.2478 13.544 89.5638 13.6 89.8518 13.712C90.1478 13.824 90.4038 13.968 90.6198 14.144C90.8358 14.32 90.9998 14.508 91.1118 14.708C91.2318 14.9 91.2918 15.084 91.2918 15.26L90.9198 15.296V14.204C90.9198 14.036 90.9758 13.892 91.0878 13.772C91.2078 13.652 91.3518 13.592 91.5198 13.592ZM89.0718 19.016C89.4478 19.016 89.7798 18.92 90.0678 18.728C90.3558 18.536 90.5798 18.276 90.7398 17.948C90.8998 17.612 90.9798 17.24 90.9798 16.832C90.9798 16.416 90.8998 16.044 90.7398 15.716C90.5798 15.388 90.3558 15.128 90.0678 14.936C89.7798 14.744 89.4478 14.648 89.0718 14.648C88.7038 14.648 88.3758 14.744 88.0878 14.936C87.8078 15.128 87.5838 15.388 87.4158 15.716C87.2558 16.044 87.1758 16.416 87.1758 16.832C87.1758 17.24 87.2558 17.612 87.4158 17.948C87.5838 18.276 87.8078 18.536 88.0878 18.728C88.3758 18.92 88.7038 19.016 89.0718 19.016ZM98.4929 13.64C98.6689 13.64 98.8129 13.7 98.9249 13.82C99.0369 13.932 99.0929 14.076 99.0929 14.252V19.412C99.0929 20.116 98.9569 20.688 98.6849 21.128C98.4209 21.568 98.0609 21.888 97.6049 22.088C97.1569 22.296 96.6489 22.4 96.0809 22.4C95.7929 22.4 95.5049 22.372 95.2169 22.316C94.9289 22.268 94.6929 22.196 94.5089 22.1C94.3169 22.012 94.1809 21.904 94.1009 21.776C94.0209 21.648 94.0089 21.508 94.0649 21.356C94.1209 21.164 94.2169 21.032 94.3529 20.96C94.4889 20.896 94.6289 20.892 94.7729 20.948C94.9089 21.004 95.0889 21.076 95.3129 21.164C95.5369 21.252 95.7929 21.296 96.0809 21.296C96.4729 21.296 96.8049 21.232 97.0769 21.104C97.3489 20.976 97.5529 20.776 97.6889 20.504C97.8329 20.232 97.9049 19.88 97.9049 19.448V18.62L98.0969 18.908C97.9689 19.172 97.8009 19.392 97.5929 19.568C97.3849 19.744 97.1369 19.88 96.8489 19.976C96.5689 20.072 96.2569 20.12 95.9129 20.12C95.4729 20.12 95.0929 20.024 94.7729 19.832C94.4609 19.632 94.2209 19.36 94.0529 19.016C93.8849 18.664 93.8009 18.264 93.8009 17.816V14.252C93.8009 14.076 93.8569 13.932 93.9689 13.82C94.0809 13.7 94.2249 13.64 94.4009 13.64C94.5689 13.64 94.7089 13.7 94.8209 13.82C94.9409 13.932 95.0009 14.076 95.0009 14.252V17.492C95.0009 18.02 95.1169 18.408 95.3489 18.656C95.5809 18.896 95.9249 19.016 96.3809 19.016C96.6849 19.016 96.9489 18.952 97.1729 18.824C97.3969 18.696 97.5729 18.52 97.7009 18.296C97.8289 18.064 97.8929 17.796 97.8929 17.492V14.252C97.8929 14.076 97.9489 13.932 98.0609 13.82C98.1809 13.7 98.3249 13.64 98.4929 13.64ZM105.409 19.388C105.409 19.564 105.349 19.712 105.229 19.832C105.117 19.944 104.977 20 104.809 20C104.641 20 104.497 19.944 104.377 19.832C104.265 19.712 104.209 19.564 104.209 19.388V11.732C104.209 11.556 104.269 11.412 104.389 11.3C104.509 11.18 104.653 11.12 104.821 11.12C104.997 11.12 105.137 11.18 105.241 11.3C105.353 11.412 105.409 11.556 105.409 11.732V19.388ZM112.367 13.592C112.543 13.592 112.687 13.652 112.799 13.772C112.911 13.884 112.967 14.028 112.967 14.204V19.388C112.967 19.564 112.911 19.712 112.799 19.832C112.687 19.944 112.543 20 112.367 20C112.199 20 112.055 19.944 111.935 19.832C111.823 19.712 111.767 19.564 111.767 19.388V18.524L112.019 18.56C112.019 18.704 111.959 18.864 111.839 19.04C111.727 19.216 111.571 19.388 111.371 19.556C111.171 19.716 110.935 19.852 110.663 19.964C110.391 20.068 110.099 20.12 109.787 20.12C109.235 20.12 108.739 19.98 108.299 19.7C107.859 19.412 107.511 19.02 107.255 18.524C106.999 18.028 106.871 17.464 106.871 16.832C106.871 16.184 106.999 15.616 107.255 15.128C107.511 14.632 107.855 14.244 108.287 13.964C108.727 13.684 109.215 13.544 109.751 13.544C110.095 13.544 110.411 13.6 110.699 13.712C110.995 13.824 111.251 13.968 111.467 14.144C111.683 14.32 111.847 14.508 111.959 14.708C112.079 14.9 112.139 15.084 112.139 15.26L111.767 15.296V14.204C111.767 14.036 111.823 13.892 111.935 13.772C112.055 13.652 112.199 13.592 112.367 13.592ZM109.919 19.016C110.295 19.016 110.627 18.92 110.915 18.728C111.203 18.536 111.427 18.276 111.587 17.948C111.747 17.612 111.827 17.24 111.827 16.832C111.827 16.416 111.747 16.044 111.587 15.716C111.427 15.388 111.203 15.128 110.915 14.936C110.627 14.744 110.295 14.648 109.919 14.648C109.551 14.648 109.223 14.744 108.935 14.936C108.655 15.128 108.431 15.388 108.263 15.716C108.103 16.044 108.023 16.416 108.023 16.832C108.023 17.24 108.103 17.612 108.263 17.948C108.431 18.276 108.655 18.536 108.935 18.728C109.223 18.92 109.551 19.016 109.919 19.016ZM114.565 13.76H117.385C117.545 13.76 117.677 13.816 117.781 13.928C117.893 14.032 117.949 14.164 117.949 14.324C117.949 14.476 117.893 14.604 117.781 14.708C117.677 14.812 117.545 14.864 117.385 14.864H114.565C114.405 14.864 114.269 14.812 114.157 14.708C114.053 14.596 114.001 14.464 114.001 14.312C114.001 14.152 114.053 14.02 114.157 13.916C114.269 13.812 114.405 13.76 114.565 13.76ZM115.825 12.2C116.001 12.2 116.145 12.26 116.257 12.38C116.369 12.492 116.425 12.636 116.425 12.812V18.38C116.425 18.524 116.449 18.64 116.497 18.728C116.545 18.816 116.609 18.876 116.689 18.908C116.777 18.94 116.865 18.956 116.953 18.956C117.041 18.956 117.117 18.94 117.181 18.908C117.253 18.876 117.337 18.86 117.433 18.86C117.529 18.86 117.617 18.904 117.697 18.992C117.777 19.08 117.817 19.2 117.817 19.352C117.817 19.544 117.713 19.7 117.505 19.82C117.297 19.94 117.073 20 116.833 20C116.697 20 116.537 19.988 116.353 19.964C116.169 19.94 115.989 19.88 115.813 19.784C115.645 19.688 115.505 19.536 115.393 19.328C115.281 19.112 115.225 18.812 115.225 18.428V12.812C115.225 12.636 115.281 12.492 115.393 12.38C115.513 12.26 115.657 12.2 115.825 12.2ZM122.159 20.12C121.495 20.12 120.919 19.984 120.431 19.712C119.943 19.432 119.563 19.052 119.291 18.572C119.027 18.084 118.895 17.528 118.895 16.904C118.895 16.2 119.035 15.6 119.315 15.104C119.603 14.6 119.975 14.216 120.431 13.952C120.887 13.68 121.371 13.544 121.883 13.544C122.275 13.544 122.647 13.624 122.999 13.784C123.351 13.936 123.663 14.152 123.935 14.432C124.215 14.704 124.435 15.028 124.595 15.404C124.755 15.772 124.839 16.176 124.847 16.616C124.839 16.776 124.775 16.908 124.655 17.012C124.535 17.116 124.395 17.168 124.235 17.168H119.567L119.279 16.148H123.791L123.563 16.364V16.064C123.547 15.784 123.455 15.54 123.287 15.332C123.119 15.116 122.911 14.952 122.663 14.84C122.415 14.72 122.155 14.66 121.883 14.66C121.643 14.66 121.411 14.7 121.187 14.78C120.971 14.852 120.775 14.972 120.599 15.14C120.431 15.308 120.295 15.532 120.191 15.812C120.095 16.084 120.047 16.424 120.047 16.832C120.047 17.272 120.139 17.656 120.323 17.984C120.507 18.312 120.755 18.568 121.067 18.752C121.379 18.928 121.723 19.016 122.099 19.016C122.395 19.016 122.639 18.988 122.831 18.932C123.023 18.868 123.183 18.792 123.311 18.704C123.439 18.616 123.551 18.532 123.647 18.452C123.767 18.38 123.887 18.344 124.007 18.344C124.151 18.344 124.271 18.396 124.367 18.5C124.463 18.596 124.511 18.712 124.511 18.848C124.511 19.024 124.423 19.184 124.247 19.328C124.031 19.536 123.731 19.72 123.347 19.88C122.971 20.04 122.575 20.12 122.159 20.12ZM126.803 20C126.627 20 126.483 19.944 126.371 19.832C126.259 19.712 126.203 19.564 126.203 19.388V14.3C126.203 14.124 126.259 13.98 126.371 13.868C126.483 13.748 126.627 13.688 126.803 13.688C126.971 13.688 127.111 13.748 127.223 13.868C127.343 13.98 127.403 14.124 127.403 14.3V15.644L127.283 15.128C127.347 14.904 127.443 14.696 127.571 14.504C127.707 14.312 127.867 14.144 128.051 14C128.235 13.856 128.439 13.744 128.663 13.664C128.895 13.584 129.135 13.544 129.383 13.544C129.591 13.544 129.771 13.6 129.923 13.712C130.075 13.824 130.151 13.964 130.151 14.132C130.151 14.348 130.095 14.508 129.983 14.612C129.871 14.708 129.747 14.756 129.611 14.756C129.491 14.756 129.375 14.732 129.263 14.684C129.151 14.628 129.019 14.6 128.867 14.6C128.699 14.6 128.527 14.644 128.351 14.732C128.175 14.82 128.015 14.952 127.871 15.128C127.727 15.296 127.611 15.496 127.523 15.728C127.443 15.96 127.403 16.22 127.403 16.508V19.388C127.403 19.564 127.343 19.712 127.223 19.832C127.111 19.944 126.971 20 126.803 20Z" fill="#161117"/>
</svg>
