<svg width="164" height="34" viewBox="0 0 164 34" fill="none" xmlns="http://www.w3.org/2000/svg">
<rect x="0.75" y="0.75" width="162.5" height="32.5" rx="16.25" fill="white"/>
<rect x="0.75" y="0.75" width="162.5" height="32.5" rx="16.25" stroke="#E9E9E9" stroke-width="1.5"/>
<path d="M19.432 12.2C20.2907 12.2 20.9393 12.41 21.378 12.83C21.826 13.25 22.05 13.8613 22.05 14.664C22.05 15.084 21.9473 15.4667 21.742 15.812C21.546 16.148 21.252 16.414 20.86 16.61C20.4773 16.806 19.9967 16.9087 19.418 16.918L19.446 16.4C19.754 16.4 20.0853 16.442 20.44 16.526C20.804 16.61 21.1447 16.7547 21.462 16.96C21.7793 17.1653 22.0407 17.4453 22.246 17.8C22.4513 18.1453 22.554 18.5793 22.554 19.102C22.554 19.6713 22.4607 20.1473 22.274 20.53C22.0873 20.9033 21.84 21.1973 21.532 21.412C21.224 21.6267 20.8833 21.7807 20.51 21.874C20.146 21.958 19.7867 22 19.432 22H15.848C15.652 22 15.484 21.9347 15.344 21.804C15.204 21.664 15.134 21.4913 15.134 21.286V12.914C15.134 12.7087 15.204 12.5407 15.344 12.41C15.484 12.27 15.652 12.2 15.848 12.2H19.432ZM19.236 13.572H16.478L16.646 13.348V16.358L16.492 16.204H19.264C19.6 16.1947 19.894 16.0827 20.146 15.868C20.4073 15.644 20.538 15.3173 20.538 14.888C20.538 14.4493 20.4213 14.1227 20.188 13.908C19.9547 13.684 19.6373 13.572 19.236 13.572ZM19.334 17.576H16.548L16.646 17.478V20.782L16.534 20.656H19.418C19.9033 20.656 20.2953 20.53 20.594 20.278C20.8927 20.0167 21.042 19.6247 21.042 19.102C21.042 18.6633 20.9533 18.3367 20.776 18.122C20.5987 17.9073 20.3793 17.7627 20.118 17.688C19.8567 17.6133 19.5953 17.576 19.334 17.576ZM31.1825 18.318C31.1825 19.0647 31.0192 19.7273 30.6925 20.306C30.3658 20.8753 29.9225 21.3233 29.3625 21.65C28.8025 21.9767 28.1725 22.14 27.4725 22.14C26.7725 22.14 26.1425 21.9767 25.5825 21.65C25.0225 21.3233 24.5745 20.8753 24.2385 20.306C23.9118 19.7273 23.7485 19.0647 23.7485 18.318C23.7485 17.562 23.9118 16.8993 24.2385 16.33C24.5745 15.7513 25.0225 15.2987 25.5825 14.972C26.1425 14.636 26.7725 14.468 27.4725 14.468C28.1725 14.468 28.8025 14.636 29.3625 14.972C29.9225 15.2987 30.3658 15.7513 30.6925 16.33C31.0192 16.8993 31.1825 17.562 31.1825 18.318ZM29.7825 18.318C29.7825 17.8047 29.6798 17.3613 29.4745 16.988C29.2692 16.6053 28.9892 16.3067 28.6345 16.092C28.2892 15.868 27.9018 15.756 27.4725 15.756C27.0432 15.756 26.6512 15.868 26.2965 16.092C25.9418 16.3067 25.6618 16.6053 25.4565 16.988C25.2512 17.3613 25.1485 17.8047 25.1485 18.318C25.1485 18.8127 25.2512 19.2513 25.4565 19.634C25.6618 20.0167 25.9418 20.3153 26.2965 20.53C26.6512 20.7447 27.0432 20.852 27.4725 20.852C27.9018 20.852 28.2892 20.7447 28.6345 20.53C28.9892 20.3153 29.2692 20.0167 29.4745 19.634C29.6798 19.2513 29.7825 18.8127 29.7825 18.318ZM39.8231 18.318C39.8231 19.0647 39.6598 19.7273 39.3331 20.306C39.0064 20.8753 38.5631 21.3233 38.0031 21.65C37.4431 21.9767 36.8131 22.14 36.1131 22.14C35.4131 22.14 34.7831 21.9767 34.2231 21.65C33.6631 21.3233 33.2151 20.8753 32.8791 20.306C32.5524 19.7273 32.3891 19.0647 32.3891 18.318C32.3891 17.562 32.5524 16.8993 32.8791 16.33C33.2151 15.7513 33.6631 15.2987 34.2231 14.972C34.7831 14.636 35.4131 14.468 36.1131 14.468C36.8131 14.468 37.4431 14.636 38.0031 14.972C38.5631 15.2987 39.0064 15.7513 39.3331 16.33C39.6598 16.8993 39.8231 17.562 39.8231 18.318ZM38.4231 18.318C38.4231 17.8047 38.3204 17.3613 38.1151 16.988C37.9098 16.6053 37.6298 16.3067 37.2751 16.092C36.9298 15.868 36.5424 15.756 36.1131 15.756C35.6838 15.756 35.2918 15.868 34.9371 16.092C34.5824 16.3067 34.3024 16.6053 34.0971 16.988C33.8918 17.3613 33.7891 17.8047 33.7891 18.318C33.7891 18.8127 33.8918 19.2513 34.0971 19.634C34.3024 20.0167 34.5824 20.3153 34.9371 20.53C35.2918 20.7447 35.6838 20.852 36.1131 20.852C36.5424 20.852 36.9298 20.7447 37.2751 20.53C37.6298 20.3153 37.9098 20.0167 38.1151 19.634C38.3204 19.2513 38.4231 18.8127 38.4231 18.318ZM42.2197 22C42.0237 22 41.8557 21.9347 41.7157 21.804C41.5851 21.664 41.5197 21.4913 41.5197 21.286V12.354C41.5197 12.1487 41.5851 11.9807 41.7157 11.85C41.8557 11.71 42.0237 11.64 42.2197 11.64C42.4251 11.64 42.5931 11.71 42.7237 11.85C42.8544 11.9807 42.9197 12.1487 42.9197 12.354V21.286C42.9197 21.4913 42.8544 21.664 42.7237 21.804C42.5931 21.9347 42.4251 22 42.2197 22ZM46.7837 14.608C46.9611 14.608 47.1151 14.6827 47.2457 14.832C47.3764 14.9813 47.4417 15.1307 47.4417 15.28C47.4417 15.4667 47.3531 15.6393 47.1757 15.798L42.7937 19.718L42.7377 18.108L46.2657 14.832C46.4151 14.6827 46.5877 14.608 46.7837 14.608ZM46.9517 21.986C46.7557 21.986 46.5877 21.9067 46.4477 21.748L43.6477 18.794L44.7117 17.814L47.4417 20.768C47.5911 20.9267 47.6657 21.104 47.6657 21.3C47.6657 21.5053 47.5817 21.6733 47.4137 21.804C47.2551 21.9253 47.1011 21.986 46.9517 21.986ZM60.6149 12.2C60.8015 12.2 60.9509 12.2653 61.0629 12.396C61.1842 12.5173 61.2449 12.6713 61.2449 12.858V21.286C61.2449 21.4913 61.1749 21.664 61.0349 21.804C60.9042 21.9347 60.7362 22 60.5309 22C60.4375 22 60.3349 21.9813 60.2229 21.944C60.1202 21.9067 60.0409 21.8553 59.9849 21.79L54.2309 14.328L54.5529 14.146V21.356C54.5529 21.5333 54.4922 21.6873 54.3709 21.818C54.2495 21.9393 54.0955 22 53.9089 22C53.7129 22 53.5542 21.9393 53.4329 21.818C53.3209 21.6873 53.2649 21.5333 53.2649 21.356V12.914C53.2649 12.6993 53.3349 12.5267 53.4749 12.396C53.6149 12.2653 53.7829 12.2 53.9789 12.2C54.0815 12.2 54.1889 12.2233 54.3009 12.27C54.4222 12.3073 54.5109 12.368 54.5669 12.452L60.1809 19.76L59.9709 19.956V12.858C59.9709 12.6713 60.0315 12.5173 60.1529 12.396C60.2742 12.2653 60.4282 12.2 60.6149 12.2ZM70.4344 18.318C70.4344 19.0647 70.2711 19.7273 69.9444 20.306C69.6178 20.8753 69.1744 21.3233 68.6144 21.65C68.0544 21.9767 67.4244 22.14 66.7244 22.14C66.0244 22.14 65.3944 21.9767 64.8344 21.65C64.2744 21.3233 63.8264 20.8753 63.4904 20.306C63.1638 19.7273 63.0004 19.0647 63.0004 18.318C63.0004 17.562 63.1638 16.8993 63.4904 16.33C63.8264 15.7513 64.2744 15.2987 64.8344 14.972C65.3944 14.636 66.0244 14.468 66.7244 14.468C67.4244 14.468 68.0544 14.636 68.6144 14.972C69.1744 15.2987 69.6178 15.7513 69.9444 16.33C70.2711 16.8993 70.4344 17.562 70.4344 18.318ZM69.0344 18.318C69.0344 17.8047 68.9318 17.3613 68.7264 16.988C68.5211 16.6053 68.2411 16.3067 67.8864 16.092C67.5411 15.868 67.1538 15.756 66.7244 15.756C66.2951 15.756 65.9031 15.868 65.5484 16.092C65.1938 16.3067 64.9138 16.6053 64.7084 16.988C64.5031 17.3613 64.4004 17.8047 64.4004 18.318C64.4004 18.8127 64.5031 19.2513 64.7084 19.634C64.9138 20.0167 65.1938 20.3153 65.5484 20.53C65.9031 20.7447 66.2951 20.852 66.7244 20.852C67.1538 20.852 67.5411 20.7447 67.8864 20.53C68.2411 20.3153 68.5211 20.0167 68.7264 19.634C68.9318 19.2513 69.0344 18.8127 69.0344 18.318ZM80.6011 14.566C80.7784 14.566 80.9324 14.636 81.0631 14.776C81.2031 14.9067 81.2731 15.0793 81.2731 15.294C81.2731 15.3407 81.2684 15.3873 81.2591 15.434C81.2497 15.4807 81.2357 15.5227 81.2171 15.56L79.0751 21.552C79.0191 21.7107 78.9211 21.832 78.7811 21.916C78.6411 21.9907 78.4964 22.0187 78.3471 22C78.0764 21.9813 77.8757 21.832 77.7451 21.552L76.1631 17.352L76.4851 17.38L75.0291 21.552C74.8984 21.832 74.6977 21.9813 74.4271 22C74.2871 22.0187 74.1424 21.9907 73.9931 21.916C73.8531 21.832 73.7551 21.7107 73.6991 21.552L71.5431 15.56C71.5057 15.476 71.4871 15.3873 71.4871 15.294C71.4871 15.098 71.5477 14.93 71.6691 14.79C71.7997 14.6407 71.9724 14.566 72.1871 14.566C72.3364 14.566 72.4671 14.6033 72.5791 14.678C72.7004 14.7527 72.7844 14.8647 72.8311 15.014L74.6231 20.068L74.3011 20.04L75.7571 16.218C75.8784 15.9287 76.0931 15.784 76.4011 15.784C76.5691 15.784 76.6997 15.8213 76.7931 15.896C76.8864 15.9707 76.9611 16.078 77.0171 16.218L78.5011 20.054L78.1231 20.096L79.9291 15.014C80.0224 14.7153 80.2464 14.566 80.6011 14.566ZM84.4888 21.958C84.4888 22.2473 84.4048 22.5367 84.2368 22.826C84.0688 23.1153 83.8588 23.3533 83.6068 23.54C83.3548 23.736 83.0888 23.834 82.8088 23.834C82.7155 23.834 82.6175 23.7967 82.5148 23.722C82.4215 23.6567 82.3748 23.5307 82.3748 23.344C82.3748 23.1573 82.4308 23.0453 82.5428 23.008C82.6641 22.98 82.7808 22.938 82.8928 22.882C83.0235 22.8167 83.1261 22.7327 83.2008 22.63C83.2755 22.5367 83.3128 22.4247 83.3128 22.294C83.3128 22.182 83.2661 22.0887 83.1728 22.014C83.0888 21.9393 82.9768 21.902 82.8368 21.902C82.7808 21.902 82.7155 21.9113 82.6408 21.93C82.5755 21.9393 82.5148 21.9627 82.4588 22C82.3748 21.9533 82.3048 21.8973 82.2488 21.832C82.1928 21.7667 82.1648 21.6687 82.1648 21.538C82.1741 21.2953 82.2908 21.0853 82.5148 20.908C82.7481 20.7213 83.0141 20.628 83.3128 20.628C83.6675 20.628 83.9521 20.754 84.1668 21.006C84.3815 21.258 84.4888 21.5753 84.4888 21.958ZM94.1679 12.2C94.6626 12.2 95.1199 12.3353 95.5399 12.606C95.9599 12.8673 96.2959 13.2267 96.5479 13.684C96.7999 14.1413 96.9259 14.6547 96.9259 15.224C96.9259 15.7933 96.7999 16.3113 96.5479 16.778C96.2959 17.2353 95.9599 17.604 95.5399 17.884C95.1199 18.1547 94.6626 18.29 94.1679 18.29H91.4659L91.5779 18.066V21.286C91.5779 21.4913 91.5126 21.664 91.3819 21.804C91.2606 21.9347 91.0973 22 90.8919 22C90.6959 22 90.5326 21.9347 90.4019 21.804C90.2806 21.664 90.2199 21.4913 90.2199 21.286V12.914C90.2199 12.7087 90.2899 12.5407 90.4299 12.41C90.5699 12.27 90.7379 12.2 90.9339 12.2H94.1679ZM94.1679 16.946C94.4106 16.946 94.6299 16.8667 94.8259 16.708C95.0313 16.5493 95.1946 16.3393 95.3159 16.078C95.4466 15.8167 95.5119 15.532 95.5119 15.224C95.5119 14.916 95.4466 14.636 95.3159 14.384C95.1946 14.132 95.0313 13.9313 94.8259 13.782C94.6299 13.6233 94.4106 13.544 94.1679 13.544H91.4379L91.5779 13.334V17.128L91.4519 16.946H94.1679ZM104.44 14.524C104.645 14.524 104.813 14.594 104.944 14.734C105.074 14.8647 105.14 15.0327 105.14 15.238V21.286C105.14 21.4913 105.074 21.664 104.944 21.804C104.813 21.9347 104.645 22 104.44 22C104.244 22 104.076 21.9347 103.936 21.804C103.805 21.664 103.74 21.4913 103.74 21.286V20.278L104.034 20.32C104.034 20.488 103.964 20.6747 103.824 20.88C103.693 21.0853 103.511 21.286 103.278 21.482C103.044 21.6687 102.769 21.8273 102.452 21.958C102.134 22.0793 101.794 22.14 101.43 22.14C100.786 22.14 100.207 21.9767 99.6938 21.65C99.1804 21.314 98.7744 20.8567 98.4758 20.278C98.1771 19.6993 98.0278 19.0413 98.0278 18.304C98.0278 17.548 98.1771 16.8853 98.4758 16.316C98.7744 15.7373 99.1758 15.2847 99.6798 14.958C100.193 14.6313 100.762 14.468 101.388 14.468C101.789 14.468 102.158 14.5333 102.494 14.664C102.839 14.7947 103.138 14.9627 103.39 15.168C103.642 15.3733 103.833 15.5927 103.964 15.826C104.104 16.05 104.174 16.2647 104.174 16.47L103.74 16.512V15.238C103.74 15.042 103.805 14.874 103.936 14.734C104.076 14.594 104.244 14.524 104.44 14.524ZM101.584 20.852C102.022 20.852 102.41 20.74 102.746 20.516C103.082 20.292 103.343 19.9887 103.53 19.606C103.716 19.214 103.81 18.78 103.81 18.304C103.81 17.8187 103.716 17.3847 103.53 17.002C103.343 16.6193 103.082 16.316 102.746 16.092C102.41 15.868 102.022 15.756 101.584 15.756C101.154 15.756 100.772 15.868 100.436 16.092C100.109 16.316 99.8478 16.6193 99.6518 17.002C99.4651 17.3847 99.3718 17.8187 99.3718 18.304C99.3718 18.78 99.4651 19.214 99.6518 19.606C99.8478 19.9887 100.109 20.292 100.436 20.516C100.772 20.74 101.154 20.852 101.584 20.852ZM112.575 14.58C112.78 14.58 112.948 14.65 113.079 14.79C113.21 14.9207 113.275 15.0887 113.275 15.294V21.314C113.275 22.1353 113.116 22.8027 112.799 23.316C112.491 23.8293 112.071 24.2027 111.539 24.436C111.016 24.6787 110.424 24.8 109.761 24.8C109.425 24.8 109.089 24.7673 108.753 24.702C108.417 24.646 108.142 24.562 107.927 24.45C107.703 24.3473 107.544 24.2213 107.451 24.072C107.358 23.9227 107.344 23.7593 107.409 23.582C107.474 23.358 107.586 23.204 107.745 23.12C107.904 23.0453 108.067 23.0407 108.235 23.106C108.394 23.1713 108.604 23.2553 108.865 23.358C109.126 23.4607 109.425 23.512 109.761 23.512C110.218 23.512 110.606 23.4373 110.923 23.288C111.24 23.1387 111.478 22.9053 111.637 22.588C111.805 22.2707 111.889 21.86 111.889 21.356V20.39L112.113 20.726C111.964 21.034 111.768 21.2907 111.525 21.496C111.282 21.7013 110.993 21.86 110.657 21.972C110.33 22.084 109.966 22.14 109.565 22.14C109.052 22.14 108.608 22.028 108.235 21.804C107.871 21.5707 107.591 21.2533 107.395 20.852C107.199 20.4413 107.101 19.9747 107.101 19.452V15.294C107.101 15.0887 107.166 14.9207 107.297 14.79C107.428 14.65 107.596 14.58 107.801 14.58C107.997 14.58 108.16 14.65 108.291 14.79C108.431 14.9207 108.501 15.0887 108.501 15.294V19.074C108.501 19.69 108.636 20.1427 108.907 20.432C109.178 20.712 109.579 20.852 110.111 20.852C110.466 20.852 110.774 20.7773 111.035 20.628C111.296 20.4787 111.502 20.2733 111.651 20.012C111.8 19.7413 111.875 19.4287 111.875 19.074V15.294C111.875 15.0887 111.94 14.9207 112.071 14.79C112.211 14.65 112.379 14.58 112.575 14.58ZM120.644 21.286C120.644 21.4913 120.574 21.664 120.434 21.804C120.304 21.9347 120.14 22 119.944 22C119.748 22 119.58 21.9347 119.44 21.804C119.31 21.664 119.244 21.4913 119.244 21.286V12.354C119.244 12.1487 119.314 11.9807 119.454 11.85C119.594 11.71 119.762 11.64 119.958 11.64C120.164 11.64 120.327 11.71 120.448 11.85C120.579 11.9807 120.644 12.1487 120.644 12.354V21.286ZM128.762 14.524C128.967 14.524 129.135 14.594 129.266 14.734C129.397 14.8647 129.462 15.0327 129.462 15.238V21.286C129.462 21.4913 129.397 21.664 129.266 21.804C129.135 21.9347 128.967 22 128.762 22C128.566 22 128.398 21.9347 128.258 21.804C128.127 21.664 128.062 21.4913 128.062 21.286V20.278L128.356 20.32C128.356 20.488 128.286 20.6747 128.146 20.88C128.015 21.0853 127.833 21.286 127.6 21.482C127.367 21.6687 127.091 21.8273 126.774 21.958C126.457 22.0793 126.116 22.14 125.752 22.14C125.108 22.14 124.529 21.9767 124.016 21.65C123.503 21.314 123.097 20.8567 122.798 20.278C122.499 19.6993 122.35 19.0413 122.35 18.304C122.35 17.548 122.499 16.8853 122.798 16.316C123.097 15.7373 123.498 15.2847 124.002 14.958C124.515 14.6313 125.085 14.468 125.71 14.468C126.111 14.468 126.48 14.5333 126.816 14.664C127.161 14.7947 127.46 14.9627 127.712 15.168C127.964 15.3733 128.155 15.5927 128.286 15.826C128.426 16.05 128.496 16.2647 128.496 16.47L128.062 16.512V15.238C128.062 15.042 128.127 14.874 128.258 14.734C128.398 14.594 128.566 14.524 128.762 14.524ZM125.906 20.852C126.345 20.852 126.732 20.74 127.068 20.516C127.404 20.292 127.665 19.9887 127.852 19.606C128.039 19.214 128.132 18.78 128.132 18.304C128.132 17.8187 128.039 17.3847 127.852 17.002C127.665 16.6193 127.404 16.316 127.068 16.092C126.732 15.868 126.345 15.756 125.906 15.756C125.477 15.756 125.094 15.868 124.758 16.092C124.431 16.316 124.17 16.6193 123.974 17.002C123.787 17.3847 123.694 17.8187 123.694 18.304C123.694 18.78 123.787 19.214 123.974 19.606C124.17 19.9887 124.431 20.292 124.758 20.516C125.094 20.74 125.477 20.852 125.906 20.852ZM131.325 14.72H134.615C134.802 14.72 134.956 14.7853 135.077 14.916C135.208 15.0373 135.273 15.1913 135.273 15.378C135.273 15.5553 135.208 15.7047 135.077 15.826C134.956 15.9473 134.802 16.008 134.615 16.008H131.325C131.139 16.008 130.98 15.9473 130.849 15.826C130.728 15.6953 130.667 15.5413 130.667 15.364C130.667 15.1773 130.728 15.0233 130.849 14.902C130.98 14.7807 131.139 14.72 131.325 14.72ZM132.795 12.9C133.001 12.9 133.169 12.97 133.299 13.11C133.43 13.2407 133.495 13.4087 133.495 13.614V20.11C133.495 20.278 133.523 20.4133 133.579 20.516C133.635 20.6187 133.71 20.6887 133.803 20.726C133.906 20.7633 134.009 20.782 134.111 20.782C134.214 20.782 134.303 20.7633 134.377 20.726C134.461 20.6887 134.559 20.67 134.671 20.67C134.783 20.67 134.886 20.7213 134.979 20.824C135.073 20.9267 135.119 21.0667 135.119 21.244C135.119 21.468 134.998 21.65 134.755 21.79C134.513 21.93 134.251 22 133.971 22C133.813 22 133.626 21.986 133.411 21.958C133.197 21.93 132.987 21.86 132.781 21.748C132.585 21.636 132.422 21.4587 132.291 21.216C132.161 20.964 132.095 20.614 132.095 20.166V13.614C132.095 13.4087 132.161 13.2407 132.291 13.11C132.431 12.97 132.599 12.9 132.795 12.9ZM140.185 22.14C139.411 22.14 138.739 21.9813 138.169 21.664C137.6 21.3373 137.157 20.894 136.839 20.334C136.531 19.7647 136.377 19.116 136.377 18.388C136.377 17.5667 136.541 16.8667 136.867 16.288C137.203 15.7 137.637 15.252 138.169 14.944C138.701 14.6267 139.266 14.468 139.863 14.468C140.321 14.468 140.755 14.5613 141.165 14.748C141.576 14.9253 141.94 15.1773 142.257 15.504C142.584 15.8213 142.841 16.1993 143.027 16.638C143.214 17.0673 143.312 17.5387 143.321 18.052C143.312 18.2387 143.237 18.3927 143.097 18.514C142.957 18.6353 142.794 18.696 142.607 18.696H137.161L136.825 17.506H142.089L141.823 17.758V17.408C141.805 17.0813 141.697 16.7967 141.501 16.554C141.305 16.302 141.063 16.1107 140.773 15.98C140.484 15.84 140.181 15.77 139.863 15.77C139.583 15.77 139.313 15.8167 139.051 15.91C138.799 15.994 138.571 16.134 138.365 16.33C138.169 16.526 138.011 16.7873 137.889 17.114C137.777 17.4313 137.721 17.828 137.721 18.304C137.721 18.8173 137.829 19.2653 138.043 19.648C138.258 20.0307 138.547 20.3293 138.911 20.544C139.275 20.7493 139.677 20.852 140.115 20.852C140.461 20.852 140.745 20.8193 140.969 20.754C141.193 20.6793 141.38 20.5907 141.529 20.488C141.679 20.3853 141.809 20.2873 141.921 20.194C142.061 20.11 142.201 20.068 142.341 20.068C142.509 20.068 142.649 20.1287 142.761 20.25C142.873 20.362 142.929 20.4973 142.929 20.656C142.929 20.8613 142.827 21.048 142.621 21.216C142.369 21.4587 142.019 21.6733 141.571 21.86C141.133 22.0467 140.671 22.14 140.185 22.14ZM145.604 22C145.398 22 145.23 21.9347 145.1 21.804C144.969 21.664 144.904 21.4913 144.904 21.286V15.35C144.904 15.1447 144.969 14.9767 145.1 14.846C145.23 14.706 145.398 14.636 145.604 14.636C145.8 14.636 145.963 14.706 146.094 14.846C146.234 14.9767 146.304 15.1447 146.304 15.35V16.918L146.164 16.316C146.238 16.0547 146.35 15.812 146.5 15.588C146.658 15.364 146.845 15.168 147.06 15C147.274 14.832 147.512 14.7013 147.774 14.608C148.044 14.5147 148.324 14.468 148.614 14.468C148.856 14.468 149.066 14.5333 149.244 14.664C149.421 14.7947 149.51 14.958 149.51 15.154C149.51 15.406 149.444 15.5927 149.314 15.714C149.183 15.826 149.038 15.882 148.88 15.882C148.74 15.882 148.604 15.854 148.474 15.798C148.343 15.7327 148.189 15.7 148.012 15.7C147.816 15.7 147.615 15.7513 147.41 15.854C147.204 15.9567 147.018 16.1107 146.85 16.316C146.682 16.512 146.546 16.7453 146.444 17.016C146.35 17.2867 146.304 17.59 146.304 17.926V21.286C146.304 21.4913 146.234 21.664 146.094 21.804C145.963 21.9347 145.8 22 145.604 22Z" fill="#161117"/>
</svg>
