<svg width="116" height="27" viewBox="0 0 116 27" fill="none" xmlns="http://www.w3.org/2000/svg">
<rect x="0.75" y="0.75" width="114.5" height="25.5" rx="12.75" fill="white"/>
<rect x="0.75" y="0.75" width="114.5" height="25.5" rx="12.75" stroke="#E9E9E9" stroke-width="1.5"/>
<path d="M17.492 10.7C18.044 10.7 18.461 10.835 18.743 11.105C19.031 11.375 19.175 11.768 19.175 12.284C19.175 12.554 19.109 12.8 18.977 13.022C18.851 13.238 18.662 13.409 18.41 13.535C18.164 13.661 17.855 13.727 17.483 13.733L17.501 13.4C17.699 13.4 17.912 13.427 18.14 13.481C18.374 13.535 18.593 13.628 18.797 13.76C19.001 13.892 19.169 14.072 19.301 14.3C19.433 14.522 19.499 14.801 19.499 15.137C19.499 15.503 19.439 15.809 19.319 16.055C19.199 16.295 19.04 16.484 18.842 16.622C18.644 16.76 18.425 16.859 18.185 16.919C17.951 16.973 17.72 17 17.492 17H15.188C15.062 17 14.954 16.958 14.864 16.874C14.774 16.784 14.729 16.673 14.729 16.541V11.159C14.729 11.027 14.774 10.919 14.864 10.835C14.954 10.745 15.062 10.7 15.188 10.7H17.492ZM17.366 11.582H15.593L15.701 11.438V13.373L15.602 13.274H17.384C17.6 13.268 17.789 13.196 17.951 13.058C18.119 12.914 18.203 12.704 18.203 12.428C18.203 12.146 18.128 11.936 17.978 11.798C17.828 11.654 17.624 11.582 17.366 11.582ZM17.429 14.156H15.638L15.701 14.093V16.217L15.629 16.136H17.483C17.795 16.136 18.047 16.055 18.239 15.893C18.431 15.725 18.527 15.473 18.527 15.137C18.527 14.855 18.47 14.645 18.356 14.507C18.242 14.369 18.101 14.276 17.933 14.228C17.765 14.18 17.597 14.156 17.429 14.156ZM25.0459 14.633C25.0459 15.113 24.9409 15.539 24.7309 15.911C24.5209 16.277 24.2359 16.565 23.8759 16.775C23.5159 16.985 23.1109 17.09 22.6609 17.09C22.2109 17.09 21.8059 16.985 21.4459 16.775C21.0859 16.565 20.7979 16.277 20.5819 15.911C20.3719 15.539 20.2669 15.113 20.2669 14.633C20.2669 14.147 20.3719 13.721 20.5819 13.355C20.7979 12.983 21.0859 12.692 21.4459 12.482C21.8059 12.266 22.2109 12.158 22.6609 12.158C23.1109 12.158 23.5159 12.266 23.8759 12.482C24.2359 12.692 24.5209 12.983 24.7309 13.355C24.9409 13.721 25.0459 14.147 25.0459 14.633ZM24.1459 14.633C24.1459 14.303 24.0799 14.018 23.9479 13.778C23.8159 13.532 23.6359 13.34 23.4079 13.202C23.1859 13.058 22.9369 12.986 22.6609 12.986C22.3849 12.986 22.1329 13.058 21.9049 13.202C21.6769 13.34 21.4969 13.532 21.3649 13.778C21.2329 14.018 21.1669 14.303 21.1669 14.633C21.1669 14.951 21.2329 15.233 21.3649 15.479C21.4969 15.725 21.6769 15.917 21.9049 16.055C22.1329 16.193 22.3849 16.262 22.6609 16.262C22.9369 16.262 23.1859 16.193 23.4079 16.055C23.6359 15.917 23.8159 15.725 23.9479 15.479C24.0799 15.233 24.1459 14.951 24.1459 14.633ZM30.6006 14.633C30.6006 15.113 30.4956 15.539 30.2856 15.911C30.0756 16.277 29.7906 16.565 29.4306 16.775C29.0706 16.985 28.6656 17.09 28.2156 17.09C27.7656 17.09 27.3606 16.985 27.0006 16.775C26.6406 16.565 26.3526 16.277 26.1366 15.911C25.9266 15.539 25.8216 15.113 25.8216 14.633C25.8216 14.147 25.9266 13.721 26.1366 13.355C26.3526 12.983 26.6406 12.692 27.0006 12.482C27.3606 12.266 27.7656 12.158 28.2156 12.158C28.6656 12.158 29.0706 12.266 29.4306 12.482C29.7906 12.692 30.0756 12.983 30.2856 13.355C30.4956 13.721 30.6006 14.147 30.6006 14.633ZM29.7006 14.633C29.7006 14.303 29.6346 14.018 29.5026 13.778C29.3706 13.532 29.1906 13.34 28.9626 13.202C28.7406 13.058 28.4916 12.986 28.2156 12.986C27.9396 12.986 27.6876 13.058 27.4596 13.202C27.2316 13.34 27.0516 13.532 26.9196 13.778C26.7876 14.018 26.7216 14.303 26.7216 14.633C26.7216 14.951 26.7876 15.233 26.9196 15.479C27.0516 15.725 27.2316 15.917 27.4596 16.055C27.6876 16.193 27.9396 16.262 28.2156 16.262C28.4916 16.262 28.7406 16.193 28.9626 16.055C29.1906 15.917 29.3706 15.725 29.5026 15.479C29.6346 15.233 29.7006 14.951 29.7006 14.633ZM32.1413 17C32.0153 17 31.9073 16.958 31.8173 16.874C31.7333 16.784 31.6913 16.673 31.6913 16.541V10.799C31.6913 10.667 31.7333 10.559 31.8173 10.475C31.9073 10.385 32.0153 10.34 32.1413 10.34C32.2733 10.34 32.3813 10.385 32.4653 10.475C32.5493 10.559 32.5913 10.667 32.5913 10.799V16.541C32.5913 16.673 32.5493 16.784 32.4653 16.874C32.3813 16.958 32.2733 17 32.1413 17ZM35.0753 12.248C35.1893 12.248 35.2883 12.296 35.3723 12.392C35.4563 12.488 35.4983 12.584 35.4983 12.68C35.4983 12.8 35.4413 12.911 35.3273 13.013L32.5103 15.533L32.4743 14.498L34.7423 12.392C34.8383 12.296 34.9493 12.248 35.0753 12.248ZM35.1833 16.991C35.0573 16.991 34.9493 16.94 34.8593 16.838L33.0593 14.939L33.7433 14.309L35.4983 16.208C35.5943 16.31 35.6423 16.424 35.6423 16.55C35.6423 16.682 35.5883 16.79 35.4803 16.874C35.3783 16.952 35.2793 16.991 35.1833 16.991ZM43.9667 10.7C44.0867 10.7 44.1827 10.742 44.2547 10.826C44.3327 10.904 44.3717 11.003 44.3717 11.123V16.541C44.3717 16.673 44.3267 16.784 44.2367 16.874C44.1527 16.958 44.0447 17 43.9127 17C43.8527 17 43.7867 16.988 43.7147 16.964C43.6487 16.94 43.5977 16.907 43.5617 16.865L39.8627 12.068L40.0697 11.951V16.586C40.0697 16.7 40.0307 16.799 39.9527 16.883C39.8747 16.961 39.7757 17 39.6557 17C39.5297 17 39.4277 16.961 39.3497 16.883C39.2777 16.799 39.2417 16.7 39.2417 16.586V11.159C39.2417 11.021 39.2867 10.91 39.3767 10.826C39.4667 10.742 39.5747 10.7 39.7007 10.7C39.7667 10.7 39.8357 10.715 39.9077 10.745C39.9857 10.769 40.0427 10.808 40.0787 10.862L43.6877 15.56L43.5527 15.686V11.123C43.5527 11.003 43.5917 10.904 43.6697 10.826C43.7477 10.742 43.8467 10.7 43.9667 10.7ZM50.2793 14.633C50.2793 15.113 50.1743 15.539 49.9643 15.911C49.7543 16.277 49.4693 16.565 49.1093 16.775C48.7493 16.985 48.3443 17.09 47.8943 17.09C47.4443 17.09 47.0393 16.985 46.6793 16.775C46.3193 16.565 46.0313 16.277 45.8153 15.911C45.6053 15.539 45.5003 15.113 45.5003 14.633C45.5003 14.147 45.6053 13.721 45.8153 13.355C46.0313 12.983 46.3193 12.692 46.6793 12.482C47.0393 12.266 47.4443 12.158 47.8943 12.158C48.3443 12.158 48.7493 12.266 49.1093 12.482C49.4693 12.692 49.7543 12.983 49.9643 13.355C50.1743 13.721 50.2793 14.147 50.2793 14.633ZM49.3793 14.633C49.3793 14.303 49.3133 14.018 49.1813 13.778C49.0493 13.532 48.8693 13.34 48.6413 13.202C48.4193 13.058 48.1703 12.986 47.8943 12.986C47.6183 12.986 47.3663 13.058 47.1383 13.202C46.9103 13.34 46.7303 13.532 46.5983 13.778C46.4663 14.018 46.4003 14.303 46.4003 14.633C46.4003 14.951 46.4663 15.233 46.5983 15.479C46.7303 15.725 46.9103 15.917 47.1383 16.055C47.3663 16.193 47.6183 16.262 47.8943 16.262C48.1703 16.262 48.4193 16.193 48.6413 16.055C48.8693 15.917 49.0493 15.725 49.1813 15.479C49.3133 15.233 49.3793 14.951 49.3793 14.633ZM56.815 12.221C56.929 12.221 57.028 12.266 57.112 12.356C57.202 12.44 57.247 12.551 57.247 12.689C57.247 12.719 57.244 12.749 57.238 12.779C57.232 12.809 57.223 12.836 57.211 12.86L55.834 16.712C55.798 16.814 55.735 16.892 55.645 16.946C55.555 16.994 55.462 17.012 55.366 17C55.192 16.988 55.063 16.892 54.979 16.712L53.962 14.012L54.169 14.03L53.233 16.712C53.149 16.892 53.02 16.988 52.846 17C52.756 17.012 52.663 16.994 52.567 16.946C52.477 16.892 52.414 16.814 52.378 16.712L50.992 12.86C50.968 12.806 50.956 12.749 50.956 12.689C50.956 12.563 50.995 12.455 51.073 12.365C51.157 12.269 51.268 12.221 51.406 12.221C51.502 12.221 51.586 12.245 51.658 12.293C51.736 12.341 51.79 12.413 51.82 12.509L52.972 15.758L52.765 15.74L53.701 13.283C53.779 13.097 53.917 13.004 54.115 13.004C54.223 13.004 54.307 13.028 54.367 13.076C54.427 13.124 54.475 13.193 54.511 13.283L55.465 15.749L55.222 15.776L56.383 12.509C56.443 12.317 56.587 12.221 56.815 12.221ZM59.3142 16.973C59.3142 17.159 59.2602 17.345 59.1522 17.531C59.0442 17.717 58.9092 17.87 58.7472 17.99C58.5852 18.116 58.4142 18.179 58.2342 18.179C58.1742 18.179 58.1112 18.155 58.0452 18.107C57.9852 18.065 57.9552 17.984 57.9552 17.864C57.9552 17.744 57.9912 17.672 58.0632 17.648C58.1412 17.63 58.2162 17.603 58.2882 17.567C58.3722 17.525 58.4382 17.471 58.4862 17.405C58.5342 17.345 58.5582 17.273 58.5582 17.189C58.5582 17.117 58.5282 17.057 58.4682 17.009C58.4142 16.961 58.3422 16.937 58.2522 16.937C58.2162 16.937 58.1742 16.943 58.1262 16.955C58.0842 16.961 58.0452 16.976 58.0092 17C57.9552 16.97 57.9102 16.934 57.8742 16.892C57.8382 16.85 57.8202 16.787 57.8202 16.703C57.8262 16.547 57.9012 16.412 58.0452 16.298C58.1952 16.178 58.3662 16.118 58.5582 16.118C58.7862 16.118 58.9692 16.199 59.1072 16.361C59.2452 16.523 59.3142 16.727 59.3142 16.973ZM65.5365 10.7C65.8545 10.7 66.1485 10.787 66.4185 10.961C66.6885 11.129 66.9045 11.36 67.0665 11.654C67.2285 11.948 67.3095 12.278 67.3095 12.644C67.3095 13.01 67.2285 13.343 67.0665 13.643C66.9045 13.937 66.6885 14.174 66.4185 14.354C66.1485 14.528 65.8545 14.615 65.5365 14.615H63.7995L63.8715 14.471V16.541C63.8715 16.673 63.8295 16.784 63.7455 16.874C63.6675 16.958 63.5625 17 63.4305 17C63.3045 17 63.1995 16.958 63.1155 16.874C63.0375 16.784 62.9985 16.673 62.9985 16.541V11.159C62.9985 11.027 63.0435 10.919 63.1335 10.835C63.2235 10.745 63.3315 10.7 63.4575 10.7H65.5365ZM65.5365 13.751C65.6925 13.751 65.8335 13.7 65.9595 13.598C66.0915 13.496 66.1965 13.361 66.2745 13.193C66.3585 13.025 66.4005 12.842 66.4005 12.644C66.4005 12.446 66.3585 12.266 66.2745 12.104C66.1965 11.942 66.0915 11.813 65.9595 11.717C65.8335 11.615 65.6925 11.564 65.5365 11.564H63.7815L63.8715 11.429V13.868L63.7905 13.751H65.5365ZM72.1399 12.194C72.2719 12.194 72.3799 12.239 72.4639 12.329C72.5479 12.413 72.5899 12.521 72.5899 12.653V16.541C72.5899 16.673 72.5479 16.784 72.4639 16.874C72.3799 16.958 72.2719 17 72.1399 17C72.0139 17 71.9059 16.958 71.8159 16.874C71.7319 16.784 71.6899 16.673 71.6899 16.541V15.893L71.8789 15.92C71.8789 16.028 71.8339 16.148 71.7439 16.28C71.6599 16.412 71.5429 16.541 71.3929 16.667C71.2429 16.787 71.0659 16.889 70.8619 16.973C70.6579 17.051 70.4389 17.09 70.2049 17.09C69.7909 17.09 69.4189 16.985 69.0889 16.775C68.7589 16.559 68.4979 16.265 68.3059 15.893C68.1139 15.521 68.0179 15.098 68.0179 14.624C68.0179 14.138 68.1139 13.712 68.3059 13.346C68.4979 12.974 68.7559 12.683 69.0799 12.473C69.4099 12.263 69.7759 12.158 70.1779 12.158C70.4359 12.158 70.6729 12.2 70.8889 12.284C71.1109 12.368 71.3029 12.476 71.4649 12.608C71.6269 12.74 71.7499 12.881 71.8339 13.031C71.9239 13.175 71.9689 13.313 71.9689 13.445L71.6899 13.472V12.653C71.6899 12.527 71.7319 12.419 71.8159 12.329C71.9059 12.239 72.0139 12.194 72.1399 12.194ZM70.3039 16.262C70.5859 16.262 70.8349 16.19 71.0509 16.046C71.2669 15.902 71.4349 15.707 71.5549 15.461C71.6749 15.209 71.7349 14.93 71.7349 14.624C71.7349 14.312 71.6749 14.033 71.5549 13.787C71.4349 13.541 71.2669 13.346 71.0509 13.202C70.8349 13.058 70.5859 12.986 70.3039 12.986C70.0279 12.986 69.7819 13.058 69.5659 13.202C69.3559 13.346 69.1879 13.541 69.0619 13.787C68.9419 14.033 68.8819 14.312 68.8819 14.624C68.8819 14.93 68.9419 15.209 69.0619 15.461C69.1879 15.707 69.3559 15.902 69.5659 16.046C69.7819 16.19 70.0279 16.262 70.3039 16.262ZM77.3697 12.23C77.5017 12.23 77.6097 12.275 77.6937 12.365C77.7777 12.449 77.8197 12.557 77.8197 12.689V16.559C77.8197 17.087 77.7177 17.516 77.5137 17.846C77.3157 18.176 77.0457 18.416 76.7037 18.566C76.3677 18.722 75.9867 18.8 75.5607 18.8C75.3447 18.8 75.1287 18.779 74.9127 18.737C74.6967 18.701 74.5197 18.647 74.3817 18.575C74.2377 18.509 74.1357 18.428 74.0757 18.332C74.0157 18.236 74.0067 18.131 74.0487 18.017C74.0907 17.873 74.1627 17.774 74.2647 17.72C74.3667 17.672 74.4717 17.669 74.5797 17.711C74.6817 17.753 74.8167 17.807 74.9847 17.873C75.1527 17.939 75.3447 17.972 75.5607 17.972C75.8547 17.972 76.1037 17.924 76.3077 17.828C76.5117 17.732 76.6647 17.582 76.7667 17.378C76.8747 17.174 76.9287 16.91 76.9287 16.586V15.965L77.0727 16.181C76.9767 16.379 76.8507 16.544 76.6947 16.676C76.5387 16.808 76.3527 16.91 76.1367 16.982C75.9267 17.054 75.6927 17.09 75.4347 17.09C75.1047 17.09 74.8197 17.018 74.5797 16.874C74.3457 16.724 74.1657 16.52 74.0397 16.262C73.9137 15.998 73.8507 15.698 73.8507 15.362V12.689C73.8507 12.557 73.8927 12.449 73.9767 12.365C74.0607 12.275 74.1687 12.23 74.3007 12.23C74.4267 12.23 74.5317 12.275 74.6157 12.365C74.7057 12.449 74.7507 12.557 74.7507 12.689V15.119C74.7507 15.515 74.8377 15.806 75.0117 15.992C75.1857 16.172 75.4437 16.262 75.7857 16.262C76.0137 16.262 76.2117 16.214 76.3797 16.118C76.5477 16.022 76.6797 15.89 76.7757 15.722C76.8717 15.548 76.9197 15.347 76.9197 15.119V12.689C76.9197 12.557 76.9617 12.449 77.0457 12.365C77.1357 12.275 77.2437 12.23 77.3697 12.23ZM82.5571 16.541C82.5571 16.673 82.5121 16.784 82.4221 16.874C82.3381 16.958 82.2331 17 82.1071 17C81.9811 17 81.8731 16.958 81.7831 16.874C81.6991 16.784 81.6571 16.673 81.6571 16.541V10.799C81.6571 10.667 81.7021 10.559 81.7921 10.475C81.8821 10.385 81.9901 10.34 82.1161 10.34C82.2481 10.34 82.3531 10.385 82.4311 10.475C82.5151 10.559 82.5571 10.667 82.5571 10.799V16.541ZM87.7756 12.194C87.9076 12.194 88.0156 12.239 88.0996 12.329C88.1836 12.413 88.2256 12.521 88.2256 12.653V16.541C88.2256 16.673 88.1836 16.784 88.0996 16.874C88.0156 16.958 87.9076 17 87.7756 17C87.6496 17 87.5416 16.958 87.4516 16.874C87.3676 16.784 87.3256 16.673 87.3256 16.541V15.893L87.5146 15.92C87.5146 16.028 87.4696 16.148 87.3796 16.28C87.2956 16.412 87.1786 16.541 87.0286 16.667C86.8786 16.787 86.7016 16.889 86.4976 16.973C86.2936 17.051 86.0746 17.09 85.8406 17.09C85.4266 17.09 85.0546 16.985 84.7246 16.775C84.3946 16.559 84.1336 16.265 83.9416 15.893C83.7496 15.521 83.6536 15.098 83.6536 14.624C83.6536 14.138 83.7496 13.712 83.9416 13.346C84.1336 12.974 84.3916 12.683 84.7156 12.473C85.0456 12.263 85.4116 12.158 85.8136 12.158C86.0716 12.158 86.3086 12.2 86.5246 12.284C86.7466 12.368 86.9386 12.476 87.1006 12.608C87.2626 12.74 87.3856 12.881 87.4696 13.031C87.5596 13.175 87.6046 13.313 87.6046 13.445L87.3256 13.472V12.653C87.3256 12.527 87.3676 12.419 87.4516 12.329C87.5416 12.239 87.6496 12.194 87.7756 12.194ZM85.9396 16.262C86.2216 16.262 86.4706 16.19 86.6866 16.046C86.9026 15.902 87.0706 15.707 87.1906 15.461C87.3106 15.209 87.3706 14.93 87.3706 14.624C87.3706 14.312 87.3106 14.033 87.1906 13.787C87.0706 13.541 86.9026 13.346 86.6866 13.202C86.4706 13.058 86.2216 12.986 85.9396 12.986C85.6636 12.986 85.4176 13.058 85.2016 13.202C84.9916 13.346 84.8236 13.541 84.6976 13.787C84.5776 14.033 84.5176 14.312 84.5176 14.624C84.5176 14.93 84.5776 15.209 84.6976 15.461C84.8236 15.707 84.9916 15.902 85.2016 16.046C85.4176 16.19 85.6636 16.262 85.9396 16.262ZM89.4234 12.32H91.5384C91.6584 12.32 91.7574 12.362 91.8354 12.446C91.9194 12.524 91.9614 12.623 91.9614 12.743C91.9614 12.857 91.9194 12.953 91.8354 13.031C91.7574 13.109 91.6584 13.148 91.5384 13.148H89.4234C89.3034 13.148 89.2014 13.109 89.1174 13.031C89.0394 12.947 89.0004 12.848 89.0004 12.734C89.0004 12.614 89.0394 12.515 89.1174 12.437C89.2014 12.359 89.3034 12.32 89.4234 12.32ZM90.3684 11.15C90.5004 11.15 90.6084 11.195 90.6924 11.285C90.7764 11.369 90.8184 11.477 90.8184 11.609V15.785C90.8184 15.893 90.8364 15.98 90.8724 16.046C90.9084 16.112 90.9564 16.157 91.0164 16.181C91.0824 16.205 91.1484 16.217 91.2144 16.217C91.2804 16.217 91.3374 16.205 91.3854 16.181C91.4394 16.157 91.5024 16.145 91.5744 16.145C91.6464 16.145 91.7124 16.178 91.7724 16.244C91.8324 16.31 91.8624 16.4 91.8624 16.514C91.8624 16.658 91.7844 16.775 91.6284 16.865C91.4724 16.955 91.3044 17 91.1244 17C91.0224 17 90.9024 16.991 90.7644 16.973C90.6264 16.955 90.4914 16.91 90.3594 16.838C90.2334 16.766 90.1284 16.652 90.0444 16.496C89.9604 16.334 89.9184 16.109 89.9184 15.821V11.609C89.9184 11.477 89.9604 11.369 90.0444 11.285C90.1344 11.195 90.2424 11.15 90.3684 11.15ZM95.1192 17.09C94.6212 17.09 94.1892 16.988 93.8232 16.784C93.4572 16.574 93.1722 16.289 92.9682 15.929C92.7702 15.563 92.6712 15.146 92.6712 14.678C92.6712 14.15 92.7762 13.7 92.9862 13.328C93.2022 12.95 93.4812 12.662 93.8232 12.464C94.1652 12.26 94.5282 12.158 94.9122 12.158C95.2062 12.158 95.4852 12.218 95.7492 12.338C96.0132 12.452 96.2472 12.614 96.4512 12.824C96.6612 13.028 96.8262 13.271 96.9462 13.553C97.0662 13.829 97.1292 14.132 97.1352 14.462C97.1292 14.582 97.0812 14.681 96.9912 14.759C96.9012 14.837 96.7962 14.876 96.6762 14.876H93.1752L92.9592 14.111H96.3432L96.1722 14.273V14.048C96.1602 13.838 96.0912 13.655 95.9652 13.499C95.8392 13.337 95.6832 13.214 95.4972 13.13C95.3112 13.04 95.1162 12.995 94.9122 12.995C94.7322 12.995 94.5582 13.025 94.3902 13.085C94.2282 13.139 94.0812 13.229 93.9492 13.355C93.8232 13.481 93.7212 13.649 93.6432 13.859C93.5712 14.063 93.5352 14.318 93.5352 14.624C93.5352 14.954 93.6042 15.242 93.7422 15.488C93.8802 15.734 94.0662 15.926 94.3002 16.064C94.5342 16.196 94.7922 16.262 95.0742 16.262C95.2962 16.262 95.4792 16.241 95.6232 16.199C95.7672 16.151 95.8872 16.094 95.9832 16.028C96.0792 15.962 96.1632 15.899 96.2352 15.839C96.3252 15.785 96.4152 15.758 96.5052 15.758C96.6132 15.758 96.7032 15.797 96.7752 15.875C96.8472 15.947 96.8832 16.034 96.8832 16.136C96.8832 16.268 96.8172 16.388 96.6852 16.496C96.5232 16.652 96.2982 16.79 96.0102 16.91C95.7282 17.03 95.4312 17.09 95.1192 17.09ZM98.6025 17C98.4705 17 98.3625 16.958 98.2785 16.874C98.1945 16.784 98.1525 16.673 98.1525 16.541V12.725C98.1525 12.593 98.1945 12.485 98.2785 12.401C98.3625 12.311 98.4705 12.266 98.6025 12.266C98.7285 12.266 98.8335 12.311 98.9175 12.401C99.0075 12.485 99.0525 12.593 99.0525 12.725V13.733L98.9625 13.346C99.0105 13.178 99.0825 13.022 99.1785 12.878C99.2805 12.734 99.4005 12.608 99.5385 12.5C99.6765 12.392 99.8295 12.308 99.9975 12.248C100.171 12.188 100.351 12.158 100.537 12.158C100.693 12.158 100.828 12.2 100.942 12.284C101.056 12.368 101.113 12.473 101.113 12.599C101.113 12.761 101.071 12.881 100.987 12.959C100.903 13.031 100.81 13.067 100.708 13.067C100.618 13.067 100.531 13.049 100.447 13.013C100.363 12.971 100.264 12.95 100.15 12.95C100.024 12.95 99.8955 12.983 99.7635 13.049C99.6315 13.115 99.5115 13.214 99.4035 13.346C99.2955 13.472 99.2085 13.622 99.1425 13.796C99.0825 13.97 99.0525 14.165 99.0525 14.381V16.541C99.0525 16.673 99.0075 16.784 98.9175 16.874C98.8335 16.958 98.7285 17 98.6025 17Z" fill="#161117"/>
</svg>
