<svg width="269" height="48" viewBox="0 0 269 48" fill="none" xmlns="http://www.w3.org/2000/svg">
<rect width="269" height="48" rx="15" fill="#34967C"/>
<path d="M102.355 20.674C102.545 20.7693 102.655 20.9197 102.685 21.125C102.721 21.3303 102.67 21.5173 102.531 21.686C102.435 21.818 102.311 21.8913 102.157 21.906C102.01 21.9207 101.86 21.8913 101.706 21.818C101.53 21.7373 101.343 21.675 101.145 21.631C100.954 21.587 100.752 21.565 100.54 21.565C100.144 21.565 99.788 21.6273 99.4726 21.752C99.1646 21.8767 98.9006 22.0563 98.6806 22.291C98.4606 22.5183 98.292 22.7897 98.1746 23.105C98.0646 23.4203 98.0096 23.7687 98.0096 24.15C98.0096 24.5973 98.072 24.986 98.1966 25.316C98.3286 25.646 98.5083 25.921 98.7356 26.141C98.963 26.361 99.2306 26.526 99.5386 26.636C99.8466 26.7387 100.18 26.79 100.54 26.79C100.738 26.79 100.936 26.7717 101.134 26.735C101.332 26.6983 101.522 26.6323 101.706 26.537C101.86 26.4637 102.01 26.438 102.157 26.46C102.311 26.482 102.439 26.559 102.542 26.691C102.688 26.8743 102.74 27.065 102.696 27.263C102.659 27.4537 102.549 27.593 102.366 27.681C102.175 27.7763 101.977 27.857 101.772 27.923C101.574 27.9817 101.372 28.0257 101.167 28.055C100.961 28.0917 100.752 28.11 100.54 28.11C100.012 28.11 99.5093 28.0257 99.0326 27.857C98.5633 27.6883 98.1416 27.439 97.7676 27.109C97.401 26.779 97.1113 26.3683 96.8986 25.877C96.686 25.3783 96.5796 24.8027 96.5796 24.15C96.5796 23.5853 96.675 23.0647 96.8656 22.588C97.0636 22.1113 97.3386 21.7007 97.6906 21.356C98.05 21.004 98.4716 20.7327 98.9556 20.542C99.4396 20.344 99.9676 20.245 100.54 20.245C100.862 20.245 101.178 20.2817 101.486 20.355C101.794 20.4283 102.083 20.5347 102.355 20.674ZM109.46 25.063C109.46 25.6643 109.324 26.196 109.053 26.658C108.789 27.1127 108.43 27.4683 107.975 27.725C107.528 27.9817 107.025 28.11 106.468 28.11C105.911 28.11 105.405 27.9817 104.95 27.725C104.503 27.4683 104.143 27.1127 103.872 26.658C103.608 26.196 103.476 25.6643 103.476 25.063C103.476 24.4617 103.608 23.9337 103.872 23.479C104.143 23.017 104.503 22.6577 104.95 22.401C105.405 22.137 105.911 22.005 106.468 22.005C107.025 22.005 107.528 22.137 107.975 22.401C108.43 22.6577 108.789 23.017 109.053 23.479C109.324 23.9337 109.46 24.4617 109.46 25.063ZM108.14 25.063C108.14 24.689 108.063 24.3663 107.909 24.095C107.762 23.8163 107.561 23.6 107.304 23.446C107.055 23.292 106.776 23.215 106.468 23.215C106.16 23.215 105.878 23.292 105.621 23.446C105.372 23.6 105.17 23.8163 105.016 24.095C104.869 24.3663 104.796 24.689 104.796 25.063C104.796 25.4297 104.869 25.7523 105.016 26.031C105.17 26.3023 105.372 26.515 105.621 26.669C105.878 26.823 106.16 26.9 106.468 26.9C106.776 26.9 107.055 26.823 107.304 26.669C107.561 26.515 107.762 26.3023 107.909 26.031C108.063 25.7523 108.14 25.4297 108.14 25.063ZM113.761 22.005C114.304 22.005 114.715 22.1187 114.993 22.346C115.279 22.5733 115.474 22.8777 115.576 23.259C115.686 23.633 115.741 24.051 115.741 24.513V27.329C115.741 27.5197 115.679 27.681 115.554 27.813C115.43 27.9377 115.272 28 115.081 28C114.891 28 114.733 27.9377 114.608 27.813C114.484 27.681 114.421 27.5197 114.421 27.329V24.513C114.421 24.271 114.388 24.0547 114.322 23.864C114.264 23.666 114.154 23.5083 113.992 23.391C113.831 23.2737 113.6 23.215 113.299 23.215C113.006 23.215 112.757 23.2737 112.551 23.391C112.353 23.5083 112.199 23.666 112.089 23.864C111.987 24.0547 111.935 24.271 111.935 24.513V27.329C111.935 27.5197 111.873 27.681 111.748 27.813C111.624 27.9377 111.466 28 111.275 28C111.085 28 110.927 27.9377 110.802 27.813C110.678 27.681 110.615 27.5197 110.615 27.329V22.786C110.615 22.5953 110.678 22.4377 110.802 22.313C110.927 22.181 111.085 22.115 111.275 22.115C111.466 22.115 111.624 22.181 111.748 22.313C111.873 22.4377 111.935 22.5953 111.935 22.786V23.259L111.77 23.226C111.836 23.1013 111.932 22.9693 112.056 22.83C112.181 22.6833 112.328 22.5477 112.496 22.423C112.665 22.2983 112.856 22.1993 113.068 22.126C113.281 22.0453 113.512 22.005 113.761 22.005ZM120.193 19.86C120.354 19.86 120.512 19.882 120.666 19.926C120.82 19.97 120.948 20.0433 121.051 20.146C121.154 20.2413 121.205 20.3697 121.205 20.531C121.205 20.7143 121.15 20.861 121.04 20.971C120.937 21.0737 120.816 21.125 120.677 21.125C120.611 21.125 120.512 21.1103 120.38 21.081C120.248 21.0443 120.12 21.026 119.995 21.026C119.812 21.026 119.669 21.0663 119.566 21.147C119.471 21.2277 119.405 21.323 119.368 21.433C119.331 21.5357 119.313 21.6273 119.313 21.708V27.329C119.313 27.5197 119.251 27.681 119.126 27.813C119.001 27.9377 118.844 28 118.653 28C118.462 28 118.305 27.9377 118.18 27.813C118.055 27.681 117.993 27.5197 117.993 27.329V21.719C117.993 21.1983 118.176 20.7583 118.543 20.399C118.91 20.0397 119.46 19.86 120.193 19.86ZM120.314 22.225C120.49 22.225 120.637 22.2837 120.754 22.401C120.871 22.511 120.93 22.654 120.93 22.83C120.93 23.006 120.871 23.1527 120.754 23.27C120.637 23.38 120.49 23.435 120.314 23.435H117.399C117.223 23.435 117.076 23.38 116.959 23.27C116.842 23.1527 116.783 23.006 116.783 22.83C116.783 22.654 116.842 22.511 116.959 22.401C117.076 22.2837 117.223 22.225 117.399 22.225H120.314ZM123.218 27.329C123.218 27.5197 123.156 27.681 123.031 27.813C122.906 27.9377 122.749 28 122.558 28C122.367 28 122.21 27.9377 122.085 27.813C121.96 27.681 121.898 27.5197 121.898 27.329V22.786C121.898 22.5953 121.96 22.4377 122.085 22.313C122.21 22.181 122.367 22.115 122.558 22.115C122.749 22.115 122.906 22.181 123.031 22.313C123.156 22.4377 123.218 22.5953 123.218 22.786V27.329ZM122.547 21.4C122.298 21.4 122.122 21.3597 122.019 21.279C121.916 21.1983 121.865 21.0553 121.865 20.85V20.641C121.865 20.4283 121.92 20.2853 122.03 20.212C122.147 20.1313 122.323 20.091 122.558 20.091C122.815 20.091 122.994 20.1313 123.097 20.212C123.2 20.2927 123.251 20.4357 123.251 20.641V20.85C123.251 21.0627 123.196 21.2093 123.086 21.29C122.976 21.3633 122.796 21.4 122.547 21.4ZM125.229 28C125.039 28 124.881 27.9377 124.756 27.813C124.632 27.681 124.569 27.5197 124.569 27.329V22.786C124.569 22.5953 124.632 22.4377 124.756 22.313C124.881 22.181 125.039 22.115 125.229 22.115C125.42 22.115 125.578 22.181 125.702 22.313C125.827 22.4377 125.889 22.5953 125.889 22.786V23.82L125.812 23.083C125.893 22.907 125.996 22.753 126.12 22.621C126.252 22.4817 126.399 22.368 126.56 22.28C126.722 22.1847 126.894 22.115 127.077 22.071C127.261 22.027 127.444 22.005 127.627 22.005C127.847 22.005 128.031 22.0673 128.177 22.192C128.331 22.3167 128.408 22.4633 128.408 22.632C128.408 22.874 128.346 23.05 128.221 23.16C128.097 23.2627 127.961 23.314 127.814 23.314C127.675 23.314 127.547 23.2883 127.429 23.237C127.319 23.1857 127.191 23.16 127.044 23.16C126.912 23.16 126.777 23.193 126.637 23.259C126.505 23.3177 126.381 23.413 126.263 23.545C126.153 23.677 126.062 23.842 125.988 24.04C125.922 24.2307 125.889 24.458 125.889 24.722V27.329C125.889 27.5197 125.827 27.681 125.702 27.813C125.578 27.9377 125.42 28 125.229 28ZM132.43 22.005C133.017 22.005 133.449 22.148 133.728 22.434C134.007 22.7127 134.19 23.0757 134.278 23.523L134.091 23.424L134.179 23.248C134.267 23.0793 134.403 22.8997 134.586 22.709C134.769 22.511 134.989 22.346 135.246 22.214C135.51 22.0747 135.803 22.005 136.126 22.005C136.654 22.005 137.054 22.1187 137.325 22.346C137.604 22.5733 137.794 22.8777 137.897 23.259C138 23.633 138.051 24.051 138.051 24.513V27.329C138.051 27.5197 137.989 27.681 137.864 27.813C137.739 27.9377 137.582 28 137.391 28C137.2 28 137.043 27.9377 136.918 27.813C136.793 27.681 136.731 27.5197 136.731 27.329V24.513C136.731 24.271 136.702 24.0547 136.643 23.864C136.584 23.666 136.478 23.5083 136.324 23.391C136.17 23.2737 135.95 23.215 135.664 23.215C135.385 23.215 135.147 23.2737 134.949 23.391C134.751 23.5083 134.601 23.666 134.498 23.864C134.403 24.0547 134.355 24.271 134.355 24.513V27.329C134.355 27.5197 134.293 27.681 134.168 27.813C134.043 27.9377 133.886 28 133.695 28C133.504 28 133.347 27.9377 133.222 27.813C133.097 27.681 133.035 27.5197 133.035 27.329V24.513C133.035 24.271 133.006 24.0547 132.947 23.864C132.888 23.666 132.782 23.5083 132.628 23.391C132.474 23.2737 132.254 23.215 131.968 23.215C131.689 23.215 131.451 23.2737 131.253 23.391C131.055 23.5083 130.905 23.666 130.802 23.864C130.707 24.0547 130.659 24.271 130.659 24.513V27.329C130.659 27.5197 130.597 27.681 130.472 27.813C130.347 27.9377 130.19 28 129.999 28C129.808 28 129.651 27.9377 129.526 27.813C129.401 27.681 129.339 27.5197 129.339 27.329V22.786C129.339 22.5953 129.401 22.4377 129.526 22.313C129.651 22.181 129.808 22.115 129.999 22.115C130.19 22.115 130.347 22.181 130.472 22.313C130.597 22.4377 130.659 22.5953 130.659 22.786V23.259L130.494 23.226C130.56 23.1013 130.652 22.9693 130.769 22.83C130.886 22.6833 131.029 22.5477 131.198 22.423C131.367 22.2983 131.554 22.1993 131.759 22.126C131.964 22.0453 132.188 22.005 132.43 22.005ZM144.917 28.11C144.396 28.11 143.927 27.9963 143.509 27.769C143.098 27.5417 142.772 27.2447 142.53 26.878C142.295 26.5113 142.178 26.119 142.178 25.701C142.178 25.3343 142.24 25.0007 142.365 24.7C142.497 24.392 142.691 24.1207 142.948 23.886C143.212 23.6513 143.545 23.4533 143.949 23.292L144.807 24.183C144.293 24.293 143.949 24.4617 143.773 24.689C143.604 24.909 143.52 25.1803 143.52 25.503C143.52 25.723 143.575 25.9393 143.685 26.152C143.795 26.3573 143.974 26.5297 144.224 26.669C144.473 26.801 144.807 26.867 145.225 26.867C145.569 26.867 145.877 26.79 146.149 26.636C146.427 26.4747 146.666 26.2657 146.864 26.009C147.069 25.745 147.234 25.4553 147.359 25.14C147.491 24.8173 147.579 24.491 147.623 24.161C147.637 24.0437 147.681 23.952 147.755 23.886C147.835 23.82 147.967 23.787 148.151 23.787C148.341 23.787 148.492 23.864 148.602 24.018C148.712 24.172 148.752 24.3517 148.723 24.557C148.657 24.997 148.528 25.4297 148.338 25.855C148.154 26.273 147.905 26.6543 147.59 26.999C147.282 27.3363 146.904 27.6077 146.457 27.813C146.017 28.011 145.503 28.11 144.917 28.11ZM148.833 28.022C148.745 28.022 148.668 28.011 148.602 27.989C148.543 27.967 148.495 27.9413 148.459 27.912C147.931 27.4573 147.447 27.0393 147.007 26.658C146.574 26.2693 146.174 25.899 145.808 25.547C145.441 25.195 145.096 24.8357 144.774 24.469C144.517 24.1757 144.282 23.9117 144.07 23.677C143.857 23.4423 143.685 23.215 143.553 22.995C143.428 22.7677 143.366 22.5183 143.366 22.247C143.366 21.8877 143.461 21.554 143.652 21.246C143.85 20.9307 144.128 20.6777 144.488 20.487C144.847 20.289 145.272 20.19 145.764 20.19C146.27 20.19 146.724 20.2743 147.128 20.443C147.538 20.6117 147.813 20.8353 147.953 21.114C147.96 21.1213 147.978 21.169 148.008 21.257C148.037 21.3377 148.052 21.433 148.052 21.543C148.052 21.6823 148 21.8033 147.898 21.906C147.795 22.0087 147.656 22.06 147.48 22.06C147.362 22.06 147.271 22.038 147.205 21.994C147.139 21.95 147.087 21.906 147.051 21.862C146.889 21.6493 146.702 21.5027 146.49 21.422C146.284 21.334 146.042 21.29 145.764 21.29C145.434 21.29 145.181 21.378 145.005 21.554C144.836 21.73 144.752 21.939 144.752 22.181C144.752 22.4083 144.832 22.6357 144.994 22.863C145.155 23.083 145.338 23.292 145.544 23.49C145.756 23.688 145.932 23.864 146.072 24.018C146.299 24.26 146.552 24.5203 146.831 24.799C147.117 25.0703 147.403 25.338 147.689 25.602C147.975 25.8587 148.239 26.1007 148.481 26.328C148.73 26.548 148.932 26.7313 149.086 26.878C149.181 26.966 149.251 27.054 149.295 27.142C149.346 27.23 149.372 27.3363 149.372 27.461C149.372 27.5563 149.328 27.6737 149.24 27.813C149.159 27.9523 149.023 28.022 148.833 28.022ZM156.491 22.005C157.005 22.005 157.463 22.137 157.866 22.401C158.277 22.6577 158.6 23.0133 158.834 23.468C159.076 23.9227 159.197 24.4507 159.197 25.052C159.197 25.6533 159.076 26.185 158.834 26.647C158.6 27.1017 158.281 27.461 157.877 27.725C157.481 27.9817 157.034 28.11 156.535 28.11C156.242 28.11 155.967 28.0623 155.71 27.967C155.454 27.8717 155.226 27.7507 155.028 27.604C154.838 27.4573 154.687 27.3107 154.577 27.164C154.475 27.01 154.423 26.8817 154.423 26.779L154.764 26.636V29.529C154.764 29.7197 154.702 29.8773 154.577 30.002C154.453 30.134 154.295 30.2 154.104 30.2C153.914 30.2 153.756 30.1377 153.631 30.013C153.507 29.8883 153.444 29.727 153.444 29.529V22.786C153.444 22.5953 153.507 22.4377 153.631 22.313C153.756 22.181 153.914 22.115 154.104 22.115C154.295 22.115 154.453 22.181 154.577 22.313C154.702 22.4377 154.764 22.5953 154.764 22.786V23.325L154.577 23.226C154.577 23.1307 154.629 23.017 154.731 22.885C154.834 22.7457 154.973 22.61 155.149 22.478C155.325 22.3387 155.527 22.225 155.754 22.137C155.989 22.049 156.235 22.005 156.491 22.005ZM156.326 23.215C156.004 23.215 155.721 23.2957 155.479 23.457C155.237 23.6183 155.047 23.8383 154.907 24.117C154.775 24.3883 154.709 24.7 154.709 25.052C154.709 25.3967 154.775 25.712 154.907 25.998C155.047 26.2767 155.237 26.4967 155.479 26.658C155.721 26.8193 156.004 26.9 156.326 26.9C156.649 26.9 156.928 26.8193 157.162 26.658C157.404 26.4967 157.591 26.2767 157.723 25.998C157.863 25.712 157.932 25.3967 157.932 25.052C157.932 24.7 157.863 24.3883 157.723 24.117C157.591 23.8383 157.404 23.6183 157.162 23.457C156.928 23.2957 156.649 23.215 156.326 23.215ZM165.17 22.005C165.36 22.005 165.518 22.0673 165.643 22.192C165.767 22.3167 165.83 22.478 165.83 22.676V27.329C165.83 27.5197 165.767 27.681 165.643 27.813C165.518 27.9377 165.36 28 165.17 28C164.979 28 164.821 27.9377 164.697 27.813C164.572 27.681 164.51 27.5197 164.51 27.329V26.79L164.752 26.889C164.752 26.9843 164.7 27.1017 164.598 27.241C164.495 27.373 164.356 27.505 164.18 27.637C164.004 27.769 163.795 27.8827 163.553 27.978C163.318 28.066 163.061 28.11 162.783 28.11C162.277 28.11 161.818 27.9817 161.408 27.725C160.997 27.461 160.671 27.1017 160.429 26.647C160.194 26.185 160.077 25.657 160.077 25.063C160.077 24.4617 160.194 23.9337 160.429 23.479C160.671 23.017 160.993 22.6577 161.397 22.401C161.8 22.137 162.247 22.005 162.739 22.005C163.054 22.005 163.344 22.0527 163.608 22.148C163.872 22.2433 164.099 22.3643 164.29 22.511C164.488 22.6577 164.638 22.808 164.741 22.962C164.851 23.1087 164.906 23.2333 164.906 23.336L164.51 23.479V22.676C164.51 22.4853 164.572 22.3277 164.697 22.203C164.821 22.071 164.979 22.005 165.17 22.005ZM162.948 26.9C163.27 26.9 163.553 26.8193 163.795 26.658C164.037 26.4967 164.224 26.2767 164.356 25.998C164.495 25.7193 164.565 25.4077 164.565 25.063C164.565 24.711 164.495 24.3957 164.356 24.117C164.224 23.8383 164.037 23.6183 163.795 23.457C163.553 23.2957 163.27 23.215 162.948 23.215C162.632 23.215 162.354 23.2957 162.112 23.457C161.87 23.6183 161.679 23.8383 161.54 24.117C161.408 24.3957 161.342 24.711 161.342 25.063C161.342 25.4077 161.408 25.7193 161.54 25.998C161.679 26.2767 161.87 26.4967 162.112 26.658C162.354 26.8193 162.632 26.9 162.948 26.9ZM171.626 22.115C171.817 22.115 171.974 22.181 172.099 22.313C172.224 22.4377 172.286 22.5953 172.286 22.786V27.461C172.286 28.1357 172.158 28.671 171.901 29.067C171.652 29.4703 171.314 29.76 170.889 29.936C170.464 30.112 169.987 30.2 169.459 30.2C169.224 30.2 168.975 30.1817 168.711 30.145C168.447 30.1083 168.231 30.0533 168.062 29.98C167.842 29.8847 167.688 29.7637 167.6 29.617C167.519 29.4777 167.505 29.3273 167.556 29.166C167.622 28.9533 167.728 28.8067 167.875 28.726C168.022 28.6527 168.176 28.6453 168.337 28.704C168.454 28.7407 168.608 28.7957 168.799 28.869C168.99 28.9497 169.21 28.99 169.459 28.99C169.796 28.99 170.075 28.9423 170.295 28.847C170.522 28.759 170.691 28.605 170.801 28.385C170.918 28.1723 170.977 27.879 170.977 27.505V26.768L171.208 27.032C171.083 27.274 170.926 27.4757 170.735 27.637C170.552 27.791 170.332 27.9083 170.075 27.989C169.818 28.0697 169.525 28.11 169.195 28.11C168.806 28.11 168.465 28.022 168.172 27.846C167.886 27.6627 167.662 27.4133 167.501 27.098C167.34 26.7753 167.259 26.4087 167.259 25.998V22.786C167.259 22.5953 167.321 22.4377 167.446 22.313C167.571 22.181 167.728 22.115 167.919 22.115C168.11 22.115 168.267 22.181 168.392 22.313C168.517 22.4377 168.579 22.5953 168.579 22.786V25.602C168.579 26.0787 168.682 26.416 168.887 26.614C169.1 26.8047 169.393 26.9 169.767 26.9C170.024 26.9 170.24 26.8523 170.416 26.757C170.592 26.6543 170.728 26.5077 170.823 26.317C170.918 26.119 170.966 25.8807 170.966 25.602V22.786C170.966 22.5953 171.028 22.4377 171.153 22.313C171.278 22.181 171.435 22.115 171.626 22.115Z" fill="white"/>
</svg>
