<svg width="311" height="55" viewBox="0 0 311 55" fill="none" xmlns="http://www.w3.org/2000/svg">
<rect width="311" height="55" rx="15" fill="#34967C"/>
<path d="M105.821 22.678C106.115 22.8253 106.285 23.0577 106.331 23.375C106.387 23.6923 106.308 23.9813 106.093 24.242C105.945 24.446 105.753 24.5593 105.515 24.582C105.288 24.6047 105.056 24.5593 104.818 24.446C104.546 24.3213 104.257 24.225 103.951 24.157C103.656 24.089 103.344 24.055 103.016 24.055C102.404 24.055 101.854 24.1513 101.367 24.344C100.891 24.5367 100.483 24.8143 100.143 25.177C99.8028 25.5283 99.5422 25.9477 99.3608 26.435C99.1908 26.9223 99.1058 27.4607 99.1058 28.05C99.1058 28.7413 99.2022 29.342 99.3948 29.852C99.5988 30.362 99.8765 30.787 100.228 31.127C100.579 31.467 100.993 31.722 101.469 31.892C101.945 32.0507 102.46 32.13 103.016 32.13C103.322 32.13 103.628 32.1017 103.934 32.045C104.24 31.9883 104.534 31.8863 104.818 31.739C105.056 31.6257 105.288 31.586 105.515 31.62C105.753 31.654 105.951 31.773 106.11 31.977C106.336 32.2603 106.416 32.555 106.348 32.861C106.291 33.1557 106.121 33.371 105.838 33.507C105.543 33.6543 105.237 33.779 104.92 33.881C104.614 33.9717 104.302 34.0397 103.985 34.085C103.667 34.1417 103.344 34.17 103.016 34.17C102.2 34.17 101.423 34.0397 100.687 33.779C99.9615 33.5183 99.3098 33.133 98.7318 32.623C98.1652 32.113 97.7175 31.4783 97.3888 30.719C97.0602 29.9483 96.8958 29.0587 96.8958 28.05C96.8958 27.1773 97.0432 26.3727 97.3378 25.636C97.6438 24.8993 98.0688 24.2647 98.6128 23.732C99.1682 23.188 99.8198 22.7687 100.568 22.474C101.316 22.168 102.132 22.015 103.016 22.015C103.514 22.015 104.002 22.0717 104.478 22.185C104.954 22.2983 105.401 22.4627 105.821 22.678ZM116.802 29.461C116.802 30.3903 116.592 31.212 116.173 31.926C115.765 32.6287 115.21 33.1783 114.507 33.575C113.816 33.9717 113.039 34.17 112.178 34.17C111.317 34.17 110.535 33.9717 109.832 33.575C109.141 33.1783 108.585 32.6287 108.166 31.926C107.758 31.212 107.554 30.3903 107.554 29.461C107.554 28.5317 107.758 27.7157 108.166 27.013C108.585 26.299 109.141 25.7437 109.832 25.347C110.535 24.939 111.317 24.735 112.178 24.735C113.039 24.735 113.816 24.939 114.507 25.347C115.21 25.7437 115.765 26.299 116.173 27.013C116.592 27.7157 116.802 28.5317 116.802 29.461ZM114.762 29.461C114.762 28.883 114.643 28.3843 114.405 27.965C114.178 27.5343 113.867 27.2 113.47 26.962C113.085 26.724 112.654 26.605 112.178 26.605C111.702 26.605 111.266 26.724 110.869 26.962C110.484 27.2 110.172 27.5343 109.934 27.965C109.707 28.3843 109.594 28.883 109.594 29.461C109.594 30.0277 109.707 30.5263 109.934 30.957C110.172 31.3763 110.484 31.705 110.869 31.943C111.266 32.181 111.702 32.3 112.178 32.3C112.654 32.3 113.085 32.181 113.47 31.943C113.867 31.705 114.178 31.3763 114.405 30.957C114.643 30.5263 114.762 30.0277 114.762 29.461ZM123.449 24.735C124.288 24.735 124.923 24.9107 125.353 25.262C125.795 25.6133 126.096 26.0837 126.254 26.673C126.424 27.251 126.509 27.897 126.509 28.611V32.963C126.509 33.2577 126.413 33.507 126.22 33.711C126.028 33.9037 125.784 34 125.489 34C125.195 34 124.951 33.9037 124.758 33.711C124.566 33.507 124.469 33.2577 124.469 32.963V28.611C124.469 28.237 124.418 27.9027 124.316 27.608C124.226 27.302 124.056 27.0583 123.806 26.877C123.557 26.6957 123.2 26.605 122.735 26.605C122.282 26.605 121.897 26.6957 121.579 26.877C121.273 27.0583 121.035 27.302 120.865 27.608C120.707 27.9027 120.627 28.237 120.627 28.611V32.963C120.627 33.2577 120.531 33.507 120.338 33.711C120.146 33.9037 119.902 34 119.607 34C119.313 34 119.069 33.9037 118.876 33.711C118.684 33.507 118.587 33.2577 118.587 32.963V25.942C118.587 25.6473 118.684 25.4037 118.876 25.211C119.069 25.007 119.313 24.905 119.607 24.905C119.902 24.905 120.146 25.007 120.338 25.211C120.531 25.4037 120.627 25.6473 120.627 25.942V26.673L120.372 26.622C120.474 26.4293 120.622 26.2253 120.814 26.01C121.007 25.7833 121.234 25.5737 121.494 25.381C121.755 25.1883 122.05 25.0353 122.378 24.922C122.707 24.7973 123.064 24.735 123.449 24.735ZM133.389 21.42C133.639 21.42 133.882 21.454 134.12 21.522C134.358 21.59 134.557 21.7033 134.715 21.862C134.874 22.0093 134.953 22.2077 134.953 22.457C134.953 22.7403 134.868 22.967 134.698 23.137C134.54 23.2957 134.353 23.375 134.137 23.375C134.035 23.375 133.882 23.3523 133.678 23.307C133.474 23.2503 133.276 23.222 133.083 23.222C132.8 23.222 132.579 23.2843 132.42 23.409C132.273 23.5337 132.171 23.681 132.114 23.851C132.058 24.0097 132.029 24.1513 132.029 24.276V32.963C132.029 33.2577 131.933 33.507 131.74 33.711C131.548 33.9037 131.304 34 131.009 34C130.715 34 130.471 33.9037 130.278 33.711C130.086 33.507 129.989 33.2577 129.989 32.963V24.293C129.989 23.4883 130.273 22.8083 130.839 22.253C131.406 21.6977 132.256 21.42 133.389 21.42ZM133.576 25.075C133.848 25.075 134.075 25.1657 134.256 25.347C134.438 25.517 134.528 25.738 134.528 26.01C134.528 26.282 134.438 26.5087 134.256 26.69C134.075 26.86 133.848 26.945 133.576 26.945H129.071C128.799 26.945 128.573 26.86 128.391 26.69C128.21 26.5087 128.119 26.282 128.119 26.01C128.119 25.738 128.21 25.517 128.391 25.347C128.573 25.1657 128.799 25.075 129.071 25.075H133.576ZM138.064 32.963C138.064 33.2577 137.968 33.507 137.775 33.711C137.583 33.9037 137.339 34 137.044 34C136.75 34 136.506 33.9037 136.313 33.711C136.121 33.507 136.024 33.2577 136.024 32.963V25.942C136.024 25.6473 136.121 25.4037 136.313 25.211C136.506 25.007 136.75 24.905 137.044 24.905C137.339 24.905 137.583 25.007 137.775 25.211C137.968 25.4037 138.064 25.6473 138.064 25.942V32.963ZM137.027 23.8C136.642 23.8 136.37 23.7377 136.211 23.613C136.053 23.4883 135.973 23.2673 135.973 22.95V22.627C135.973 22.2983 136.058 22.0773 136.228 21.964C136.41 21.8393 136.682 21.777 137.044 21.777C137.441 21.777 137.719 21.8393 137.877 21.964C138.036 22.0887 138.115 22.3097 138.115 22.627V22.95C138.115 23.2787 138.03 23.5053 137.86 23.63C137.69 23.7433 137.413 23.8 137.027 23.8ZM141.173 34C140.878 34 140.635 33.9037 140.442 33.711C140.249 33.507 140.153 33.2577 140.153 32.963V25.942C140.153 25.6473 140.249 25.4037 140.442 25.211C140.635 25.007 140.878 24.905 141.173 24.905C141.468 24.905 141.711 25.007 141.904 25.211C142.097 25.4037 142.193 25.6473 142.193 25.942V27.54L142.074 26.401C142.199 26.129 142.357 25.891 142.55 25.687C142.754 25.4717 142.981 25.296 143.23 25.16C143.479 25.0127 143.746 24.905 144.029 24.837C144.312 24.769 144.596 24.735 144.879 24.735C145.219 24.735 145.502 24.8313 145.729 25.024C145.967 25.2167 146.086 25.4433 146.086 25.704C146.086 26.078 145.99 26.35 145.797 26.52C145.604 26.6787 145.395 26.758 145.168 26.758C144.953 26.758 144.754 26.7183 144.573 26.639C144.403 26.5597 144.205 26.52 143.978 26.52C143.774 26.52 143.564 26.571 143.349 26.673C143.145 26.7637 142.952 26.911 142.771 27.115C142.601 27.319 142.459 27.574 142.346 27.88C142.244 28.1747 142.193 28.526 142.193 28.934V32.963C142.193 33.2577 142.097 33.507 141.904 33.711C141.711 33.9037 141.468 34 141.173 34ZM152.301 24.735C153.208 24.735 153.876 24.956 154.307 25.398C154.738 25.8287 155.021 26.3897 155.157 27.081L154.868 26.928L155.004 26.656C155.14 26.3953 155.35 26.1177 155.633 25.823C155.916 25.517 156.256 25.262 156.653 25.058C157.061 24.8427 157.514 24.735 158.013 24.735C158.829 24.735 159.447 24.9107 159.866 25.262C160.297 25.6133 160.591 26.0837 160.75 26.673C160.909 27.251 160.988 27.897 160.988 28.611V32.963C160.988 33.2577 160.892 33.507 160.699 33.711C160.506 33.9037 160.263 34 159.968 34C159.673 34 159.43 33.9037 159.237 33.711C159.044 33.507 158.948 33.2577 158.948 32.963V28.611C158.948 28.237 158.903 27.9027 158.812 27.608C158.721 27.302 158.557 27.0583 158.319 26.877C158.081 26.6957 157.741 26.605 157.299 26.605C156.868 26.605 156.5 26.6957 156.194 26.877C155.888 27.0583 155.656 27.302 155.497 27.608C155.35 27.9027 155.276 28.237 155.276 28.611V32.963C155.276 33.2577 155.18 33.507 154.987 33.711C154.794 33.9037 154.551 34 154.256 34C153.961 34 153.718 33.9037 153.525 33.711C153.332 33.507 153.236 33.2577 153.236 32.963V28.611C153.236 28.237 153.191 27.9027 153.1 27.608C153.009 27.302 152.845 27.0583 152.607 26.877C152.369 26.6957 152.029 26.605 151.587 26.605C151.156 26.605 150.788 26.6957 150.482 26.877C150.176 27.0583 149.944 27.302 149.785 27.608C149.638 27.9027 149.564 28.237 149.564 28.611V32.963C149.564 33.2577 149.468 33.507 149.275 33.711C149.082 33.9037 148.839 34 148.544 34C148.249 34 148.006 33.9037 147.813 33.711C147.62 33.507 147.524 33.2577 147.524 32.963V25.942C147.524 25.6473 147.62 25.4037 147.813 25.211C148.006 25.007 148.249 24.905 148.544 24.905C148.839 24.905 149.082 25.007 149.275 25.211C149.468 25.4037 149.564 25.6473 149.564 25.942V26.673L149.309 26.622C149.411 26.4293 149.553 26.2253 149.734 26.01C149.915 25.7833 150.136 25.5737 150.397 25.381C150.658 25.1883 150.947 25.0353 151.264 24.922C151.581 24.7973 151.927 24.735 152.301 24.735ZM171.598 34.17C170.794 34.17 170.068 33.9943 169.422 33.643C168.788 33.2917 168.283 32.8327 167.909 32.266C167.547 31.6993 167.365 31.093 167.365 30.447C167.365 29.8803 167.462 29.3647 167.654 28.9C167.858 28.424 168.159 28.0047 168.555 27.642C168.963 27.2793 169.479 26.9733 170.102 26.724L171.428 28.101C170.635 28.271 170.102 28.5317 169.83 28.883C169.57 29.223 169.439 29.6423 169.439 30.141C169.439 30.481 169.524 30.8153 169.694 31.144C169.864 31.4613 170.142 31.7277 170.527 31.943C170.913 32.147 171.428 32.249 172.074 32.249C172.607 32.249 173.083 32.13 173.502 31.892C173.933 31.6427 174.301 31.3197 174.607 30.923C174.925 30.515 175.18 30.0673 175.372 29.58C175.576 29.0813 175.712 28.577 175.78 28.067C175.803 27.8857 175.871 27.744 175.984 27.642C176.109 27.54 176.313 27.489 176.596 27.489C176.891 27.489 177.123 27.608 177.293 27.846C177.463 28.084 177.526 28.3617 177.48 28.679C177.378 29.359 177.18 30.0277 176.885 30.685C176.602 31.331 176.217 31.9203 175.729 32.453C175.253 32.9743 174.67 33.3937 173.978 33.711C173.298 34.017 172.505 34.17 171.598 34.17ZM177.65 34.034C177.514 34.034 177.395 34.017 177.293 33.983C177.203 33.949 177.129 33.9093 177.072 33.864C176.256 33.1613 175.508 32.5153 174.828 31.926C174.16 31.3253 173.542 30.753 172.975 30.209C172.409 29.665 171.876 29.1097 171.377 28.543C170.981 28.0897 170.618 27.6817 170.289 27.319C169.961 26.9563 169.694 26.605 169.49 26.265C169.298 25.9137 169.201 25.5283 169.201 25.109C169.201 24.5537 169.349 24.038 169.643 23.562C169.949 23.0747 170.38 22.6837 170.935 22.389C171.491 22.083 172.148 21.93 172.907 21.93C173.689 21.93 174.392 22.0603 175.015 22.321C175.65 22.5817 176.075 22.9273 176.29 23.358C176.302 23.3693 176.33 23.443 176.375 23.579C176.421 23.7037 176.443 23.851 176.443 24.021C176.443 24.2363 176.364 24.4233 176.205 24.582C176.047 24.7407 175.831 24.82 175.559 24.82C175.378 24.82 175.236 24.786 175.134 24.718C175.032 24.65 174.953 24.582 174.896 24.514C174.647 24.1853 174.358 23.9587 174.029 23.834C173.712 23.698 173.338 23.63 172.907 23.63C172.397 23.63 172.006 23.766 171.734 24.038C171.474 24.31 171.343 24.633 171.343 25.007C171.343 25.3583 171.468 25.7097 171.717 26.061C171.967 26.401 172.25 26.724 172.567 27.03C172.896 27.336 173.168 27.608 173.383 27.846C173.735 28.22 174.126 28.6223 174.556 29.053C174.998 29.4723 175.44 29.886 175.882 30.294C176.324 30.6907 176.732 31.0647 177.106 31.416C177.492 31.756 177.803 32.0393 178.041 32.266C178.189 32.402 178.296 32.538 178.364 32.674C178.444 32.81 178.483 32.9743 178.483 33.167C178.483 33.3143 178.415 33.4957 178.279 33.711C178.155 33.9263 177.945 34.034 177.65 34.034ZM189.487 24.735C190.28 24.735 190.989 24.939 191.612 25.347C192.247 25.7437 192.745 26.2933 193.108 26.996C193.482 27.6987 193.669 28.5147 193.669 29.444C193.669 30.3733 193.482 31.195 193.108 31.909C192.745 32.6117 192.252 33.167 191.629 33.575C191.017 33.9717 190.326 34.17 189.555 34.17C189.102 34.17 188.677 34.0963 188.28 33.949C187.883 33.8017 187.532 33.6147 187.226 33.388C186.931 33.1613 186.699 32.9347 186.529 32.708C186.37 32.47 186.291 32.2717 186.291 32.113L186.818 31.892V36.363C186.818 36.6577 186.722 36.9013 186.529 37.094C186.336 37.298 186.093 37.4 185.798 37.4C185.503 37.4 185.26 37.3037 185.067 37.111C184.874 36.9183 184.778 36.669 184.778 36.363V25.942C184.778 25.6473 184.874 25.4037 185.067 25.211C185.26 25.007 185.503 24.905 185.798 24.905C186.093 24.905 186.336 25.007 186.529 25.211C186.722 25.4037 186.818 25.6473 186.818 25.942V26.775L186.529 26.622C186.529 26.4747 186.608 26.299 186.767 26.095C186.926 25.8797 187.141 25.67 187.413 25.466C187.685 25.2507 187.997 25.075 188.348 24.939C188.711 24.803 189.09 24.735 189.487 24.735ZM189.232 26.605C188.733 26.605 188.297 26.7297 187.923 26.979C187.549 27.2283 187.254 27.5683 187.039 27.999C186.835 28.4183 186.733 28.9 186.733 29.444C186.733 29.9767 186.835 30.464 187.039 30.906C187.254 31.3367 187.549 31.6767 187.923 31.926C188.297 32.1753 188.733 32.3 189.232 32.3C189.731 32.3 190.161 32.1753 190.524 31.926C190.898 31.6767 191.187 31.3367 191.391 30.906C191.606 30.464 191.714 29.9767 191.714 29.444C191.714 28.9 191.606 28.4183 191.391 27.999C191.187 27.5683 190.898 27.2283 190.524 26.979C190.161 26.7297 189.731 26.605 189.232 26.605ZM202.899 24.735C203.193 24.735 203.437 24.8313 203.63 25.024C203.822 25.2167 203.919 25.466 203.919 25.772V32.963C203.919 33.2577 203.822 33.507 203.63 33.711C203.437 33.9037 203.193 34 202.899 34C202.604 34 202.36 33.9037 202.168 33.711C201.975 33.507 201.879 33.2577 201.879 32.963V32.13L202.253 32.283C202.253 32.4303 202.173 32.6117 202.015 32.827C201.856 33.031 201.641 33.235 201.369 33.439C201.097 33.643 200.774 33.8187 200.4 33.966C200.037 34.102 199.64 34.17 199.21 34.17C198.428 34.17 197.719 33.9717 197.085 33.575C196.45 33.167 195.946 32.6117 195.572 31.909C195.209 31.195 195.028 30.379 195.028 29.461C195.028 28.5317 195.209 27.7157 195.572 27.013C195.946 26.299 196.444 25.7437 197.068 25.347C197.691 24.939 198.382 24.735 199.142 24.735C199.629 24.735 200.077 24.8087 200.485 24.956C200.893 25.1033 201.244 25.2903 201.539 25.517C201.845 25.7437 202.077 25.976 202.236 26.214C202.406 26.4407 202.491 26.6333 202.491 26.792L201.879 27.013V25.772C201.879 25.4773 201.975 25.2337 202.168 25.041C202.36 24.837 202.604 24.735 202.899 24.735ZM199.465 32.3C199.963 32.3 200.4 32.1753 200.774 31.926C201.148 31.6767 201.437 31.3367 201.641 30.906C201.856 30.4753 201.964 29.9937 201.964 29.461C201.964 28.917 201.856 28.4297 201.641 27.999C201.437 27.5683 201.148 27.2283 200.774 26.979C200.4 26.7297 199.963 26.605 199.465 26.605C198.977 26.605 198.547 26.7297 198.173 26.979C197.799 27.2283 197.504 27.5683 197.289 27.999C197.085 28.4297 196.983 28.917 196.983 29.461C196.983 29.9937 197.085 30.4753 197.289 30.906C197.504 31.3367 197.799 31.6767 198.173 31.926C198.547 32.1753 198.977 32.3 199.465 32.3ZM212.876 24.905C213.171 24.905 213.415 25.007 213.607 25.211C213.8 25.4037 213.896 25.6473 213.896 25.942V33.167C213.896 34.2097 213.698 35.037 213.301 35.649C212.916 36.2723 212.395 36.72 211.737 36.992C211.08 37.264 210.343 37.4 209.527 37.4C209.165 37.4 208.779 37.3717 208.371 37.315C207.963 37.2583 207.629 37.1733 207.368 37.06C207.028 36.9127 206.79 36.7257 206.654 36.499C206.53 36.2837 206.507 36.0513 206.586 35.802C206.688 35.4733 206.853 35.2467 207.079 35.122C207.306 35.0087 207.544 34.9973 207.793 35.088C207.975 35.1447 208.213 35.2297 208.507 35.343C208.802 35.4677 209.142 35.53 209.527 35.53C210.049 35.53 210.479 35.4563 210.819 35.309C211.171 35.173 211.431 34.935 211.601 34.595C211.783 34.2663 211.873 33.813 211.873 33.235V32.096L212.23 32.504C212.038 32.878 211.794 33.1897 211.499 33.439C211.216 33.677 210.876 33.8583 210.479 33.983C210.083 34.1077 209.629 34.17 209.119 34.17C208.519 34.17 207.992 34.034 207.538 33.762C207.096 33.4787 206.751 33.0933 206.501 32.606C206.252 32.1073 206.127 31.5407 206.127 30.906V25.942C206.127 25.6473 206.224 25.4037 206.416 25.211C206.609 25.007 206.853 24.905 207.147 24.905C207.442 24.905 207.686 25.007 207.878 25.211C208.071 25.4037 208.167 25.6473 208.167 25.942V30.294C208.167 31.0307 208.326 31.552 208.643 31.858C208.972 32.1527 209.425 32.3 210.003 32.3C210.4 32.3 210.734 32.2263 211.006 32.079C211.278 31.9203 211.488 31.6937 211.635 31.399C211.783 31.093 211.856 30.7247 211.856 30.294V25.942C211.856 25.6473 211.953 25.4037 212.145 25.211C212.338 25.007 212.582 24.905 212.876 24.905Z" fill="white"/>
</svg>
