<svg width="367" height="65" viewBox="0 0 367 65" fill="none" xmlns="http://www.w3.org/2000/svg">
<rect width="367" height="65" rx="15" fill="#34967C"/>
<path d="M110.442 25.35C110.876 25.5667 111.126 25.9083 111.192 26.375C111.276 26.8417 111.159 27.2667 110.842 27.65C110.626 27.95 110.342 28.1167 109.992 28.15C109.659 28.1833 109.317 28.1167 108.967 27.95C108.567 27.7667 108.142 27.625 107.692 27.525C107.259 27.425 106.801 27.375 106.317 27.375C105.417 27.375 104.609 27.5167 103.892 27.8C103.192 28.0833 102.592 28.4917 102.092 29.025C101.592 29.5417 101.209 30.1583 100.942 30.875C100.692 31.5917 100.567 32.3833 100.567 33.25C100.567 34.2667 100.709 35.15 100.992 35.9C101.292 36.65 101.701 37.275 102.217 37.775C102.734 38.275 103.342 38.65 104.042 38.9C104.742 39.1333 105.501 39.25 106.317 39.25C106.767 39.25 107.217 39.2083 107.667 39.125C108.117 39.0417 108.551 38.8917 108.967 38.675C109.317 38.5083 109.659 38.45 109.992 38.5C110.342 38.55 110.634 38.725 110.867 39.025C111.201 39.4417 111.317 39.875 111.217 40.325C111.134 40.7583 110.884 41.075 110.467 41.275C110.034 41.4917 109.584 41.675 109.117 41.825C108.667 41.9583 108.209 42.0583 107.742 42.125C107.276 42.2083 106.801 42.25 106.317 42.25C105.117 42.25 103.976 42.0583 102.892 41.675C101.826 41.2917 100.867 40.725 100.017 39.975C99.184 39.225 98.5257 38.2917 98.0424 37.175C97.559 36.0417 97.3174 34.7333 97.3174 33.25C97.3174 31.9667 97.534 30.7833 97.9674 29.7C98.4174 28.6167 99.0424 27.6833 99.8424 26.9C100.659 26.1 101.617 25.4833 102.717 25.05C103.817 24.6 105.017 24.375 106.317 24.375C107.051 24.375 107.767 24.4583 108.467 24.625C109.167 24.7917 109.826 25.0333 110.442 25.35ZM126.591 35.325C126.591 36.6917 126.283 37.9 125.666 38.95C125.066 39.9833 124.25 40.7917 123.216 41.375C122.2 41.9583 121.058 42.25 119.791 42.25C118.525 42.25 117.375 41.9583 116.341 41.375C115.325 40.7917 114.508 39.9833 113.891 38.95C113.291 37.9 112.991 36.6917 112.991 35.325C112.991 33.9583 113.291 32.7583 113.891 31.725C114.508 30.675 115.325 29.8583 116.341 29.275C117.375 28.675 118.525 28.375 119.791 28.375C121.058 28.375 122.2 28.675 123.216 29.275C124.25 29.8583 125.066 30.675 125.666 31.725C126.283 32.7583 126.591 33.9583 126.591 35.325ZM123.591 35.325C123.591 34.475 123.416 33.7417 123.066 33.125C122.733 32.4917 122.275 32 121.691 31.65C121.125 31.3 120.491 31.125 119.791 31.125C119.091 31.125 118.45 31.3 117.866 31.65C117.3 32 116.841 32.4917 116.491 33.125C116.158 33.7417 115.991 34.475 115.991 35.325C115.991 36.1583 116.158 36.8917 116.491 37.525C116.841 38.1417 117.3 38.625 117.866 38.975C118.45 39.325 119.091 39.5 119.791 39.5C120.491 39.5 121.125 39.325 121.691 38.975C122.275 38.625 122.733 38.1417 123.066 37.525C123.416 36.8917 123.591 36.1583 123.591 35.325ZM136.367 28.375C137.6 28.375 138.533 28.6333 139.167 29.15C139.817 29.6667 140.258 30.3583 140.492 31.225C140.742 32.075 140.867 33.025 140.867 34.075V40.475C140.867 40.9083 140.725 41.275 140.442 41.575C140.158 41.8583 139.8 42 139.367 42C138.933 42 138.575 41.8583 138.292 41.575C138.008 41.275 137.867 40.9083 137.867 40.475V34.075C137.867 33.525 137.792 33.0333 137.642 32.6C137.508 32.15 137.258 31.7917 136.892 31.525C136.525 31.2583 136 31.125 135.317 31.125C134.65 31.125 134.083 31.2583 133.617 31.525C133.167 31.7917 132.817 32.15 132.567 32.6C132.333 33.0333 132.217 33.525 132.217 34.075V40.475C132.217 40.9083 132.075 41.275 131.792 41.575C131.508 41.8583 131.15 42 130.717 42C130.283 42 129.925 41.8583 129.642 41.575C129.358 41.275 129.217 40.9083 129.217 40.475V30.15C129.217 29.7167 129.358 29.3583 129.642 29.075C129.925 28.775 130.283 28.625 130.717 28.625C131.15 28.625 131.508 28.775 131.792 29.075C132.075 29.3583 132.217 29.7167 132.217 30.15V31.225L131.842 31.15C131.992 30.8667 132.208 30.5667 132.492 30.25C132.775 29.9167 133.108 29.6083 133.492 29.325C133.875 29.0417 134.308 28.8167 134.792 28.65C135.275 28.4667 135.8 28.375 136.367 28.375ZM150.984 23.5C151.351 23.5 151.709 23.55 152.059 23.65C152.409 23.75 152.701 23.9167 152.934 24.15C153.168 24.3667 153.284 24.6583 153.284 25.025C153.284 25.4417 153.159 25.775 152.909 26.025C152.676 26.2583 152.401 26.375 152.084 26.375C151.934 26.375 151.709 26.3417 151.409 26.275C151.109 26.1917 150.818 26.15 150.534 26.15C150.118 26.15 149.793 26.2417 149.559 26.425C149.343 26.6083 149.193 26.825 149.109 27.075C149.026 27.3083 148.984 27.5167 148.984 27.7V40.475C148.984 40.9083 148.843 41.275 148.559 41.575C148.276 41.8583 147.918 42 147.484 42C147.051 42 146.693 41.8583 146.409 41.575C146.126 41.275 145.984 40.9083 145.984 40.475V27.725C145.984 26.5417 146.401 25.5417 147.234 24.725C148.068 23.9083 149.318 23.5 150.984 23.5ZM151.259 28.875C151.659 28.875 151.993 29.0083 152.259 29.275C152.526 29.525 152.659 29.85 152.659 30.25C152.659 30.65 152.526 30.9833 152.259 31.25C151.993 31.5 151.659 31.625 151.259 31.625H144.634C144.234 31.625 143.901 31.5 143.634 31.25C143.368 30.9833 143.234 30.65 143.234 30.25C143.234 29.85 143.368 29.525 143.634 29.275C143.901 29.0083 144.234 28.875 144.634 28.875H151.259ZM157.859 40.475C157.859 40.9083 157.718 41.275 157.434 41.575C157.151 41.8583 156.793 42 156.359 42C155.926 42 155.568 41.8583 155.284 41.575C155.001 41.275 154.859 40.9083 154.859 40.475V30.15C154.859 29.7167 155.001 29.3583 155.284 29.075C155.568 28.775 155.926 28.625 156.359 28.625C156.793 28.625 157.151 28.775 157.434 29.075C157.718 29.3583 157.859 29.7167 157.859 30.15V40.475ZM156.334 27C155.768 27 155.368 26.9083 155.134 26.725C154.901 26.5417 154.784 26.2167 154.784 25.75V25.275C154.784 24.7917 154.909 24.4667 155.159 24.3C155.426 24.1167 155.826 24.025 156.359 24.025C156.943 24.025 157.351 24.1167 157.584 24.3C157.818 24.4833 157.934 24.8083 157.934 25.275V25.75C157.934 26.2333 157.809 26.5667 157.559 26.75C157.309 26.9167 156.901 27 156.334 27ZM162.431 42C161.997 42 161.639 41.8583 161.356 41.575C161.072 41.275 160.931 40.9083 160.931 40.475V30.15C160.931 29.7167 161.072 29.3583 161.356 29.075C161.639 28.775 161.997 28.625 162.431 28.625C162.864 28.625 163.222 28.775 163.506 29.075C163.789 29.3583 163.931 29.7167 163.931 30.15V32.5L163.756 30.825C163.939 30.425 164.172 30.075 164.456 29.775C164.756 29.4583 165.089 29.2 165.456 29C165.822 28.7833 166.214 28.625 166.631 28.525C167.047 28.425 167.464 28.375 167.881 28.375C168.381 28.375 168.797 28.5167 169.131 28.8C169.481 29.0833 169.656 29.4167 169.656 29.8C169.656 30.35 169.514 30.75 169.231 31C168.947 31.2333 168.639 31.35 168.306 31.35C167.989 31.35 167.697 31.2917 167.431 31.175C167.181 31.0583 166.889 31 166.556 31C166.256 31 165.947 31.075 165.631 31.225C165.331 31.3583 165.047 31.575 164.781 31.875C164.531 32.175 164.322 32.55 164.156 33C164.006 33.4333 163.931 33.95 163.931 34.55V40.475C163.931 40.9083 163.789 41.275 163.506 41.575C163.222 41.8583 162.864 42 162.431 42ZM178.796 28.375C180.129 28.375 181.112 28.7 181.746 29.35C182.379 29.9833 182.796 30.8083 182.996 31.825L182.571 31.6L182.771 31.2C182.971 30.8167 183.279 30.4083 183.696 29.975C184.112 29.525 184.612 29.15 185.196 28.85C185.796 28.5333 186.462 28.375 187.196 28.375C188.396 28.375 189.304 28.6333 189.921 29.15C190.554 29.6667 190.987 30.3583 191.221 31.225C191.454 32.075 191.571 33.025 191.571 34.075V40.475C191.571 40.9083 191.429 41.275 191.146 41.575C190.862 41.8583 190.504 42 190.071 42C189.637 42 189.279 41.8583 188.996 41.575C188.712 41.275 188.571 40.9083 188.571 40.475V34.075C188.571 33.525 188.504 33.0333 188.371 32.6C188.237 32.15 187.996 31.7917 187.646 31.525C187.296 31.2583 186.796 31.125 186.146 31.125C185.512 31.125 184.971 31.2583 184.521 31.525C184.071 31.7917 183.729 32.15 183.496 32.6C183.279 33.0333 183.171 33.525 183.171 34.075V40.475C183.171 40.9083 183.029 41.275 182.746 41.575C182.462 41.8583 182.104 42 181.671 42C181.237 42 180.879 41.8583 180.596 41.575C180.312 41.275 180.171 40.9083 180.171 40.475V34.075C180.171 33.525 180.104 33.0333 179.971 32.6C179.837 32.15 179.596 31.7917 179.246 31.525C178.896 31.2583 178.396 31.125 177.746 31.125C177.112 31.125 176.571 31.2583 176.121 31.525C175.671 31.7917 175.329 32.15 175.096 32.6C174.879 33.0333 174.771 33.525 174.771 34.075V40.475C174.771 40.9083 174.629 41.275 174.346 41.575C174.062 41.8583 173.704 42 173.271 42C172.837 42 172.479 41.8583 172.196 41.575C171.912 41.275 171.771 40.9083 171.771 40.475V30.15C171.771 29.7167 171.912 29.3583 172.196 29.075C172.479 28.775 172.837 28.625 173.271 28.625C173.704 28.625 174.062 28.775 174.346 29.075C174.629 29.3583 174.771 29.7167 174.771 30.15V31.225L174.396 31.15C174.546 30.8667 174.754 30.5667 175.021 30.25C175.287 29.9167 175.612 29.6083 175.996 29.325C176.379 29.0417 176.804 28.8167 177.271 28.65C177.737 28.4667 178.246 28.375 178.796 28.375ZM207.174 42.25C205.991 42.25 204.924 41.9917 203.974 41.475C203.041 40.9583 202.299 40.2833 201.749 39.45C201.216 38.6167 200.949 37.725 200.949 36.775C200.949 35.9417 201.091 35.1833 201.374 34.5C201.674 33.8 202.116 33.1833 202.699 32.65C203.299 32.1167 204.058 31.6667 204.974 31.3L206.924 33.325C205.758 33.575 204.974 33.9583 204.574 34.475C204.191 34.975 203.999 35.5917 203.999 36.325C203.999 36.825 204.124 37.3167 204.374 37.8C204.624 38.2667 205.033 38.6583 205.599 38.975C206.166 39.275 206.924 39.425 207.874 39.425C208.658 39.425 209.358 39.25 209.974 38.9C210.608 38.5333 211.149 38.0583 211.599 37.475C212.066 36.875 212.441 36.2167 212.724 35.5C213.024 34.7667 213.224 34.025 213.324 33.275C213.358 33.0083 213.458 32.8 213.624 32.65C213.808 32.5 214.108 32.425 214.524 32.425C214.958 32.425 215.299 32.6 215.549 32.95C215.799 33.3 215.891 33.7083 215.824 34.175C215.674 35.175 215.383 36.1583 214.949 37.125C214.533 38.075 213.966 38.9417 213.249 39.725C212.549 40.4917 211.691 41.1083 210.674 41.575C209.674 42.025 208.508 42.25 207.174 42.25ZM216.074 42.05C215.874 42.05 215.699 42.025 215.549 41.975C215.416 41.925 215.308 41.8667 215.224 41.8C214.024 40.7667 212.924 39.8167 211.924 38.95C210.941 38.0667 210.033 37.225 209.199 36.425C208.366 35.625 207.583 34.8083 206.849 33.975C206.266 33.3083 205.733 32.7083 205.249 32.175C204.766 31.6417 204.374 31.125 204.074 30.625C203.791 30.1083 203.649 29.5417 203.649 28.925C203.649 28.1083 203.866 27.35 204.299 26.65C204.749 25.9333 205.383 25.3583 206.199 24.925C207.016 24.475 207.983 24.25 209.099 24.25C210.249 24.25 211.283 24.4417 212.199 24.825C213.133 25.2083 213.758 25.7167 214.074 26.35C214.091 26.3667 214.133 26.475 214.199 26.675C214.266 26.8583 214.299 27.075 214.299 27.325C214.299 27.6417 214.183 27.9167 213.949 28.15C213.716 28.3833 213.399 28.5 212.999 28.5C212.733 28.5 212.524 28.45 212.374 28.35C212.224 28.25 212.108 28.15 212.024 28.05C211.658 27.5667 211.233 27.2333 210.749 27.05C210.283 26.85 209.733 26.75 209.099 26.75C208.349 26.75 207.774 26.95 207.374 27.35C206.991 27.75 206.799 28.225 206.799 28.775C206.799 29.2917 206.983 29.8083 207.349 30.325C207.716 30.825 208.133 31.3 208.599 31.75C209.083 32.2 209.483 32.6 209.799 32.95C210.316 33.5 210.891 34.0917 211.524 34.725C212.174 35.3417 212.824 35.95 213.474 36.55C214.124 37.1333 214.724 37.6833 215.274 38.2C215.841 38.7 216.299 39.1167 216.649 39.45C216.866 39.65 217.024 39.85 217.124 40.05C217.241 40.25 217.299 40.4917 217.299 40.775C217.299 40.9917 217.199 41.2583 216.999 41.575C216.816 41.8917 216.508 42.05 216.074 42.05ZM233.481 28.375C234.647 28.375 235.689 28.675 236.606 29.275C237.539 29.8583 238.272 30.6667 238.806 31.7C239.356 32.7333 239.631 33.9333 239.631 35.3C239.631 36.6667 239.356 37.875 238.806 38.925C238.272 39.9583 237.547 40.775 236.631 41.375C235.731 41.9583 234.714 42.25 233.581 42.25C232.914 42.25 232.289 42.1417 231.706 41.925C231.122 41.7083 230.606 41.4333 230.156 41.1C229.722 40.7667 229.381 40.4333 229.131 40.1C228.897 39.75 228.781 39.4583 228.781 39.225L229.556 38.9V45.475C229.556 45.9083 229.414 46.2667 229.131 46.55C228.847 46.85 228.489 47 228.056 47C227.622 47 227.264 46.8583 226.981 46.575C226.697 46.2917 226.556 45.925 226.556 45.475V30.15C226.556 29.7167 226.697 29.3583 226.981 29.075C227.264 28.775 227.622 28.625 228.056 28.625C228.489 28.625 228.847 28.775 229.131 29.075C229.414 29.3583 229.556 29.7167 229.556 30.15V31.375L229.131 31.15C229.131 30.9333 229.247 30.675 229.481 30.375C229.714 30.0583 230.031 29.75 230.431 29.45C230.831 29.1333 231.289 28.875 231.806 28.675C232.339 28.475 232.897 28.375 233.481 28.375ZM233.106 31.125C232.372 31.125 231.731 31.3083 231.181 31.675C230.631 32.0417 230.197 32.5417 229.881 33.175C229.581 33.7917 229.431 34.5 229.431 35.3C229.431 36.0833 229.581 36.8 229.881 37.45C230.197 38.0833 230.631 38.5833 231.181 38.95C231.731 39.3167 232.372 39.5 233.106 39.5C233.839 39.5 234.472 39.3167 235.006 38.95C235.556 38.5833 235.981 38.0833 236.281 37.45C236.597 36.8 236.756 36.0833 236.756 35.3C236.756 34.5 236.597 33.7917 236.281 33.175C235.981 32.5417 235.556 32.0417 235.006 31.675C234.472 31.3083 233.839 31.125 233.106 31.125ZM253.204 28.375C253.637 28.375 253.996 28.5167 254.279 28.8C254.562 29.0833 254.704 29.45 254.704 29.9V40.475C254.704 40.9083 254.562 41.275 254.279 41.575C253.996 41.8583 253.637 42 253.204 42C252.771 42 252.412 41.8583 252.129 41.575C251.846 41.275 251.704 40.9083 251.704 40.475V39.25L252.254 39.475C252.254 39.6917 252.137 39.9583 251.904 40.275C251.671 40.575 251.354 40.875 250.954 41.175C250.554 41.475 250.079 41.7333 249.529 41.95C248.996 42.15 248.412 42.25 247.779 42.25C246.629 42.25 245.587 41.9583 244.654 41.375C243.721 40.775 242.979 39.9583 242.429 38.925C241.896 37.875 241.629 36.675 241.629 35.325C241.629 33.9583 241.896 32.7583 242.429 31.725C242.979 30.675 243.712 29.8583 244.629 29.275C245.546 28.675 246.562 28.375 247.679 28.375C248.396 28.375 249.054 28.4833 249.654 28.7C250.254 28.9167 250.771 29.1917 251.204 29.525C251.654 29.8583 251.996 30.2 252.229 30.55C252.479 30.8833 252.604 31.1667 252.604 31.4L251.704 31.725V29.9C251.704 29.4667 251.846 29.1083 252.129 28.825C252.412 28.525 252.771 28.375 253.204 28.375ZM248.154 39.5C248.887 39.5 249.529 39.3167 250.079 38.95C250.629 38.5833 251.054 38.0833 251.354 37.45C251.671 36.8167 251.829 36.1083 251.829 35.325C251.829 34.525 251.671 33.8083 251.354 33.175C251.054 32.5417 250.629 32.0417 250.079 31.675C249.529 31.3083 248.887 31.125 248.154 31.125C247.437 31.125 246.804 31.3083 246.254 31.675C245.704 32.0417 245.271 32.5417 244.954 33.175C244.654 33.8083 244.504 34.525 244.504 35.325C244.504 36.1083 244.654 36.8167 244.954 37.45C245.271 38.0833 245.704 38.5833 246.254 38.95C246.804 39.3167 247.437 39.5 248.154 39.5ZM267.877 28.625C268.31 28.625 268.669 28.775 268.952 29.075C269.235 29.3583 269.377 29.7167 269.377 30.15V40.775C269.377 42.3083 269.085 43.525 268.502 44.425C267.935 45.3417 267.169 46 266.202 46.4C265.235 46.8 264.152 47 262.952 47C262.419 47 261.852 46.9583 261.252 46.875C260.652 46.7917 260.16 46.6667 259.777 46.5C259.277 46.2833 258.927 46.0083 258.727 45.675C258.544 45.3583 258.51 45.0167 258.627 44.65C258.777 44.1667 259.019 43.8333 259.352 43.65C259.685 43.4833 260.035 43.4667 260.402 43.6C260.669 43.6833 261.019 43.8083 261.452 43.975C261.885 44.1583 262.385 44.25 262.952 44.25C263.719 44.25 264.352 44.1417 264.852 43.925C265.369 43.725 265.752 43.375 266.002 42.875C266.269 42.3917 266.402 41.725 266.402 40.875V39.2L266.927 39.8C266.644 40.35 266.285 40.8083 265.852 41.175C265.435 41.525 264.935 41.7917 264.352 41.975C263.769 42.1583 263.102 42.25 262.352 42.25C261.469 42.25 260.694 42.05 260.027 41.65C259.377 41.2333 258.869 40.6667 258.502 39.95C258.135 39.2167 257.952 38.3833 257.952 37.45V30.15C257.952 29.7167 258.094 29.3583 258.377 29.075C258.66 28.775 259.019 28.625 259.452 28.625C259.885 28.625 260.244 28.775 260.527 29.075C260.81 29.3583 260.952 29.7167 260.952 30.15V36.55C260.952 37.6333 261.185 38.4 261.652 38.85C262.135 39.2833 262.802 39.5 263.652 39.5C264.235 39.5 264.727 39.3917 265.127 39.175C265.527 38.9417 265.835 38.6083 266.052 38.175C266.269 37.725 266.377 37.1833 266.377 36.55V30.15C266.377 29.7167 266.519 29.3583 266.802 29.075C267.085 28.775 267.444 28.625 267.877 28.625Z" fill="white"/>
</svg>
