<svg width="77" height="31" viewBox="0 0 77 31" fill="none" xmlns="http://www.w3.org/2000/svg">
<rect x="0.75" y="0.75" width="75.5" height="29.5" rx="14.75" fill="white"/>
<rect x="0.75" y="0.75" width="75.5" height="29.5" rx="14.75" stroke="#E9E9E9" stroke-width="1.5"/>
<path d="M15.608 20C15.416 20 15.26 19.944 15.14 19.832C15.028 19.712 14.972 19.564 14.972 19.388V12.212C14.972 12.036 15.032 11.892 15.152 11.78C15.272 11.66 15.416 11.6 15.584 11.6H19.64C19.816 11.6 19.96 11.656 20.072 11.768C20.192 11.88 20.252 12.02 20.252 12.188C20.252 12.34 20.192 12.472 20.072 12.584C19.96 12.696 19.816 12.752 19.64 12.752H16.136L16.22 12.632V15.308L16.148 15.164H19.1C19.276 15.164 19.42 15.22 19.532 15.332C19.652 15.444 19.712 15.584 19.712 15.752C19.712 15.904 19.652 16.036 19.532 16.148C19.42 16.26 19.276 16.316 19.1 16.316H16.124L16.22 16.22V19.388C16.22 19.564 16.16 19.712 16.04 19.832C15.92 19.944 15.776 20 15.608 20ZM22.7297 19.388C22.7297 19.564 22.6737 19.712 22.5617 19.832C22.4497 19.944 22.3057 20 22.1297 20C21.9617 20 21.8177 19.944 21.6977 19.832C21.5857 19.712 21.5297 19.564 21.5297 19.388V14.252C21.5297 14.076 21.5857 13.932 21.6977 13.82C21.8177 13.7 21.9617 13.64 22.1297 13.64C22.3057 13.64 22.4497 13.7 22.5617 13.82C22.6737 13.932 22.7297 14.076 22.7297 14.252V19.388ZM22.1177 12.848C21.8857 12.848 21.7177 12.808 21.6137 12.728C21.5097 12.64 21.4577 12.496 21.4577 12.296V12.104C21.4577 11.904 21.5137 11.764 21.6257 11.684C21.7377 11.604 21.9057 11.564 22.1297 11.564C22.3697 11.564 22.5417 11.608 22.6457 11.696C22.7497 11.776 22.8017 11.912 22.8017 12.104V12.296C22.8017 12.504 22.7457 12.648 22.6337 12.728C22.5297 12.808 22.3577 12.848 22.1177 12.848ZM25.6399 19.388C25.6399 19.564 25.5799 19.712 25.4599 19.832C25.3479 19.944 25.2079 20 25.0399 20C24.8719 20 24.7279 19.944 24.6079 19.832C24.4959 19.712 24.4399 19.564 24.4399 19.388V11.732C24.4399 11.556 24.4999 11.412 24.6199 11.3C24.7399 11.18 24.8839 11.12 25.0519 11.12C25.2279 11.12 25.3679 11.18 25.4719 11.3C25.5839 11.412 25.6399 11.556 25.6399 11.732V19.388ZM27.3068 13.76H30.1268C30.2868 13.76 30.4188 13.816 30.5228 13.928C30.6348 14.032 30.6908 14.164 30.6908 14.324C30.6908 14.476 30.6348 14.604 30.5228 14.708C30.4188 14.812 30.2868 14.864 30.1268 14.864H27.3068C27.1468 14.864 27.0108 14.812 26.8988 14.708C26.7948 14.596 26.7428 14.464 26.7428 14.312C26.7428 14.152 26.7948 14.02 26.8988 13.916C27.0108 13.812 27.1468 13.76 27.3068 13.76ZM28.5668 12.2C28.7428 12.2 28.8868 12.26 28.9988 12.38C29.1108 12.492 29.1668 12.636 29.1668 12.812V18.38C29.1668 18.524 29.1908 18.64 29.2388 18.728C29.2868 18.816 29.3508 18.876 29.4308 18.908C29.5188 18.94 29.6068 18.956 29.6948 18.956C29.7828 18.956 29.8588 18.94 29.9228 18.908C29.9948 18.876 30.0788 18.86 30.1748 18.86C30.2708 18.86 30.3588 18.904 30.4388 18.992C30.5188 19.08 30.5588 19.2 30.5588 19.352C30.5588 19.544 30.4548 19.7 30.2468 19.82C30.0388 19.94 29.8148 20 29.5748 20C29.4388 20 29.2788 19.988 29.0948 19.964C28.9108 19.94 28.7308 19.88 28.5548 19.784C28.3868 19.688 28.2468 19.536 28.1348 19.328C28.0228 19.112 27.9668 18.812 27.9668 18.428V12.812C27.9668 12.636 28.0228 12.492 28.1348 12.38C28.2548 12.26 28.3988 12.2 28.5668 12.2ZM34.9011 20.12C34.2371 20.12 33.6611 19.984 33.1731 19.712C32.6851 19.432 32.3051 19.052 32.0331 18.572C31.7691 18.084 31.6371 17.528 31.6371 16.904C31.6371 16.2 31.7771 15.6 32.0571 15.104C32.3451 14.6 32.7171 14.216 33.1731 13.952C33.6291 13.68 34.1131 13.544 34.6251 13.544C35.0171 13.544 35.3891 13.624 35.7411 13.784C36.0931 13.936 36.4051 14.152 36.6771 14.432C36.9571 14.704 37.1771 15.028 37.3371 15.404C37.4971 15.772 37.5811 16.176 37.5891 16.616C37.5811 16.776 37.5171 16.908 37.3971 17.012C37.2771 17.116 37.1371 17.168 36.9771 17.168H32.3091L32.0211 16.148H36.5331L36.3051 16.364V16.064C36.2891 15.784 36.1971 15.54 36.0291 15.332C35.8611 15.116 35.6531 14.952 35.4051 14.84C35.1571 14.72 34.8971 14.66 34.6251 14.66C34.3851 14.66 34.1531 14.7 33.9291 14.78C33.7131 14.852 33.5171 14.972 33.3411 15.14C33.1731 15.308 33.0371 15.532 32.9331 15.812C32.8371 16.084 32.7891 16.424 32.7891 16.832C32.7891 17.272 32.8811 17.656 33.0651 17.984C33.2491 18.312 33.4971 18.568 33.8091 18.752C34.1211 18.928 34.4651 19.016 34.8411 19.016C35.1371 19.016 35.3811 18.988 35.5731 18.932C35.7651 18.868 35.9251 18.792 36.0531 18.704C36.1811 18.616 36.2931 18.532 36.3891 18.452C36.5091 18.38 36.6291 18.344 36.7491 18.344C36.8931 18.344 37.0131 18.396 37.1091 18.5C37.2051 18.596 37.2531 18.712 37.2531 18.848C37.2531 19.024 37.1651 19.184 36.9891 19.328C36.7731 19.536 36.4731 19.72 36.0891 19.88C35.7131 20.04 35.3171 20.12 34.9011 20.12ZM39.5455 20C39.3695 20 39.2255 19.944 39.1135 19.832C39.0015 19.712 38.9455 19.564 38.9455 19.388V14.3C38.9455 14.124 39.0015 13.98 39.1135 13.868C39.2255 13.748 39.3695 13.688 39.5455 13.688C39.7135 13.688 39.8535 13.748 39.9655 13.868C40.0855 13.98 40.1455 14.124 40.1455 14.3V15.644L40.0255 15.128C40.0895 14.904 40.1855 14.696 40.3135 14.504C40.4495 14.312 40.6095 14.144 40.7935 14C40.9775 13.856 41.1815 13.744 41.4055 13.664C41.6375 13.584 41.8775 13.544 42.1255 13.544C42.3335 13.544 42.5135 13.6 42.6655 13.712C42.8175 13.824 42.8935 13.964 42.8935 14.132C42.8935 14.348 42.8375 14.508 42.7255 14.612C42.6135 14.708 42.4895 14.756 42.3535 14.756C42.2335 14.756 42.1175 14.732 42.0055 14.684C41.8935 14.628 41.7615 14.6 41.6095 14.6C41.4415 14.6 41.2695 14.644 41.0935 14.732C40.9175 14.82 40.7575 14.952 40.6135 15.128C40.4695 15.296 40.3535 15.496 40.2655 15.728C40.1855 15.96 40.1455 16.22 40.1455 16.508V19.388C40.1455 19.564 40.0855 19.712 39.9655 19.832C39.8535 19.944 39.7135 20 39.5455 20Z" fill="#161117"/>
<g clip-path="url(#clip0_84_497)">
<path d="M61.125 12.125H55.875C55.3447 12.125 55.0795 12.125 54.9148 12.2796C54.75 12.4341 54.75 12.6829 54.75 13.1805V13.4392C54.75 13.8284 54.75 14.023 54.8474 14.1843C54.9447 14.3456 55.1226 14.4457 55.4783 14.646L56.5706 15.2609C56.8093 15.3952 56.9286 15.4624 57.0141 15.5366C57.192 15.6911 57.3015 15.8726 57.3512 16.0952C57.375 16.2021 57.375 16.3272 57.375 16.5773L57.375 17.5784C57.375 17.9195 57.375 18.09 57.4695 18.223C57.5639 18.3559 57.7317 18.4215 58.0673 18.5527C58.7718 18.8281 59.124 18.9658 59.3745 18.8091C59.625 18.6525 59.625 18.2944 59.625 17.5784V16.5774C59.625 16.3272 59.625 16.2021 59.6488 16.0952C59.6985 15.8726 59.808 15.6911 59.9859 15.5366C60.0714 15.4624 60.1907 15.3952 60.4294 15.2609L61.5217 14.646C61.8774 14.4457 62.0553 14.3456 62.1527 14.1843C62.25 14.023 62.25 13.8284 62.25 13.4392V13.1805C62.25 12.6829 62.25 12.4341 62.0852 12.2796C61.9205 12.125 61.6553 12.125 61.125 12.125Z" stroke="#1C274C"/>
<path d="M55.5883 14.5279L58.5001 12" stroke="#1C274C"/>
</g>
<defs>
<clipPath id="clip0_84_497">
<rect width="9" height="9" fill="white" transform="translate(54 11)"/>
</clipPath>
</defs>
</svg>
