<svg width="69" height="27" viewBox="0 0 69 27" fill="none" xmlns="http://www.w3.org/2000/svg">
<rect x="0.75" y="0.75" width="67.5" height="25.5" rx="12.75" fill="white"/>
<rect x="0.75" y="0.75" width="67.5" height="25.5" rx="12.75" stroke="#E9E9E9" stroke-width="1.5"/>
<path d="M15.206 17C15.062 17 14.945 16.958 14.855 16.874C14.771 16.784 14.729 16.673 14.729 16.541V11.159C14.729 11.027 14.774 10.919 14.864 10.835C14.954 10.745 15.062 10.7 15.188 10.7H18.23C18.362 10.7 18.47 10.742 18.554 10.826C18.644 10.91 18.689 11.015 18.689 11.141C18.689 11.255 18.644 11.354 18.554 11.438C18.47 11.522 18.362 11.564 18.23 11.564H15.602L15.665 11.474V13.481L15.611 13.373H17.825C17.957 13.373 18.065 13.415 18.149 13.499C18.239 13.583 18.284 13.688 18.284 13.814C18.284 13.928 18.239 14.027 18.149 14.111C18.065 14.195 17.957 14.237 17.825 14.237H15.593L15.665 14.165V16.541C15.665 16.673 15.62 16.784 15.53 16.874C15.44 16.958 15.332 17 15.206 17ZM20.5473 16.541C20.5473 16.673 20.5053 16.784 20.4213 16.874C20.3373 16.958 20.2293 17 20.0973 17C19.9713 17 19.8633 16.958 19.7733 16.874C19.6893 16.784 19.6473 16.673 19.6473 16.541V12.689C19.6473 12.557 19.6893 12.449 19.7733 12.365C19.8633 12.275 19.9713 12.23 20.0973 12.23C20.2293 12.23 20.3373 12.275 20.4213 12.365C20.5053 12.449 20.5473 12.557 20.5473 12.689V16.541ZM20.0883 11.636C19.9143 11.636 19.7883 11.606 19.7103 11.546C19.6323 11.48 19.5933 11.372 19.5933 11.222V11.078C19.5933 10.928 19.6353 10.823 19.7193 10.763C19.8033 10.703 19.9293 10.673 20.0973 10.673C20.2773 10.673 20.4063 10.706 20.4843 10.772C20.5623 10.832 20.6013 10.934 20.6013 11.078V11.222C20.6013 11.378 20.5593 11.486 20.4753 11.546C20.3973 11.606 20.2683 11.636 20.0883 11.636ZM22.7299 16.541C22.7299 16.673 22.6849 16.784 22.5949 16.874C22.5109 16.958 22.4059 17 22.2799 17C22.1539 17 22.0459 16.958 21.9559 16.874C21.8719 16.784 21.8299 16.673 21.8299 16.541V10.799C21.8299 10.667 21.8749 10.559 21.9649 10.475C22.0549 10.385 22.1629 10.34 22.2889 10.34C22.4209 10.34 22.5259 10.385 22.6039 10.475C22.6879 10.559 22.7299 10.667 22.7299 10.799V16.541ZM23.9801 12.32H26.0951C26.2151 12.32 26.3141 12.362 26.3921 12.446C26.4761 12.524 26.5181 12.623 26.5181 12.743C26.5181 12.857 26.4761 12.953 26.3921 13.031C26.3141 13.109 26.2151 13.148 26.0951 13.148H23.9801C23.8601 13.148 23.7581 13.109 23.6741 13.031C23.5961 12.947 23.5571 12.848 23.5571 12.734C23.5571 12.614 23.5961 12.515 23.6741 12.437C23.7581 12.359 23.8601 12.32 23.9801 12.32ZM24.9251 11.15C25.0571 11.15 25.1651 11.195 25.2491 11.285C25.3331 11.369 25.3751 11.477 25.3751 11.609V15.785C25.3751 15.893 25.3931 15.98 25.4291 16.046C25.4651 16.112 25.5131 16.157 25.5731 16.181C25.6391 16.205 25.7051 16.217 25.7711 16.217C25.8371 16.217 25.8941 16.205 25.9421 16.181C25.9961 16.157 26.0591 16.145 26.1311 16.145C26.2031 16.145 26.2691 16.178 26.3291 16.244C26.3891 16.31 26.4191 16.4 26.4191 16.514C26.4191 16.658 26.3411 16.775 26.1851 16.865C26.0291 16.955 25.8611 17 25.6811 17C25.5791 17 25.4591 16.991 25.3211 16.973C25.1831 16.955 25.0481 16.91 24.9161 16.838C24.7901 16.766 24.6851 16.652 24.6011 16.496C24.5171 16.334 24.4751 16.109 24.4751 15.821V11.609C24.4751 11.477 24.5171 11.369 24.6011 11.285C24.6911 11.195 24.7991 11.15 24.9251 11.15ZM29.6758 17.09C29.1778 17.09 28.7458 16.988 28.3798 16.784C28.0138 16.574 27.7288 16.289 27.5248 15.929C27.3268 15.563 27.2278 15.146 27.2278 14.678C27.2278 14.15 27.3328 13.7 27.5428 13.328C27.7588 12.95 28.0378 12.662 28.3798 12.464C28.7218 12.26 29.0848 12.158 29.4688 12.158C29.7628 12.158 30.0418 12.218 30.3058 12.338C30.5698 12.452 30.8038 12.614 31.0078 12.824C31.2178 13.028 31.3828 13.271 31.5028 13.553C31.6228 13.829 31.6858 14.132 31.6918 14.462C31.6858 14.582 31.6378 14.681 31.5478 14.759C31.4578 14.837 31.3528 14.876 31.2328 14.876H27.7318L27.5158 14.111H30.8998L30.7288 14.273V14.048C30.7168 13.838 30.6478 13.655 30.5218 13.499C30.3958 13.337 30.2398 13.214 30.0538 13.13C29.8678 13.04 29.6728 12.995 29.4688 12.995C29.2888 12.995 29.1148 13.025 28.9468 13.085C28.7848 13.139 28.6378 13.229 28.5058 13.355C28.3798 13.481 28.2778 13.649 28.1998 13.859C28.1278 14.063 28.0918 14.318 28.0918 14.624C28.0918 14.954 28.1608 15.242 28.2988 15.488C28.4368 15.734 28.6228 15.926 28.8568 16.064C29.0908 16.196 29.3488 16.262 29.6308 16.262C29.8528 16.262 30.0358 16.241 30.1798 16.199C30.3238 16.151 30.4438 16.094 30.5398 16.028C30.6358 15.962 30.7198 15.899 30.7918 15.839C30.8818 15.785 30.9718 15.758 31.0618 15.758C31.1698 15.758 31.2598 15.797 31.3318 15.875C31.4038 15.947 31.4398 16.034 31.4398 16.136C31.4398 16.268 31.3738 16.388 31.2418 16.496C31.0798 16.652 30.8548 16.79 30.5668 16.91C30.2848 17.03 29.9878 17.09 29.6758 17.09ZM33.1591 17C33.0271 17 32.9191 16.958 32.8351 16.874C32.7511 16.784 32.7091 16.673 32.7091 16.541V12.725C32.7091 12.593 32.7511 12.485 32.8351 12.401C32.9191 12.311 33.0271 12.266 33.1591 12.266C33.2851 12.266 33.3901 12.311 33.4741 12.401C33.5641 12.485 33.6091 12.593 33.6091 12.725V13.733L33.5191 13.346C33.5671 13.178 33.6391 13.022 33.7351 12.878C33.8371 12.734 33.9571 12.608 34.0951 12.5C34.2331 12.392 34.3861 12.308 34.5541 12.248C34.7281 12.188 34.9081 12.158 35.0941 12.158C35.2501 12.158 35.3851 12.2 35.4991 12.284C35.6131 12.368 35.6701 12.473 35.6701 12.599C35.6701 12.761 35.6281 12.881 35.5441 12.959C35.4601 13.031 35.3671 13.067 35.2651 13.067C35.1751 13.067 35.0881 13.049 35.0041 13.013C34.9201 12.971 34.8211 12.95 34.7071 12.95C34.5811 12.95 34.4521 12.983 34.3201 13.049C34.1881 13.115 34.0681 13.214 33.9601 13.346C33.8521 13.472 33.7651 13.622 33.6991 13.796C33.6391 13.97 33.6091 14.165 33.6091 14.381V16.541C33.6091 16.673 33.5641 16.784 33.4741 16.874C33.3901 16.958 33.2851 17 33.1591 17Z" fill="#161117"/>
<g clip-path="url(#clip0_84_496)">
<path d="M53.125 10.125H47.875C47.3447 10.125 47.0795 10.125 46.9148 10.2796C46.75 10.4341 46.75 10.6829 46.75 11.1805V11.4392C46.75 11.8284 46.75 12.023 46.8474 12.1843C46.9447 12.3456 47.1226 12.4457 47.4783 12.646L48.5706 13.2609C48.8093 13.3952 48.9286 13.4624 49.0141 13.5366C49.192 13.6911 49.3015 13.8726 49.3512 14.0952C49.375 14.2021 49.375 14.3272 49.375 14.5773L49.375 15.5784C49.375 15.9195 49.375 16.09 49.4695 16.223C49.5639 16.3559 49.7317 16.4215 50.0673 16.5527C50.7718 16.8281 51.124 16.9658 51.3745 16.8091C51.625 16.6525 51.625 16.2944 51.625 15.5784V14.5774C51.625 14.3272 51.625 14.2021 51.6488 14.0952C51.6985 13.8726 51.808 13.6911 51.9859 13.5366C52.0714 13.4624 52.1907 13.3952 52.4294 13.2609L53.5217 12.646C53.8774 12.4457 54.0553 12.3456 54.1527 12.1843C54.25 12.023 54.25 11.8284 54.25 11.4392V11.1805C54.25 10.6829 54.25 10.4341 54.0852 10.2796C53.9205 10.125 53.6553 10.125 53.125 10.125Z" stroke="#1C274C"/>
<path d="M47.5883 12.5279L50.5001 10" stroke="#1C274C"/>
</g>
<defs>
<clipPath id="clip0_84_496">
<rect width="9" height="9" fill="white" transform="translate(46 9)"/>
</clipPath>
</defs>
</svg>
