<svg width="81" height="34" viewBox="0 0 81 34" fill="none" xmlns="http://www.w3.org/2000/svg">
<rect x="0.75" y="0.75" width="79.5" height="32.5" rx="16.25" fill="white"/>
<rect x="0.75" y="0.75" width="79.5" height="32.5" rx="16.25" stroke="#E9E9E9" stroke-width="1.5"/>
<path d="M15.876 22C15.652 22 15.47 21.9347 15.33 21.804C15.1993 21.664 15.134 21.4913 15.134 21.286V12.914C15.134 12.7087 15.204 12.5407 15.344 12.41C15.484 12.27 15.652 12.2 15.848 12.2H20.58C20.7853 12.2 20.9533 12.2653 21.084 12.396C21.224 12.5267 21.294 12.69 21.294 12.886C21.294 13.0633 21.224 13.2173 21.084 13.348C20.9533 13.4787 20.7853 13.544 20.58 13.544H16.492L16.59 13.404V16.526L16.506 16.358H19.95C20.1553 16.358 20.3233 16.4233 20.454 16.554C20.594 16.6847 20.664 16.848 20.664 17.044C20.664 17.2213 20.594 17.3753 20.454 17.506C20.3233 17.6367 20.1553 17.702 19.95 17.702H16.478L16.59 17.59V21.286C16.59 21.4913 16.52 21.664 16.38 21.804C16.24 21.9347 16.072 22 15.876 22ZM24.1847 21.286C24.1847 21.4913 24.1193 21.664 23.9887 21.804C23.858 21.9347 23.69 22 23.4847 22C23.2887 22 23.1207 21.9347 22.9807 21.804C22.85 21.664 22.7847 21.4913 22.7847 21.286V15.294C22.7847 15.0887 22.85 14.9207 22.9807 14.79C23.1207 14.65 23.2887 14.58 23.4847 14.58C23.69 14.58 23.858 14.65 23.9887 14.79C24.1193 14.9207 24.1847 15.0887 24.1847 15.294V21.286ZM23.4707 13.656C23.2 13.656 23.004 13.6093 22.8827 13.516C22.7613 13.4133 22.7007 13.2453 22.7007 13.012V12.788C22.7007 12.5547 22.766 12.3913 22.8967 12.298C23.0273 12.2047 23.2233 12.158 23.4847 12.158C23.7647 12.158 23.9653 12.2093 24.0867 12.312C24.208 12.4053 24.2687 12.564 24.2687 12.788V13.012C24.2687 13.2547 24.2033 13.4227 24.0727 13.516C23.9513 13.6093 23.7507 13.656 23.4707 13.656ZM27.5799 21.286C27.5799 21.4913 27.5099 21.664 27.3699 21.804C27.2392 21.9347 27.0759 22 26.8799 22C26.6839 22 26.5159 21.9347 26.3759 21.804C26.2452 21.664 26.1799 21.4913 26.1799 21.286V12.354C26.1799 12.1487 26.2499 11.9807 26.3899 11.85C26.5299 11.71 26.6979 11.64 26.8939 11.64C27.0992 11.64 27.2626 11.71 27.3839 11.85C27.5146 11.9807 27.5799 12.1487 27.5799 12.354V21.286ZM29.5246 14.72H32.8146C33.0012 14.72 33.1552 14.7853 33.2766 14.916C33.4072 15.0373 33.4726 15.1913 33.4726 15.378C33.4726 15.5553 33.4072 15.7047 33.2766 15.826C33.1552 15.9473 33.0012 16.008 32.8146 16.008H29.5246C29.3379 16.008 29.1792 15.9473 29.0486 15.826C28.9272 15.6953 28.8666 15.5413 28.8666 15.364C28.8666 15.1773 28.9272 15.0233 29.0486 14.902C29.1792 14.7807 29.3379 14.72 29.5246 14.72ZM30.9946 12.9C31.1999 12.9 31.3679 12.97 31.4986 13.11C31.6292 13.2407 31.6946 13.4087 31.6946 13.614V20.11C31.6946 20.278 31.7226 20.4133 31.7786 20.516C31.8346 20.6187 31.9092 20.6887 32.0026 20.726C32.1052 20.7633 32.2079 20.782 32.3106 20.782C32.4132 20.782 32.5019 20.7633 32.5766 20.726C32.6606 20.6887 32.7586 20.67 32.8706 20.67C32.9826 20.67 33.0852 20.7213 33.1786 20.824C33.2719 20.9267 33.3186 21.0667 33.3186 21.244C33.3186 21.468 33.1972 21.65 32.9546 21.79C32.7119 21.93 32.4506 22 32.1706 22C32.0119 22 31.8252 21.986 31.6106 21.958C31.3959 21.93 31.1859 21.86 30.9806 21.748C30.7846 21.636 30.6212 21.4587 30.4906 21.216C30.3599 20.964 30.2946 20.614 30.2946 20.166V13.614C30.2946 13.4087 30.3599 13.2407 30.4906 13.11C30.6306 12.97 30.7986 12.9 30.9946 12.9ZM38.3846 22.14C37.6099 22.14 36.9379 21.9813 36.3686 21.664C35.7993 21.3373 35.3559 20.894 35.0386 20.334C34.7306 19.7647 34.5766 19.116 34.5766 18.388C34.5766 17.5667 34.7399 16.8667 35.0666 16.288C35.4026 15.7 35.8366 15.252 36.3686 14.944C36.9006 14.6267 37.4653 14.468 38.0626 14.468C38.5199 14.468 38.9539 14.5613 39.3646 14.748C39.7753 14.9253 40.1393 15.1773 40.4566 15.504C40.7833 15.8213 41.0399 16.1993 41.2266 16.638C41.4133 17.0673 41.5113 17.5387 41.5206 18.052C41.5113 18.2387 41.4366 18.3927 41.2966 18.514C41.1566 18.6353 40.9933 18.696 40.8066 18.696H35.3606L35.0246 17.506H40.2886L40.0226 17.758V17.408C40.0039 17.0813 39.8966 16.7967 39.7006 16.554C39.5046 16.302 39.2619 16.1107 38.9726 15.98C38.6833 15.84 38.3799 15.77 38.0626 15.77C37.7826 15.77 37.5119 15.8167 37.2506 15.91C36.9986 15.994 36.7699 16.134 36.5646 16.33C36.3686 16.526 36.2099 16.7873 36.0886 17.114C35.9766 17.4313 35.9206 17.828 35.9206 18.304C35.9206 18.8173 36.0279 19.2653 36.2426 19.648C36.4573 20.0307 36.7466 20.3293 37.1106 20.544C37.4746 20.7493 37.8759 20.852 38.3146 20.852C38.6599 20.852 38.9446 20.8193 39.1686 20.754C39.3926 20.6793 39.5793 20.5907 39.7286 20.488C39.8779 20.3853 40.0086 20.2873 40.1206 20.194C40.2606 20.11 40.4006 20.068 40.5406 20.068C40.7086 20.068 40.8486 20.1287 40.9606 20.25C41.0726 20.362 41.1286 20.4973 41.1286 20.656C41.1286 20.8613 41.0259 21.048 40.8206 21.216C40.5686 21.4587 40.2186 21.6733 39.7706 21.86C39.3319 22.0467 38.8699 22.14 38.3846 22.14ZM43.803 22C43.5977 22 43.4297 21.9347 43.299 21.804C43.1684 21.664 43.103 21.4913 43.103 21.286V15.35C43.103 15.1447 43.1684 14.9767 43.299 14.846C43.4297 14.706 43.5977 14.636 43.803 14.636C43.999 14.636 44.1624 14.706 44.293 14.846C44.433 14.9767 44.503 15.1447 44.503 15.35V16.918L44.363 16.316C44.4377 16.0547 44.5497 15.812 44.699 15.588C44.8577 15.364 45.0444 15.168 45.259 15C45.4737 14.832 45.7117 14.7013 45.973 14.608C46.2437 14.5147 46.5237 14.468 46.813 14.468C47.0557 14.468 47.2657 14.5333 47.443 14.664C47.6204 14.7947 47.709 14.958 47.709 15.154C47.709 15.406 47.6437 15.5927 47.513 15.714C47.3824 15.826 47.2377 15.882 47.079 15.882C46.939 15.882 46.8037 15.854 46.673 15.798C46.5424 15.7327 46.3884 15.7 46.211 15.7C46.015 15.7 45.8144 15.7513 45.609 15.854C45.4037 15.9567 45.217 16.1107 45.049 16.316C44.881 16.512 44.7457 16.7453 44.643 17.016C44.5497 17.2867 44.503 17.59 44.503 17.926V21.286C44.503 21.4913 44.433 21.664 44.293 21.804C44.1624 21.9347 43.999 22 43.803 22Z" fill="#161117"/>
<path d="M65.125 13.625H59.875C59.3447 13.625 59.0795 13.625 58.9148 13.7796C58.75 13.9341 58.75 14.1829 58.75 14.6805V14.9392C58.75 15.3284 58.75 15.523 58.8474 15.6843C58.9447 15.8456 59.1226 15.9457 59.4783 16.146L60.5706 16.7609C60.8093 16.8952 60.9286 16.9624 61.0141 17.0366C61.192 17.1911 61.3015 17.3726 61.3512 17.5952C61.375 17.7021 61.375 17.8272 61.375 18.0773L61.375 19.0784C61.375 19.4195 61.375 19.59 61.4695 19.723C61.5639 19.8559 61.7317 19.9215 62.0673 20.0527C62.7718 20.3281 63.124 20.4658 63.3745 20.3091C63.625 20.1525 63.625 19.7944 63.625 19.0784V18.0774C63.625 17.8272 63.625 17.7021 63.6488 17.5952C63.6985 17.3726 63.808 17.1911 63.9859 17.0366C64.0714 16.9624 64.1907 16.8952 64.4294 16.7609L65.5217 16.146C65.8774 15.9457 66.0553 15.8456 66.1527 15.6843C66.25 15.523 66.25 15.3284 66.25 14.9392V14.6805C66.25 14.1829 66.25 13.9341 66.0852 13.7796C65.9205 13.625 65.6553 13.625 65.125 13.625Z" stroke="#1C274C"/>
<path d="M59.5883 16.0279L62.5001 13.5" stroke="#1C274C"/>
</svg>
