<svg width="123" height="31" viewBox="0 0 123 31" fill="none" xmlns="http://www.w3.org/2000/svg">
<rect x="0.75" y="0.75" width="121.5" height="29.5" rx="14.75" fill="white"/>
<rect x="0.75" y="0.75" width="121.5" height="29.5" rx="14.75" stroke="#E9E9E9" stroke-width="1.5"/>
<path d="M15.608 20C15.416 20 15.26 19.944 15.14 19.832C15.028 19.712 14.972 19.564 14.972 19.388V12.212C14.972 12.036 15.032 11.892 15.152 11.78C15.272 11.66 15.416 11.6 15.584 11.6H19.64C19.816 11.6 19.96 11.656 20.072 11.768C20.192 11.88 20.252 12.02 20.252 12.188C20.252 12.34 20.192 12.472 20.072 12.584C19.96 12.696 19.816 12.752 19.64 12.752H16.136L16.22 12.632V15.308L16.148 15.164H19.1C19.276 15.164 19.42 15.22 19.532 15.332C19.652 15.444 19.712 15.584 19.712 15.752C19.712 15.904 19.652 16.036 19.532 16.148C19.42 16.26 19.276 16.316 19.1 16.316H16.124L16.22 16.22V19.388C16.22 19.564 16.16 19.712 16.04 19.832C15.92 19.944 15.776 20 15.608 20ZM22.0963 20C21.9203 20 21.7763 19.944 21.6643 19.832C21.5523 19.712 21.4963 19.564 21.4963 19.388V14.3C21.4963 14.124 21.5523 13.98 21.6643 13.868C21.7763 13.748 21.9203 13.688 22.0963 13.688C22.2643 13.688 22.4043 13.748 22.5163 13.868C22.6363 13.98 22.6963 14.124 22.6963 14.3V15.644L22.5763 15.128C22.6403 14.904 22.7363 14.696 22.8643 14.504C23.0003 14.312 23.1603 14.144 23.3443 14C23.5283 13.856 23.7323 13.744 23.9563 13.664C24.1883 13.584 24.4283 13.544 24.6763 13.544C24.8843 13.544 25.0643 13.6 25.2163 13.712C25.3683 13.824 25.4443 13.964 25.4443 14.132C25.4443 14.348 25.3883 14.508 25.2763 14.612C25.1643 14.708 25.0403 14.756 24.9043 14.756C24.7843 14.756 24.6683 14.732 24.5563 14.684C24.4443 14.628 24.3123 14.6 24.1603 14.6C23.9923 14.6 23.8203 14.644 23.6443 14.732C23.4683 14.82 23.3083 14.952 23.1643 15.128C23.0203 15.296 22.9043 15.496 22.8163 15.728C22.7363 15.96 22.6963 16.22 22.6963 16.508V19.388C22.6963 19.564 22.6363 19.712 22.5163 19.832C22.4043 19.944 22.2643 20 22.0963 20ZM29.1823 20.12C28.5183 20.12 27.9423 19.984 27.4543 19.712C26.9663 19.432 26.5863 19.052 26.3143 18.572C26.0503 18.084 25.9183 17.528 25.9183 16.904C25.9183 16.2 26.0583 15.6 26.3383 15.104C26.6263 14.6 26.9983 14.216 27.4543 13.952C27.9103 13.68 28.3943 13.544 28.9063 13.544C29.2983 13.544 29.6703 13.624 30.0223 13.784C30.3743 13.936 30.6863 14.152 30.9583 14.432C31.2383 14.704 31.4583 15.028 31.6183 15.404C31.7783 15.772 31.8623 16.176 31.8703 16.616C31.8623 16.776 31.7983 16.908 31.6783 17.012C31.5583 17.116 31.4183 17.168 31.2583 17.168H26.5903L26.3023 16.148H30.8143L30.5863 16.364V16.064C30.5703 15.784 30.4783 15.54 30.3103 15.332C30.1423 15.116 29.9343 14.952 29.6863 14.84C29.4383 14.72 29.1783 14.66 28.9063 14.66C28.6663 14.66 28.4343 14.7 28.2103 14.78C27.9943 14.852 27.7983 14.972 27.6223 15.14C27.4543 15.308 27.3183 15.532 27.2143 15.812C27.1183 16.084 27.0703 16.424 27.0703 16.832C27.0703 17.272 27.1623 17.656 27.3463 17.984C27.5303 18.312 27.7783 18.568 28.0903 18.752C28.4023 18.928 28.7463 19.016 29.1223 19.016C29.4183 19.016 29.6623 18.988 29.8543 18.932C30.0463 18.868 30.2063 18.792 30.3343 18.704C30.4623 18.616 30.5743 18.532 30.6703 18.452C30.7903 18.38 30.9103 18.344 31.0303 18.344C31.1743 18.344 31.2943 18.396 31.3903 18.5C31.4863 18.596 31.5343 18.712 31.5343 18.848C31.5343 19.024 31.4463 19.184 31.2703 19.328C31.0543 19.536 30.7543 19.72 30.3703 19.88C29.9943 20.04 29.5983 20.12 29.1823 20.12ZM36.1667 20.12C35.5027 20.12 34.9267 19.984 34.4387 19.712C33.9507 19.432 33.5707 19.052 33.2987 18.572C33.0347 18.084 32.9027 17.528 32.9027 16.904C32.9027 16.2 33.0427 15.6 33.3227 15.104C33.6107 14.6 33.9827 14.216 34.4387 13.952C34.8947 13.68 35.3787 13.544 35.8907 13.544C36.2827 13.544 36.6547 13.624 37.0067 13.784C37.3587 13.936 37.6707 14.152 37.9427 14.432C38.2227 14.704 38.4427 15.028 38.6027 15.404C38.7627 15.772 38.8467 16.176 38.8547 16.616C38.8467 16.776 38.7827 16.908 38.6627 17.012C38.5427 17.116 38.4027 17.168 38.2427 17.168H33.5747L33.2867 16.148H37.7987L37.5707 16.364V16.064C37.5547 15.784 37.4627 15.54 37.2947 15.332C37.1267 15.116 36.9187 14.952 36.6707 14.84C36.4227 14.72 36.1627 14.66 35.8907 14.66C35.6507 14.66 35.4187 14.7 35.1947 14.78C34.9787 14.852 34.7827 14.972 34.6067 15.14C34.4387 15.308 34.3027 15.532 34.1987 15.812C34.1027 16.084 34.0547 16.424 34.0547 16.832C34.0547 17.272 34.1467 17.656 34.3307 17.984C34.5147 18.312 34.7627 18.568 35.0747 18.752C35.3867 18.928 35.7307 19.016 36.1067 19.016C36.4027 19.016 36.6467 18.988 36.8387 18.932C37.0307 18.868 37.1907 18.792 37.3187 18.704C37.4467 18.616 37.5587 18.532 37.6547 18.452C37.7747 18.38 37.8947 18.344 38.0147 18.344C38.1587 18.344 38.2787 18.396 38.3747 18.5C38.4707 18.596 38.5187 18.712 38.5187 18.848C38.5187 19.024 38.4307 19.184 38.2547 19.328C38.0387 19.536 37.7387 19.72 37.3547 19.88C36.9787 20.04 36.5827 20.12 36.1667 20.12ZM44.4029 20C44.2109 20 44.0429 19.944 43.8989 19.832C43.7549 19.712 43.6829 19.564 43.6829 19.388V12.212C43.6829 12.036 43.7429 11.892 43.8629 11.78C43.9829 11.66 44.1269 11.6 44.2949 11.6H47.6789C48.1109 11.6 48.5069 11.708 48.8669 11.924C49.2269 12.132 49.5149 12.424 49.7309 12.8C49.9549 13.168 50.0669 13.592 50.0669 14.072C50.0669 14.392 50.0029 14.7 49.8749 14.996C49.7469 15.284 49.5749 15.54 49.3589 15.764C49.1429 15.988 48.8989 16.156 48.6269 16.268L48.4949 16.04C48.7429 16.128 48.9589 16.256 49.1429 16.424C49.3269 16.584 49.4709 16.776 49.5749 17C49.6869 17.216 49.7469 17.464 49.7549 17.744C49.7789 17.992 49.7989 18.2 49.8149 18.368C49.8389 18.528 49.8709 18.66 49.9109 18.764C49.9509 18.868 50.0229 18.948 50.1269 19.004C50.2709 19.084 50.3589 19.204 50.3909 19.364C50.4309 19.524 50.3989 19.668 50.2949 19.796C50.2229 19.892 50.1309 19.956 50.0189 19.988C49.9149 20.012 49.8069 20.016 49.6949 20C49.5829 19.976 49.4869 19.944 49.4069 19.904C49.2789 19.824 49.1469 19.712 49.0109 19.568C48.8829 19.416 48.7789 19.208 48.6989 18.944C48.6189 18.68 48.5789 18.332 48.5789 17.9C48.5789 17.7 48.5469 17.528 48.4829 17.384C48.4189 17.24 48.3309 17.124 48.2189 17.036C48.1069 16.94 47.9749 16.872 47.8229 16.832C47.6709 16.784 47.5029 16.76 47.3189 16.76H44.7749L44.9429 16.52V19.388C44.9429 19.564 44.8949 19.712 44.7989 19.832C44.7029 19.944 44.5709 20 44.4029 20ZM44.7869 15.716H47.6549C47.8389 15.708 48.0149 15.636 48.1829 15.5C48.3589 15.356 48.4989 15.164 48.6029 14.924C48.7149 14.684 48.7709 14.412 48.7709 14.108C48.7709 13.724 48.6549 13.404 48.4229 13.148C48.1989 12.884 47.9309 12.752 47.6189 12.752H44.8109L44.9429 12.44V15.968L44.7869 15.716ZM54.6003 20.12C53.9363 20.12 53.3603 19.984 52.8723 19.712C52.3843 19.432 52.0043 19.052 51.7323 18.572C51.4683 18.084 51.3363 17.528 51.3363 16.904C51.3363 16.2 51.4763 15.6 51.7563 15.104C52.0443 14.6 52.4163 14.216 52.8723 13.952C53.3283 13.68 53.8123 13.544 54.3243 13.544C54.7163 13.544 55.0883 13.624 55.4403 13.784C55.7923 13.936 56.1043 14.152 56.3763 14.432C56.6563 14.704 56.8763 15.028 57.0363 15.404C57.1963 15.772 57.2803 16.176 57.2883 16.616C57.2803 16.776 57.2163 16.908 57.0963 17.012C56.9763 17.116 56.8363 17.168 56.6763 17.168H52.0083L51.7203 16.148H56.2323L56.0043 16.364V16.064C55.9883 15.784 55.8963 15.54 55.7283 15.332C55.5603 15.116 55.3523 14.952 55.1043 14.84C54.8563 14.72 54.5963 14.66 54.3243 14.66C54.0843 14.66 53.8523 14.7 53.6283 14.78C53.4123 14.852 53.2163 14.972 53.0403 15.14C52.8723 15.308 52.7363 15.532 52.6323 15.812C52.5363 16.084 52.4883 16.424 52.4883 16.832C52.4883 17.272 52.5803 17.656 52.7643 17.984C52.9483 18.312 53.1963 18.568 53.5083 18.752C53.8203 18.928 54.1643 19.016 54.5403 19.016C54.8363 19.016 55.0803 18.988 55.2723 18.932C55.4643 18.868 55.6243 18.792 55.7523 18.704C55.8803 18.616 55.9923 18.532 56.0883 18.452C56.2083 18.38 56.3283 18.344 56.4483 18.344C56.5923 18.344 56.7123 18.396 56.8083 18.5C56.9043 18.596 56.9523 18.712 56.9523 18.848C56.9523 19.024 56.8643 19.184 56.6883 19.328C56.4723 19.536 56.1723 19.72 55.7883 19.88C55.4123 20.04 55.0163 20.12 54.6003 20.12ZM58.2727 19.016C58.2007 18.904 58.1687 18.776 58.1767 18.632C58.1847 18.48 58.2687 18.352 58.4287 18.248C58.5407 18.176 58.6567 18.148 58.7767 18.164C58.9047 18.172 59.0247 18.232 59.1367 18.344C59.3607 18.592 59.6087 18.788 59.8807 18.932C60.1607 19.076 60.4967 19.148 60.8887 19.148C61.0487 19.14 61.2127 19.116 61.3807 19.076C61.5487 19.028 61.6927 18.948 61.8127 18.836C61.9327 18.716 61.9927 18.544 61.9927 18.32C61.9927 18.12 61.9287 17.96 61.8007 17.84C61.6727 17.72 61.5047 17.624 61.2967 17.552C61.0887 17.472 60.8647 17.4 60.6247 17.336C60.3687 17.264 60.1087 17.184 59.8447 17.096C59.5887 17.008 59.3567 16.896 59.1487 16.76C58.9407 16.616 58.7687 16.432 58.6327 16.208C58.5047 15.984 58.4407 15.708 58.4407 15.38C58.4407 15.004 58.5447 14.68 58.7527 14.408C58.9687 14.136 59.2447 13.924 59.5807 13.772C59.9247 13.62 60.2967 13.544 60.6967 13.544C60.9287 13.544 61.1727 13.576 61.4287 13.64C61.6847 13.696 61.9327 13.788 62.1727 13.916C62.4127 14.044 62.6207 14.212 62.7967 14.42C62.8767 14.524 62.9207 14.648 62.9287 14.792C62.9447 14.936 62.8807 15.064 62.7367 15.176C62.6407 15.256 62.5247 15.292 62.3887 15.284C62.2527 15.276 62.1407 15.232 62.0527 15.152C61.9007 14.96 61.7047 14.812 61.4647 14.708C61.2247 14.596 60.9527 14.54 60.6487 14.54C60.4967 14.54 60.3367 14.564 60.1687 14.612C60.0087 14.652 59.8727 14.728 59.7607 14.84C59.6487 14.952 59.5927 15.116 59.5927 15.332C59.5927 15.532 59.6567 15.692 59.7847 15.812C59.9207 15.932 60.0967 16.032 60.3127 16.112C60.5287 16.192 60.7647 16.264 61.0207 16.328C61.2687 16.392 61.5127 16.468 61.7527 16.556C62.0007 16.644 62.2207 16.76 62.4127 16.904C62.6127 17.04 62.7727 17.22 62.8927 17.444C63.0207 17.66 63.0847 17.936 63.0847 18.272C63.0847 18.664 62.9687 19 62.7367 19.28C62.5127 19.552 62.2247 19.76 61.8727 19.904C61.5287 20.048 61.1647 20.12 60.7807 20.12C60.3247 20.12 59.8687 20.04 59.4127 19.88C58.9647 19.712 58.5847 19.424 58.2727 19.016ZM67.1712 13.544C67.6032 13.544 67.9872 13.592 68.3232 13.688C68.6592 13.776 68.9192 13.904 69.1032 14.072C69.2952 14.232 69.3912 14.42 69.3912 14.636C69.3912 14.772 69.3512 14.9 69.2712 15.02C69.1912 15.132 69.0712 15.188 68.9112 15.188C68.7992 15.188 68.7032 15.168 68.6232 15.128C68.5512 15.088 68.4832 15.04 68.4192 14.984C68.3552 14.928 68.2752 14.872 68.1792 14.816C68.0912 14.768 67.9592 14.728 67.7832 14.696C67.6152 14.664 67.4632 14.648 67.3272 14.648C66.9032 14.648 66.5352 14.744 66.2232 14.936C65.9192 15.128 65.6792 15.388 65.5032 15.716C65.3352 16.044 65.2512 16.416 65.2512 16.832C65.2512 17.248 65.3352 17.62 65.5032 17.948C65.6792 18.276 65.9152 18.536 66.2112 18.728C66.5152 18.92 66.8672 19.016 67.2672 19.016C67.5072 19.016 67.7032 19 67.8552 18.968C68.0072 18.928 68.1392 18.88 68.2512 18.824C68.3712 18.752 68.4712 18.68 68.5512 18.608C68.6392 18.528 68.7592 18.488 68.9112 18.488C69.0872 18.488 69.2192 18.544 69.3072 18.656C69.4032 18.76 69.4512 18.892 69.4512 19.052C69.4512 19.228 69.3432 19.4 69.1272 19.568C68.9192 19.728 68.6392 19.86 68.2872 19.964C67.9352 20.068 67.5472 20.12 67.1232 20.12C66.4992 20.12 65.9552 19.976 65.4912 19.688C65.0352 19.4 64.6792 19.008 64.4232 18.512C64.1752 18.016 64.0512 17.456 64.0512 16.832C64.0512 16.2 64.1832 15.64 64.4472 15.152C64.7112 14.656 65.0792 14.264 65.5512 13.976C66.0232 13.688 66.5632 13.544 67.1712 13.544ZM73.7778 13.58C74.3298 13.58 74.7578 13.7 75.0618 13.94C75.3658 14.172 75.5778 14.488 75.6978 14.888C75.8258 15.288 75.8898 15.728 75.8898 16.208V19.388C75.8898 19.564 75.8298 19.712 75.7098 19.832C75.5978 19.944 75.4578 20 75.2898 20C75.1138 20 74.9698 19.944 74.8578 19.832C74.7458 19.712 74.6898 19.564 74.6898 19.388V16.208C74.6898 15.928 74.6498 15.672 74.5698 15.44C74.4978 15.208 74.3658 15.024 74.1738 14.888C73.9898 14.752 73.7298 14.684 73.3938 14.684C73.0818 14.684 72.8018 14.752 72.5538 14.888C72.3138 15.024 72.1258 15.208 71.9898 15.44C71.8618 15.672 71.7978 15.928 71.7978 16.208V19.388C71.7978 19.564 71.7378 19.712 71.6178 19.832C71.5058 19.944 71.3658 20 71.1978 20C71.0218 20 70.8778 19.944 70.7658 19.832C70.6538 19.712 70.5978 19.564 70.5978 19.388V11.732C70.5978 11.556 70.6538 11.412 70.7658 11.3C70.8778 11.18 71.0218 11.12 71.1978 11.12C71.3658 11.12 71.5058 11.18 71.6178 11.3C71.7378 11.412 71.7978 11.556 71.7978 11.732V15.008L71.5818 15.128C71.6378 14.952 71.7298 14.772 71.8578 14.588C71.9938 14.404 72.1578 14.236 72.3498 14.084C72.5498 13.932 72.7698 13.812 73.0098 13.724C73.2498 13.628 73.5058 13.58 73.7778 13.58ZM80.4988 20.12C79.8348 20.12 79.2588 19.984 78.7708 19.712C78.2828 19.432 77.9028 19.052 77.6308 18.572C77.3668 18.084 77.2348 17.528 77.2348 16.904C77.2348 16.2 77.3748 15.6 77.6548 15.104C77.9428 14.6 78.3148 14.216 78.7708 13.952C79.2268 13.68 79.7108 13.544 80.2228 13.544C80.6148 13.544 80.9868 13.624 81.3388 13.784C81.6908 13.936 82.0028 14.152 82.2748 14.432C82.5548 14.704 82.7748 15.028 82.9348 15.404C83.0948 15.772 83.1788 16.176 83.1868 16.616C83.1788 16.776 83.1148 16.908 82.9948 17.012C82.8748 17.116 82.7348 17.168 82.5748 17.168H77.9068L77.6188 16.148H82.1308L81.9028 16.364V16.064C81.8868 15.784 81.7948 15.54 81.6268 15.332C81.4588 15.116 81.2508 14.952 81.0028 14.84C80.7548 14.72 80.4948 14.66 80.2228 14.66C79.9828 14.66 79.7508 14.7 79.5268 14.78C79.3108 14.852 79.1148 14.972 78.9388 15.14C78.7708 15.308 78.6348 15.532 78.5308 15.812C78.4348 16.084 78.3868 16.424 78.3868 16.832C78.3868 17.272 78.4788 17.656 78.6628 17.984C78.8468 18.312 79.0948 18.568 79.4068 18.752C79.7188 18.928 80.0628 19.016 80.4388 19.016C80.7348 19.016 80.9788 18.988 81.1708 18.932C81.3628 18.868 81.5228 18.792 81.6508 18.704C81.7788 18.616 81.8908 18.532 81.9868 18.452C82.1068 18.38 82.2268 18.344 82.3468 18.344C82.4908 18.344 82.6108 18.396 82.7068 18.5C82.8028 18.596 82.8508 18.712 82.8508 18.848C82.8508 19.024 82.7628 19.184 82.5868 19.328C82.3708 19.536 82.0708 19.72 81.6868 19.88C81.3108 20.04 80.9148 20.12 80.4988 20.12ZM89.7151 11.12C89.8911 11.12 90.0351 11.176 90.1471 11.288C90.2591 11.4 90.3151 11.548 90.3151 11.732V19.388C90.3151 19.564 90.2591 19.712 90.1471 19.832C90.0351 19.944 89.8911 20 89.7151 20C89.5471 20 89.4031 19.944 89.2831 19.832C89.1711 19.712 89.1151 19.564 89.1151 19.388V18.524L89.3671 18.536C89.3671 18.68 89.3071 18.844 89.1871 19.028C89.0751 19.204 88.9191 19.376 88.7191 19.544C88.5191 19.712 88.2831 19.852 88.0111 19.964C87.7391 20.068 87.4471 20.12 87.1351 20.12C86.5831 20.12 86.0871 19.98 85.6471 19.7C85.2071 19.412 84.8591 19.024 84.6031 18.536C84.3471 18.04 84.2191 17.472 84.2191 16.832C84.2191 16.192 84.3471 15.628 84.6031 15.14C84.8591 14.644 85.2031 14.256 85.6351 13.976C86.0751 13.688 86.5631 13.544 87.0991 13.544C87.4351 13.544 87.7471 13.6 88.0351 13.712C88.3311 13.824 88.5871 13.968 88.8031 14.144C89.0191 14.32 89.1871 14.508 89.3071 14.708C89.4271 14.9 89.4871 15.084 89.4871 15.26L89.1151 15.296V11.732C89.1151 11.556 89.1711 11.412 89.2831 11.3C89.4031 11.18 89.5471 11.12 89.7151 11.12ZM87.2671 19.016C87.6511 19.016 87.9831 18.92 88.2631 18.728C88.5511 18.536 88.7751 18.276 88.9351 17.948C89.0951 17.62 89.1751 17.248 89.1751 16.832C89.1751 16.416 89.0951 16.044 88.9351 15.716C88.7751 15.388 88.5511 15.128 88.2631 14.936C87.9751 14.744 87.6431 14.648 87.2671 14.648C86.8991 14.648 86.5711 14.744 86.2831 14.936C86.0031 15.128 85.7791 15.388 85.6111 15.716C85.4511 16.044 85.3711 16.416 85.3711 16.832C85.3711 17.248 85.4511 17.62 85.6111 17.948C85.7791 18.276 86.0031 18.536 86.2831 18.728C86.5711 18.92 86.8991 19.016 87.2671 19.016ZM96.8878 13.688C97.0558 13.688 97.1958 13.748 97.3078 13.868C97.4278 13.98 97.4878 14.124 97.4878 14.3V17.456C97.4878 18.288 97.2558 18.94 96.7918 19.412C96.3278 19.876 95.6718 20.108 94.8238 20.108C93.9838 20.108 93.3318 19.876 92.8678 19.412C92.4118 18.94 92.1838 18.288 92.1838 17.456V14.3C92.1838 14.124 92.2398 13.98 92.3518 13.868C92.4638 13.748 92.6078 13.688 92.7838 13.688C92.9518 13.688 93.0918 13.748 93.2038 13.868C93.3238 13.98 93.3838 14.124 93.3838 14.3V17.456C93.3838 17.976 93.5038 18.364 93.7438 18.62C93.9918 18.876 94.3518 19.004 94.8238 19.004C95.3038 19.004 95.6678 18.876 95.9158 18.62C96.1638 18.364 96.2878 17.976 96.2878 17.456V14.3C96.2878 14.124 96.3438 13.98 96.4558 13.868C96.5678 13.748 96.7118 13.688 96.8878 13.688ZM100.452 19.388C100.452 19.564 100.392 19.712 100.272 19.832C100.16 19.944 100.02 20 99.8524 20C99.6844 20 99.5404 19.944 99.4204 19.832C99.3084 19.712 99.2524 19.564 99.2524 19.388V11.732C99.2524 11.556 99.3124 11.412 99.4324 11.3C99.5524 11.18 99.6964 11.12 99.8644 11.12C100.04 11.12 100.18 11.18 100.284 11.3C100.396 11.412 100.452 11.556 100.452 11.732V19.388ZM105.061 20.12C104.397 20.12 103.821 19.984 103.333 19.712C102.845 19.432 102.465 19.052 102.193 18.572C101.929 18.084 101.797 17.528 101.797 16.904C101.797 16.2 101.937 15.6 102.217 15.104C102.505 14.6 102.877 14.216 103.333 13.952C103.789 13.68 104.273 13.544 104.785 13.544C105.177 13.544 105.549 13.624 105.901 13.784C106.253 13.936 106.565 14.152 106.837 14.432C107.117 14.704 107.337 15.028 107.497 15.404C107.657 15.772 107.741 16.176 107.749 16.616C107.741 16.776 107.677 16.908 107.557 17.012C107.437 17.116 107.297 17.168 107.137 17.168H102.469L102.181 16.148H106.693L106.465 16.364V16.064C106.449 15.784 106.357 15.54 106.189 15.332C106.021 15.116 105.813 14.952 105.565 14.84C105.317 14.72 105.057 14.66 104.785 14.66C104.545 14.66 104.313 14.7 104.089 14.78C103.873 14.852 103.677 14.972 103.501 15.14C103.333 15.308 103.197 15.532 103.093 15.812C102.997 16.084 102.949 16.424 102.949 16.832C102.949 17.272 103.041 17.656 103.225 17.984C103.409 18.312 103.657 18.568 103.969 18.752C104.281 18.928 104.625 19.016 105.001 19.016C105.297 19.016 105.541 18.988 105.733 18.932C105.925 18.868 106.085 18.792 106.213 18.704C106.341 18.616 106.453 18.532 106.549 18.452C106.669 18.38 106.789 18.344 106.909 18.344C107.053 18.344 107.173 18.396 107.269 18.5C107.365 18.596 107.413 18.712 107.413 18.848C107.413 19.024 107.325 19.184 107.149 19.328C106.933 19.536 106.633 19.72 106.249 19.88C105.873 20.04 105.477 20.12 105.061 20.12Z" fill="#161117"/>
</svg>
