<svg width="138" height="34" viewBox="0 0 138 34" fill="none" xmlns="http://www.w3.org/2000/svg">
<rect x="0.75" y="0.75" width="136.5" height="32.5" rx="16.25" fill="white"/>
<rect x="0.75" y="0.75" width="136.5" height="32.5" rx="16.25" stroke="#E9E9E9" stroke-width="1.5"/>
<path d="M15.876 22C15.652 22 15.47 21.9347 15.33 21.804C15.1993 21.664 15.134 21.4913 15.134 21.286V12.914C15.134 12.7087 15.204 12.5407 15.344 12.41C15.484 12.27 15.652 12.2 15.848 12.2H20.58C20.7853 12.2 20.9533 12.2653 21.084 12.396C21.224 12.5267 21.294 12.69 21.294 12.886C21.294 13.0633 21.224 13.2173 21.084 13.348C20.9533 13.4787 20.7853 13.544 20.58 13.544H16.492L16.59 13.404V16.526L16.506 16.358H19.95C20.1553 16.358 20.3233 16.4233 20.454 16.554C20.594 16.6847 20.664 16.848 20.664 17.044C20.664 17.2213 20.594 17.3753 20.454 17.506C20.3233 17.6367 20.1553 17.702 19.95 17.702H16.478L16.59 17.59V21.286C16.59 21.4913 16.52 21.664 16.38 21.804C16.24 21.9347 16.072 22 15.876 22ZM23.4456 22C23.2403 22 23.0723 21.9347 22.9416 21.804C22.811 21.664 22.7456 21.4913 22.7456 21.286V15.35C22.7456 15.1447 22.811 14.9767 22.9416 14.846C23.0723 14.706 23.2403 14.636 23.4456 14.636C23.6416 14.636 23.805 14.706 23.9356 14.846C24.0756 14.9767 24.1456 15.1447 24.1456 15.35V16.918L24.0056 16.316C24.0803 16.0547 24.1923 15.812 24.3416 15.588C24.5003 15.364 24.687 15.168 24.9016 15C25.1163 14.832 25.3543 14.7013 25.6156 14.608C25.8863 14.5147 26.1663 14.468 26.4556 14.468C26.6983 14.468 26.9083 14.5333 27.0856 14.664C27.263 14.7947 27.3516 14.958 27.3516 15.154C27.3516 15.406 27.2863 15.5927 27.1556 15.714C27.025 15.826 26.8803 15.882 26.7216 15.882C26.5816 15.882 26.4463 15.854 26.3156 15.798C26.185 15.7327 26.031 15.7 25.8536 15.7C25.6576 15.7 25.457 15.7513 25.2516 15.854C25.0463 15.9567 24.8596 16.1107 24.6916 16.316C24.5236 16.512 24.3883 16.7453 24.2856 17.016C24.1923 17.2867 24.1456 17.59 24.1456 17.926V21.286C24.1456 21.4913 24.0756 21.664 23.9356 21.804C23.805 21.9347 23.6416 22 23.4456 22ZM31.7127 22.14C30.9381 22.14 30.2661 21.9813 29.6967 21.664C29.1274 21.3373 28.6841 20.894 28.3667 20.334C28.0587 19.7647 27.9047 19.116 27.9047 18.388C27.9047 17.5667 28.0681 16.8667 28.3947 16.288C28.7307 15.7 29.1647 15.252 29.6967 14.944C30.2287 14.6267 30.7934 14.468 31.3907 14.468C31.8481 14.468 32.2821 14.5613 32.6927 14.748C33.1034 14.9253 33.4674 15.1773 33.7847 15.504C34.1114 15.8213 34.3681 16.1993 34.5547 16.638C34.7414 17.0673 34.8394 17.5387 34.8487 18.052C34.8394 18.2387 34.7647 18.3927 34.6247 18.514C34.4847 18.6353 34.3214 18.696 34.1347 18.696H28.6887L28.3527 17.506H33.6167L33.3507 17.758V17.408C33.3321 17.0813 33.2247 16.7967 33.0287 16.554C32.8327 16.302 32.5901 16.1107 32.3007 15.98C32.0114 15.84 31.7081 15.77 31.3907 15.77C31.1107 15.77 30.8401 15.8167 30.5787 15.91C30.3267 15.994 30.0981 16.134 29.8927 16.33C29.6967 16.526 29.5381 16.7873 29.4167 17.114C29.3047 17.4313 29.2487 17.828 29.2487 18.304C29.2487 18.8173 29.3561 19.2653 29.5707 19.648C29.7854 20.0307 30.0747 20.3293 30.4387 20.544C30.8027 20.7493 31.2041 20.852 31.6427 20.852C31.9881 20.852 32.2727 20.8193 32.4967 20.754C32.7207 20.6793 32.9074 20.5907 33.0567 20.488C33.2061 20.3853 33.3367 20.2873 33.4487 20.194C33.5887 20.11 33.7287 20.068 33.8687 20.068C34.0367 20.068 34.1767 20.1287 34.2887 20.25C34.4007 20.362 34.4567 20.4973 34.4567 20.656C34.4567 20.8613 34.3541 21.048 34.1487 21.216C33.8967 21.4587 33.5467 21.6733 33.0987 21.86C32.6601 22.0467 32.1981 22.14 31.7127 22.14ZM39.8612 22.14C39.0865 22.14 38.4145 21.9813 37.8452 21.664C37.2758 21.3373 36.8325 20.894 36.5152 20.334C36.2072 19.7647 36.0532 19.116 36.0532 18.388C36.0532 17.5667 36.2165 16.8667 36.5432 16.288C36.8792 15.7 37.3132 15.252 37.8452 14.944C38.3772 14.6267 38.9418 14.468 39.5392 14.468C39.9965 14.468 40.4305 14.5613 40.8412 14.748C41.2518 14.9253 41.6158 15.1773 41.9332 15.504C42.2598 15.8213 42.5165 16.1993 42.7032 16.638C42.8898 17.0673 42.9878 17.5387 42.9972 18.052C42.9878 18.2387 42.9132 18.3927 42.7732 18.514C42.6332 18.6353 42.4698 18.696 42.2832 18.696H36.8372L36.5012 17.506H41.7652L41.4992 17.758V17.408C41.4805 17.0813 41.3732 16.7967 41.1772 16.554C40.9812 16.302 40.7385 16.1107 40.4492 15.98C40.1598 15.84 39.8565 15.77 39.5392 15.77C39.2592 15.77 38.9885 15.8167 38.7272 15.91C38.4752 15.994 38.2465 16.134 38.0412 16.33C37.8452 16.526 37.6865 16.7873 37.5652 17.114C37.4532 17.4313 37.3972 17.828 37.3972 18.304C37.3972 18.8173 37.5045 19.2653 37.7192 19.648C37.9338 20.0307 38.2232 20.3293 38.5872 20.544C38.9512 20.7493 39.3525 20.852 39.7912 20.852C40.1365 20.852 40.4212 20.8193 40.6452 20.754C40.8692 20.6793 41.0558 20.5907 41.2052 20.488C41.3545 20.3853 41.4852 20.2873 41.5972 20.194C41.7372 20.11 41.8772 20.068 42.0172 20.068C42.1852 20.068 42.3252 20.1287 42.4372 20.25C42.5492 20.362 42.6052 20.4973 42.6052 20.656C42.6052 20.8613 42.5025 21.048 42.2972 21.216C42.0452 21.4587 41.6952 21.6733 41.2472 21.86C40.8085 22.0467 40.3465 22.14 39.8612 22.14ZM49.4701 22C49.2461 22 49.0501 21.9347 48.8821 21.804C48.7141 21.664 48.6301 21.4913 48.6301 21.286V12.914C48.6301 12.7087 48.7001 12.5407 48.8401 12.41C48.9801 12.27 49.1481 12.2 49.3441 12.2H53.2921C53.7961 12.2 54.2581 12.326 54.6781 12.578C55.0981 12.8207 55.4341 13.1613 55.6861 13.6C55.9474 14.0293 56.0781 14.524 56.0781 15.084C56.0781 15.4573 56.0034 15.8167 55.8541 16.162C55.7048 16.498 55.5041 16.7967 55.2521 17.058C55.0001 17.3193 54.7154 17.5153 54.3981 17.646L54.2441 17.38C54.5334 17.4827 54.7854 17.632 55.0001 17.828C55.2148 18.0147 55.3828 18.2387 55.5041 18.5C55.6348 18.752 55.7048 19.0413 55.7141 19.368C55.7421 19.6573 55.7654 19.9 55.7841 20.096C55.8121 20.2827 55.8494 20.4367 55.8961 20.558C55.9428 20.6793 56.0268 20.7727 56.1481 20.838C56.3161 20.9313 56.4188 21.0713 56.4561 21.258C56.5028 21.4447 56.4654 21.6127 56.3441 21.762C56.2601 21.874 56.1528 21.9487 56.0221 21.986C55.9008 22.014 55.7748 22.0187 55.6441 22C55.5134 21.972 55.4014 21.9347 55.3081 21.888C55.1588 21.7947 55.0048 21.664 54.8461 21.496C54.6968 21.3187 54.5754 21.076 54.4821 20.768C54.3888 20.46 54.3421 20.054 54.3421 19.55C54.3421 19.3167 54.3048 19.116 54.2301 18.948C54.1554 18.78 54.0528 18.6447 53.9221 18.542C53.7914 18.43 53.6374 18.3507 53.4601 18.304C53.2828 18.248 53.0868 18.22 52.8721 18.22H49.9041L50.1001 17.94V21.286C50.1001 21.4913 50.0441 21.664 49.9321 21.804C49.8201 21.9347 49.6661 22 49.4701 22ZM49.9181 17.002H53.2641C53.4788 16.9927 53.6841 16.9087 53.8801 16.75C54.0854 16.582 54.2488 16.358 54.3701 16.078C54.5008 15.798 54.5661 15.4807 54.5661 15.126C54.5661 14.678 54.4308 14.3047 54.1601 14.006C53.8988 13.698 53.5861 13.544 53.2221 13.544H49.9461L50.1001 13.18V17.296L49.9181 17.002ZM61.367 22.14C60.5924 22.14 59.9204 21.9813 59.351 21.664C58.7817 21.3373 58.3384 20.894 58.021 20.334C57.713 19.7647 57.559 19.116 57.559 18.388C57.559 17.5667 57.7224 16.8667 58.049 16.288C58.385 15.7 58.819 15.252 59.351 14.944C59.883 14.6267 60.4477 14.468 61.045 14.468C61.5024 14.468 61.9364 14.5613 62.347 14.748C62.7577 14.9253 63.1217 15.1773 63.439 15.504C63.7657 15.8213 64.0224 16.1993 64.209 16.638C64.3957 17.0673 64.4937 17.5387 64.503 18.052C64.4937 18.2387 64.419 18.3927 64.279 18.514C64.139 18.6353 63.9757 18.696 63.789 18.696H58.343L58.007 17.506H63.271L63.005 17.758V17.408C62.9864 17.0813 62.879 16.7967 62.683 16.554C62.487 16.302 62.2444 16.1107 61.955 15.98C61.6657 15.84 61.3624 15.77 61.045 15.77C60.765 15.77 60.4944 15.8167 60.233 15.91C59.981 15.994 59.7524 16.134 59.547 16.33C59.351 16.526 59.1924 16.7873 59.071 17.114C58.959 17.4313 58.903 17.828 58.903 18.304C58.903 18.8173 59.0104 19.2653 59.225 19.648C59.4397 20.0307 59.729 20.3293 60.093 20.544C60.457 20.7493 60.8584 20.852 61.297 20.852C61.6424 20.852 61.927 20.8193 62.151 20.754C62.375 20.6793 62.5617 20.5907 62.711 20.488C62.8604 20.3853 62.991 20.2873 63.103 20.194C63.243 20.11 63.383 20.068 63.523 20.068C63.691 20.068 63.831 20.1287 63.943 20.25C64.055 20.362 64.111 20.4973 64.111 20.656C64.111 20.8613 64.0084 21.048 63.803 21.216C63.551 21.4587 63.201 21.6733 62.753 21.86C62.3144 22.0467 61.8524 22.14 61.367 22.14ZM65.6515 20.852C65.5675 20.7213 65.5301 20.572 65.5395 20.404C65.5488 20.2267 65.6468 20.0773 65.8335 19.956C65.9641 19.872 66.0995 19.8393 66.2395 19.858C66.3888 19.8673 66.5288 19.9373 66.6595 20.068C66.9208 20.3573 67.2101 20.586 67.5275 20.754C67.8541 20.922 68.2461 21.006 68.7035 21.006C68.8901 20.9967 69.0815 20.9687 69.2775 20.922C69.4735 20.866 69.6415 20.7727 69.7815 20.642C69.9215 20.502 69.9915 20.3013 69.9915 20.04C69.9915 19.8067 69.9168 19.62 69.7675 19.48C69.6181 19.34 69.4221 19.228 69.1795 19.144C68.9368 19.0507 68.6755 18.9667 68.3955 18.892C68.0968 18.808 67.7935 18.7147 67.4855 18.612C67.1868 18.5093 66.9161 18.3787 66.6735 18.22C66.4308 18.052 66.2301 17.8373 66.0715 17.576C65.9221 17.3147 65.8475 16.9927 65.8475 16.61C65.8475 16.1713 65.9688 15.7933 66.2115 15.476C66.4635 15.1587 66.7855 14.9113 67.1775 14.734C67.5788 14.5567 68.0128 14.468 68.4795 14.468C68.7501 14.468 69.0348 14.5053 69.3335 14.58C69.6321 14.6453 69.9215 14.7527 70.2015 14.902C70.4815 15.0513 70.7241 15.2473 70.9295 15.49C71.0228 15.6113 71.0741 15.756 71.0835 15.924C71.1021 16.092 71.0275 16.2413 70.8595 16.372C70.7475 16.4653 70.6121 16.5073 70.4535 16.498C70.2948 16.4887 70.1641 16.4373 70.0615 16.344C69.8841 16.12 69.6555 15.9473 69.3755 15.826C69.0955 15.6953 68.7781 15.63 68.4235 15.63C68.2461 15.63 68.0595 15.658 67.8635 15.714C67.6768 15.7607 67.5181 15.8493 67.3875 15.98C67.2568 16.1107 67.1915 16.302 67.1915 16.554C67.1915 16.7873 67.2661 16.974 67.4155 17.114C67.5741 17.254 67.7795 17.3707 68.0315 17.464C68.2835 17.5573 68.5588 17.6413 68.8575 17.716C69.1468 17.7907 69.4315 17.8793 69.7115 17.982C70.0008 18.0847 70.2575 18.22 70.4815 18.388C70.7148 18.5467 70.9015 18.7567 71.0415 19.018C71.1908 19.27 71.2655 19.592 71.2655 19.984C71.2655 20.4413 71.1301 20.8333 70.8595 21.16C70.5981 21.4773 70.2621 21.72 69.8515 21.888C69.4501 22.056 69.0255 22.14 68.5775 22.14C68.0455 22.14 67.5135 22.0467 66.9815 21.86C66.4588 21.664 66.0155 21.328 65.6515 20.852ZM76.033 14.468C76.537 14.468 76.985 14.524 77.377 14.636C77.769 14.7387 78.0723 14.888 78.287 15.084C78.511 15.2707 78.623 15.49 78.623 15.742C78.623 15.9007 78.5763 16.05 78.483 16.19C78.3897 16.3207 78.2497 16.386 78.063 16.386C77.9323 16.386 77.8203 16.3627 77.727 16.316C77.643 16.2693 77.5637 16.2133 77.489 16.148C77.4143 16.0827 77.321 16.0173 77.209 15.952C77.1063 15.896 76.9523 15.8493 76.747 15.812C76.551 15.7747 76.3737 15.756 76.215 15.756C75.7203 15.756 75.291 15.868 74.927 16.092C74.5723 16.316 74.2923 16.6193 74.087 17.002C73.891 17.3847 73.793 17.8187 73.793 18.304C73.793 18.7893 73.891 19.2233 74.087 19.606C74.2923 19.9887 74.5677 20.292 74.913 20.516C75.2677 20.74 75.6783 20.852 76.145 20.852C76.425 20.852 76.6537 20.8333 76.831 20.796C77.0083 20.7493 77.1623 20.6933 77.293 20.628C77.433 20.544 77.5497 20.46 77.643 20.376C77.7457 20.2827 77.8857 20.236 78.063 20.236C78.2683 20.236 78.4223 20.3013 78.525 20.432C78.637 20.5533 78.693 20.7073 78.693 20.894C78.693 21.0993 78.567 21.3 78.315 21.496C78.0723 21.6827 77.7457 21.8367 77.335 21.958C76.9243 22.0793 76.4717 22.14 75.977 22.14C75.249 22.14 74.6143 21.972 74.073 21.636C73.541 21.3 73.1257 20.8427 72.827 20.264C72.5377 19.6853 72.393 19.032 72.393 18.304C72.393 17.5667 72.547 16.9133 72.855 16.344C73.163 15.7653 73.5923 15.308 74.143 14.972C74.6937 14.636 75.3237 14.468 76.033 14.468ZM83.7408 14.51C84.3848 14.51 84.8841 14.65 85.2388 14.93C85.5934 15.2007 85.8408 15.5693 85.9808 16.036C86.1301 16.5027 86.2048 17.016 86.2048 17.576V21.286C86.2048 21.4913 86.1348 21.664 85.9948 21.804C85.8641 21.9347 85.7008 22 85.5048 22C85.2994 22 85.1314 21.9347 85.0008 21.804C84.8701 21.664 84.8048 21.4913 84.8048 21.286V17.576C84.8048 17.2493 84.7581 16.9507 84.6648 16.68C84.5808 16.4093 84.4268 16.1947 84.2028 16.036C83.9881 15.8773 83.6848 15.798 83.2928 15.798C82.9288 15.798 82.6021 15.8773 82.3128 16.036C82.0328 16.1947 81.8134 16.4093 81.6548 16.68C81.5054 16.9507 81.4308 17.2493 81.4308 17.576V21.286C81.4308 21.4913 81.3608 21.664 81.2208 21.804C81.0901 21.9347 80.9268 22 80.7308 22C80.5254 22 80.3574 21.9347 80.2268 21.804C80.0961 21.664 80.0308 21.4913 80.0308 21.286V12.354C80.0308 12.1487 80.0961 11.9807 80.2268 11.85C80.3574 11.71 80.5254 11.64 80.7308 11.64C80.9268 11.64 81.0901 11.71 81.2208 11.85C81.3608 11.9807 81.4308 12.1487 81.4308 12.354V16.176L81.1788 16.316C81.2441 16.1107 81.3514 15.9007 81.5008 15.686C81.6594 15.4713 81.8508 15.2753 82.0748 15.098C82.3081 14.9207 82.5648 14.7807 82.8448 14.678C83.1248 14.566 83.4234 14.51 83.7408 14.51ZM91.5819 22.14C90.8072 22.14 90.1352 21.9813 89.5659 21.664C88.9965 21.3373 88.5532 20.894 88.2359 20.334C87.9279 19.7647 87.7739 19.116 87.7739 18.388C87.7739 17.5667 87.9372 16.8667 88.2639 16.288C88.5999 15.7 89.0339 15.252 89.5659 14.944C90.0979 14.6267 90.6625 14.468 91.2599 14.468C91.7172 14.468 92.1512 14.5613 92.5619 14.748C92.9725 14.9253 93.3365 15.1773 93.6539 15.504C93.9805 15.8213 94.2372 16.1993 94.4239 16.638C94.6105 17.0673 94.7085 17.5387 94.7179 18.052C94.7085 18.2387 94.6339 18.3927 94.4939 18.514C94.3539 18.6353 94.1905 18.696 94.0039 18.696H88.5579L88.2219 17.506H93.4859L93.2199 17.758V17.408C93.2012 17.0813 93.0939 16.7967 92.8979 16.554C92.7019 16.302 92.4592 16.1107 92.1699 15.98C91.8805 15.84 91.5772 15.77 91.2599 15.77C90.9799 15.77 90.7092 15.8167 90.4479 15.91C90.1959 15.994 89.9672 16.134 89.7619 16.33C89.5659 16.526 89.4072 16.7873 89.2859 17.114C89.1739 17.4313 89.1179 17.828 89.1179 18.304C89.1179 18.8173 89.2252 19.2653 89.4399 19.648C89.6545 20.0307 89.9439 20.3293 90.3079 20.544C90.6719 20.7493 91.0732 20.852 91.5119 20.852C91.8572 20.852 92.1419 20.8193 92.3659 20.754C92.5899 20.6793 92.7765 20.5907 92.9259 20.488C93.0752 20.3853 93.2059 20.2873 93.3179 20.194C93.4579 20.11 93.5979 20.068 93.7379 20.068C93.9059 20.068 94.0459 20.1287 94.1579 20.25C94.2699 20.362 94.3259 20.4973 94.3259 20.656C94.3259 20.8613 94.2232 21.048 94.0179 21.216C93.7659 21.4587 93.4159 21.6733 92.9679 21.86C92.5292 22.0467 92.0672 22.14 91.5819 22.14ZM102.334 11.64C102.54 11.64 102.708 11.7053 102.838 11.836C102.969 11.9667 103.034 12.1393 103.034 12.354V21.286C103.034 21.4913 102.969 21.664 102.838 21.804C102.708 21.9347 102.54 22 102.334 22C102.138 22 101.97 21.9347 101.83 21.804C101.7 21.664 101.634 21.4913 101.634 21.286V20.278L101.928 20.292C101.928 20.46 101.858 20.6513 101.718 20.866C101.588 21.0713 101.406 21.272 101.172 21.468C100.939 21.664 100.664 21.8273 100.346 21.958C100.029 22.0793 99.6883 22.14 99.3243 22.14C98.6803 22.14 98.1016 21.9767 97.5883 21.65C97.075 21.314 96.669 20.8613 96.3703 20.292C96.0716 19.7133 95.9223 19.0507 95.9223 18.304C95.9223 17.5573 96.0716 16.8993 96.3703 16.33C96.669 15.7513 97.0703 15.2987 97.5743 14.972C98.0876 14.636 98.657 14.468 99.2823 14.468C99.6743 14.468 100.038 14.5333 100.374 14.664C100.72 14.7947 101.018 14.9627 101.27 15.168C101.522 15.3733 101.718 15.5927 101.858 15.826C101.998 16.05 102.068 16.2647 102.068 16.47L101.634 16.512V12.354C101.634 12.1487 101.7 11.9807 101.83 11.85C101.97 11.71 102.138 11.64 102.334 11.64ZM99.4783 20.852C99.9263 20.852 100.314 20.74 100.64 20.516C100.976 20.292 101.238 19.9887 101.424 19.606C101.611 19.2233 101.704 18.7893 101.704 18.304C101.704 17.8187 101.611 17.3847 101.424 17.002C101.238 16.6193 100.976 16.316 100.64 16.092C100.304 15.868 99.917 15.756 99.4783 15.756C99.049 15.756 98.6663 15.868 98.3303 16.092C98.0036 16.316 97.7423 16.6193 97.5463 17.002C97.3596 17.3847 97.2663 17.8187 97.2663 18.304C97.2663 18.7893 97.3596 19.2233 97.5463 19.606C97.7423 19.9887 98.0036 20.292 98.3303 20.516C98.6663 20.74 99.049 20.852 99.4783 20.852ZM110.702 14.636C110.898 14.636 111.062 14.706 111.192 14.846C111.332 14.9767 111.402 15.1447 111.402 15.35V19.032C111.402 20.0027 111.132 20.7633 110.59 21.314C110.049 21.8553 109.284 22.126 108.294 22.126C107.314 22.126 106.554 21.8553 106.012 21.314C105.48 20.7633 105.214 20.0027 105.214 19.032V15.35C105.214 15.1447 105.28 14.9767 105.41 14.846C105.541 14.706 105.709 14.636 105.914 14.636C106.11 14.636 106.274 14.706 106.404 14.846C106.544 14.9767 106.614 15.1447 106.614 15.35V19.032C106.614 19.6387 106.754 20.0913 107.034 20.39C107.324 20.6887 107.744 20.838 108.294 20.838C108.854 20.838 109.279 20.6887 109.568 20.39C109.858 20.0913 110.002 19.6387 110.002 19.032V15.35C110.002 15.1447 110.068 14.9767 110.198 14.846C110.329 14.706 110.497 14.636 110.702 14.636ZM114.861 21.286C114.861 21.4913 114.791 21.664 114.651 21.804C114.52 21.9347 114.357 22 114.161 22C113.965 22 113.797 21.9347 113.657 21.804C113.526 21.664 113.461 21.4913 113.461 21.286V12.354C113.461 12.1487 113.531 11.9807 113.671 11.85C113.811 11.71 113.979 11.64 114.175 11.64C114.38 11.64 114.544 11.71 114.665 11.85C114.796 11.9807 114.861 12.1487 114.861 12.354V21.286ZM120.238 22.14C119.463 22.14 118.791 21.9813 118.222 21.664C117.653 21.3373 117.209 20.894 116.892 20.334C116.584 19.7647 116.43 19.116 116.43 18.388C116.43 17.5667 116.593 16.8667 116.92 16.288C117.256 15.7 117.69 15.252 118.222 14.944C118.754 14.6267 119.319 14.468 119.916 14.468C120.373 14.468 120.807 14.5613 121.218 14.748C121.629 14.9253 121.993 15.1773 122.31 15.504C122.637 15.8213 122.893 16.1993 123.08 16.638C123.267 17.0673 123.365 17.5387 123.374 18.052C123.365 18.2387 123.29 18.3927 123.15 18.514C123.01 18.6353 122.847 18.696 122.66 18.696H117.214L116.878 17.506H122.142L121.876 17.758V17.408C121.857 17.0813 121.75 16.7967 121.554 16.554C121.358 16.302 121.115 16.1107 120.826 15.98C120.537 15.84 120.233 15.77 119.916 15.77C119.636 15.77 119.365 15.8167 119.104 15.91C118.852 15.994 118.623 16.134 118.418 16.33C118.222 16.526 118.063 16.7873 117.942 17.114C117.83 17.4313 117.774 17.828 117.774 18.304C117.774 18.8173 117.881 19.2653 118.096 19.648C118.311 20.0307 118.6 20.3293 118.964 20.544C119.328 20.7493 119.729 20.852 120.168 20.852C120.513 20.852 120.798 20.8193 121.022 20.754C121.246 20.6793 121.433 20.5907 121.582 20.488C121.731 20.3853 121.862 20.2873 121.974 20.194C122.114 20.11 122.254 20.068 122.394 20.068C122.562 20.068 122.702 20.1287 122.814 20.25C122.926 20.362 122.982 20.4973 122.982 20.656C122.982 20.8613 122.879 21.048 122.674 21.216C122.422 21.4587 122.072 21.6733 121.624 21.86C121.185 22.0467 120.723 22.14 120.238 22.14Z" fill="#161117"/>
</svg>
