<svg width="99" height="27" viewBox="0 0 99 27" fill="none" xmlns="http://www.w3.org/2000/svg">
<rect x="0.75" y="0.75" width="97.5" height="25.5" rx="12.75" fill="white"/>
<rect x="0.75" y="0.75" width="97.5" height="25.5" rx="12.75" stroke="#E9E9E9" stroke-width="1.5"/>
<path d="M15.206 17C15.062 17 14.945 16.958 14.855 16.874C14.771 16.784 14.729 16.673 14.729 16.541V11.159C14.729 11.027 14.774 10.919 14.864 10.835C14.954 10.745 15.062 10.7 15.188 10.7H18.23C18.362 10.7 18.47 10.742 18.554 10.826C18.644 10.91 18.689 11.015 18.689 11.141C18.689 11.255 18.644 11.354 18.554 11.438C18.47 11.522 18.362 11.564 18.23 11.564H15.602L15.665 11.474V13.481L15.611 13.373H17.825C17.957 13.373 18.065 13.415 18.149 13.499C18.239 13.583 18.284 13.688 18.284 13.814C18.284 13.928 18.239 14.027 18.149 14.111C18.065 14.195 17.957 14.237 17.825 14.237H15.593L15.665 14.165V16.541C15.665 16.673 15.62 16.784 15.53 16.874C15.44 16.958 15.332 17 15.206 17ZM20.0722 17C19.9402 17 19.8322 16.958 19.7482 16.874C19.6642 16.784 19.6222 16.673 19.6222 16.541V12.725C19.6222 12.593 19.6642 12.485 19.7482 12.401C19.8322 12.311 19.9402 12.266 20.0722 12.266C20.1982 12.266 20.3032 12.311 20.3872 12.401C20.4772 12.485 20.5222 12.593 20.5222 12.725V13.733L20.4322 13.346C20.4802 13.178 20.5522 13.022 20.6482 12.878C20.7502 12.734 20.8702 12.608 21.0082 12.5C21.1462 12.392 21.2992 12.308 21.4672 12.248C21.6412 12.188 21.8212 12.158 22.0072 12.158C22.1632 12.158 22.2982 12.2 22.4122 12.284C22.5262 12.368 22.5832 12.473 22.5832 12.599C22.5832 12.761 22.5412 12.881 22.4572 12.959C22.3732 13.031 22.2802 13.067 22.1782 13.067C22.0882 13.067 22.0012 13.049 21.9172 13.013C21.8332 12.971 21.7342 12.95 21.6202 12.95C21.4942 12.95 21.3652 12.983 21.2332 13.049C21.1012 13.115 20.9812 13.214 20.8732 13.346C20.7652 13.472 20.6782 13.622 20.6122 13.796C20.5522 13.97 20.5222 14.165 20.5222 14.381V16.541C20.5222 16.673 20.4772 16.784 20.3872 16.874C20.3032 16.958 20.1982 17 20.0722 17ZM25.3868 17.09C24.8888 17.09 24.4568 16.988 24.0908 16.784C23.7248 16.574 23.4398 16.289 23.2358 15.929C23.0378 15.563 22.9388 15.146 22.9388 14.678C22.9388 14.15 23.0438 13.7 23.2538 13.328C23.4698 12.95 23.7488 12.662 24.0908 12.464C24.4328 12.26 24.7958 12.158 25.1798 12.158C25.4738 12.158 25.7528 12.218 26.0168 12.338C26.2808 12.452 26.5148 12.614 26.7188 12.824C26.9288 13.028 27.0938 13.271 27.2138 13.553C27.3338 13.829 27.3968 14.132 27.4028 14.462C27.3968 14.582 27.3488 14.681 27.2588 14.759C27.1688 14.837 27.0638 14.876 26.9438 14.876H23.4428L23.2268 14.111H26.6108L26.4398 14.273V14.048C26.4278 13.838 26.3588 13.655 26.2328 13.499C26.1068 13.337 25.9508 13.214 25.7648 13.13C25.5788 13.04 25.3838 12.995 25.1798 12.995C24.9998 12.995 24.8258 13.025 24.6578 13.085C24.4958 13.139 24.3488 13.229 24.2168 13.355C24.0908 13.481 23.9888 13.649 23.9108 13.859C23.8388 14.063 23.8028 14.318 23.8028 14.624C23.8028 14.954 23.8718 15.242 24.0098 15.488C24.1478 15.734 24.3338 15.926 24.5678 16.064C24.8018 16.196 25.0598 16.262 25.3418 16.262C25.5638 16.262 25.7468 16.241 25.8908 16.199C26.0348 16.151 26.1548 16.094 26.2508 16.028C26.3468 15.962 26.4308 15.899 26.5028 15.839C26.5928 15.785 26.6828 15.758 26.7728 15.758C26.8808 15.758 26.9708 15.797 27.0428 15.875C27.1148 15.947 27.1508 16.034 27.1508 16.136C27.1508 16.268 27.0848 16.388 26.9528 16.496C26.7908 16.652 26.5658 16.79 26.2778 16.91C25.9958 17.03 25.6988 17.09 25.3868 17.09ZM30.625 17.09C30.127 17.09 29.695 16.988 29.329 16.784C28.963 16.574 28.678 16.289 28.474 15.929C28.276 15.563 28.177 15.146 28.177 14.678C28.177 14.15 28.282 13.7 28.492 13.328C28.708 12.95 28.987 12.662 29.329 12.464C29.671 12.26 30.034 12.158 30.418 12.158C30.712 12.158 30.991 12.218 31.255 12.338C31.519 12.452 31.753 12.614 31.957 12.824C32.167 13.028 32.332 13.271 32.452 13.553C32.572 13.829 32.635 14.132 32.641 14.462C32.635 14.582 32.587 14.681 32.497 14.759C32.407 14.837 32.302 14.876 32.182 14.876H28.681L28.465 14.111H31.849L31.678 14.273V14.048C31.666 13.838 31.597 13.655 31.471 13.499C31.345 13.337 31.189 13.214 31.003 13.13C30.817 13.04 30.622 12.995 30.418 12.995C30.238 12.995 30.064 13.025 29.896 13.085C29.734 13.139 29.587 13.229 29.455 13.355C29.329 13.481 29.227 13.649 29.149 13.859C29.077 14.063 29.041 14.318 29.041 14.624C29.041 14.954 29.11 15.242 29.248 15.488C29.386 15.734 29.572 15.926 29.806 16.064C30.04 16.196 30.298 16.262 30.58 16.262C30.802 16.262 30.985 16.241 31.129 16.199C31.273 16.151 31.393 16.094 31.489 16.028C31.585 15.962 31.669 15.899 31.741 15.839C31.831 15.785 31.921 15.758 32.011 15.758C32.119 15.758 32.209 15.797 32.281 15.875C32.353 15.947 32.389 16.034 32.389 16.136C32.389 16.268 32.323 16.388 32.191 16.496C32.029 16.652 31.804 16.79 31.516 16.91C31.234 17.03 30.937 17.09 30.625 17.09ZM36.8022 17C36.6582 17 36.5322 16.958 36.4242 16.874C36.3162 16.784 36.2622 16.673 36.2622 16.541V11.159C36.2622 11.027 36.3072 10.919 36.3972 10.835C36.4872 10.745 36.5952 10.7 36.7212 10.7H39.2592C39.5832 10.7 39.8802 10.781 40.1502 10.943C40.4202 11.099 40.6362 11.318 40.7982 11.6C40.9662 11.876 41.0502 12.194 41.0502 12.554C41.0502 12.794 41.0022 13.025 40.9062 13.247C40.8102 13.463 40.6812 13.655 40.5192 13.823C40.3572 13.991 40.1742 14.117 39.9702 14.201L39.8712 14.03C40.0572 14.096 40.2192 14.192 40.3572 14.318C40.4952 14.438 40.6032 14.582 40.6812 14.75C40.7652 14.912 40.8102 15.098 40.8162 15.308C40.8342 15.494 40.8492 15.65 40.8612 15.776C40.8792 15.896 40.9032 15.995 40.9332 16.073C40.9632 16.151 41.0172 16.211 41.0952 16.253C41.2032 16.313 41.2692 16.403 41.2932 16.523C41.3232 16.643 41.2992 16.751 41.2212 16.847C41.1672 16.919 41.0982 16.967 41.0142 16.991C40.9362 17.009 40.8552 17.012 40.7712 17C40.6872 16.982 40.6152 16.958 40.5552 16.928C40.4592 16.868 40.3602 16.784 40.2582 16.676C40.1622 16.562 40.0842 16.406 40.0242 16.208C39.9642 16.01 39.9342 15.749 39.9342 15.425C39.9342 15.275 39.9102 15.146 39.8622 15.038C39.8142 14.93 39.7482 14.843 39.6642 14.777C39.5802 14.705 39.4812 14.654 39.3672 14.624C39.2532 14.588 39.1272 14.57 38.9892 14.57H37.0812L37.2072 14.39V16.541C37.2072 16.673 37.1712 16.784 37.0992 16.874C37.0272 16.958 36.9282 17 36.8022 17ZM37.0902 13.787H39.2412C39.3792 13.781 39.5112 13.727 39.6372 13.625C39.7692 13.517 39.8742 13.373 39.9522 13.193C40.0362 13.013 40.0782 12.809 40.0782 12.581C40.0782 12.293 39.9912 12.053 39.8172 11.861C39.6492 11.663 39.4482 11.564 39.2142 11.564H37.1082L37.2072 11.33V13.976L37.0902 13.787ZM44.4502 17.09C43.9522 17.09 43.5202 16.988 43.1542 16.784C42.7882 16.574 42.5032 16.289 42.2992 15.929C42.1012 15.563 42.0022 15.146 42.0022 14.678C42.0022 14.15 42.1072 13.7 42.3172 13.328C42.5332 12.95 42.8122 12.662 43.1542 12.464C43.4962 12.26 43.8592 12.158 44.2432 12.158C44.5372 12.158 44.8162 12.218 45.0802 12.338C45.3442 12.452 45.5782 12.614 45.7822 12.824C45.9922 13.028 46.1572 13.271 46.2772 13.553C46.3972 13.829 46.4602 14.132 46.4662 14.462C46.4602 14.582 46.4122 14.681 46.3222 14.759C46.2322 14.837 46.1272 14.876 46.0072 14.876H42.5062L42.2902 14.111H45.6742L45.5032 14.273V14.048C45.4912 13.838 45.4222 13.655 45.2962 13.499C45.1702 13.337 45.0142 13.214 44.8282 13.13C44.6422 13.04 44.4472 12.995 44.2432 12.995C44.0632 12.995 43.8892 13.025 43.7212 13.085C43.5592 13.139 43.4122 13.229 43.2802 13.355C43.1542 13.481 43.0522 13.649 42.9742 13.859C42.9022 14.063 42.8662 14.318 42.8662 14.624C42.8662 14.954 42.9352 15.242 43.0732 15.488C43.2112 15.734 43.3972 15.926 43.6312 16.064C43.8652 16.196 44.1232 16.262 44.4052 16.262C44.6272 16.262 44.8102 16.241 44.9542 16.199C45.0982 16.151 45.2182 16.094 45.3142 16.028C45.4102 15.962 45.4942 15.899 45.5662 15.839C45.6562 15.785 45.7462 15.758 45.8362 15.758C45.9442 15.758 46.0342 15.797 46.1062 15.875C46.1782 15.947 46.2142 16.034 46.2142 16.136C46.2142 16.268 46.1482 16.388 46.0162 16.496C45.8542 16.652 45.6292 16.79 45.3412 16.91C45.0592 17.03 44.7622 17.09 44.4502 17.09ZM47.2045 16.262C47.1505 16.178 47.1265 16.082 47.1325 15.974C47.1385 15.86 47.2015 15.764 47.3215 15.686C47.4055 15.632 47.4925 15.611 47.5825 15.623C47.6785 15.629 47.7685 15.674 47.8525 15.758C48.0205 15.944 48.2065 16.091 48.4105 16.199C48.6205 16.307 48.8725 16.361 49.1665 16.361C49.2865 16.355 49.4095 16.337 49.5355 16.307C49.6615 16.271 49.7695 16.211 49.8595 16.127C49.9495 16.037 49.9945 15.908 49.9945 15.74C49.9945 15.59 49.9465 15.47 49.8505 15.38C49.7545 15.29 49.6285 15.218 49.4725 15.164C49.3165 15.104 49.1485 15.05 48.9685 15.002C48.7765 14.948 48.5815 14.888 48.3835 14.822C48.1915 14.756 48.0175 14.672 47.8615 14.57C47.7055 14.462 47.5765 14.324 47.4745 14.156C47.3785 13.988 47.3305 13.781 47.3305 13.535C47.3305 13.253 47.4085 13.01 47.5645 12.806C47.7265 12.602 47.9335 12.443 48.1855 12.329C48.4435 12.215 48.7225 12.158 49.0225 12.158C49.1965 12.158 49.3795 12.182 49.5715 12.23C49.7635 12.272 49.9495 12.341 50.1295 12.437C50.3095 12.533 50.4655 12.659 50.5975 12.815C50.6575 12.893 50.6905 12.986 50.6965 13.094C50.7085 13.202 50.6605 13.298 50.5525 13.382C50.4805 13.442 50.3935 13.469 50.2915 13.463C50.1895 13.457 50.1055 13.424 50.0395 13.364C49.9255 13.22 49.7785 13.109 49.5985 13.031C49.4185 12.947 49.2145 12.905 48.9865 12.905C48.8725 12.905 48.7525 12.923 48.6265 12.959C48.5065 12.989 48.4045 13.046 48.3205 13.13C48.2365 13.214 48.1945 13.337 48.1945 13.499C48.1945 13.649 48.2425 13.769 48.3385 13.859C48.4405 13.949 48.5725 14.024 48.7345 14.084C48.8965 14.144 49.0735 14.198 49.2655 14.246C49.4515 14.294 49.6345 14.351 49.8145 14.417C50.0005 14.483 50.1655 14.57 50.3095 14.678C50.4595 14.78 50.5795 14.915 50.6695 15.083C50.7655 15.245 50.8135 15.452 50.8135 15.704C50.8135 15.998 50.7265 16.25 50.5525 16.46C50.3845 16.664 50.1685 16.82 49.9045 16.928C49.6465 17.036 49.3735 17.09 49.0855 17.09C48.7435 17.09 48.4015 17.03 48.0595 16.91C47.7235 16.784 47.4385 16.568 47.2045 16.262ZM53.8784 12.158C54.2024 12.158 54.4904 12.194 54.7424 12.266C54.9944 12.332 55.1894 12.428 55.3274 12.554C55.4714 12.674 55.5434 12.815 55.5434 12.977C55.5434 13.079 55.5134 13.175 55.4534 13.265C55.3934 13.349 55.3034 13.391 55.1834 13.391C55.0994 13.391 55.0274 13.376 54.9674 13.346C54.9134 13.316 54.8624 13.28 54.8144 13.238C54.7664 13.196 54.7064 13.154 54.6344 13.112C54.5684 13.076 54.4694 13.046 54.3374 13.022C54.2114 12.998 54.0974 12.986 53.9954 12.986C53.6774 12.986 53.4014 13.058 53.1674 13.202C52.9394 13.346 52.7594 13.541 52.6274 13.787C52.5014 14.033 52.4384 14.312 52.4384 14.624C52.4384 14.936 52.5014 15.215 52.6274 15.461C52.7594 15.707 52.9364 15.902 53.1584 16.046C53.3864 16.19 53.6504 16.262 53.9504 16.262C54.1304 16.262 54.2774 16.25 54.3914 16.226C54.5054 16.196 54.6044 16.16 54.6884 16.118C54.7784 16.064 54.8534 16.01 54.9134 15.956C54.9794 15.896 55.0694 15.866 55.1834 15.866C55.3154 15.866 55.4144 15.908 55.4804 15.992C55.5524 16.07 55.5884 16.169 55.5884 16.289C55.5884 16.421 55.5074 16.55 55.3454 16.676C55.1894 16.796 54.9794 16.895 54.7154 16.973C54.4514 17.051 54.1604 17.09 53.8424 17.09C53.3744 17.09 52.9664 16.982 52.6184 16.766C52.2764 16.55 52.0094 16.256 51.8174 15.884C51.6314 15.512 51.5384 15.092 51.5384 14.624C51.5384 14.15 51.6374 13.73 51.8354 13.364C52.0334 12.992 52.3094 12.698 52.6634 12.482C53.0174 12.266 53.4224 12.158 53.8784 12.158ZM58.8334 12.185C59.2474 12.185 59.5684 12.275 59.7964 12.455C60.0244 12.629 60.1834 12.866 60.2734 13.166C60.3694 13.466 60.4174 13.796 60.4174 14.156V16.541C60.4174 16.673 60.3724 16.784 60.2824 16.874C60.1984 16.958 60.0934 17 59.9674 17C59.8354 17 59.7274 16.958 59.6434 16.874C59.5594 16.784 59.5174 16.673 59.5174 16.541V14.156C59.5174 13.946 59.4874 13.754 59.4274 13.58C59.3734 13.406 59.2744 13.268 59.1304 13.166C58.9924 13.064 58.7974 13.013 58.5454 13.013C58.3114 13.013 58.1014 13.064 57.9154 13.166C57.7354 13.268 57.5944 13.406 57.4924 13.58C57.3964 13.754 57.3484 13.946 57.3484 14.156V16.541C57.3484 16.673 57.3034 16.784 57.2134 16.874C57.1294 16.958 57.0244 17 56.8984 17C56.7664 17 56.6584 16.958 56.5744 16.874C56.4904 16.784 56.4484 16.673 56.4484 16.541V10.799C56.4484 10.667 56.4904 10.559 56.5744 10.475C56.6584 10.385 56.7664 10.34 56.8984 10.34C57.0244 10.34 57.1294 10.385 57.2134 10.475C57.3034 10.559 57.3484 10.667 57.3484 10.799V13.256L57.1864 13.346C57.2284 13.214 57.2974 13.079 57.3934 12.941C57.4954 12.803 57.6184 12.677 57.7624 12.563C57.9124 12.449 58.0774 12.359 58.2574 12.293C58.4374 12.221 58.6294 12.185 58.8334 12.185ZM63.8741 17.09C63.3761 17.09 62.9441 16.988 62.5781 16.784C62.2121 16.574 61.9271 16.289 61.7231 15.929C61.5251 15.563 61.4261 15.146 61.4261 14.678C61.4261 14.15 61.5311 13.7 61.7411 13.328C61.9571 12.95 62.2361 12.662 62.5781 12.464C62.9201 12.26 63.2831 12.158 63.6671 12.158C63.9611 12.158 64.2401 12.218 64.5041 12.338C64.7681 12.452 65.0021 12.614 65.2061 12.824C65.4161 13.028 65.5811 13.271 65.7011 13.553C65.8211 13.829 65.8841 14.132 65.8901 14.462C65.8841 14.582 65.8361 14.681 65.7461 14.759C65.6561 14.837 65.5511 14.876 65.4311 14.876H61.9301L61.7141 14.111H65.0981L64.9271 14.273V14.048C64.9151 13.838 64.8461 13.655 64.7201 13.499C64.5941 13.337 64.4381 13.214 64.2521 13.13C64.0661 13.04 63.8711 12.995 63.6671 12.995C63.4871 12.995 63.3131 13.025 63.1451 13.085C62.9831 13.139 62.8361 13.229 62.7041 13.355C62.5781 13.481 62.4761 13.649 62.3981 13.859C62.3261 14.063 62.2901 14.318 62.2901 14.624C62.2901 14.954 62.3591 15.242 62.4971 15.488C62.6351 15.734 62.8211 15.926 63.0551 16.064C63.2891 16.196 63.5471 16.262 63.8291 16.262C64.0511 16.262 64.2341 16.241 64.3781 16.199C64.5221 16.151 64.6421 16.094 64.7381 16.028C64.8341 15.962 64.9181 15.899 64.9901 15.839C65.0801 15.785 65.1701 15.758 65.2601 15.758C65.3681 15.758 65.4581 15.797 65.5301 15.875C65.6021 15.947 65.6381 16.034 65.6381 16.136C65.6381 16.268 65.5721 16.388 65.4401 16.496C65.2781 16.652 65.0531 16.79 64.7651 16.91C64.4831 17.03 64.1861 17.09 63.8741 17.09ZM70.7863 10.34C70.9183 10.34 71.0263 10.382 71.1103 10.466C71.1943 10.55 71.2363 10.661 71.2363 10.799V16.541C71.2363 16.673 71.1943 16.784 71.1103 16.874C71.0263 16.958 70.9183 17 70.7863 17C70.6603 17 70.5523 16.958 70.4623 16.874C70.3783 16.784 70.3363 16.673 70.3363 16.541V15.893L70.5253 15.902C70.5253 16.01 70.4803 16.133 70.3903 16.271C70.3063 16.403 70.1893 16.532 70.0393 16.658C69.8893 16.784 69.7123 16.889 69.5083 16.973C69.3043 17.051 69.0853 17.09 68.8513 17.09C68.4373 17.09 68.0653 16.985 67.7353 16.775C67.4053 16.559 67.1443 16.268 66.9523 15.902C66.7603 15.53 66.6643 15.104 66.6643 14.624C66.6643 14.144 66.7603 13.721 66.9523 13.355C67.1443 12.983 67.4023 12.692 67.7263 12.482C68.0563 12.266 68.4223 12.158 68.8243 12.158C69.0763 12.158 69.3103 12.2 69.5263 12.284C69.7483 12.368 69.9403 12.476 70.1023 12.608C70.2643 12.74 70.3903 12.881 70.4803 13.031C70.5703 13.175 70.6153 13.313 70.6153 13.445L70.3363 13.472V10.799C70.3363 10.667 70.3783 10.559 70.4623 10.475C70.5523 10.385 70.6603 10.34 70.7863 10.34ZM68.9503 16.262C69.2383 16.262 69.4873 16.19 69.6973 16.046C69.9133 15.902 70.0813 15.707 70.2013 15.461C70.3213 15.215 70.3813 14.936 70.3813 14.624C70.3813 14.312 70.3213 14.033 70.2013 13.787C70.0813 13.541 69.9133 13.346 69.6973 13.202C69.4813 13.058 69.2323 12.986 68.9503 12.986C68.6743 12.986 68.4283 13.058 68.2123 13.202C68.0023 13.346 67.8343 13.541 67.7083 13.787C67.5883 14.033 67.5283 14.312 67.5283 14.624C67.5283 14.936 67.5883 15.215 67.7083 15.461C67.8343 15.707 68.0023 15.902 68.2123 16.046C68.4283 16.19 68.6743 16.262 68.9503 16.262ZM76.1658 12.266C76.2918 12.266 76.3968 12.311 76.4808 12.401C76.5708 12.485 76.6158 12.593 76.6158 12.725V15.092C76.6158 15.716 76.4418 16.205 76.0938 16.559C75.7458 16.907 75.2538 17.081 74.6178 17.081C73.9878 17.081 73.4988 16.907 73.1508 16.559C72.8088 16.205 72.6378 15.716 72.6378 15.092V12.725C72.6378 12.593 72.6798 12.485 72.7638 12.401C72.8478 12.311 72.9558 12.266 73.0878 12.266C73.2138 12.266 73.3188 12.311 73.4028 12.401C73.4928 12.485 73.5378 12.593 73.5378 12.725V15.092C73.5378 15.482 73.6278 15.773 73.8078 15.965C73.9938 16.157 74.2638 16.253 74.6178 16.253C74.9778 16.253 75.2508 16.157 75.4368 15.965C75.6228 15.773 75.7158 15.482 75.7158 15.092V12.725C75.7158 12.593 75.7578 12.485 75.8418 12.401C75.9258 12.311 76.0338 12.266 76.1658 12.266ZM78.8393 16.541C78.8393 16.673 78.7943 16.784 78.7043 16.874C78.6203 16.958 78.5153 17 78.3893 17C78.2633 17 78.1553 16.958 78.0653 16.874C77.9813 16.784 77.9393 16.673 77.9393 16.541V10.799C77.9393 10.667 77.9843 10.559 78.0743 10.475C78.1643 10.385 78.2723 10.34 78.3983 10.34C78.5303 10.34 78.6353 10.385 78.7133 10.475C78.7973 10.559 78.8393 10.667 78.8393 10.799V16.541ZM82.2959 17.09C81.7979 17.09 81.3659 16.988 80.9999 16.784C80.6339 16.574 80.3489 16.289 80.1449 15.929C79.9469 15.563 79.8479 15.146 79.8479 14.678C79.8479 14.15 79.9529 13.7 80.1629 13.328C80.3789 12.95 80.6579 12.662 80.9999 12.464C81.3419 12.26 81.7049 12.158 82.0889 12.158C82.3829 12.158 82.6619 12.218 82.9259 12.338C83.1899 12.452 83.4239 12.614 83.6279 12.824C83.8379 13.028 84.0029 13.271 84.1229 13.553C84.2429 13.829 84.3059 14.132 84.3119 14.462C84.3059 14.582 84.2579 14.681 84.1679 14.759C84.0779 14.837 83.9729 14.876 83.8529 14.876H80.3519L80.1359 14.111H83.5199L83.3489 14.273V14.048C83.3369 13.838 83.2679 13.655 83.1419 13.499C83.0159 13.337 82.8599 13.214 82.6739 13.13C82.4879 13.04 82.2929 12.995 82.0889 12.995C81.9089 12.995 81.7349 13.025 81.5669 13.085C81.4049 13.139 81.2579 13.229 81.1259 13.355C80.9999 13.481 80.8979 13.649 80.8199 13.859C80.7479 14.063 80.7119 14.318 80.7119 14.624C80.7119 14.954 80.7809 15.242 80.9189 15.488C81.0569 15.734 81.2429 15.926 81.4769 16.064C81.7109 16.196 81.9689 16.262 82.2509 16.262C82.4729 16.262 82.6559 16.241 82.7999 16.199C82.9439 16.151 83.0639 16.094 83.1599 16.028C83.2559 15.962 83.3399 15.899 83.4119 15.839C83.5019 15.785 83.5919 15.758 83.6819 15.758C83.7899 15.758 83.8799 15.797 83.9519 15.875C84.0239 15.947 84.0599 16.034 84.0599 16.136C84.0599 16.268 83.9939 16.388 83.8619 16.496C83.6999 16.652 83.4749 16.79 83.1869 16.91C82.9049 17.03 82.6079 17.09 82.2959 17.09Z" fill="#161117"/>
</svg>
