<svg width="113" height="34" viewBox="0 0 113 34" fill="none" xmlns="http://www.w3.org/2000/svg">
<rect x="0.75" y="0.75" width="111.5" height="32.5" rx="16.25" fill="white"/>
<rect x="0.75" y="0.75" width="111.5" height="32.5" rx="16.25" stroke="#E9E9E9" stroke-width="1.5"/>
<path d="M16.604 21.286C16.5947 21.4913 16.5153 21.664 16.366 21.804C16.226 21.9347 16.058 22 15.862 22C15.6473 22 15.47 21.9347 15.33 21.804C15.1993 21.664 15.134 21.4913 15.134 21.286V12.914C15.134 12.7087 15.204 12.5407 15.344 12.41C15.484 12.27 15.666 12.2 15.89 12.2C16.0767 12.2 16.24 12.27 16.38 12.41C16.5293 12.5407 16.604 12.7087 16.604 12.914V21.286ZM22.5064 14.468C23.1691 14.468 23.6824 14.608 24.0464 14.888C24.4104 15.1587 24.6624 15.5273 24.8024 15.994C24.9518 16.4513 25.0264 16.9647 25.0264 17.534V21.286C25.0264 21.4913 24.9564 21.664 24.8164 21.804C24.6858 21.9347 24.5224 22 24.3264 22C24.1211 22 23.9531 21.9347 23.8224 21.804C23.6918 21.664 23.6264 21.4913 23.6264 21.286V17.548C23.6264 17.212 23.5798 16.9133 23.4864 16.652C23.3931 16.3813 23.2298 16.1667 22.9964 16.008C22.7724 15.84 22.4551 15.756 22.0444 15.756C21.6618 15.756 21.3258 15.84 21.0364 16.008C20.7471 16.1667 20.5184 16.3813 20.3504 16.652C20.1918 16.9133 20.1124 17.212 20.1124 17.548V21.286C20.1124 21.4913 20.0424 21.664 19.9024 21.804C19.7718 21.9347 19.6084 22 19.4124 22C19.2071 22 19.0391 21.9347 18.9084 21.804C18.7778 21.664 18.7124 21.4913 18.7124 21.286V15.35C18.7124 15.1447 18.7778 14.9767 18.9084 14.846C19.0391 14.706 19.2071 14.636 19.4124 14.636C19.6084 14.636 19.7718 14.706 19.9024 14.846C20.0424 14.9767 20.1124 15.1447 20.1124 15.35V16.134L19.8604 16.274C19.9258 16.0687 20.0378 15.8633 20.1964 15.658C20.3644 15.4433 20.5651 15.2473 20.7984 15.07C21.0318 14.8833 21.2931 14.7387 21.5824 14.636C21.8718 14.524 22.1798 14.468 22.5064 14.468ZM26.5362 20.852C26.4522 20.7213 26.4149 20.572 26.4242 20.404C26.4336 20.2267 26.5316 20.0773 26.7182 19.956C26.8489 19.872 26.9842 19.8393 27.1242 19.858C27.2736 19.8673 27.4136 19.9373 27.5442 20.068C27.8056 20.3573 28.0949 20.586 28.4122 20.754C28.7389 20.922 29.1309 21.006 29.5882 21.006C29.7749 20.9967 29.9662 20.9687 30.1622 20.922C30.3582 20.866 30.5262 20.7727 30.6662 20.642C30.8062 20.502 30.8762 20.3013 30.8762 20.04C30.8762 19.8067 30.8016 19.62 30.6522 19.48C30.5029 19.34 30.3069 19.228 30.0642 19.144C29.8216 19.0507 29.5602 18.9667 29.2802 18.892C28.9816 18.808 28.6782 18.7147 28.3702 18.612C28.0716 18.5093 27.8009 18.3787 27.5582 18.22C27.3156 18.052 27.1149 17.8373 26.9562 17.576C26.8069 17.3147 26.7322 16.9927 26.7322 16.61C26.7322 16.1713 26.8536 15.7933 27.0962 15.476C27.3482 15.1587 27.6702 14.9113 28.0622 14.734C28.4636 14.5567 28.8976 14.468 29.3642 14.468C29.6349 14.468 29.9196 14.5053 30.2182 14.58C30.5169 14.6453 30.8062 14.7527 31.0862 14.902C31.3662 15.0513 31.6089 15.2473 31.8142 15.49C31.9076 15.6113 31.9589 15.756 31.9682 15.924C31.9869 16.092 31.9122 16.2413 31.7442 16.372C31.6322 16.4653 31.4969 16.5073 31.3382 16.498C31.1796 16.4887 31.0489 16.4373 30.9462 16.344C30.7689 16.12 30.5402 15.9473 30.2602 15.826C29.9802 15.6953 29.6629 15.63 29.3082 15.63C29.1309 15.63 28.9442 15.658 28.7482 15.714C28.5616 15.7607 28.4029 15.8493 28.2722 15.98C28.1416 16.1107 28.0762 16.302 28.0762 16.554C28.0762 16.7873 28.1509 16.974 28.3002 17.114C28.4589 17.254 28.6642 17.3707 28.9162 17.464C29.1682 17.5573 29.4436 17.6413 29.7422 17.716C30.0316 17.7907 30.3162 17.8793 30.5962 17.982C30.8856 18.0847 31.1422 18.22 31.3662 18.388C31.5996 18.5467 31.7862 18.7567 31.9262 19.018C32.0756 19.27 32.1502 19.592 32.1502 19.984C32.1502 20.4413 32.0149 20.8333 31.7442 21.16C31.4829 21.4773 31.1469 21.72 30.7362 21.888C30.3349 22.056 29.9102 22.14 29.4622 22.14C28.9302 22.14 28.3982 22.0467 27.8662 21.86C27.3436 21.664 26.9002 21.328 26.5362 20.852ZM33.5578 14.72H36.8478C37.0344 14.72 37.1884 14.7853 37.3098 14.916C37.4404 15.0373 37.5058 15.1913 37.5058 15.378C37.5058 15.5553 37.4404 15.7047 37.3098 15.826C37.1884 15.9473 37.0344 16.008 36.8478 16.008H33.5578C33.3711 16.008 33.2124 15.9473 33.0818 15.826C32.9604 15.6953 32.8998 15.5413 32.8998 15.364C32.8998 15.1773 32.9604 15.0233 33.0818 14.902C33.2124 14.7807 33.3711 14.72 33.5578 14.72ZM35.0278 12.9C35.2331 12.9 35.4011 12.97 35.5318 13.11C35.6624 13.2407 35.7278 13.4087 35.7278 13.614V20.11C35.7278 20.278 35.7558 20.4133 35.8118 20.516C35.8678 20.6187 35.9424 20.6887 36.0358 20.726C36.1384 20.7633 36.2411 20.782 36.3438 20.782C36.4464 20.782 36.5351 20.7633 36.6098 20.726C36.6938 20.6887 36.7918 20.67 36.9038 20.67C37.0158 20.67 37.1184 20.7213 37.2118 20.824C37.3051 20.9267 37.3518 21.0667 37.3518 21.244C37.3518 21.468 37.2304 21.65 36.9878 21.79C36.7451 21.93 36.4838 22 36.2038 22C36.0451 22 35.8584 21.986 35.6438 21.958C35.4291 21.93 35.2191 21.86 35.0138 21.748C34.8178 21.636 34.6544 21.4587 34.5238 21.216C34.3931 20.964 34.3278 20.614 34.3278 20.166V13.614C34.3278 13.4087 34.3931 13.2407 34.5238 13.11C34.6638 12.97 34.8318 12.9 35.0278 12.9ZM45.0902 14.524C45.2955 14.524 45.4635 14.594 45.5942 14.734C45.7248 14.8647 45.7902 15.0327 45.7902 15.238V21.286C45.7902 21.4913 45.7248 21.664 45.5942 21.804C45.4635 21.9347 45.2955 22 45.0902 22C44.8942 22 44.7262 21.9347 44.5862 21.804C44.4555 21.664 44.3902 21.4913 44.3902 21.286V20.278L44.6842 20.32C44.6842 20.488 44.6142 20.6747 44.4742 20.88C44.3435 21.0853 44.1615 21.286 43.9282 21.482C43.6948 21.6687 43.4195 21.8273 43.1022 21.958C42.7848 22.0793 42.4442 22.14 42.0802 22.14C41.4362 22.14 40.8575 21.9767 40.3442 21.65C39.8308 21.314 39.4248 20.8567 39.1262 20.278C38.8275 19.6993 38.6782 19.0413 38.6782 18.304C38.6782 17.548 38.8275 16.8853 39.1262 16.316C39.4248 15.7373 39.8262 15.2847 40.3302 14.958C40.8435 14.6313 41.4128 14.468 42.0382 14.468C42.4395 14.468 42.8082 14.5333 43.1442 14.664C43.4895 14.7947 43.7882 14.9627 44.0402 15.168C44.2922 15.3733 44.4835 15.5927 44.6142 15.826C44.7542 16.05 44.8242 16.2647 44.8242 16.47L44.3902 16.512V15.238C44.3902 15.042 44.4555 14.874 44.5862 14.734C44.7262 14.594 44.8942 14.524 45.0902 14.524ZM42.2342 20.852C42.6728 20.852 43.0602 20.74 43.3962 20.516C43.7322 20.292 43.9935 19.9887 44.1802 19.606C44.3668 19.214 44.4602 18.78 44.4602 18.304C44.4602 17.8187 44.3668 17.3847 44.1802 17.002C43.9935 16.6193 43.7322 16.316 43.3962 16.092C43.0602 15.868 42.6728 15.756 42.2342 15.756C41.8048 15.756 41.4222 15.868 41.0862 16.092C40.7595 16.316 40.4982 16.6193 40.3022 17.002C40.1155 17.3847 40.0222 17.8187 40.0222 18.304C40.0222 18.78 40.1155 19.214 40.3022 19.606C40.4982 19.9887 40.7595 20.292 41.0862 20.516C41.4222 20.74 41.8048 20.852 42.2342 20.852ZM51.5455 14.468C52.2082 14.468 52.7215 14.608 53.0855 14.888C53.4495 15.1587 53.7015 15.5273 53.8415 15.994C53.9908 16.4513 54.0655 16.9647 54.0655 17.534V21.286C54.0655 21.4913 53.9955 21.664 53.8555 21.804C53.7248 21.9347 53.5615 22 53.3655 22C53.1602 22 52.9922 21.9347 52.8615 21.804C52.7308 21.664 52.6655 21.4913 52.6655 21.286V17.548C52.6655 17.212 52.6188 16.9133 52.5255 16.652C52.4322 16.3813 52.2688 16.1667 52.0355 16.008C51.8115 15.84 51.4942 15.756 51.0835 15.756C50.7008 15.756 50.3648 15.84 50.0755 16.008C49.7862 16.1667 49.5575 16.3813 49.3895 16.652C49.2308 16.9133 49.1515 17.212 49.1515 17.548V21.286C49.1515 21.4913 49.0815 21.664 48.9415 21.804C48.8108 21.9347 48.6475 22 48.4515 22C48.2462 22 48.0782 21.9347 47.9475 21.804C47.8168 21.664 47.7515 21.4913 47.7515 21.286V15.35C47.7515 15.1447 47.8168 14.9767 47.9475 14.846C48.0782 14.706 48.2462 14.636 48.4515 14.636C48.6475 14.636 48.8108 14.706 48.9415 14.846C49.0815 14.9767 49.1515 15.1447 49.1515 15.35V16.134L48.8995 16.274C48.9648 16.0687 49.0768 15.8633 49.2355 15.658C49.4035 15.4433 49.6042 15.2473 49.8375 15.07C50.0708 14.8833 50.3322 14.7387 50.6215 14.636C50.9108 14.524 51.2188 14.468 51.5455 14.468ZM55.9113 14.72H59.2013C59.388 14.72 59.542 14.7853 59.6633 14.916C59.794 15.0373 59.8593 15.1913 59.8593 15.378C59.8593 15.5553 59.794 15.7047 59.6633 15.826C59.542 15.9473 59.388 16.008 59.2013 16.008H55.9113C55.7246 16.008 55.566 15.9473 55.4353 15.826C55.314 15.6953 55.2533 15.5413 55.2533 15.364C55.2533 15.1773 55.314 15.0233 55.4353 14.902C55.566 14.7807 55.7246 14.72 55.9113 14.72ZM57.3813 12.9C57.5866 12.9 57.7546 12.97 57.8853 13.11C58.016 13.2407 58.0813 13.4087 58.0813 13.614V20.11C58.0813 20.278 58.1093 20.4133 58.1653 20.516C58.2213 20.6187 58.296 20.6887 58.3893 20.726C58.492 20.7633 58.5946 20.782 58.6973 20.782C58.8 20.782 58.8886 20.7633 58.9633 20.726C59.0473 20.6887 59.1453 20.67 59.2573 20.67C59.3693 20.67 59.472 20.7213 59.5653 20.824C59.6586 20.9267 59.7053 21.0667 59.7053 21.244C59.7053 21.468 59.584 21.65 59.3413 21.79C59.0986 21.93 58.8373 22 58.5573 22C58.3986 22 58.212 21.986 57.9973 21.958C57.7826 21.93 57.5726 21.86 57.3673 21.748C57.1713 21.636 57.008 21.4587 56.8773 21.216C56.7466 20.964 56.6813 20.614 56.6813 20.166V13.614C56.6813 13.4087 56.7466 13.2407 56.8773 13.11C57.0173 12.97 57.1853 12.9 57.3813 12.9ZM69.7582 12.2C70.6168 12.2 71.2655 12.41 71.7042 12.83C72.1522 13.25 72.3762 13.8613 72.3762 14.664C72.3762 15.084 72.2735 15.4667 72.0682 15.812C71.8722 16.148 71.5782 16.414 71.1862 16.61C70.8035 16.806 70.3228 16.9087 69.7442 16.918L69.7722 16.4C70.0802 16.4 70.4115 16.442 70.7662 16.526C71.1302 16.61 71.4708 16.7547 71.7882 16.96C72.1055 17.1653 72.3668 17.4453 72.5722 17.8C72.7775 18.1453 72.8802 18.5793 72.8802 19.102C72.8802 19.6713 72.7868 20.1473 72.6002 20.53C72.4135 20.9033 72.1662 21.1973 71.8582 21.412C71.5502 21.6267 71.2095 21.7807 70.8362 21.874C70.4722 21.958 70.1128 22 69.7582 22H66.1742C65.9782 22 65.8102 21.9347 65.6702 21.804C65.5302 21.664 65.4602 21.4913 65.4602 21.286V12.914C65.4602 12.7087 65.5302 12.5407 65.6702 12.41C65.8102 12.27 65.9782 12.2 66.1742 12.2H69.7582ZM69.5622 13.572H66.8042L66.9722 13.348V16.358L66.8182 16.204H69.5902C69.9262 16.1947 70.2202 16.0827 70.4722 15.868C70.7335 15.644 70.8642 15.3173 70.8642 14.888C70.8642 14.4493 70.7475 14.1227 70.5142 13.908C70.2808 13.684 69.9635 13.572 69.5622 13.572ZM69.6602 17.576H66.8742L66.9722 17.478V20.782L66.8602 20.656H69.7442C70.2295 20.656 70.6215 20.53 70.9202 20.278C71.2188 20.0167 71.3682 19.6247 71.3682 19.102C71.3682 18.6633 71.2795 18.3367 71.1022 18.122C70.9248 17.9073 70.7055 17.7627 70.4442 17.688C70.1828 17.6133 69.9215 17.576 69.6602 17.576ZM81.5087 18.318C81.5087 19.0647 81.3453 19.7273 81.0187 20.306C80.692 20.8753 80.2487 21.3233 79.6887 21.65C79.1287 21.9767 78.4987 22.14 77.7987 22.14C77.0987 22.14 76.4687 21.9767 75.9087 21.65C75.3487 21.3233 74.9007 20.8753 74.5647 20.306C74.238 19.7273 74.0747 19.0647 74.0747 18.318C74.0747 17.562 74.238 16.8993 74.5647 16.33C74.9007 15.7513 75.3487 15.2987 75.9087 14.972C76.4687 14.636 77.0987 14.468 77.7987 14.468C78.4987 14.468 79.1287 14.636 79.6887 14.972C80.2487 15.2987 80.692 15.7513 81.0187 16.33C81.3453 16.8993 81.5087 17.562 81.5087 18.318ZM80.1087 18.318C80.1087 17.8047 80.006 17.3613 79.8007 16.988C79.5953 16.6053 79.3153 16.3067 78.9607 16.092C78.6153 15.868 78.228 15.756 77.7987 15.756C77.3693 15.756 76.9773 15.868 76.6227 16.092C76.268 16.3067 75.988 16.6053 75.7827 16.988C75.5773 17.3613 75.4747 17.8047 75.4747 18.318C75.4747 18.8127 75.5773 19.2513 75.7827 19.634C75.988 20.0167 76.268 20.3153 76.6227 20.53C76.9773 20.7447 77.3693 20.852 77.7987 20.852C78.228 20.852 78.6153 20.7447 78.9607 20.53C79.3153 20.3153 79.5953 20.0167 79.8007 19.634C80.006 19.2513 80.1087 18.8127 80.1087 18.318ZM90.1493 18.318C90.1493 19.0647 89.9859 19.7273 89.6593 20.306C89.3326 20.8753 88.8893 21.3233 88.3293 21.65C87.7693 21.9767 87.1393 22.14 86.4393 22.14C85.7393 22.14 85.1093 21.9767 84.5493 21.65C83.9893 21.3233 83.5413 20.8753 83.2053 20.306C82.8786 19.7273 82.7153 19.0647 82.7153 18.318C82.7153 17.562 82.8786 16.8993 83.2053 16.33C83.5413 15.7513 83.9893 15.2987 84.5493 14.972C85.1093 14.636 85.7393 14.468 86.4393 14.468C87.1393 14.468 87.7693 14.636 88.3293 14.972C88.8893 15.2987 89.3326 15.7513 89.6593 16.33C89.9859 16.8993 90.1493 17.562 90.1493 18.318ZM88.7493 18.318C88.7493 17.8047 88.6466 17.3613 88.4413 16.988C88.2359 16.6053 87.9559 16.3067 87.6013 16.092C87.2559 15.868 86.8686 15.756 86.4393 15.756C86.0099 15.756 85.6179 15.868 85.2633 16.092C84.9086 16.3067 84.6286 16.6053 84.4233 16.988C84.2179 17.3613 84.1153 17.8047 84.1153 18.318C84.1153 18.8127 84.2179 19.2513 84.4233 19.634C84.6286 20.0167 84.9086 20.3153 85.2633 20.53C85.6179 20.7447 86.0099 20.852 86.4393 20.852C86.8686 20.852 87.2559 20.7447 87.6013 20.53C87.9559 20.3153 88.2359 20.0167 88.4413 19.634C88.6466 19.2513 88.7493 18.8127 88.7493 18.318ZM92.5459 22C92.3499 22 92.1819 21.9347 92.0419 21.804C91.9112 21.664 91.8459 21.4913 91.8459 21.286V12.354C91.8459 12.1487 91.9112 11.9807 92.0419 11.85C92.1819 11.71 92.3499 11.64 92.5459 11.64C92.7512 11.64 92.9192 11.71 93.0499 11.85C93.1806 11.9807 93.2459 12.1487 93.2459 12.354V21.286C93.2459 21.4913 93.1806 21.664 93.0499 21.804C92.9192 21.9347 92.7512 22 92.5459 22ZM97.1099 14.608C97.2872 14.608 97.4412 14.6827 97.5719 14.832C97.7026 14.9813 97.7679 15.1307 97.7679 15.28C97.7679 15.4667 97.6792 15.6393 97.5019 15.798L93.1199 19.718L93.0639 18.108L96.5919 14.832C96.7412 14.6827 96.9139 14.608 97.1099 14.608ZM97.2779 21.986C97.0819 21.986 96.9139 21.9067 96.7739 21.748L93.9739 18.794L95.0379 17.814L97.7679 20.768C97.9172 20.9267 97.9919 21.104 97.9919 21.3C97.9919 21.5053 97.9079 21.6733 97.7399 21.804C97.5812 21.9253 97.4272 21.986 97.2779 21.986Z" fill="#161117"/>
</svg>
