<svg width="101" height="31" viewBox="0 0 101 31" fill="none" xmlns="http://www.w3.org/2000/svg">
<rect x="0.75" y="0.75" width="99.5" height="29.5" rx="14.75" fill="white"/>
<rect x="0.75" y="0.75" width="99.5" height="29.5" rx="14.75" stroke="#E9E9E9" stroke-width="1.5"/>
<path d="M16.232 19.388C16.224 19.564 16.156 19.712 16.028 19.832C15.908 19.944 15.764 20 15.596 20C15.412 20 15.26 19.944 15.14 19.832C15.028 19.712 14.972 19.564 14.972 19.388V12.212C14.972 12.036 15.032 11.892 15.152 11.78C15.272 11.66 15.428 11.6 15.62 11.6C15.78 11.6 15.92 11.66 16.04 11.78C16.168 11.892 16.232 12.036 16.232 12.212V19.388ZM21.2912 13.544C21.8592 13.544 22.2992 13.664 22.6112 13.904C22.9232 14.136 23.1392 14.452 23.2592 14.852C23.3872 15.244 23.4512 15.684 23.4512 16.172V19.388C23.4512 19.564 23.3912 19.712 23.2712 19.832C23.1592 19.944 23.0192 20 22.8512 20C22.6752 20 22.5312 19.944 22.4192 19.832C22.3072 19.712 22.2512 19.564 22.2512 19.388V16.184C22.2512 15.896 22.2112 15.64 22.1312 15.416C22.0512 15.184 21.9112 15 21.7112 14.864C21.5192 14.72 21.2472 14.648 20.8952 14.648C20.5672 14.648 20.2792 14.72 20.0312 14.864C19.7832 15 19.5872 15.184 19.4432 15.416C19.3072 15.64 19.2392 15.896 19.2392 16.184V19.388C19.2392 19.564 19.1792 19.712 19.0592 19.832C18.9472 19.944 18.8072 20 18.6392 20C18.4632 20 18.3192 19.944 18.2072 19.832C18.0952 19.712 18.0392 19.564 18.0392 19.388V14.3C18.0392 14.124 18.0952 13.98 18.2072 13.868C18.3192 13.748 18.4632 13.688 18.6392 13.688C18.8072 13.688 18.9472 13.748 19.0592 13.868C19.1792 13.98 19.2392 14.124 19.2392 14.3V14.972L19.0232 15.092C19.0792 14.916 19.1752 14.74 19.3112 14.564C19.4552 14.38 19.6272 14.212 19.8272 14.06C20.0272 13.9 20.2512 13.776 20.4992 13.688C20.7472 13.592 21.0112 13.544 21.2912 13.544ZM24.7453 19.016C24.6733 18.904 24.6413 18.776 24.6493 18.632C24.6573 18.48 24.7413 18.352 24.9013 18.248C25.0133 18.176 25.1293 18.148 25.2493 18.164C25.3773 18.172 25.4973 18.232 25.6093 18.344C25.8333 18.592 26.0813 18.788 26.3533 18.932C26.6333 19.076 26.9693 19.148 27.3613 19.148C27.5213 19.14 27.6853 19.116 27.8533 19.076C28.0213 19.028 28.1653 18.948 28.2853 18.836C28.4053 18.716 28.4653 18.544 28.4653 18.32C28.4653 18.12 28.4013 17.96 28.2733 17.84C28.1453 17.72 27.9773 17.624 27.7693 17.552C27.5613 17.472 27.3373 17.4 27.0973 17.336C26.8413 17.264 26.5813 17.184 26.3173 17.096C26.0613 17.008 25.8293 16.896 25.6213 16.76C25.4133 16.616 25.2413 16.432 25.1053 16.208C24.9773 15.984 24.9133 15.708 24.9133 15.38C24.9133 15.004 25.0173 14.68 25.2253 14.408C25.4413 14.136 25.7173 13.924 26.0533 13.772C26.3973 13.62 26.7693 13.544 27.1693 13.544C27.4013 13.544 27.6453 13.576 27.9013 13.64C28.1573 13.696 28.4053 13.788 28.6453 13.916C28.8853 14.044 29.0933 14.212 29.2693 14.42C29.3493 14.524 29.3933 14.648 29.4013 14.792C29.4173 14.936 29.3533 15.064 29.2093 15.176C29.1133 15.256 28.9973 15.292 28.8613 15.284C28.7253 15.276 28.6133 15.232 28.5253 15.152C28.3733 14.96 28.1773 14.812 27.9373 14.708C27.6973 14.596 27.4253 14.54 27.1213 14.54C26.9693 14.54 26.8093 14.564 26.6413 14.612C26.4813 14.652 26.3453 14.728 26.2333 14.84C26.1213 14.952 26.0653 15.116 26.0653 15.332C26.0653 15.532 26.1293 15.692 26.2573 15.812C26.3933 15.932 26.5693 16.032 26.7853 16.112C27.0013 16.192 27.2373 16.264 27.4933 16.328C27.7413 16.392 27.9853 16.468 28.2253 16.556C28.4733 16.644 28.6933 16.76 28.8853 16.904C29.0853 17.04 29.2453 17.22 29.3653 17.444C29.4933 17.66 29.5573 17.936 29.5573 18.272C29.5573 18.664 29.4413 19 29.2093 19.28C28.9853 19.552 28.6973 19.76 28.3453 19.904C28.0013 20.048 27.6373 20.12 27.2533 20.12C26.7973 20.12 26.3413 20.04 25.8853 19.88C25.4373 19.712 25.0573 19.424 24.7453 19.016ZM30.7638 13.76H33.5838C33.7438 13.76 33.8758 13.816 33.9798 13.928C34.0918 14.032 34.1478 14.164 34.1478 14.324C34.1478 14.476 34.0918 14.604 33.9798 14.708C33.8758 14.812 33.7438 14.864 33.5838 14.864H30.7638C30.6038 14.864 30.4678 14.812 30.3558 14.708C30.2518 14.596 30.1998 14.464 30.1998 14.312C30.1998 14.152 30.2518 14.02 30.3558 13.916C30.4678 13.812 30.6038 13.76 30.7638 13.76ZM32.0238 12.2C32.1998 12.2 32.3438 12.26 32.4558 12.38C32.5678 12.492 32.6238 12.636 32.6238 12.812V18.38C32.6238 18.524 32.6478 18.64 32.6958 18.728C32.7438 18.816 32.8078 18.876 32.8878 18.908C32.9758 18.94 33.0638 18.956 33.1518 18.956C33.2398 18.956 33.3158 18.94 33.3798 18.908C33.4518 18.876 33.5358 18.86 33.6318 18.86C33.7278 18.86 33.8158 18.904 33.8958 18.992C33.9758 19.08 34.0158 19.2 34.0158 19.352C34.0158 19.544 33.9118 19.7 33.7038 19.82C33.4958 19.94 33.2718 20 33.0318 20C32.8958 20 32.7358 19.988 32.5518 19.964C32.3678 19.94 32.1878 19.88 32.0118 19.784C31.8438 19.688 31.7038 19.536 31.5918 19.328C31.4798 19.112 31.4238 18.812 31.4238 18.428V12.812C31.4238 12.636 31.4798 12.492 31.5918 12.38C31.7118 12.26 31.8558 12.2 32.0238 12.2ZM40.6487 13.592C40.8247 13.592 40.9687 13.652 41.0807 13.772C41.1927 13.884 41.2487 14.028 41.2487 14.204V19.388C41.2487 19.564 41.1927 19.712 41.0807 19.832C40.9687 19.944 40.8247 20 40.6487 20C40.4807 20 40.3367 19.944 40.2167 19.832C40.1047 19.712 40.0487 19.564 40.0487 19.388V18.524L40.3007 18.56C40.3007 18.704 40.2407 18.864 40.1207 19.04C40.0087 19.216 39.8527 19.388 39.6527 19.556C39.4527 19.716 39.2167 19.852 38.9447 19.964C38.6727 20.068 38.3807 20.12 38.0687 20.12C37.5167 20.12 37.0207 19.98 36.5807 19.7C36.1407 19.412 35.7927 19.02 35.5367 18.524C35.2807 18.028 35.1527 17.464 35.1527 16.832C35.1527 16.184 35.2807 15.616 35.5367 15.128C35.7927 14.632 36.1367 14.244 36.5687 13.964C37.0087 13.684 37.4967 13.544 38.0327 13.544C38.3767 13.544 38.6927 13.6 38.9807 13.712C39.2767 13.824 39.5327 13.968 39.7487 14.144C39.9647 14.32 40.1287 14.508 40.2407 14.708C40.3607 14.9 40.4207 15.084 40.4207 15.26L40.0487 15.296V14.204C40.0487 14.036 40.1047 13.892 40.2167 13.772C40.3367 13.652 40.4807 13.592 40.6487 13.592ZM38.2007 19.016C38.5767 19.016 38.9087 18.92 39.1967 18.728C39.4847 18.536 39.7087 18.276 39.8687 17.948C40.0287 17.612 40.1087 17.24 40.1087 16.832C40.1087 16.416 40.0287 16.044 39.8687 15.716C39.7087 15.388 39.4847 15.128 39.1967 14.936C38.9087 14.744 38.5767 14.648 38.2007 14.648C37.8327 14.648 37.5047 14.744 37.2167 14.936C36.9367 15.128 36.7127 15.388 36.5447 15.716C36.3847 16.044 36.3047 16.416 36.3047 16.832C36.3047 17.24 36.3847 17.612 36.5447 17.948C36.7127 18.276 36.9367 18.536 37.2167 18.728C37.5047 18.92 37.8327 19.016 38.2007 19.016ZM46.1818 13.544C46.7498 13.544 47.1898 13.664 47.5018 13.904C47.8138 14.136 48.0298 14.452 48.1498 14.852C48.2778 15.244 48.3418 15.684 48.3418 16.172V19.388C48.3418 19.564 48.2818 19.712 48.1618 19.832C48.0498 19.944 47.9098 20 47.7418 20C47.5658 20 47.4218 19.944 47.3098 19.832C47.1978 19.712 47.1418 19.564 47.1418 19.388V16.184C47.1418 15.896 47.1018 15.64 47.0218 15.416C46.9418 15.184 46.8018 15 46.6018 14.864C46.4098 14.72 46.1378 14.648 45.7858 14.648C45.4578 14.648 45.1698 14.72 44.9218 14.864C44.6738 15 44.4778 15.184 44.3338 15.416C44.1978 15.64 44.1298 15.896 44.1298 16.184V19.388C44.1298 19.564 44.0698 19.712 43.9498 19.832C43.8378 19.944 43.6978 20 43.5298 20C43.3538 20 43.2098 19.944 43.0978 19.832C42.9858 19.712 42.9298 19.564 42.9298 19.388V14.3C42.9298 14.124 42.9858 13.98 43.0978 13.868C43.2098 13.748 43.3538 13.688 43.5298 13.688C43.6978 13.688 43.8378 13.748 43.9498 13.868C44.0698 13.98 44.1298 14.124 44.1298 14.3V14.972L43.9138 15.092C43.9698 14.916 44.0658 14.74 44.2018 14.564C44.3458 14.38 44.5178 14.212 44.7178 14.06C44.9178 13.9 45.1418 13.776 45.3898 13.688C45.6378 13.592 45.9018 13.544 46.1818 13.544ZM49.924 13.76H52.744C52.904 13.76 53.036 13.816 53.14 13.928C53.252 14.032 53.308 14.164 53.308 14.324C53.308 14.476 53.252 14.604 53.14 14.708C53.036 14.812 52.904 14.864 52.744 14.864H49.924C49.764 14.864 49.628 14.812 49.516 14.708C49.412 14.596 49.36 14.464 49.36 14.312C49.36 14.152 49.412 14.02 49.516 13.916C49.628 13.812 49.764 13.76 49.924 13.76ZM51.184 12.2C51.36 12.2 51.504 12.26 51.616 12.38C51.728 12.492 51.784 12.636 51.784 12.812V18.38C51.784 18.524 51.808 18.64 51.856 18.728C51.904 18.816 51.968 18.876 52.048 18.908C52.136 18.94 52.224 18.956 52.312 18.956C52.4 18.956 52.476 18.94 52.54 18.908C52.612 18.876 52.696 18.86 52.792 18.86C52.888 18.86 52.976 18.904 53.056 18.992C53.136 19.08 53.176 19.2 53.176 19.352C53.176 19.544 53.072 19.7 52.864 19.82C52.656 19.94 52.432 20 52.192 20C52.056 20 51.896 19.988 51.712 19.964C51.528 19.94 51.348 19.88 51.172 19.784C51.004 19.688 50.864 19.536 50.752 19.328C50.64 19.112 50.584 18.812 50.584 18.428V12.812C50.584 12.636 50.64 12.492 50.752 12.38C50.872 12.26 51.016 12.2 51.184 12.2ZM61.7927 11.6C62.5287 11.6 63.0847 11.78 63.4607 12.14C63.8447 12.5 64.0367 13.024 64.0367 13.712C64.0367 14.072 63.9487 14.4 63.7727 14.696C63.6047 14.984 63.3527 15.212 63.0167 15.38C62.6887 15.548 62.2767 15.636 61.7807 15.644L61.8047 15.2C62.0687 15.2 62.3527 15.236 62.6567 15.308C62.9687 15.38 63.2607 15.504 63.5327 15.68C63.8047 15.856 64.0287 16.096 64.2047 16.4C64.3807 16.696 64.4687 17.068 64.4687 17.516C64.4687 18.004 64.3887 18.412 64.2287 18.74C64.0687 19.06 63.8567 19.312 63.5927 19.496C63.3287 19.68 63.0367 19.812 62.7167 19.892C62.4047 19.964 62.0967 20 61.7927 20H58.7207C58.5527 20 58.4087 19.944 58.2887 19.832C58.1687 19.712 58.1087 19.564 58.1087 19.388V12.212C58.1087 12.036 58.1687 11.892 58.2887 11.78C58.4087 11.66 58.5527 11.6 58.7207 11.6H61.7927ZM61.6247 12.776H59.2607L59.4047 12.584V15.164L59.2727 15.032H61.6487C61.9367 15.024 62.1887 14.928 62.4047 14.744C62.6287 14.552 62.7407 14.272 62.7407 13.904C62.7407 13.528 62.6407 13.248 62.4407 13.064C62.2407 12.872 61.9687 12.776 61.6247 12.776ZM61.7087 16.208H59.3207L59.4047 16.124V18.956L59.3087 18.848H61.7807C62.1967 18.848 62.5327 18.74 62.7887 18.524C63.0447 18.3 63.1727 17.964 63.1727 17.516C63.1727 17.14 63.0967 16.86 62.9447 16.676C62.7927 16.492 62.6047 16.368 62.3807 16.304C62.1567 16.24 61.9327 16.208 61.7087 16.208ZM71.8646 16.844C71.8646 17.484 71.7246 18.052 71.4446 18.548C71.1646 19.036 70.7846 19.42 70.3046 19.7C69.8246 19.98 69.2846 20.12 68.6846 20.12C68.0846 20.12 67.5446 19.98 67.0646 19.7C66.5846 19.42 66.2006 19.036 65.9126 18.548C65.6326 18.052 65.4926 17.484 65.4926 16.844C65.4926 16.196 65.6326 15.628 65.9126 15.14C66.2006 14.644 66.5846 14.256 67.0646 13.976C67.5446 13.688 68.0846 13.544 68.6846 13.544C69.2846 13.544 69.8246 13.688 70.3046 13.976C70.7846 14.256 71.1646 14.644 71.4446 15.14C71.7246 15.628 71.8646 16.196 71.8646 16.844ZM70.6646 16.844C70.6646 16.404 70.5766 16.024 70.4006 15.704C70.2246 15.376 69.9846 15.12 69.6806 14.936C69.3846 14.744 69.0526 14.648 68.6846 14.648C68.3166 14.648 67.9806 14.744 67.6766 14.936C67.3726 15.12 67.1326 15.376 66.9566 15.704C66.7806 16.024 66.6926 16.404 66.6926 16.844C66.6926 17.268 66.7806 17.644 66.9566 17.972C67.1326 18.3 67.3726 18.556 67.6766 18.74C67.9806 18.924 68.3166 19.016 68.6846 19.016C69.0526 19.016 69.3846 18.924 69.6806 18.74C69.9846 18.556 70.2246 18.3 70.4006 17.972C70.5766 17.644 70.6646 17.268 70.6646 16.844ZM79.2708 16.844C79.2708 17.484 79.1308 18.052 78.8508 18.548C78.5708 19.036 78.1908 19.42 77.7108 19.7C77.2308 19.98 76.6908 20.12 76.0908 20.12C75.4908 20.12 74.9508 19.98 74.4708 19.7C73.9908 19.42 73.6068 19.036 73.3188 18.548C73.0388 18.052 72.8988 17.484 72.8988 16.844C72.8988 16.196 73.0388 15.628 73.3188 15.14C73.6068 14.644 73.9908 14.256 74.4708 13.976C74.9508 13.688 75.4908 13.544 76.0908 13.544C76.6908 13.544 77.2308 13.688 77.7108 13.976C78.1908 14.256 78.5708 14.644 78.8508 15.14C79.1308 15.628 79.2708 16.196 79.2708 16.844ZM78.0708 16.844C78.0708 16.404 77.9828 16.024 77.8068 15.704C77.6308 15.376 77.3908 15.12 77.0868 14.936C76.7908 14.744 76.4588 14.648 76.0908 14.648C75.7228 14.648 75.3868 14.744 75.0828 14.936C74.7788 15.12 74.5388 15.376 74.3628 15.704C74.1868 16.024 74.0988 16.404 74.0988 16.844C74.0988 17.268 74.1868 17.644 74.3628 17.972C74.5388 18.3 74.7788 18.556 75.0828 18.74C75.3868 18.924 75.7228 19.016 76.0908 19.016C76.4588 19.016 76.7908 18.924 77.0868 18.74C77.3908 18.556 77.6308 18.3 77.8068 17.972C77.9828 17.644 78.0708 17.268 78.0708 16.844ZM81.3251 20C81.1571 20 81.0131 19.944 80.8931 19.832C80.7811 19.712 80.7251 19.564 80.7251 19.388V11.732C80.7251 11.556 80.7811 11.412 80.8931 11.3C81.0131 11.18 81.1571 11.12 81.3251 11.12C81.5011 11.12 81.6451 11.18 81.7571 11.3C81.8691 11.412 81.9251 11.556 81.9251 11.732V19.388C81.9251 19.564 81.8691 19.712 81.7571 19.832C81.6451 19.944 81.5011 20 81.3251 20ZM85.2371 13.664C85.3891 13.664 85.5211 13.728 85.6331 13.856C85.7451 13.984 85.8011 14.112 85.8011 14.24C85.8011 14.4 85.7251 14.548 85.5731 14.684L81.8171 18.044L81.7691 16.664L84.7931 13.856C84.9211 13.728 85.0691 13.664 85.2371 13.664ZM85.3811 19.988C85.2131 19.988 85.0691 19.92 84.9491 19.784L82.5491 17.252L83.4611 16.412L85.8011 18.944C85.9291 19.08 85.9931 19.232 85.9931 19.4C85.9931 19.576 85.9211 19.72 85.7771 19.832C85.6411 19.936 85.5091 19.988 85.3811 19.988Z" fill="#161117"/>
</svg>
