<svg width="83" height="27" viewBox="0 0 83 27" fill="none" xmlns="http://www.w3.org/2000/svg">
<rect x="0.75" y="0.75" width="81.5" height="25.5" rx="12.75" fill="white"/>
<rect x="0.75" y="0.75" width="81.5" height="25.5" rx="12.75" stroke="#E9E9E9" stroke-width="1.5"/>
<path d="M15.674 16.541C15.668 16.673 15.617 16.784 15.521 16.874C15.431 16.958 15.323 17 15.197 17C15.059 17 14.945 16.958 14.855 16.874C14.771 16.784 14.729 16.673 14.729 16.541V11.159C14.729 11.027 14.774 10.919 14.864 10.835C14.954 10.745 15.071 10.7 15.215 10.7C15.335 10.7 15.44 10.745 15.53 10.835C15.626 10.919 15.674 11.027 15.674 11.159V16.541ZM19.4684 12.158C19.8944 12.158 20.2244 12.248 20.4584 12.428C20.6924 12.602 20.8544 12.839 20.9444 13.139C21.0404 13.433 21.0884 13.763 21.0884 14.129V16.541C21.0884 16.673 21.0434 16.784 20.9534 16.874C20.8694 16.958 20.7644 17 20.6384 17C20.5064 17 20.3984 16.958 20.3144 16.874C20.2304 16.784 20.1884 16.673 20.1884 16.541V14.138C20.1884 13.922 20.1584 13.73 20.0984 13.562C20.0384 13.388 19.9334 13.25 19.7834 13.148C19.6394 13.04 19.4354 12.986 19.1714 12.986C18.9254 12.986 18.7094 13.04 18.5234 13.148C18.3374 13.25 18.1904 13.388 18.0824 13.562C17.9804 13.73 17.9294 13.922 17.9294 14.138V16.541C17.9294 16.673 17.8844 16.784 17.7944 16.874C17.7104 16.958 17.6054 17 17.4794 17C17.3474 17 17.2394 16.958 17.1554 16.874C17.0714 16.784 17.0294 16.673 17.0294 16.541V12.725C17.0294 12.593 17.0714 12.485 17.1554 12.401C17.2394 12.311 17.3474 12.266 17.4794 12.266C17.6054 12.266 17.7104 12.311 17.7944 12.401C17.8844 12.485 17.9294 12.593 17.9294 12.725V13.229L17.7674 13.319C17.8094 13.187 17.8814 13.055 17.9834 12.923C18.0914 12.785 18.2204 12.659 18.3704 12.545C18.5204 12.425 18.6884 12.332 18.8744 12.266C19.0604 12.194 19.2584 12.158 19.4684 12.158ZM22.059 16.262C22.005 16.178 21.981 16.082 21.987 15.974C21.993 15.86 22.056 15.764 22.176 15.686C22.26 15.632 22.347 15.611 22.437 15.623C22.533 15.629 22.623 15.674 22.707 15.758C22.875 15.944 23.061 16.091 23.265 16.199C23.475 16.307 23.727 16.361 24.021 16.361C24.141 16.355 24.264 16.337 24.39 16.307C24.516 16.271 24.624 16.211 24.714 16.127C24.804 16.037 24.849 15.908 24.849 15.74C24.849 15.59 24.801 15.47 24.705 15.38C24.609 15.29 24.483 15.218 24.327 15.164C24.171 15.104 24.003 15.05 23.823 15.002C23.631 14.948 23.436 14.888 23.238 14.822C23.046 14.756 22.872 14.672 22.716 14.57C22.56 14.462 22.431 14.324 22.329 14.156C22.233 13.988 22.185 13.781 22.185 13.535C22.185 13.253 22.263 13.01 22.419 12.806C22.581 12.602 22.788 12.443 23.04 12.329C23.298 12.215 23.577 12.158 23.877 12.158C24.051 12.158 24.234 12.182 24.426 12.23C24.618 12.272 24.804 12.341 24.984 12.437C25.164 12.533 25.32 12.659 25.452 12.815C25.512 12.893 25.545 12.986 25.551 13.094C25.563 13.202 25.515 13.298 25.407 13.382C25.335 13.442 25.248 13.469 25.146 13.463C25.044 13.457 24.96 13.424 24.894 13.364C24.78 13.22 24.633 13.109 24.453 13.031C24.273 12.947 24.069 12.905 23.841 12.905C23.727 12.905 23.607 12.923 23.481 12.959C23.361 12.989 23.259 13.046 23.175 13.13C23.091 13.214 23.049 13.337 23.049 13.499C23.049 13.649 23.097 13.769 23.193 13.859C23.295 13.949 23.427 14.024 23.589 14.084C23.751 14.144 23.928 14.198 24.12 14.246C24.306 14.294 24.489 14.351 24.669 14.417C24.855 14.483 25.02 14.57 25.164 14.678C25.314 14.78 25.434 14.915 25.524 15.083C25.62 15.245 25.668 15.452 25.668 15.704C25.668 15.998 25.581 16.25 25.407 16.46C25.239 16.664 25.023 16.82 24.759 16.928C24.501 17.036 24.228 17.09 23.94 17.09C23.598 17.09 23.256 17.03 22.914 16.91C22.578 16.784 22.293 16.568 22.059 16.262ZM26.5729 12.32H28.6879C28.8079 12.32 28.9069 12.362 28.9849 12.446C29.0689 12.524 29.1109 12.623 29.1109 12.743C29.1109 12.857 29.0689 12.953 28.9849 13.031C28.9069 13.109 28.8079 13.148 28.6879 13.148H26.5729C26.4529 13.148 26.3509 13.109 26.2669 13.031C26.1889 12.947 26.1499 12.848 26.1499 12.734C26.1499 12.614 26.1889 12.515 26.2669 12.437C26.3509 12.359 26.4529 12.32 26.5729 12.32ZM27.5179 11.15C27.6499 11.15 27.7579 11.195 27.8419 11.285C27.9259 11.369 27.9679 11.477 27.9679 11.609V15.785C27.9679 15.893 27.9859 15.98 28.0219 16.046C28.0579 16.112 28.1059 16.157 28.1659 16.181C28.2319 16.205 28.2979 16.217 28.3639 16.217C28.4299 16.217 28.4869 16.205 28.5349 16.181C28.5889 16.157 28.6519 16.145 28.7239 16.145C28.7959 16.145 28.8619 16.178 28.9219 16.244C28.9819 16.31 29.0119 16.4 29.0119 16.514C29.0119 16.658 28.9339 16.775 28.7779 16.865C28.6219 16.955 28.4539 17 28.2739 17C28.1719 17 28.0519 16.991 27.9139 16.973C27.7759 16.955 27.6409 16.91 27.5089 16.838C27.3829 16.766 27.2779 16.652 27.1939 16.496C27.1099 16.334 27.0679 16.109 27.0679 15.821V11.609C27.0679 11.477 27.1099 11.369 27.1939 11.285C27.2839 11.195 27.3919 11.15 27.5179 11.15ZM33.9865 12.194C34.1185 12.194 34.2265 12.239 34.3105 12.329C34.3945 12.413 34.4365 12.521 34.4365 12.653V16.541C34.4365 16.673 34.3945 16.784 34.3105 16.874C34.2265 16.958 34.1185 17 33.9865 17C33.8605 17 33.7525 16.958 33.6625 16.874C33.5785 16.784 33.5365 16.673 33.5365 16.541V15.893L33.7255 15.92C33.7255 16.028 33.6805 16.148 33.5905 16.28C33.5065 16.412 33.3895 16.541 33.2395 16.667C33.0895 16.787 32.9125 16.889 32.7085 16.973C32.5045 17.051 32.2855 17.09 32.0515 17.09C31.6375 17.09 31.2655 16.985 30.9355 16.775C30.6055 16.559 30.3445 16.265 30.1525 15.893C29.9605 15.521 29.8645 15.098 29.8645 14.624C29.8645 14.138 29.9605 13.712 30.1525 13.346C30.3445 12.974 30.6025 12.683 30.9265 12.473C31.2565 12.263 31.6225 12.158 32.0245 12.158C32.2825 12.158 32.5195 12.2 32.7355 12.284C32.9575 12.368 33.1495 12.476 33.3115 12.608C33.4735 12.74 33.5965 12.881 33.6805 13.031C33.7705 13.175 33.8155 13.313 33.8155 13.445L33.5365 13.472V12.653C33.5365 12.527 33.5785 12.419 33.6625 12.329C33.7525 12.239 33.8605 12.194 33.9865 12.194ZM32.1505 16.262C32.4325 16.262 32.6815 16.19 32.8975 16.046C33.1135 15.902 33.2815 15.707 33.4015 15.461C33.5215 15.209 33.5815 14.93 33.5815 14.624C33.5815 14.312 33.5215 14.033 33.4015 13.787C33.2815 13.541 33.1135 13.346 32.8975 13.202C32.6815 13.058 32.4325 12.986 32.1505 12.986C31.8745 12.986 31.6285 13.058 31.4125 13.202C31.2025 13.346 31.0345 13.541 30.9085 13.787C30.7885 14.033 30.7285 14.312 30.7285 14.624C30.7285 14.93 30.7885 15.209 30.9085 15.461C31.0345 15.707 31.2025 15.902 31.4125 16.046C31.6285 16.19 31.8745 16.262 32.1505 16.262ZM38.1364 12.158C38.5624 12.158 38.8924 12.248 39.1264 12.428C39.3604 12.602 39.5224 12.839 39.6124 13.139C39.7084 13.433 39.7564 13.763 39.7564 14.129V16.541C39.7564 16.673 39.7114 16.784 39.6214 16.874C39.5374 16.958 39.4324 17 39.3064 17C39.1744 17 39.0664 16.958 38.9824 16.874C38.8984 16.784 38.8564 16.673 38.8564 16.541V14.138C38.8564 13.922 38.8264 13.73 38.7664 13.562C38.7064 13.388 38.6014 13.25 38.4514 13.148C38.3074 13.04 38.1034 12.986 37.8394 12.986C37.5934 12.986 37.3774 13.04 37.1914 13.148C37.0054 13.25 36.8584 13.388 36.7504 13.562C36.6484 13.73 36.5974 13.922 36.5974 14.138V16.541C36.5974 16.673 36.5524 16.784 36.4624 16.874C36.3784 16.958 36.2734 17 36.1474 17C36.0154 17 35.9074 16.958 35.8234 16.874C35.7394 16.784 35.6974 16.673 35.6974 16.541V12.725C35.6974 12.593 35.7394 12.485 35.8234 12.401C35.9074 12.311 36.0154 12.266 36.1474 12.266C36.2734 12.266 36.3784 12.311 36.4624 12.401C36.5524 12.485 36.5974 12.593 36.5974 12.725V13.229L36.4354 13.319C36.4774 13.187 36.5494 13.055 36.6514 12.923C36.7594 12.785 36.8884 12.659 37.0384 12.545C37.1884 12.425 37.3564 12.332 37.5424 12.266C37.7284 12.194 37.9264 12.158 38.1364 12.158ZM40.943 12.32H43.058C43.178 12.32 43.277 12.362 43.355 12.446C43.439 12.524 43.481 12.623 43.481 12.743C43.481 12.857 43.439 12.953 43.355 13.031C43.277 13.109 43.178 13.148 43.058 13.148H40.943C40.823 13.148 40.721 13.109 40.637 13.031C40.559 12.947 40.52 12.848 40.52 12.734C40.52 12.614 40.559 12.515 40.637 12.437C40.721 12.359 40.823 12.32 40.943 12.32ZM41.888 11.15C42.02 11.15 42.128 11.195 42.212 11.285C42.296 11.369 42.338 11.477 42.338 11.609V15.785C42.338 15.893 42.356 15.98 42.392 16.046C42.428 16.112 42.476 16.157 42.536 16.181C42.602 16.205 42.668 16.217 42.734 16.217C42.8 16.217 42.857 16.205 42.905 16.181C42.959 16.157 43.022 16.145 43.094 16.145C43.166 16.145 43.232 16.178 43.292 16.244C43.352 16.31 43.382 16.4 43.382 16.514C43.382 16.658 43.304 16.775 43.148 16.865C42.992 16.955 42.824 17 42.644 17C42.542 17 42.422 16.991 42.284 16.973C42.146 16.955 42.011 16.91 41.879 16.838C41.753 16.766 41.648 16.652 41.564 16.496C41.48 16.334 41.438 16.109 41.438 15.821V11.609C41.438 11.477 41.48 11.369 41.564 11.285C41.654 11.195 41.762 11.15 41.888 11.15ZM49.8445 10.7C50.3965 10.7 50.8135 10.835 51.0955 11.105C51.3835 11.375 51.5275 11.768 51.5275 12.284C51.5275 12.554 51.4615 12.8 51.3295 13.022C51.2035 13.238 51.0145 13.409 50.7625 13.535C50.5165 13.661 50.2075 13.727 49.8355 13.733L49.8535 13.4C50.0515 13.4 50.2645 13.427 50.4925 13.481C50.7265 13.535 50.9455 13.628 51.1495 13.76C51.3535 13.892 51.5215 14.072 51.6535 14.3C51.7855 14.522 51.8515 14.801 51.8515 15.137C51.8515 15.503 51.7915 15.809 51.6715 16.055C51.5515 16.295 51.3925 16.484 51.1945 16.622C50.9965 16.76 50.7775 16.859 50.5375 16.919C50.3035 16.973 50.0725 17 49.8445 17H47.5405C47.4145 17 47.3065 16.958 47.2165 16.874C47.1265 16.784 47.0815 16.673 47.0815 16.541V11.159C47.0815 11.027 47.1265 10.919 47.2165 10.835C47.3065 10.745 47.4145 10.7 47.5405 10.7H49.8445ZM49.7185 11.582H47.9455L48.0535 11.438V13.373L47.9545 13.274H49.7365C49.9525 13.268 50.1415 13.196 50.3035 13.058C50.4715 12.914 50.5555 12.704 50.5555 12.428C50.5555 12.146 50.4805 11.936 50.3305 11.798C50.1805 11.654 49.9765 11.582 49.7185 11.582ZM49.7815 14.156H47.9905L48.0535 14.093V16.217L47.9815 16.136H49.8355C50.1475 16.136 50.3995 16.055 50.5915 15.893C50.7835 15.725 50.8795 15.473 50.8795 15.137C50.8795 14.855 50.8225 14.645 50.7085 14.507C50.5945 14.369 50.4535 14.276 50.2855 14.228C50.1175 14.18 49.9495 14.156 49.7815 14.156ZM57.3984 14.633C57.3984 15.113 57.2934 15.539 57.0834 15.911C56.8734 16.277 56.5884 16.565 56.2284 16.775C55.8684 16.985 55.4634 17.09 55.0134 17.09C54.5634 17.09 54.1584 16.985 53.7984 16.775C53.4384 16.565 53.1504 16.277 52.9344 15.911C52.7244 15.539 52.6194 15.113 52.6194 14.633C52.6194 14.147 52.7244 13.721 52.9344 13.355C53.1504 12.983 53.4384 12.692 53.7984 12.482C54.1584 12.266 54.5634 12.158 55.0134 12.158C55.4634 12.158 55.8684 12.266 56.2284 12.482C56.5884 12.692 56.8734 12.983 57.0834 13.355C57.2934 13.721 57.3984 14.147 57.3984 14.633ZM56.4984 14.633C56.4984 14.303 56.4324 14.018 56.3004 13.778C56.1684 13.532 55.9884 13.34 55.7604 13.202C55.5384 13.058 55.2894 12.986 55.0134 12.986C54.7374 12.986 54.4854 13.058 54.2574 13.202C54.0294 13.34 53.8494 13.532 53.7174 13.778C53.5854 14.018 53.5194 14.303 53.5194 14.633C53.5194 14.951 53.5854 15.233 53.7174 15.479C53.8494 15.725 54.0294 15.917 54.2574 16.055C54.4854 16.193 54.7374 16.262 55.0134 16.262C55.2894 16.262 55.5384 16.193 55.7604 16.055C55.9884 15.917 56.1684 15.725 56.3004 15.479C56.4324 15.233 56.4984 14.951 56.4984 14.633ZM62.9531 14.633C62.9531 15.113 62.8481 15.539 62.6381 15.911C62.4281 16.277 62.1431 16.565 61.7831 16.775C61.4231 16.985 61.0181 17.09 60.5681 17.09C60.1181 17.09 59.7131 16.985 59.3531 16.775C58.9931 16.565 58.7051 16.277 58.4891 15.911C58.2791 15.539 58.1741 15.113 58.1741 14.633C58.1741 14.147 58.2791 13.721 58.4891 13.355C58.7051 12.983 58.9931 12.692 59.3531 12.482C59.7131 12.266 60.1181 12.158 60.5681 12.158C61.0181 12.158 61.4231 12.266 61.7831 12.482C62.1431 12.692 62.4281 12.983 62.6381 13.355C62.8481 13.721 62.9531 14.147 62.9531 14.633ZM62.0531 14.633C62.0531 14.303 61.9871 14.018 61.8551 13.778C61.7231 13.532 61.5431 13.34 61.3151 13.202C61.0931 13.058 60.8441 12.986 60.5681 12.986C60.2921 12.986 60.0401 13.058 59.8121 13.202C59.5841 13.34 59.4041 13.532 59.2721 13.778C59.1401 14.018 59.0741 14.303 59.0741 14.633C59.0741 14.951 59.1401 15.233 59.2721 15.479C59.4041 15.725 59.5841 15.917 59.8121 16.055C60.0401 16.193 60.2921 16.262 60.5681 16.262C60.8441 16.262 61.0931 16.193 61.3151 16.055C61.5431 15.917 61.7231 15.725 61.8551 15.479C61.9871 15.233 62.0531 14.951 62.0531 14.633ZM64.4938 17C64.3678 17 64.2598 16.958 64.1698 16.874C64.0858 16.784 64.0438 16.673 64.0438 16.541V10.799C64.0438 10.667 64.0858 10.559 64.1698 10.475C64.2598 10.385 64.3678 10.34 64.4938 10.34C64.6258 10.34 64.7338 10.385 64.8178 10.475C64.9018 10.559 64.9438 10.667 64.9438 10.799V16.541C64.9438 16.673 64.9018 16.784 64.8178 16.874C64.7338 16.958 64.6258 17 64.4938 17ZM67.4278 12.248C67.5418 12.248 67.6408 12.296 67.7248 12.392C67.8088 12.488 67.8508 12.584 67.8508 12.68C67.8508 12.8 67.7938 12.911 67.6798 13.013L64.8628 15.533L64.8268 14.498L67.0948 12.392C67.1908 12.296 67.3018 12.248 67.4278 12.248ZM67.5358 16.991C67.4098 16.991 67.3018 16.94 67.2118 16.838L65.4118 14.939L66.0958 14.309L67.8508 16.208C67.9468 16.31 67.9948 16.424 67.9948 16.55C67.9948 16.682 67.9408 16.79 67.8328 16.874C67.7308 16.952 67.6318 16.991 67.5358 16.991Z" fill="#161117"/>
</svg>
