<svg width="69" height="27" viewBox="0 0 69 27" fill="none" xmlns="http://www.w3.org/2000/svg">
<rect width="69" height="27" rx="13.5" fill="#161117"/>
<path d="M15.197 10.691C15.269 10.691 15.344 10.709 15.422 10.745C15.5 10.781 15.56 10.832 15.602 10.898L17.888 14.381L17.501 14.363L19.832 10.898C19.928 10.76 20.051 10.691 20.201 10.691C20.321 10.691 20.426 10.736 20.516 10.826C20.612 10.91 20.66 11.018 20.66 11.15V16.541C20.66 16.673 20.618 16.784 20.534 16.874C20.45 16.958 20.339 17 20.201 17C20.057 17 19.94 16.958 19.85 16.874C19.766 16.784 19.724 16.673 19.724 16.541V11.978L20.012 12.041L18.032 15.056C17.99 15.11 17.936 15.158 17.87 15.2C17.804 15.236 17.735 15.251 17.663 15.245C17.597 15.251 17.528 15.236 17.456 15.2C17.39 15.158 17.336 15.11 17.294 15.056L15.386 12.086L15.602 11.726V16.541C15.602 16.673 15.56 16.784 15.476 16.874C15.398 16.958 15.293 17 15.161 17C15.035 17 14.93 16.958 14.846 16.874C14.768 16.784 14.729 16.673 14.729 16.541V11.15C14.729 11.024 14.774 10.916 14.864 10.826C14.96 10.736 15.071 10.691 15.197 10.691ZM26.5664 14.633C26.5664 15.113 26.4614 15.539 26.2514 15.911C26.0414 16.277 25.7564 16.565 25.3964 16.775C25.0364 16.985 24.6314 17.09 24.1814 17.09C23.7314 17.09 23.3264 16.985 22.9664 16.775C22.6064 16.565 22.3184 16.277 22.1024 15.911C21.8924 15.539 21.7874 15.113 21.7874 14.633C21.7874 14.147 21.8924 13.721 22.1024 13.355C22.3184 12.983 22.6064 12.692 22.9664 12.482C23.3264 12.266 23.7314 12.158 24.1814 12.158C24.6314 12.158 25.0364 12.266 25.3964 12.482C25.7564 12.692 26.0414 12.983 26.2514 13.355C26.4614 13.721 26.5664 14.147 26.5664 14.633ZM25.6664 14.633C25.6664 14.303 25.6004 14.018 25.4684 13.778C25.3364 13.532 25.1564 13.34 24.9284 13.202C24.7064 13.058 24.4574 12.986 24.1814 12.986C23.9054 12.986 23.6534 13.058 23.4254 13.202C23.1974 13.34 23.0174 13.532 22.8854 13.778C22.7534 14.018 22.6874 14.303 22.6874 14.633C22.6874 14.951 22.7534 15.233 22.8854 15.479C23.0174 15.725 23.1974 15.917 23.4254 16.055C23.6534 16.193 23.9054 16.262 24.1814 16.262C24.4574 16.262 24.7064 16.193 24.9284 16.055C25.1564 15.917 25.3364 15.725 25.4684 15.479C25.6004 15.233 25.6664 14.951 25.6664 14.633ZM28.0351 17C27.9031 17 27.7951 16.958 27.7111 16.874C27.6271 16.784 27.5851 16.673 27.5851 16.541V12.725C27.5851 12.593 27.6271 12.485 27.7111 12.401C27.7951 12.311 27.9031 12.266 28.0351 12.266C28.1611 12.266 28.2661 12.311 28.3501 12.401C28.4401 12.485 28.4851 12.593 28.4851 12.725V13.733L28.3951 13.346C28.4431 13.178 28.5151 13.022 28.6111 12.878C28.7131 12.734 28.8331 12.608 28.9711 12.5C29.1091 12.392 29.2621 12.308 29.4301 12.248C29.6041 12.188 29.7841 12.158 29.9701 12.158C30.1261 12.158 30.2611 12.2 30.3751 12.284C30.4891 12.368 30.5461 12.473 30.5461 12.599C30.5461 12.761 30.5041 12.881 30.4201 12.959C30.3361 13.031 30.2431 13.067 30.1411 13.067C30.0511 13.067 29.9641 13.049 29.8801 13.013C29.7961 12.971 29.6971 12.95 29.5831 12.95C29.4571 12.95 29.3281 12.983 29.1961 13.049C29.0641 13.115 28.9441 13.214 28.8361 13.346C28.7281 13.472 28.6411 13.622 28.5751 13.796C28.5151 13.97 28.4851 14.165 28.4851 14.381V16.541C28.4851 16.673 28.4401 16.784 28.3501 16.874C28.2661 16.958 28.1611 17 28.0351 17ZM33.3496 17.09C32.8516 17.09 32.4196 16.988 32.0536 16.784C31.6876 16.574 31.4026 16.289 31.1986 15.929C31.0006 15.563 30.9016 15.146 30.9016 14.678C30.9016 14.15 31.0066 13.7 31.2166 13.328C31.4326 12.95 31.7116 12.662 32.0536 12.464C32.3956 12.26 32.7586 12.158 33.1426 12.158C33.4366 12.158 33.7156 12.218 33.9796 12.338C34.2436 12.452 34.4776 12.614 34.6816 12.824C34.8916 13.028 35.0566 13.271 35.1766 13.553C35.2966 13.829 35.3596 14.132 35.3656 14.462C35.3596 14.582 35.3116 14.681 35.2216 14.759C35.1316 14.837 35.0266 14.876 34.9066 14.876H31.4056L31.1896 14.111H34.5736L34.4026 14.273V14.048C34.3906 13.838 34.3216 13.655 34.1956 13.499C34.0696 13.337 33.9136 13.214 33.7276 13.13C33.5416 13.04 33.3466 12.995 33.1426 12.995C32.9626 12.995 32.7886 13.025 32.6206 13.085C32.4586 13.139 32.3116 13.229 32.1796 13.355C32.0536 13.481 31.9516 13.649 31.8736 13.859C31.8016 14.063 31.7656 14.318 31.7656 14.624C31.7656 14.954 31.8346 15.242 31.9726 15.488C32.1106 15.734 32.2966 15.926 32.5306 16.064C32.7646 16.196 33.0226 16.262 33.3046 16.262C33.5266 16.262 33.7096 16.241 33.8536 16.199C33.9976 16.151 34.1176 16.094 34.2136 16.028C34.3096 15.962 34.3936 15.899 34.4656 15.839C34.5556 15.785 34.6456 15.758 34.7356 15.758C34.8436 15.758 34.9336 15.797 35.0056 15.875C35.0776 15.947 35.1136 16.034 35.1136 16.136C35.1136 16.268 35.0476 16.388 34.9156 16.496C34.7536 16.652 34.5286 16.79 34.2406 16.91C33.9586 17.03 33.6616 17.09 33.3496 17.09ZM39.9318 16.541C39.9258 16.673 39.8748 16.784 39.7788 16.874C39.6888 16.958 39.5808 17 39.4548 17C39.3168 17 39.2028 16.958 39.1128 16.874C39.0288 16.784 38.9868 16.673 38.9868 16.541V11.159C38.9868 11.027 39.0318 10.919 39.1218 10.835C39.2118 10.745 39.3288 10.7 39.4728 10.7C39.5928 10.7 39.6978 10.745 39.7878 10.835C39.8838 10.919 39.9318 11.027 39.9318 11.159V16.541ZM43.7262 12.158C44.1522 12.158 44.4822 12.248 44.7162 12.428C44.9502 12.602 45.1122 12.839 45.2022 13.139C45.2982 13.433 45.3462 13.763 45.3462 14.129V16.541C45.3462 16.673 45.3012 16.784 45.2112 16.874C45.1272 16.958 45.0222 17 44.8962 17C44.7642 17 44.6562 16.958 44.5722 16.874C44.4882 16.784 44.4462 16.673 44.4462 16.541V14.138C44.4462 13.922 44.4162 13.73 44.3562 13.562C44.2962 13.388 44.1912 13.25 44.0412 13.148C43.8972 13.04 43.6932 12.986 43.4292 12.986C43.1832 12.986 42.9672 13.04 42.7812 13.148C42.5952 13.25 42.4482 13.388 42.3402 13.562C42.2382 13.73 42.1872 13.922 42.1872 14.138V16.541C42.1872 16.673 42.1422 16.784 42.0522 16.874C41.9682 16.958 41.8632 17 41.7372 17C41.6052 17 41.4972 16.958 41.4132 16.874C41.3292 16.784 41.2872 16.673 41.2872 16.541V12.725C41.2872 12.593 41.3292 12.485 41.4132 12.401C41.4972 12.311 41.6052 12.266 41.7372 12.266C41.8632 12.266 41.9682 12.311 42.0522 12.401C42.1422 12.485 42.1872 12.593 42.1872 12.725V13.229L42.0252 13.319C42.0672 13.187 42.1392 13.055 42.2412 12.923C42.3492 12.785 42.4782 12.659 42.6282 12.545C42.7782 12.425 42.9462 12.332 43.1322 12.266C43.3182 12.194 43.5162 12.158 43.7262 12.158ZM48.8008 10.349C48.9148 10.349 49.0318 10.364 49.1518 10.394C49.2718 10.424 49.3708 10.475 49.4488 10.547C49.5328 10.613 49.5748 10.706 49.5748 10.826C49.5748 10.946 49.5388 11.045 49.4668 11.123C49.3948 11.195 49.3108 11.231 49.2148 11.231C49.1548 11.231 49.0738 11.219 48.9718 11.195C48.8698 11.165 48.7678 11.15 48.6658 11.15C48.5278 11.15 48.4168 11.183 48.3328 11.249C48.2488 11.309 48.1888 11.387 48.1528 11.483C48.1168 11.573 48.0988 11.663 48.0988 11.753V16.541C48.0988 16.673 48.0538 16.784 47.9638 16.874C47.8798 16.958 47.7748 17 47.6488 17C47.5168 17 47.4088 16.958 47.3248 16.874C47.2408 16.784 47.1988 16.673 47.1988 16.541V11.762C47.1988 11.348 47.3338 11.009 47.6038 10.745C47.8798 10.481 48.2788 10.349 48.8008 10.349ZM48.9808 12.347C49.1008 12.347 49.1998 12.386 49.2778 12.464C49.3558 12.542 49.3948 12.641 49.3948 12.761C49.3948 12.881 49.3558 12.98 49.2778 13.058C49.1998 13.136 49.1008 13.175 48.9808 13.175H46.6498C46.5358 13.175 46.4368 13.136 46.3528 13.058C46.2748 12.98 46.2358 12.881 46.2358 12.761C46.2358 12.641 46.2748 12.542 46.3528 12.464C46.4368 12.386 46.5358 12.347 46.6498 12.347H48.9808ZM54.542 14.633C54.542 15.113 54.437 15.539 54.227 15.911C54.017 16.277 53.732 16.565 53.372 16.775C53.012 16.985 52.607 17.09 52.157 17.09C51.707 17.09 51.302 16.985 50.942 16.775C50.582 16.565 50.294 16.277 50.078 15.911C49.868 15.539 49.763 15.113 49.763 14.633C49.763 14.147 49.868 13.721 50.078 13.355C50.294 12.983 50.582 12.692 50.942 12.482C51.302 12.266 51.707 12.158 52.157 12.158C52.607 12.158 53.012 12.266 53.372 12.482C53.732 12.692 54.017 12.983 54.227 13.355C54.437 13.721 54.542 14.147 54.542 14.633ZM53.642 14.633C53.642 14.303 53.576 14.018 53.444 13.778C53.312 13.532 53.132 13.34 52.904 13.202C52.682 13.058 52.433 12.986 52.157 12.986C51.881 12.986 51.629 13.058 51.401 13.202C51.173 13.34 50.993 13.532 50.861 13.778C50.729 14.018 50.663 14.303 50.663 14.633C50.663 14.951 50.729 15.233 50.861 15.479C50.993 15.725 51.173 15.917 51.401 16.055C51.629 16.193 51.881 16.262 52.157 16.262C52.433 16.262 52.682 16.193 52.904 16.055C53.132 15.917 53.312 15.725 53.444 15.479C53.576 15.233 53.642 14.951 53.642 14.633Z" fill="white"/>
</svg>
