<svg width="83" height="31" viewBox="0 0 83 31" fill="none" xmlns="http://www.w3.org/2000/svg">
<rect width="83" height="31" rx="15.5" fill="#161117"/>
<path d="M15.596 11.588C15.692 11.588 15.792 11.612 15.896 11.66C16 11.708 16.08 11.776 16.136 11.864L19.184 16.508L18.668 16.484L21.776 11.864C21.904 11.68 22.068 11.588 22.268 11.588C22.428 11.588 22.568 11.648 22.688 11.768C22.816 11.88 22.88 12.024 22.88 12.2V19.388C22.88 19.564 22.824 19.712 22.712 19.832C22.6 19.944 22.452 20 22.268 20C22.076 20 21.92 19.944 21.8 19.832C21.688 19.712 21.632 19.564 21.632 19.388V13.304L22.016 13.388L19.376 17.408C19.32 17.48 19.248 17.544 19.16 17.6C19.072 17.648 18.98 17.668 18.884 17.66C18.796 17.668 18.704 17.648 18.608 17.6C18.52 17.544 18.448 17.48 18.392 17.408L15.848 13.448L16.136 12.968V19.388C16.136 19.564 16.08 19.712 15.968 19.832C15.864 19.944 15.724 20 15.548 20C15.38 20 15.24 19.944 15.128 19.832C15.024 19.712 14.972 19.564 14.972 19.388V12.2C14.972 12.032 15.032 11.888 15.152 11.768C15.28 11.648 15.428 11.588 15.596 11.588ZM30.7552 16.844C30.7552 17.484 30.6152 18.052 30.3352 18.548C30.0552 19.036 29.6752 19.42 29.1952 19.7C28.7152 19.98 28.1752 20.12 27.5752 20.12C26.9752 20.12 26.4352 19.98 25.9552 19.7C25.4752 19.42 25.0912 19.036 24.8032 18.548C24.5232 18.052 24.3832 17.484 24.3832 16.844C24.3832 16.196 24.5232 15.628 24.8032 15.14C25.0912 14.644 25.4752 14.256 25.9552 13.976C26.4352 13.688 26.9752 13.544 27.5752 13.544C28.1752 13.544 28.7152 13.688 29.1952 13.976C29.6752 14.256 30.0552 14.644 30.3352 15.14C30.6152 15.628 30.7552 16.196 30.7552 16.844ZM29.5552 16.844C29.5552 16.404 29.4672 16.024 29.2912 15.704C29.1152 15.376 28.8752 15.12 28.5712 14.936C28.2752 14.744 27.9432 14.648 27.5752 14.648C27.2072 14.648 26.8712 14.744 26.5672 14.936C26.2632 15.12 26.0232 15.376 25.8472 15.704C25.6712 16.024 25.5832 16.404 25.5832 16.844C25.5832 17.268 25.6712 17.644 25.8472 17.972C26.0232 18.3 26.2632 18.556 26.5672 18.74C26.8712 18.924 27.2072 19.016 27.5752 19.016C27.9432 19.016 28.2752 18.924 28.5712 18.74C28.8752 18.556 29.1152 18.3 29.2912 17.972C29.4672 17.644 29.5552 17.268 29.5552 16.844ZM32.7134 20C32.5374 20 32.3934 19.944 32.2814 19.832C32.1694 19.712 32.1134 19.564 32.1134 19.388V14.3C32.1134 14.124 32.1694 13.98 32.2814 13.868C32.3934 13.748 32.5374 13.688 32.7134 13.688C32.8814 13.688 33.0214 13.748 33.1334 13.868C33.2534 13.98 33.3134 14.124 33.3134 14.3V15.644L33.1934 15.128C33.2574 14.904 33.3534 14.696 33.4814 14.504C33.6174 14.312 33.7774 14.144 33.9614 14C34.1454 13.856 34.3494 13.744 34.5734 13.664C34.8054 13.584 35.0454 13.544 35.2934 13.544C35.5014 13.544 35.6814 13.6 35.8334 13.712C35.9854 13.824 36.0614 13.964 36.0614 14.132C36.0614 14.348 36.0054 14.508 35.8934 14.612C35.7814 14.708 35.6574 14.756 35.5214 14.756C35.4014 14.756 35.2854 14.732 35.1734 14.684C35.0614 14.628 34.9294 14.6 34.7774 14.6C34.6094 14.6 34.4374 14.644 34.2614 14.732C34.0854 14.82 33.9254 14.952 33.7814 15.128C33.6374 15.296 33.5214 15.496 33.4334 15.728C33.3534 15.96 33.3134 16.22 33.3134 16.508V19.388C33.3134 19.564 33.2534 19.712 33.1334 19.832C33.0214 19.944 32.8814 20 32.7134 20ZM39.7995 20.12C39.1355 20.12 38.5595 19.984 38.0715 19.712C37.5835 19.432 37.2035 19.052 36.9315 18.572C36.6675 18.084 36.5355 17.528 36.5355 16.904C36.5355 16.2 36.6755 15.6 36.9555 15.104C37.2435 14.6 37.6155 14.216 38.0715 13.952C38.5275 13.68 39.0115 13.544 39.5235 13.544C39.9155 13.544 40.2875 13.624 40.6395 13.784C40.9915 13.936 41.3035 14.152 41.5755 14.432C41.8555 14.704 42.0755 15.028 42.2355 15.404C42.3955 15.772 42.4795 16.176 42.4875 16.616C42.4795 16.776 42.4155 16.908 42.2955 17.012C42.1755 17.116 42.0355 17.168 41.8755 17.168H37.2075L36.9195 16.148H41.4315L41.2035 16.364V16.064C41.1875 15.784 41.0955 15.54 40.9275 15.332C40.7595 15.116 40.5515 14.952 40.3035 14.84C40.0555 14.72 39.7955 14.66 39.5235 14.66C39.2835 14.66 39.0515 14.7 38.8275 14.78C38.6115 14.852 38.4155 14.972 38.2395 15.14C38.0715 15.308 37.9355 15.532 37.8315 15.812C37.7355 16.084 37.6875 16.424 37.6875 16.832C37.6875 17.272 37.7795 17.656 37.9635 17.984C38.1475 18.312 38.3955 18.568 38.7075 18.752C39.0195 18.928 39.3635 19.016 39.7395 19.016C40.0355 19.016 40.2795 18.988 40.4715 18.932C40.6635 18.868 40.8235 18.792 40.9515 18.704C41.0795 18.616 41.1915 18.532 41.2875 18.452C41.4075 18.38 41.5275 18.344 41.6475 18.344C41.7915 18.344 41.9115 18.396 42.0075 18.5C42.1035 18.596 42.1515 18.712 42.1515 18.848C42.1515 19.024 42.0635 19.184 41.8875 19.328C41.6715 19.536 41.3715 19.72 40.9875 19.88C40.6115 20.04 40.2155 20.12 39.7995 20.12ZM48.5758 19.388C48.5678 19.564 48.4998 19.712 48.3718 19.832C48.2518 19.944 48.1078 20 47.9398 20C47.7558 20 47.6038 19.944 47.4838 19.832C47.3718 19.712 47.3158 19.564 47.3158 19.388V12.212C47.3158 12.036 47.3758 11.892 47.4958 11.78C47.6158 11.66 47.7718 11.6 47.9638 11.6C48.1238 11.6 48.2638 11.66 48.3838 11.78C48.5118 11.892 48.5758 12.036 48.5758 12.212V19.388ZM53.635 13.544C54.203 13.544 54.643 13.664 54.955 13.904C55.267 14.136 55.483 14.452 55.603 14.852C55.731 15.244 55.795 15.684 55.795 16.172V19.388C55.795 19.564 55.735 19.712 55.615 19.832C55.503 19.944 55.363 20 55.195 20C55.019 20 54.875 19.944 54.763 19.832C54.651 19.712 54.595 19.564 54.595 19.388V16.184C54.595 15.896 54.555 15.64 54.475 15.416C54.395 15.184 54.255 15 54.055 14.864C53.863 14.72 53.591 14.648 53.239 14.648C52.911 14.648 52.623 14.72 52.375 14.864C52.127 15 51.931 15.184 51.787 15.416C51.651 15.64 51.583 15.896 51.583 16.184V19.388C51.583 19.564 51.523 19.712 51.403 19.832C51.291 19.944 51.151 20 50.983 20C50.807 20 50.663 19.944 50.551 19.832C50.439 19.712 50.383 19.564 50.383 19.388V14.3C50.383 14.124 50.439 13.98 50.551 13.868C50.663 13.748 50.807 13.688 50.983 13.688C51.151 13.688 51.291 13.748 51.403 13.868C51.523 13.98 51.583 14.124 51.583 14.3V14.972L51.367 15.092C51.423 14.916 51.519 14.74 51.655 14.564C51.799 14.38 51.971 14.212 52.171 14.06C52.371 13.9 52.595 13.776 52.843 13.688C53.091 13.592 53.355 13.544 53.635 13.544ZM60.4011 11.132C60.5531 11.132 60.7091 11.152 60.8691 11.192C61.0291 11.232 61.1611 11.3 61.2651 11.396C61.3771 11.484 61.4331 11.608 61.4331 11.768C61.4331 11.928 61.3851 12.06 61.2891 12.164C61.1931 12.26 61.0811 12.308 60.9531 12.308C60.8731 12.308 60.7651 12.292 60.6291 12.26C60.4931 12.22 60.3571 12.2 60.2211 12.2C60.0371 12.2 59.8891 12.244 59.7771 12.332C59.6651 12.412 59.5851 12.516 59.5371 12.644C59.4891 12.764 59.4651 12.884 59.4651 13.004V19.388C59.4651 19.564 59.4051 19.712 59.2851 19.832C59.1731 19.944 59.0331 20 58.8651 20C58.6891 20 58.5451 19.944 58.4331 19.832C58.3211 19.712 58.2651 19.564 58.2651 19.388V13.016C58.2651 12.464 58.4451 12.012 58.8051 11.66C59.1731 11.308 59.7051 11.132 60.4011 11.132ZM60.6411 13.796C60.8011 13.796 60.9331 13.848 61.0371 13.952C61.1411 14.056 61.1931 14.188 61.1931 14.348C61.1931 14.508 61.1411 14.64 61.0371 14.744C60.9331 14.848 60.8011 14.9 60.6411 14.9H57.5331C57.3811 14.9 57.2491 14.848 57.1371 14.744C57.0331 14.64 56.9811 14.508 56.9811 14.348C56.9811 14.188 57.0331 14.056 57.1371 13.952C57.2491 13.848 57.3811 13.796 57.5331 13.796H60.6411ZM68.056 16.844C68.056 17.484 67.916 18.052 67.636 18.548C67.356 19.036 66.976 19.42 66.496 19.7C66.016 19.98 65.476 20.12 64.876 20.12C64.276 20.12 63.736 19.98 63.256 19.7C62.776 19.42 62.392 19.036 62.104 18.548C61.824 18.052 61.684 17.484 61.684 16.844C61.684 16.196 61.824 15.628 62.104 15.14C62.392 14.644 62.776 14.256 63.256 13.976C63.736 13.688 64.276 13.544 64.876 13.544C65.476 13.544 66.016 13.688 66.496 13.976C66.976 14.256 67.356 14.644 67.636 15.14C67.916 15.628 68.056 16.196 68.056 16.844ZM66.856 16.844C66.856 16.404 66.768 16.024 66.592 15.704C66.416 15.376 66.176 15.12 65.872 14.936C65.576 14.744 65.244 14.648 64.876 14.648C64.508 14.648 64.172 14.744 63.868 14.936C63.564 15.12 63.324 15.376 63.148 15.704C62.972 16.024 62.884 16.404 62.884 16.844C62.884 17.268 62.972 17.644 63.148 17.972C63.324 18.3 63.564 18.556 63.868 18.74C64.172 18.924 64.508 19.016 64.876 19.016C65.244 19.016 65.576 18.924 65.872 18.74C66.176 18.556 66.416 18.3 66.592 17.972C66.768 17.644 66.856 17.268 66.856 16.844Z" fill="white"/>
</svg>
