<svg width="237" height="61" viewBox="0 0 237 61" fill="none" xmlns="http://www.w3.org/2000/svg">
<rect width="237" height="61" rx="15" fill="#34967C"/>
<path d="M65.6376 37C65.3496 37 65.0976 36.916 64.8816 36.748C64.6656 36.568 64.5576 36.346 64.5576 36.082V25.318C64.5576 25.054 64.6476 24.838 64.8276 24.67C65.0076 24.49 65.2236 24.4 65.4756 24.4H70.5516C71.1996 24.4 71.7936 24.562 72.3336 24.886C72.8736 25.198 73.3056 25.636 73.6296 26.2C73.9656 26.752 74.1336 27.388 74.1336 28.108C74.1336 28.588 74.0376 29.05 73.8456 29.494C73.6536 29.926 73.3956 30.31 73.0716 30.646C72.7476 30.982 72.3816 31.234 71.9736 31.402L71.7756 31.06C72.1476 31.192 72.4716 31.384 72.7476 31.636C73.0236 31.876 73.2396 32.164 73.3956 32.5C73.5636 32.824 73.6536 33.196 73.6656 33.616C73.7016 33.988 73.7316 34.3 73.7556 34.552C73.7916 34.792 73.8396 34.99 73.8996 35.146C73.9596 35.302 74.0676 35.422 74.2236 35.506C74.4396 35.626 74.5716 35.806 74.6196 36.046C74.6796 36.286 74.6316 36.502 74.4756 36.694C74.3676 36.838 74.2296 36.934 74.0616 36.982C73.9056 37.018 73.7436 37.024 73.5756 37C73.4076 36.964 73.2636 36.916 73.1436 36.856C72.9516 36.736 72.7536 36.568 72.5496 36.352C72.3576 36.124 72.2016 35.812 72.0816 35.416C71.9616 35.02 71.9016 34.498 71.9016 33.85C71.9016 33.55 71.8536 33.292 71.7576 33.076C71.6616 32.86 71.5296 32.686 71.3616 32.554C71.1936 32.41 70.9956 32.308 70.7676 32.248C70.5396 32.176 70.2876 32.14 70.0116 32.14H66.1956L66.4476 31.78V36.082C66.4476 36.346 66.3756 36.568 66.2316 36.748C66.0876 36.916 65.8896 37 65.6376 37ZM66.2136 30.574H70.5156C70.7916 30.562 71.0556 30.454 71.3076 30.25C71.5716 30.034 71.7816 29.746 71.9376 29.386C72.1056 29.026 72.1896 28.618 72.1896 28.162C72.1896 27.586 72.0156 27.106 71.6676 26.722C71.3316 26.326 70.9296 26.128 70.4616 26.128H66.2496L66.4476 25.66V30.952L66.2136 30.574ZM80.9337 37.18C79.9377 37.18 79.0737 36.976 78.3417 36.568C77.6097 36.148 77.0397 35.578 76.6317 34.858C76.2357 34.126 76.0377 33.292 76.0377 32.356C76.0377 31.3 76.2477 30.4 76.6677 29.656C77.0997 28.9 77.6577 28.324 78.3417 27.928C79.0257 27.52 79.7517 27.316 80.5197 27.316C81.1077 27.316 81.6657 27.436 82.1937 27.676C82.7217 27.904 83.1897 28.228 83.5977 28.648C84.0177 29.056 84.3477 29.542 84.5877 30.106C84.8277 30.658 84.9537 31.264 84.9657 31.924C84.9537 32.164 84.8577 32.362 84.6777 32.518C84.4977 32.674 84.2877 32.752 84.0477 32.752H77.0457L76.6137 31.222H83.3817L83.0397 31.546V31.096C83.0157 30.676 82.8777 30.31 82.6257 29.998C82.3737 29.674 82.0617 29.428 81.6897 29.26C81.3177 29.08 80.9277 28.99 80.5197 28.99C80.1597 28.99 79.8117 29.05 79.4757 29.17C79.1517 29.278 78.8577 29.458 78.5937 29.71C78.3417 29.962 78.1377 30.298 77.9817 30.718C77.8377 31.126 77.7657 31.636 77.7657 32.248C77.7657 32.908 77.9037 33.484 78.1797 33.976C78.4557 34.468 78.8277 34.852 79.2957 35.128C79.7637 35.392 80.2797 35.524 80.8437 35.524C81.2877 35.524 81.6537 35.482 81.9417 35.398C82.2297 35.302 82.4697 35.188 82.6617 35.056C82.8537 34.924 83.0217 34.798 83.1657 34.678C83.3457 34.57 83.5257 34.516 83.7057 34.516C83.9217 34.516 84.1017 34.594 84.2457 34.75C84.3897 34.894 84.4617 35.068 84.4617 35.272C84.4617 35.536 84.3297 35.776 84.0657 35.992C83.7417 36.304 83.2917 36.58 82.7157 36.82C82.1517 37.06 81.5577 37.18 80.9337 37.18ZM86.4422 35.524C86.3342 35.356 86.2862 35.164 86.2982 34.948C86.3102 34.72 86.4362 34.528 86.6762 34.372C86.8442 34.264 87.0182 34.222 87.1982 34.246C87.3902 34.258 87.5702 34.348 87.7382 34.516C88.0742 34.888 88.4462 35.182 88.8542 35.398C89.2742 35.614 89.7782 35.722 90.3662 35.722C90.6062 35.71 90.8522 35.674 91.1042 35.614C91.3562 35.542 91.5722 35.422 91.7522 35.254C91.9322 35.074 92.0222 34.816 92.0222 34.48C92.0222 34.18 91.9262 33.94 91.7342 33.76C91.5422 33.58 91.2902 33.436 90.9782 33.328C90.6662 33.208 90.3302 33.1 89.9702 33.004C89.5862 32.896 89.1962 32.776 88.8002 32.644C88.4162 32.512 88.0682 32.344 87.7562 32.14C87.4442 31.924 87.1862 31.648 86.9822 31.312C86.7902 30.976 86.6942 30.562 86.6942 30.07C86.6942 29.506 86.8502 29.02 87.1622 28.612C87.4862 28.204 87.9002 27.886 88.4042 27.658C88.9202 27.43 89.4782 27.316 90.0782 27.316C90.4262 27.316 90.7922 27.364 91.1762 27.46C91.5602 27.544 91.9322 27.682 92.2922 27.874C92.6522 28.066 92.9642 28.318 93.2282 28.63C93.3482 28.786 93.4142 28.972 93.4262 29.188C93.4502 29.404 93.3542 29.596 93.1382 29.764C92.9942 29.884 92.8202 29.938 92.6162 29.926C92.4122 29.914 92.2442 29.848 92.1122 29.728C91.8842 29.44 91.5902 29.218 91.2302 29.062C90.8702 28.894 90.4622 28.81 90.0062 28.81C89.7782 28.81 89.5382 28.846 89.2862 28.918C89.0462 28.978 88.8422 29.092 88.6742 29.26C88.5062 29.428 88.4222 29.674 88.4222 29.998C88.4222 30.298 88.5182 30.538 88.7102 30.718C88.9142 30.898 89.1782 31.048 89.5022 31.168C89.8262 31.288 90.1802 31.396 90.5642 31.492C90.9362 31.588 91.3022 31.702 91.6622 31.834C92.0342 31.966 92.3642 32.14 92.6522 32.356C92.9522 32.56 93.1922 32.83 93.3722 33.166C93.5642 33.49 93.6602 33.904 93.6602 34.408C93.6602 34.996 93.4862 35.5 93.1382 35.92C92.8022 36.328 92.3702 36.64 91.8422 36.856C91.3262 37.072 90.7802 37.18 90.2042 37.18C89.5202 37.18 88.8362 37.06 88.1522 36.82C87.4802 36.568 86.9102 36.136 86.4422 35.524ZM100.006 37.18C99.0099 37.18 98.1459 36.976 97.4139 36.568C96.6819 36.148 96.1119 35.578 95.7039 34.858C95.3079 34.126 95.1099 33.292 95.1099 32.356C95.1099 31.3 95.3199 30.4 95.7399 29.656C96.1719 28.9 96.7299 28.324 97.4139 27.928C98.0979 27.52 98.8239 27.316 99.5919 27.316C100.18 27.316 100.738 27.436 101.266 27.676C101.794 27.904 102.262 28.228 102.67 28.648C103.09 29.056 103.42 29.542 103.66 30.106C103.9 30.658 104.026 31.264 104.038 31.924C104.026 32.164 103.93 32.362 103.75 32.518C103.57 32.674 103.36 32.752 103.12 32.752H96.1179L95.6859 31.222H102.454L102.112 31.546V31.096C102.088 30.676 101.95 30.31 101.698 29.998C101.446 29.674 101.134 29.428 100.762 29.26C100.39 29.08 99.9999 28.99 99.5919 28.99C99.2319 28.99 98.8839 29.05 98.5479 29.17C98.2239 29.278 97.9299 29.458 97.6659 29.71C97.4139 29.962 97.2099 30.298 97.0539 30.718C96.9099 31.126 96.8379 31.636 96.8379 32.248C96.8379 32.908 96.9759 33.484 97.2519 33.976C97.5279 34.468 97.8999 34.852 98.3679 35.128C98.8359 35.392 99.3519 35.524 99.9159 35.524C100.36 35.524 100.726 35.482 101.014 35.398C101.302 35.302 101.542 35.188 101.734 35.056C101.926 34.924 102.094 34.798 102.238 34.678C102.418 34.57 102.598 34.516 102.778 34.516C102.994 34.516 103.174 34.594 103.318 34.75C103.462 34.894 103.534 35.068 103.534 35.272C103.534 35.536 103.402 35.776 103.138 35.992C102.814 36.304 102.364 36.58 101.788 36.82C101.224 37.06 100.63 37.18 100.006 37.18ZM106.973 37C106.709 37 106.493 36.916 106.325 36.748C106.157 36.568 106.073 36.346 106.073 36.082V28.45C106.073 28.186 106.157 27.97 106.325 27.802C106.493 27.622 106.709 27.532 106.973 27.532C107.225 27.532 107.435 27.622 107.603 27.802C107.783 27.97 107.873 28.186 107.873 28.45V30.466L107.693 29.692C107.789 29.356 107.933 29.044 108.125 28.756C108.329 28.468 108.569 28.216 108.845 28C109.121 27.784 109.427 27.616 109.763 27.496C110.111 27.376 110.471 27.316 110.843 27.316C111.155 27.316 111.425 27.4 111.653 27.568C111.881 27.736 111.995 27.946 111.995 28.198C111.995 28.522 111.911 28.762 111.743 28.918C111.575 29.062 111.389 29.134 111.185 29.134C111.005 29.134 110.831 29.098 110.663 29.026C110.495 28.942 110.297 28.9 110.069 28.9C109.817 28.9 109.559 28.966 109.295 29.098C109.031 29.23 108.791 29.428 108.575 29.692C108.359 29.944 108.185 30.244 108.053 30.592C107.933 30.94 107.873 31.33 107.873 31.762V36.082C107.873 36.346 107.783 36.568 107.603 36.748C107.435 36.916 107.225 37 106.973 37ZM114.708 27.442C114.888 27.442 115.056 27.49 115.212 27.586C115.38 27.682 115.5 27.826 115.572 28.018L118.398 34.552L118.056 34.714L120.918 28.036C121.086 27.64 121.356 27.448 121.728 27.46C121.968 27.46 122.166 27.538 122.322 27.694C122.49 27.838 122.574 28.03 122.574 28.27C122.574 28.342 122.562 28.42 122.538 28.504C122.514 28.576 122.484 28.648 122.448 28.72L119.028 36.424C118.872 36.784 118.614 36.976 118.254 37C118.074 37.024 117.894 36.988 117.714 36.892C117.546 36.784 117.414 36.628 117.318 36.424L113.916 28.72C113.892 28.672 113.868 28.612 113.844 28.54C113.82 28.456 113.808 28.36 113.808 28.252C113.808 28.072 113.886 27.892 114.042 27.712C114.21 27.532 114.432 27.442 114.708 27.442ZM128.729 37.18C127.733 37.18 126.869 36.976 126.137 36.568C125.405 36.148 124.835 35.578 124.427 34.858C124.031 34.126 123.833 33.292 123.833 32.356C123.833 31.3 124.043 30.4 124.463 29.656C124.895 28.9 125.453 28.324 126.137 27.928C126.821 27.52 127.547 27.316 128.315 27.316C128.903 27.316 129.461 27.436 129.989 27.676C130.517 27.904 130.985 28.228 131.393 28.648C131.813 29.056 132.143 29.542 132.383 30.106C132.623 30.658 132.749 31.264 132.761 31.924C132.749 32.164 132.653 32.362 132.473 32.518C132.293 32.674 132.083 32.752 131.843 32.752H124.841L124.409 31.222H131.177L130.835 31.546V31.096C130.811 30.676 130.673 30.31 130.421 29.998C130.169 29.674 129.857 29.428 129.485 29.26C129.113 29.08 128.723 28.99 128.315 28.99C127.955 28.99 127.607 29.05 127.271 29.17C126.947 29.278 126.653 29.458 126.389 29.71C126.137 29.962 125.933 30.298 125.777 30.718C125.633 31.126 125.561 31.636 125.561 32.248C125.561 32.908 125.699 33.484 125.975 33.976C126.251 34.468 126.623 34.852 127.091 35.128C127.559 35.392 128.075 35.524 128.639 35.524C129.083 35.524 129.449 35.482 129.737 35.398C130.025 35.302 130.265 35.188 130.457 35.056C130.649 34.924 130.817 34.798 130.961 34.678C131.141 34.57 131.321 34.516 131.501 34.516C131.717 34.516 131.897 34.594 132.041 34.75C132.185 34.894 132.257 35.068 132.257 35.272C132.257 35.536 132.125 35.776 131.861 35.992C131.537 36.304 131.087 36.58 130.511 36.82C129.947 37.06 129.353 37.18 128.729 37.18ZM144.683 27.316C145.535 27.316 146.195 27.496 146.663 27.856C147.131 28.204 147.455 28.678 147.635 29.278C147.827 29.866 147.923 30.526 147.923 31.258V36.082C147.923 36.346 147.833 36.568 147.653 36.748C147.485 36.916 147.275 37 147.023 37C146.759 37 146.543 36.916 146.375 36.748C146.207 36.568 146.123 36.346 146.123 36.082V31.276C146.123 30.844 146.063 30.46 145.943 30.124C145.823 29.776 145.613 29.5 145.313 29.296C145.025 29.08 144.617 28.972 144.089 28.972C143.597 28.972 143.165 29.08 142.793 29.296C142.421 29.5 142.127 29.776 141.911 30.124C141.707 30.46 141.605 30.844 141.605 31.276V36.082C141.605 36.346 141.515 36.568 141.335 36.748C141.167 36.916 140.957 37 140.705 37C140.441 37 140.225 36.916 140.057 36.748C139.889 36.568 139.805 36.346 139.805 36.082V28.45C139.805 28.186 139.889 27.97 140.057 27.802C140.225 27.622 140.441 27.532 140.705 27.532C140.957 27.532 141.167 27.622 141.335 27.802C141.515 27.97 141.605 28.186 141.605 28.45V29.458L141.281 29.638C141.365 29.374 141.509 29.11 141.713 28.846C141.929 28.57 142.187 28.318 142.487 28.09C142.787 27.85 143.123 27.664 143.495 27.532C143.867 27.388 144.263 27.316 144.683 27.316ZM159.494 32.266C159.494 33.226 159.284 34.078 158.864 34.822C158.444 35.554 157.874 36.13 157.154 36.55C156.434 36.97 155.624 37.18 154.724 37.18C153.824 37.18 153.014 36.97 152.294 36.55C151.574 36.13 150.998 35.554 150.566 34.822C150.146 34.078 149.936 33.226 149.936 32.266C149.936 31.294 150.146 30.442 150.566 29.71C150.998 28.966 151.574 28.384 152.294 27.964C153.014 27.532 153.824 27.316 154.724 27.316C155.624 27.316 156.434 27.532 157.154 27.964C157.874 28.384 158.444 28.966 158.864 29.71C159.284 30.442 159.494 31.294 159.494 32.266ZM157.694 32.266C157.694 31.606 157.562 31.036 157.298 30.556C157.034 30.064 156.674 29.68 156.218 29.404C155.774 29.116 155.276 28.972 154.724 28.972C154.172 28.972 153.668 29.116 153.212 29.404C152.756 29.68 152.396 30.064 152.132 30.556C151.868 31.036 151.736 31.606 151.736 32.266C151.736 32.902 151.868 33.466 152.132 33.958C152.396 34.45 152.756 34.834 153.212 35.11C153.668 35.386 154.172 35.524 154.724 35.524C155.276 35.524 155.774 35.386 156.218 35.11C156.674 34.834 157.034 34.45 157.298 33.958C157.562 33.466 157.694 32.902 157.694 32.266ZM172.565 27.442C172.793 27.442 172.991 27.532 173.159 27.712C173.339 27.88 173.429 28.102 173.429 28.378C173.429 28.438 173.423 28.498 173.411 28.558C173.399 28.618 173.381 28.672 173.357 28.72L170.603 36.424C170.531 36.628 170.405 36.784 170.225 36.892C170.045 36.988 169.859 37.024 169.667 37C169.319 36.976 169.061 36.784 168.893 36.424L166.859 31.024L167.273 31.06L165.401 36.424C165.233 36.784 164.975 36.976 164.627 37C164.447 37.024 164.261 36.988 164.069 36.892C163.889 36.784 163.763 36.628 163.691 36.424L160.919 28.72C160.871 28.612 160.847 28.498 160.847 28.378C160.847 28.126 160.925 27.91 161.081 27.73C161.249 27.538 161.471 27.442 161.747 27.442C161.939 27.442 162.107 27.49 162.251 27.586C162.407 27.682 162.515 27.826 162.575 28.018L164.879 34.516L164.465 34.48L166.337 29.566C166.493 29.194 166.769 29.008 167.165 29.008C167.381 29.008 167.549 29.056 167.669 29.152C167.789 29.248 167.885 29.386 167.957 29.566L169.865 34.498L169.379 34.552L171.701 28.018C171.821 27.634 172.109 27.442 172.565 27.442Z" fill="white"/>
</svg>
