<svg width="200" height="53" viewBox="0 0 200 53" fill="none" xmlns="http://www.w3.org/2000/svg">
<rect width="200" height="53" rx="15" fill="#34967C"/>
<path d="M64.7584 31C64.5664 31 64.3984 30.944 64.2544 30.832C64.1104 30.712 64.0384 30.564 64.0384 30.388V23.212C64.0384 23.036 64.0984 22.892 64.2184 22.78C64.3384 22.66 64.4824 22.6 64.6504 22.6H68.0344C68.4664 22.6 68.8624 22.708 69.2224 22.924C69.5824 23.132 69.8704 23.424 70.0864 23.8C70.3104 24.168 70.4224 24.592 70.4224 25.072C70.4224 25.392 70.3584 25.7 70.2304 25.996C70.1024 26.284 69.9304 26.54 69.7144 26.764C69.4984 26.988 69.2544 27.156 68.9824 27.268L68.8504 27.04C69.0984 27.128 69.3144 27.256 69.4984 27.424C69.6824 27.584 69.8264 27.776 69.9304 28C70.0424 28.216 70.1024 28.464 70.1104 28.744C70.1344 28.992 70.1544 29.2 70.1704 29.368C70.1944 29.528 70.2264 29.66 70.2664 29.764C70.3064 29.868 70.3784 29.948 70.4824 30.004C70.6264 30.084 70.7144 30.204 70.7464 30.364C70.7864 30.524 70.7544 30.668 70.6504 30.796C70.5784 30.892 70.4864 30.956 70.3744 30.988C70.2704 31.012 70.1624 31.016 70.0504 31C69.9384 30.976 69.8424 30.944 69.7624 30.904C69.6344 30.824 69.5024 30.712 69.3664 30.568C69.2384 30.416 69.1344 30.208 69.0544 29.944C68.9744 29.68 68.9344 29.332 68.9344 28.9C68.9344 28.7 68.9024 28.528 68.8384 28.384C68.7744 28.24 68.6864 28.124 68.5744 28.036C68.4624 27.94 68.3304 27.872 68.1784 27.832C68.0264 27.784 67.8584 27.76 67.6744 27.76H65.1304L65.2984 27.52V30.388C65.2984 30.564 65.2504 30.712 65.1544 30.832C65.0584 30.944 64.9264 31 64.7584 31ZM65.1424 26.716H68.0104C68.1944 26.708 68.3704 26.636 68.5384 26.5C68.7144 26.356 68.8544 26.164 68.9584 25.924C69.0704 25.684 69.1264 25.412 69.1264 25.108C69.1264 24.724 69.0104 24.404 68.7784 24.148C68.5544 23.884 68.2864 23.752 67.9744 23.752H65.1664L65.2984 23.44V26.968L65.1424 26.716ZM74.9558 31.12C74.2918 31.12 73.7158 30.984 73.2278 30.712C72.7398 30.432 72.3598 30.052 72.0878 29.572C71.8238 29.084 71.6918 28.528 71.6918 27.904C71.6918 27.2 71.8318 26.6 72.1118 26.104C72.3998 25.6 72.7718 25.216 73.2278 24.952C73.6838 24.68 74.1678 24.544 74.6798 24.544C75.0718 24.544 75.4438 24.624 75.7958 24.784C76.1478 24.936 76.4598 25.152 76.7318 25.432C77.0118 25.704 77.2318 26.028 77.3918 26.404C77.5518 26.772 77.6358 27.176 77.6438 27.616C77.6358 27.776 77.5718 27.908 77.4518 28.012C77.3318 28.116 77.1918 28.168 77.0318 28.168H72.3638L72.0758 27.148H76.5878L76.3598 27.364V27.064C76.3438 26.784 76.2518 26.54 76.0838 26.332C75.9158 26.116 75.7078 25.952 75.4598 25.84C75.2118 25.72 74.9518 25.66 74.6798 25.66C74.4398 25.66 74.2078 25.7 73.9838 25.78C73.7678 25.852 73.5718 25.972 73.3958 26.14C73.2278 26.308 73.0918 26.532 72.9878 26.812C72.8918 27.084 72.8438 27.424 72.8438 27.832C72.8438 28.272 72.9358 28.656 73.1198 28.984C73.3038 29.312 73.5518 29.568 73.8638 29.752C74.1758 29.928 74.5198 30.016 74.8958 30.016C75.1918 30.016 75.4358 29.988 75.6278 29.932C75.8198 29.868 75.9798 29.792 76.1078 29.704C76.2358 29.616 76.3478 29.532 76.4438 29.452C76.5638 29.38 76.6838 29.344 76.8038 29.344C76.9478 29.344 77.0678 29.396 77.1638 29.5C77.2598 29.596 77.3078 29.712 77.3078 29.848C77.3078 30.024 77.2198 30.184 77.0438 30.328C76.8278 30.536 76.5278 30.72 76.1438 30.88C75.7678 31.04 75.3718 31.12 74.9558 31.12ZM78.6282 30.016C78.5562 29.904 78.5242 29.776 78.5322 29.632C78.5402 29.48 78.6242 29.352 78.7842 29.248C78.8962 29.176 79.0122 29.148 79.1322 29.164C79.2602 29.172 79.3802 29.232 79.4922 29.344C79.7162 29.592 79.9642 29.788 80.2362 29.932C80.5162 30.076 80.8522 30.148 81.2442 30.148C81.4042 30.14 81.5682 30.116 81.7362 30.076C81.9042 30.028 82.0482 29.948 82.1682 29.836C82.2882 29.716 82.3482 29.544 82.3482 29.32C82.3482 29.12 82.2842 28.96 82.1562 28.84C82.0282 28.72 81.8602 28.624 81.6522 28.552C81.4442 28.472 81.2202 28.4 80.9802 28.336C80.7242 28.264 80.4642 28.184 80.2002 28.096C79.9442 28.008 79.7122 27.896 79.5042 27.76C79.2962 27.616 79.1242 27.432 78.9882 27.208C78.8602 26.984 78.7962 26.708 78.7962 26.38C78.7962 26.004 78.9002 25.68 79.1082 25.408C79.3242 25.136 79.6002 24.924 79.9362 24.772C80.2802 24.62 80.6522 24.544 81.0522 24.544C81.2842 24.544 81.5282 24.576 81.7842 24.64C82.0402 24.696 82.2882 24.788 82.5282 24.916C82.7682 25.044 82.9762 25.212 83.1522 25.42C83.2322 25.524 83.2762 25.648 83.2842 25.792C83.3002 25.936 83.2362 26.064 83.0922 26.176C82.9962 26.256 82.8802 26.292 82.7442 26.284C82.6082 26.276 82.4962 26.232 82.4082 26.152C82.2562 25.96 82.0602 25.812 81.8202 25.708C81.5802 25.596 81.3082 25.54 81.0042 25.54C80.8522 25.54 80.6922 25.564 80.5242 25.612C80.3642 25.652 80.2282 25.728 80.1162 25.84C80.0042 25.952 79.9482 26.116 79.9482 26.332C79.9482 26.532 80.0122 26.692 80.1402 26.812C80.2762 26.932 80.4522 27.032 80.6682 27.112C80.8842 27.192 81.1202 27.264 81.3762 27.328C81.6242 27.392 81.8682 27.468 82.1082 27.556C82.3562 27.644 82.5762 27.76 82.7682 27.904C82.9682 28.04 83.1282 28.22 83.2482 28.444C83.3762 28.66 83.4402 28.936 83.4402 29.272C83.4402 29.664 83.3242 30 83.0922 30.28C82.8682 30.552 82.5802 30.76 82.2282 30.904C81.8842 31.048 81.5202 31.12 81.1362 31.12C80.6802 31.12 80.2242 31.04 79.7682 30.88C79.3202 30.712 78.9402 30.424 78.6282 30.016ZM87.6706 31.12C87.0066 31.12 86.4306 30.984 85.9426 30.712C85.4546 30.432 85.0746 30.052 84.8026 29.572C84.5386 29.084 84.4066 28.528 84.4066 27.904C84.4066 27.2 84.5466 26.6 84.8266 26.104C85.1146 25.6 85.4866 25.216 85.9426 24.952C86.3986 24.68 86.8826 24.544 87.3946 24.544C87.7866 24.544 88.1586 24.624 88.5106 24.784C88.8626 24.936 89.1746 25.152 89.4466 25.432C89.7266 25.704 89.9466 26.028 90.1066 26.404C90.2666 26.772 90.3506 27.176 90.3586 27.616C90.3506 27.776 90.2866 27.908 90.1666 28.012C90.0466 28.116 89.9066 28.168 89.7466 28.168H85.0786L84.7906 27.148H89.3026L89.0746 27.364V27.064C89.0586 26.784 88.9666 26.54 88.7986 26.332C88.6306 26.116 88.4226 25.952 88.1746 25.84C87.9266 25.72 87.6666 25.66 87.3946 25.66C87.1546 25.66 86.9226 25.7 86.6986 25.78C86.4826 25.852 86.2866 25.972 86.1106 26.14C85.9426 26.308 85.8066 26.532 85.7026 26.812C85.6066 27.084 85.5586 27.424 85.5586 27.832C85.5586 28.272 85.6506 28.656 85.8346 28.984C86.0186 29.312 86.2666 29.568 86.5786 29.752C86.8906 29.928 87.2346 30.016 87.6106 30.016C87.9066 30.016 88.1506 29.988 88.3426 29.932C88.5346 29.868 88.6946 29.792 88.8226 29.704C88.9506 29.616 89.0626 29.532 89.1586 29.452C89.2786 29.38 89.3986 29.344 89.5186 29.344C89.6626 29.344 89.7826 29.396 89.8786 29.5C89.9746 29.596 90.0226 29.712 90.0226 29.848C90.0226 30.024 89.9346 30.184 89.7586 30.328C89.5426 30.536 89.2426 30.72 88.8586 30.88C88.4826 31.04 88.0866 31.12 87.6706 31.12ZM92.315 31C92.139 31 91.995 30.944 91.883 30.832C91.771 30.712 91.715 30.564 91.715 30.388V25.3C91.715 25.124 91.771 24.98 91.883 24.868C91.995 24.748 92.139 24.688 92.315 24.688C92.483 24.688 92.623 24.748 92.735 24.868C92.855 24.98 92.915 25.124 92.915 25.3V26.644L92.795 26.128C92.859 25.904 92.955 25.696 93.083 25.504C93.219 25.312 93.379 25.144 93.563 25C93.747 24.856 93.951 24.744 94.175 24.664C94.407 24.584 94.647 24.544 94.895 24.544C95.103 24.544 95.283 24.6 95.435 24.712C95.587 24.824 95.663 24.964 95.663 25.132C95.663 25.348 95.607 25.508 95.495 25.612C95.383 25.708 95.259 25.756 95.123 25.756C95.003 25.756 94.887 25.732 94.775 25.684C94.663 25.628 94.531 25.6 94.379 25.6C94.211 25.6 94.039 25.644 93.863 25.732C93.687 25.82 93.527 25.952 93.383 26.128C93.239 26.296 93.123 26.496 93.035 26.728C92.955 26.96 92.915 27.22 92.915 27.508V30.388C92.915 30.564 92.855 30.712 92.735 30.832C92.623 30.944 92.483 31 92.315 31ZM97.4723 24.628C97.5923 24.628 97.7043 24.66 97.8083 24.724C97.9203 24.788 98.0003 24.884 98.0483 25.012L99.9323 29.368L99.7043 29.476L101.612 25.024C101.724 24.76 101.904 24.632 102.152 24.64C102.312 24.64 102.444 24.692 102.548 24.796C102.66 24.892 102.716 25.02 102.716 25.18C102.716 25.228 102.708 25.28 102.692 25.336C102.676 25.384 102.656 25.432 102.632 25.48L100.352 30.616C100.248 30.856 100.076 30.984 99.8363 31C99.7163 31.016 99.5963 30.992 99.4763 30.928C99.3643 30.856 99.2763 30.752 99.2123 30.616L96.9443 25.48C96.9283 25.448 96.9123 25.408 96.8963 25.36C96.8803 25.304 96.8723 25.24 96.8723 25.168C96.8723 25.048 96.9243 24.928 97.0283 24.808C97.1403 24.688 97.2883 24.628 97.4723 24.628ZM106.819 31.12C106.155 31.12 105.579 30.984 105.091 30.712C104.603 30.432 104.223 30.052 103.951 29.572C103.687 29.084 103.555 28.528 103.555 27.904C103.555 27.2 103.695 26.6 103.975 26.104C104.263 25.6 104.635 25.216 105.091 24.952C105.547 24.68 106.031 24.544 106.543 24.544C106.935 24.544 107.307 24.624 107.659 24.784C108.011 24.936 108.323 25.152 108.595 25.432C108.875 25.704 109.095 26.028 109.255 26.404C109.415 26.772 109.499 27.176 109.507 27.616C109.499 27.776 109.435 27.908 109.315 28.012C109.195 28.116 109.055 28.168 108.895 28.168H104.227L103.939 27.148H108.451L108.223 27.364V27.064C108.207 26.784 108.115 26.54 107.947 26.332C107.779 26.116 107.571 25.952 107.323 25.84C107.075 25.72 106.815 25.66 106.543 25.66C106.303 25.66 106.071 25.7 105.847 25.78C105.631 25.852 105.435 25.972 105.259 26.14C105.091 26.308 104.955 26.532 104.851 26.812C104.755 27.084 104.707 27.424 104.707 27.832C104.707 28.272 104.799 28.656 104.983 28.984C105.167 29.312 105.415 29.568 105.727 29.752C106.039 29.928 106.383 30.016 106.759 30.016C107.055 30.016 107.299 29.988 107.491 29.932C107.683 29.868 107.843 29.792 107.971 29.704C108.099 29.616 108.211 29.532 108.307 29.452C108.427 29.38 108.547 29.344 108.667 29.344C108.811 29.344 108.931 29.396 109.027 29.5C109.123 29.596 109.171 29.712 109.171 29.848C109.171 30.024 109.083 30.184 108.907 30.328C108.691 30.536 108.391 30.72 108.007 30.88C107.631 31.04 107.235 31.12 106.819 31.12ZM117.455 24.544C118.023 24.544 118.463 24.664 118.775 24.904C119.087 25.136 119.303 25.452 119.423 25.852C119.551 26.244 119.615 26.684 119.615 27.172V30.388C119.615 30.564 119.555 30.712 119.435 30.832C119.323 30.944 119.183 31 119.015 31C118.839 31 118.695 30.944 118.583 30.832C118.471 30.712 118.415 30.564 118.415 30.388V27.184C118.415 26.896 118.375 26.64 118.295 26.416C118.215 26.184 118.075 26 117.875 25.864C117.683 25.72 117.411 25.648 117.059 25.648C116.731 25.648 116.443 25.72 116.195 25.864C115.947 26 115.751 26.184 115.607 26.416C115.471 26.64 115.403 26.896 115.403 27.184V30.388C115.403 30.564 115.343 30.712 115.223 30.832C115.111 30.944 114.971 31 114.803 31C114.627 31 114.483 30.944 114.371 30.832C114.259 30.712 114.203 30.564 114.203 30.388V25.3C114.203 25.124 114.259 24.98 114.371 24.868C114.483 24.748 114.627 24.688 114.803 24.688C114.971 24.688 115.111 24.748 115.223 24.868C115.343 24.98 115.403 25.124 115.403 25.3V25.972L115.187 26.092C115.243 25.916 115.339 25.74 115.475 25.564C115.619 25.38 115.791 25.212 115.991 25.06C116.191 24.9 116.415 24.776 116.663 24.688C116.911 24.592 117.175 24.544 117.455 24.544ZM127.329 27.844C127.329 28.484 127.189 29.052 126.909 29.548C126.629 30.036 126.249 30.42 125.769 30.7C125.289 30.98 124.749 31.12 124.149 31.12C123.549 31.12 123.009 30.98 122.529 30.7C122.049 30.42 121.665 30.036 121.377 29.548C121.097 29.052 120.957 28.484 120.957 27.844C120.957 27.196 121.097 26.628 121.377 26.14C121.665 25.644 122.049 25.256 122.529 24.976C123.009 24.688 123.549 24.544 124.149 24.544C124.749 24.544 125.289 24.688 125.769 24.976C126.249 25.256 126.629 25.644 126.909 26.14C127.189 26.628 127.329 27.196 127.329 27.844ZM126.129 27.844C126.129 27.404 126.041 27.024 125.865 26.704C125.689 26.376 125.449 26.12 125.145 25.936C124.849 25.744 124.517 25.648 124.149 25.648C123.781 25.648 123.445 25.744 123.141 25.936C122.837 26.12 122.597 26.376 122.421 26.704C122.245 27.024 122.157 27.404 122.157 27.844C122.157 28.268 122.245 28.644 122.421 28.972C122.597 29.3 122.837 29.556 123.141 29.74C123.445 29.924 123.781 30.016 124.149 30.016C124.517 30.016 124.849 29.924 125.145 29.74C125.449 29.556 125.689 29.3 125.865 28.972C126.041 28.644 126.129 28.268 126.129 27.844ZM136.044 24.628C136.196 24.628 136.328 24.688 136.44 24.808C136.56 24.92 136.62 25.068 136.62 25.252C136.62 25.292 136.616 25.332 136.608 25.372C136.6 25.412 136.588 25.448 136.572 25.48L134.736 30.616C134.688 30.752 134.604 30.856 134.484 30.928C134.364 30.992 134.24 31.016 134.112 31C133.88 30.984 133.708 30.856 133.596 30.616L132.24 27.016L132.516 27.04L131.268 30.616C131.156 30.856 130.984 30.984 130.752 31C130.632 31.016 130.508 30.992 130.38 30.928C130.26 30.856 130.176 30.752 130.128 30.616L128.28 25.48C128.248 25.408 128.232 25.332 128.232 25.252C128.232 25.084 128.284 24.94 128.388 24.82C128.5 24.692 128.648 24.628 128.832 24.628C128.96 24.628 129.072 24.66 129.168 24.724C129.272 24.788 129.344 24.884 129.384 25.012L130.92 29.344L130.644 29.32L131.892 26.044C131.996 25.796 132.18 25.672 132.444 25.672C132.588 25.672 132.7 25.704 132.78 25.768C132.86 25.832 132.924 25.924 132.972 26.044L134.244 29.332L133.92 29.368L135.468 25.012C135.548 24.756 135.74 24.628 136.044 24.628Z" fill="white"/>
</svg>
