<svg width="281" height="69" viewBox="0 0 281 69" fill="none" xmlns="http://www.w3.org/2000/svg">
<rect width="281" height="69" rx="15" fill="#34967C"/>
<path d="M67.4967 44C67.0967 44 66.7467 43.8833 66.4467 43.65C66.1467 43.4 65.9967 43.0917 65.9967 42.725V27.775C65.9967 27.4083 66.1217 27.1083 66.3717 26.875C66.6217 26.625 66.9217 26.5 67.2717 26.5H74.3217C75.2217 26.5 76.0467 26.725 76.7967 27.175C77.5467 27.6083 78.1467 28.2167 78.5967 29C79.0633 29.7667 79.2967 30.65 79.2967 31.65C79.2967 32.3167 79.1633 32.9583 78.8967 33.575C78.63 34.175 78.2717 34.7083 77.8217 35.175C77.3717 35.6417 76.8633 35.9917 76.2967 36.225L76.0217 35.75C76.5383 35.9333 76.9883 36.2 77.3717 36.55C77.755 36.8833 78.055 37.2833 78.2717 37.75C78.505 38.2 78.63 38.7167 78.6467 39.3C78.6967 39.8167 78.7383 40.25 78.7717 40.6C78.8217 40.9333 78.8883 41.2083 78.9717 41.425C79.055 41.6417 79.205 41.8083 79.4217 41.925C79.7217 42.0917 79.905 42.3417 79.9717 42.675C80.055 43.0083 79.9883 43.3083 79.7717 43.575C79.6217 43.775 79.43 43.9083 79.1967 43.975C78.98 44.025 78.755 44.0333 78.5217 44C78.2883 43.95 78.0883 43.8833 77.9217 43.8C77.655 43.6333 77.38 43.4 77.0967 43.1C76.83 42.7833 76.6133 42.35 76.4467 41.8C76.28 41.25 76.1967 40.525 76.1967 39.625C76.1967 39.2083 76.13 38.85 75.9967 38.55C75.8633 38.25 75.68 38.0083 75.4467 37.825C75.2133 37.625 74.9383 37.4833 74.6217 37.4C74.305 37.3 73.955 37.25 73.5717 37.25H68.2717L68.6217 36.75V42.725C68.6217 43.0917 68.5217 43.4 68.3217 43.65C68.1217 43.8833 67.8467 44 67.4967 44ZM68.2967 35.075H74.2717C74.655 35.0583 75.0217 34.9083 75.3717 34.625C75.7383 34.325 76.03 33.925 76.2467 33.425C76.48 32.925 76.5967 32.3583 76.5967 31.725C76.5967 30.925 76.355 30.2583 75.8717 29.725C75.405 29.175 74.8467 28.9 74.1967 28.9H68.3467L68.6217 28.25V35.6L68.2967 35.075ZM88.7412 44.25C87.3579 44.25 86.1579 43.9667 85.1412 43.4C84.1245 42.8167 83.3329 42.025 82.7662 41.025C82.2162 40.0083 81.9412 38.85 81.9412 37.55C81.9412 36.0833 82.2329 34.8333 82.8162 33.8C83.4162 32.75 84.1912 31.95 85.1412 31.4C86.0912 30.8333 87.0995 30.55 88.1662 30.55C88.9829 30.55 89.7579 30.7167 90.4912 31.05C91.2245 31.3667 91.8745 31.8167 92.4412 32.4C93.0245 32.9667 93.4829 33.6417 93.8162 34.425C94.1495 35.1917 94.3245 36.0333 94.3412 36.95C94.3245 37.2833 94.1912 37.5583 93.9412 37.775C93.6912 37.9917 93.3995 38.1 93.0662 38.1H83.3412L82.7412 35.975H92.1412L91.6662 36.425V35.8C91.6329 35.2167 91.4412 34.7083 91.0912 34.275C90.7412 33.825 90.3079 33.4833 89.7912 33.25C89.2745 33 88.7329 32.875 88.1662 32.875C87.6662 32.875 87.1829 32.9583 86.7162 33.125C86.2662 33.275 85.8579 33.525 85.4912 33.875C85.1412 34.225 84.8579 34.6917 84.6412 35.275C84.4412 35.8417 84.3412 36.55 84.3412 37.4C84.3412 38.3167 84.5329 39.1167 84.9162 39.8C85.2995 40.4833 85.8162 41.0167 86.4662 41.4C87.1162 41.7667 87.8329 41.95 88.6162 41.95C89.2329 41.95 89.7412 41.8917 90.1412 41.775C90.5412 41.6417 90.8745 41.4833 91.1412 41.3C91.4079 41.1167 91.6412 40.9417 91.8412 40.775C92.0912 40.625 92.3412 40.55 92.5912 40.55C92.8912 40.55 93.1412 40.6583 93.3412 40.875C93.5412 41.075 93.6412 41.3167 93.6412 41.6C93.6412 41.9667 93.4579 42.3 93.0912 42.6C92.6412 43.0333 92.0162 43.4167 91.2162 43.75C90.4329 44.0833 89.6079 44.25 88.7412 44.25ZM96.392 41.95C96.242 41.7167 96.1753 41.45 96.192 41.15C96.2087 40.8333 96.3837 40.5667 96.717 40.35C96.9503 40.2 97.192 40.1417 97.442 40.175C97.7087 40.1917 97.9587 40.3167 98.192 40.55C98.6587 41.0667 99.1753 41.475 99.742 41.775C100.325 42.075 101.025 42.225 101.842 42.225C102.175 42.2083 102.517 42.1583 102.867 42.075C103.217 41.975 103.517 41.8083 103.767 41.575C104.017 41.325 104.142 40.9667 104.142 40.5C104.142 40.0833 104.009 39.75 103.742 39.5C103.475 39.25 103.125 39.05 102.692 38.9C102.259 38.7333 101.792 38.5833 101.292 38.45C100.759 38.3 100.217 38.1333 99.667 37.95C99.1337 37.7667 98.6503 37.5333 98.217 37.25C97.7837 36.95 97.4253 36.5667 97.142 36.1C96.8753 35.6333 96.742 35.0583 96.742 34.375C96.742 33.5917 96.9587 32.9167 97.392 32.35C97.842 31.7833 98.417 31.3417 99.117 31.025C99.8337 30.7083 100.609 30.55 101.442 30.55C101.925 30.55 102.434 30.6167 102.967 30.75C103.5 30.8667 104.017 31.0583 104.517 31.325C105.017 31.5917 105.45 31.9417 105.817 32.375C105.984 32.5917 106.075 32.85 106.092 33.15C106.125 33.45 105.992 33.7167 105.692 33.95C105.492 34.1167 105.25 34.1917 104.967 34.175C104.684 34.1583 104.45 34.0667 104.267 33.9C103.95 33.5 103.542 33.1917 103.042 32.975C102.542 32.7417 101.975 32.625 101.342 32.625C101.025 32.625 100.692 32.675 100.342 32.775C100.009 32.8583 99.7253 33.0167 99.492 33.25C99.2587 33.4833 99.142 33.825 99.142 34.275C99.142 34.6917 99.2753 35.025 99.542 35.275C99.8253 35.525 100.192 35.7333 100.642 35.9C101.092 36.0667 101.584 36.2167 102.117 36.35C102.634 36.4833 103.142 36.6417 103.642 36.825C104.159 37.0083 104.617 37.25 105.017 37.55C105.434 37.8333 105.767 38.2083 106.017 38.675C106.284 39.125 106.417 39.7 106.417 40.4C106.417 41.2167 106.175 41.9167 105.692 42.5C105.225 43.0667 104.625 43.5 103.892 43.8C103.175 44.1 102.417 44.25 101.617 44.25C100.667 44.25 99.717 44.0833 98.767 43.75C97.8337 43.4 97.042 42.8 96.392 41.95ZM115.23 44.25C113.847 44.25 112.647 43.9667 111.63 43.4C110.614 42.8167 109.822 42.025 109.255 41.025C108.705 40.0083 108.43 38.85 108.43 37.55C108.43 36.0833 108.722 34.8333 109.305 33.8C109.905 32.75 110.68 31.95 111.63 31.4C112.58 30.8333 113.589 30.55 114.655 30.55C115.472 30.55 116.247 30.7167 116.98 31.05C117.714 31.3667 118.364 31.8167 118.93 32.4C119.514 32.9667 119.972 33.6417 120.305 34.425C120.639 35.1917 120.814 36.0333 120.83 36.95C120.814 37.2833 120.68 37.5583 120.43 37.775C120.18 37.9917 119.889 38.1 119.555 38.1H109.83L109.23 35.975H118.63L118.155 36.425V35.8C118.122 35.2167 117.93 34.7083 117.58 34.275C117.23 33.825 116.797 33.4833 116.28 33.25C115.764 33 115.222 32.875 114.655 32.875C114.155 32.875 113.672 32.9583 113.205 33.125C112.755 33.275 112.347 33.525 111.98 33.875C111.63 34.225 111.347 34.6917 111.13 35.275C110.93 35.8417 110.83 36.55 110.83 37.4C110.83 38.3167 111.022 39.1167 111.405 39.8C111.789 40.4833 112.305 41.0167 112.955 41.4C113.605 41.7667 114.322 41.95 115.105 41.95C115.722 41.95 116.23 41.8917 116.63 41.775C117.03 41.6417 117.364 41.4833 117.63 41.3C117.897 41.1167 118.13 40.9417 118.33 40.775C118.58 40.625 118.83 40.55 119.08 40.55C119.38 40.55 119.63 40.6583 119.83 40.875C120.03 41.075 120.13 41.3167 120.13 41.6C120.13 41.9667 119.947 42.3 119.58 42.6C119.13 43.0333 118.505 43.4167 117.705 43.75C116.922 44.0833 116.097 44.25 115.23 44.25ZM124.906 44C124.54 44 124.24 43.8833 124.006 43.65C123.773 43.4 123.656 43.0917 123.656 42.725V32.125C123.656 31.7583 123.773 31.4583 124.006 31.225C124.24 30.975 124.54 30.85 124.906 30.85C125.256 30.85 125.548 30.975 125.781 31.225C126.031 31.4583 126.156 31.7583 126.156 32.125V34.925L125.906 33.85C126.04 33.3833 126.24 32.95 126.506 32.55C126.79 32.15 127.123 31.8 127.506 31.5C127.89 31.2 128.315 30.9667 128.781 30.8C129.265 30.6333 129.765 30.55 130.281 30.55C130.715 30.55 131.09 30.6667 131.406 30.9C131.723 31.1333 131.881 31.425 131.881 31.775C131.881 32.225 131.765 32.5583 131.531 32.775C131.298 32.975 131.04 33.075 130.756 33.075C130.506 33.075 130.265 33.025 130.031 32.925C129.798 32.8083 129.523 32.75 129.206 32.75C128.856 32.75 128.498 32.8417 128.131 33.025C127.765 33.2083 127.431 33.4833 127.131 33.85C126.831 34.2 126.59 34.6167 126.406 35.1C126.24 35.5833 126.156 36.125 126.156 36.725V42.725C126.156 43.0917 126.031 43.4 125.781 43.65C125.548 43.8833 125.256 44 124.906 44ZM135.651 30.725C135.901 30.725 136.134 30.7917 136.351 30.925C136.584 31.0583 136.751 31.2583 136.851 31.525L140.776 40.6L140.301 40.825L144.276 31.55C144.509 31 144.884 30.7333 145.401 30.75C145.734 30.75 146.009 30.8583 146.226 31.075C146.459 31.275 146.576 31.5417 146.576 31.875C146.576 31.975 146.559 32.0833 146.526 32.2C146.492 32.3 146.451 32.4 146.401 32.5L141.651 43.2C141.434 43.7 141.076 43.9667 140.576 44C140.326 44.0333 140.076 43.9833 139.826 43.85C139.592 43.7 139.409 43.4833 139.276 43.2L134.551 32.5C134.517 32.4333 134.484 32.35 134.451 32.25C134.417 32.1333 134.401 32 134.401 31.85C134.401 31.6 134.509 31.35 134.726 31.1C134.959 30.85 135.267 30.725 135.651 30.725ZM155.123 44.25C153.74 44.25 152.54 43.9667 151.523 43.4C150.506 42.8167 149.715 42.025 149.148 41.025C148.598 40.0083 148.323 38.85 148.323 37.55C148.323 36.0833 148.615 34.8333 149.198 33.8C149.798 32.75 150.573 31.95 151.523 31.4C152.473 30.8333 153.481 30.55 154.548 30.55C155.365 30.55 156.14 30.7167 156.873 31.05C157.606 31.3667 158.256 31.8167 158.823 32.4C159.406 32.9667 159.865 33.6417 160.198 34.425C160.531 35.1917 160.706 36.0333 160.723 36.95C160.706 37.2833 160.573 37.5583 160.323 37.775C160.073 37.9917 159.781 38.1 159.448 38.1H149.723L149.123 35.975H158.523L158.048 36.425V35.8C158.015 35.2167 157.823 34.7083 157.473 34.275C157.123 33.825 156.69 33.4833 156.173 33.25C155.656 33 155.115 32.875 154.548 32.875C154.048 32.875 153.565 32.9583 153.098 33.125C152.648 33.275 152.24 33.525 151.873 33.875C151.523 34.225 151.24 34.6917 151.023 35.275C150.823 35.8417 150.723 36.55 150.723 37.4C150.723 38.3167 150.915 39.1167 151.298 39.8C151.681 40.4833 152.198 41.0167 152.848 41.4C153.498 41.7667 154.215 41.95 154.998 41.95C155.615 41.95 156.123 41.8917 156.523 41.775C156.923 41.6417 157.256 41.4833 157.523 41.3C157.79 41.1167 158.023 40.9417 158.223 40.775C158.473 40.625 158.723 40.55 158.973 40.55C159.273 40.55 159.523 40.6583 159.723 40.875C159.923 41.075 160.023 41.3167 160.023 41.6C160.023 41.9667 159.84 42.3 159.473 42.6C159.023 43.0333 158.398 43.4167 157.598 43.75C156.815 44.0833 155.99 44.25 155.123 44.25ZM177.282 30.55C178.465 30.55 179.382 30.8 180.032 31.3C180.682 31.7833 181.132 32.4417 181.382 33.275C181.649 34.0917 181.782 35.0083 181.782 36.025V42.725C181.782 43.0917 181.657 43.4 181.407 43.65C181.174 43.8833 180.882 44 180.532 44C180.165 44 179.865 43.8833 179.632 43.65C179.399 43.4 179.282 43.0917 179.282 42.725V36.05C179.282 35.45 179.199 34.9167 179.032 34.45C178.865 33.9667 178.574 33.5833 178.157 33.3C177.757 33 177.19 32.85 176.457 32.85C175.774 32.85 175.174 33 174.657 33.3C174.14 33.5833 173.732 33.9667 173.432 34.45C173.149 34.9167 173.007 35.45 173.007 36.05V42.725C173.007 43.0917 172.882 43.4 172.632 43.65C172.399 43.8833 172.107 44 171.757 44C171.39 44 171.09 43.8833 170.857 43.65C170.624 43.4 170.507 43.0917 170.507 42.725V32.125C170.507 31.7583 170.624 31.4583 170.857 31.225C171.09 30.975 171.39 30.85 171.757 30.85C172.107 30.85 172.399 30.975 172.632 31.225C172.882 31.4583 173.007 31.7583 173.007 32.125V33.525L172.557 33.775C172.674 33.4083 172.874 33.0417 173.157 32.675C173.457 32.2917 173.815 31.9417 174.232 31.625C174.649 31.2917 175.115 31.0333 175.632 30.85C176.149 30.65 176.699 30.55 177.282 30.55ZM197.853 37.425C197.853 38.7583 197.561 39.9417 196.978 40.975C196.395 41.9917 195.603 42.7917 194.603 43.375C193.603 43.9583 192.478 44.25 191.228 44.25C189.978 44.25 188.853 43.9583 187.853 43.375C186.853 42.7917 186.053 41.9917 185.453 40.975C184.87 39.9417 184.578 38.7583 184.578 37.425C184.578 36.075 184.87 34.8917 185.453 33.875C186.053 32.8417 186.853 32.0333 187.853 31.45C188.853 30.85 189.978 30.55 191.228 30.55C192.478 30.55 193.603 30.85 194.603 31.45C195.603 32.0333 196.395 32.8417 196.978 33.875C197.561 34.8917 197.853 36.075 197.853 37.425ZM195.353 37.425C195.353 36.5083 195.17 35.7167 194.803 35.05C194.436 34.3667 193.936 33.8333 193.303 33.45C192.686 33.05 191.995 32.85 191.228 32.85C190.461 32.85 189.761 33.05 189.128 33.45C188.495 33.8333 187.995 34.3667 187.628 35.05C187.261 35.7167 187.078 36.5083 187.078 37.425C187.078 38.3083 187.261 39.0917 187.628 39.775C187.995 40.4583 188.495 40.9917 189.128 41.375C189.761 41.7583 190.461 41.95 191.228 41.95C191.995 41.95 192.686 41.7583 193.303 41.375C193.936 40.9917 194.436 40.4583 194.803 39.775C195.17 39.0917 195.353 38.3083 195.353 37.425ZM216.008 30.725C216.324 30.725 216.599 30.85 216.833 31.1C217.083 31.3333 217.208 31.6417 217.208 32.025C217.208 32.1083 217.199 32.1917 217.183 32.275C217.166 32.3583 217.141 32.4333 217.108 32.5L213.283 43.2C213.183 43.4833 213.008 43.7 212.758 43.85C212.508 43.9833 212.249 44.0333 211.983 44C211.499 43.9667 211.141 43.7 210.908 43.2L208.083 35.7L208.658 35.75L206.058 43.2C205.824 43.7 205.466 43.9667 204.983 44C204.733 44.0333 204.474 43.9833 204.208 43.85C203.958 43.7 203.783 43.4833 203.683 43.2L199.833 32.5C199.766 32.35 199.733 32.1917 199.733 32.025C199.733 31.675 199.841 31.375 200.058 31.125C200.291 30.8583 200.599 30.725 200.983 30.725C201.249 30.725 201.483 30.7917 201.683 30.925C201.899 31.0583 202.049 31.2583 202.133 31.525L205.333 40.55L204.758 40.5L207.358 33.675C207.574 33.1583 207.958 32.9 208.508 32.9C208.808 32.9 209.041 32.9667 209.208 33.1C209.374 33.2333 209.508 33.425 209.608 33.675L212.258 40.525L211.583 40.6L214.808 31.525C214.974 30.9917 215.374 30.725 216.008 30.725Z" fill="white"/>
</svg>
