<svg width="99" height="31" viewBox="0 0 99 31" fill="none" xmlns="http://www.w3.org/2000/svg">
<rect x="0.75" y="0.75" width="97.5" height="29.5" rx="14.75" fill="white"/>
<rect x="0.75" y="0.75" width="97.5" height="29.5" rx="14.75" stroke="#E9E9E9" stroke-width="1.5"/>
<path d="M17.552 20.12C16.976 20.12 16.464 20.04 16.016 19.88C15.568 19.72 15.14 19.456 14.732 19.088C14.644 19.024 14.576 18.948 14.528 18.86C14.488 18.764 14.468 18.668 14.468 18.572C14.468 18.42 14.524 18.284 14.636 18.164C14.748 18.044 14.888 17.984 15.056 17.984C15.184 17.984 15.304 18.028 15.416 18.116C15.72 18.396 16.036 18.608 16.364 18.752C16.7 18.896 17.092 18.968 17.54 18.968C17.86 18.968 18.152 18.916 18.416 18.812C18.688 18.708 18.904 18.568 19.064 18.392C19.224 18.216 19.304 18.012 19.304 17.78C19.304 17.492 19.22 17.256 19.052 17.072C18.892 16.88 18.656 16.724 18.344 16.604C18.04 16.476 17.672 16.368 17.24 16.28C16.84 16.208 16.48 16.108 16.16 15.98C15.848 15.852 15.58 15.692 15.356 15.5C15.132 15.3 14.96 15.064 14.84 14.792C14.72 14.52 14.66 14.204 14.66 13.844C14.66 13.356 14.788 12.936 15.044 12.584C15.3 12.232 15.648 11.96 16.088 11.768C16.528 11.576 17.024 11.48 17.576 11.48C18.08 11.48 18.552 11.56 18.992 11.72C19.432 11.872 19.788 12.08 20.06 12.344C20.252 12.512 20.348 12.692 20.348 12.884C20.348 13.028 20.288 13.164 20.168 13.292C20.056 13.412 19.924 13.472 19.772 13.472C19.66 13.472 19.564 13.44 19.484 13.376C19.356 13.24 19.184 13.12 18.968 13.016C18.752 12.904 18.52 12.812 18.272 12.74C18.032 12.668 17.8 12.632 17.576 12.632C17.216 12.632 16.908 12.684 16.652 12.788C16.396 12.884 16.2 13.02 16.064 13.196C15.928 13.364 15.86 13.564 15.86 13.796C15.86 14.068 15.936 14.292 16.088 14.468C16.248 14.644 16.468 14.788 16.748 14.9C17.028 15.004 17.348 15.1 17.708 15.188C18.148 15.284 18.54 15.392 18.884 15.512C19.236 15.632 19.532 15.788 19.772 15.98C20.012 16.164 20.196 16.396 20.324 16.676C20.452 16.956 20.516 17.304 20.516 17.72C20.516 18.2 20.38 18.62 20.108 18.98C19.836 19.34 19.476 19.62 19.028 19.82C18.588 20.02 18.096 20.12 17.552 20.12ZM24.7995 20.12C24.1355 20.12 23.5595 19.984 23.0715 19.712C22.5835 19.432 22.2035 19.052 21.9315 18.572C21.6675 18.084 21.5355 17.528 21.5355 16.904C21.5355 16.2 21.6755 15.6 21.9555 15.104C22.2435 14.6 22.6155 14.216 23.0715 13.952C23.5275 13.68 24.0115 13.544 24.5235 13.544C24.9155 13.544 25.2875 13.624 25.6395 13.784C25.9915 13.936 26.3035 14.152 26.5755 14.432C26.8555 14.704 27.0755 15.028 27.2355 15.404C27.3955 15.772 27.4795 16.176 27.4875 16.616C27.4795 16.776 27.4155 16.908 27.2955 17.012C27.1755 17.116 27.0355 17.168 26.8755 17.168H22.2075L21.9195 16.148H26.4315L26.2035 16.364V16.064C26.1875 15.784 26.0955 15.54 25.9275 15.332C25.7595 15.116 25.5515 14.952 25.3035 14.84C25.0555 14.72 24.7955 14.66 24.5235 14.66C24.2835 14.66 24.0515 14.7 23.8275 14.78C23.6115 14.852 23.4155 14.972 23.2395 15.14C23.0715 15.308 22.9355 15.532 22.8315 15.812C22.7355 16.084 22.6875 16.424 22.6875 16.832C22.6875 17.272 22.7795 17.656 22.9635 17.984C23.1475 18.312 23.3955 18.568 23.7075 18.752C24.0195 18.928 24.3635 19.016 24.7395 19.016C25.0355 19.016 25.2795 18.988 25.4715 18.932C25.6635 18.868 25.8235 18.792 25.9515 18.704C26.0795 18.616 26.1915 18.532 26.2875 18.452C26.4075 18.38 26.5275 18.344 26.6475 18.344C26.7915 18.344 26.9115 18.396 27.0075 18.5C27.1035 18.596 27.1515 18.712 27.1515 18.848C27.1515 19.024 27.0635 19.184 26.8875 19.328C26.6715 19.536 26.3715 19.72 25.9875 19.88C25.6115 20.04 25.2155 20.12 24.7995 20.12ZM30.1399 19.388C30.1399 19.564 30.0799 19.712 29.9599 19.832C29.8479 19.944 29.7079 20 29.5399 20C29.3719 20 29.2279 19.944 29.1079 19.832C28.9959 19.712 28.9399 19.564 28.9399 19.388V11.732C28.9399 11.556 28.9999 11.412 29.1199 11.3C29.2399 11.18 29.3839 11.12 29.5519 11.12C29.7279 11.12 29.8679 11.18 29.9719 11.3C30.0839 11.412 30.1399 11.556 30.1399 11.732V19.388ZM34.8659 11.132C35.0179 11.132 35.1739 11.152 35.3339 11.192C35.4939 11.232 35.6259 11.3 35.7299 11.396C35.8419 11.484 35.8979 11.608 35.8979 11.768C35.8979 11.928 35.8499 12.06 35.7539 12.164C35.6579 12.26 35.5459 12.308 35.4179 12.308C35.3379 12.308 35.2299 12.292 35.0939 12.26C34.9579 12.22 34.8219 12.2 34.6859 12.2C34.5019 12.2 34.3539 12.244 34.2419 12.332C34.1299 12.412 34.0499 12.516 34.0019 12.644C33.9539 12.764 33.9299 12.884 33.9299 13.004V19.388C33.9299 19.564 33.8699 19.712 33.7499 19.832C33.6379 19.944 33.4979 20 33.3299 20C33.1539 20 33.0099 19.944 32.8979 19.832C32.7859 19.712 32.7299 19.564 32.7299 19.388V13.016C32.7299 12.464 32.9099 12.012 33.2699 11.66C33.6379 11.308 34.1699 11.132 34.8659 11.132ZM35.1059 13.796C35.2659 13.796 35.3979 13.848 35.5019 13.952C35.6059 14.056 35.6579 14.188 35.6579 14.348C35.6579 14.508 35.6059 14.64 35.5019 14.744C35.3979 14.848 35.2659 14.9 35.1059 14.9H31.9979C31.8459 14.9 31.7139 14.848 31.6019 14.744C31.4979 14.64 31.4459 14.508 31.4459 14.348C31.4459 14.188 31.4979 14.056 31.6019 13.952C31.7139 13.848 31.8459 13.796 31.9979 13.796H35.1059ZM46.2954 12.08C46.4714 12.168 46.5714 12.304 46.5954 12.488C46.6274 12.672 46.5834 12.84 46.4634 12.992C46.3754 13.112 46.2594 13.18 46.1154 13.196C45.9794 13.212 45.8434 13.184 45.7074 13.112C45.4754 12.992 45.2314 12.896 44.9754 12.824C44.7194 12.752 44.4474 12.716 44.1594 12.716C43.7034 12.716 43.2914 12.792 42.9234 12.944C42.5634 13.088 42.2514 13.3 41.9874 13.58C41.7234 13.852 41.5194 14.176 41.3754 14.552C41.2394 14.928 41.1714 15.344 41.1714 15.8C41.1714 16.304 41.2474 16.752 41.3994 17.144C41.5514 17.528 41.7594 17.856 42.0234 18.128C42.2954 18.392 42.6114 18.592 42.9714 18.728C43.3394 18.856 43.7354 18.92 44.1594 18.92C44.4314 18.92 44.6954 18.888 44.9514 18.824C45.2154 18.76 45.4634 18.664 45.6954 18.536C45.8394 18.464 45.9794 18.44 46.1154 18.464C46.2594 18.48 46.3754 18.548 46.4634 18.668C46.5994 18.836 46.6474 19.008 46.6074 19.184C46.5754 19.352 46.4754 19.48 46.3074 19.568C46.1074 19.68 45.8874 19.776 45.6474 19.856C45.4074 19.936 45.1634 20 44.9154 20.048C44.6674 20.096 44.4154 20.12 44.1594 20.12C43.5834 20.12 43.0394 20.024 42.5274 19.832C42.0154 19.64 41.5594 19.36 41.1594 18.992C40.7594 18.624 40.4434 18.172 40.2114 17.636C39.9874 17.1 39.8754 16.488 39.8754 15.8C39.8754 15.184 39.9794 14.616 40.1874 14.096C40.4034 13.568 40.7034 13.116 41.0874 12.74C41.4794 12.356 41.9354 12.06 42.4554 11.852C42.9754 11.636 43.5434 11.528 44.1594 11.528C44.5434 11.528 44.9154 11.576 45.2754 11.672C45.6434 11.768 45.9834 11.904 46.2954 12.08ZM51.0083 13.58C51.5603 13.58 51.9883 13.7 52.2923 13.94C52.5963 14.172 52.8083 14.488 52.9283 14.888C53.0563 15.288 53.1203 15.728 53.1203 16.208V19.388C53.1203 19.564 53.0603 19.712 52.9403 19.832C52.8283 19.944 52.6883 20 52.5203 20C52.3443 20 52.2003 19.944 52.0883 19.832C51.9763 19.712 51.9203 19.564 51.9203 19.388V16.208C51.9203 15.928 51.8803 15.672 51.8003 15.44C51.7283 15.208 51.5963 15.024 51.4043 14.888C51.2203 14.752 50.9603 14.684 50.6243 14.684C50.3123 14.684 50.0323 14.752 49.7843 14.888C49.5443 15.024 49.3563 15.208 49.2203 15.44C49.0923 15.672 49.0283 15.928 49.0283 16.208V19.388C49.0283 19.564 48.9683 19.712 48.8483 19.832C48.7363 19.944 48.5963 20 48.4283 20C48.2523 20 48.1083 19.944 47.9963 19.832C47.8843 19.712 47.8283 19.564 47.8283 19.388V11.732C47.8283 11.556 47.8843 11.412 47.9963 11.3C48.1083 11.18 48.2523 11.12 48.4283 11.12C48.5963 11.12 48.7363 11.18 48.8483 11.3C48.9683 11.412 49.0283 11.556 49.0283 11.732V15.008L48.8123 15.128C48.8683 14.952 48.9603 14.772 49.0883 14.588C49.2243 14.404 49.3883 14.236 49.5803 14.084C49.7803 13.932 50.0003 13.812 50.2403 13.724C50.4803 13.628 50.7363 13.58 51.0083 13.58ZM57.7292 20.12C57.0652 20.12 56.4892 19.984 56.0012 19.712C55.5132 19.432 55.1332 19.052 54.8612 18.572C54.5972 18.084 54.4652 17.528 54.4652 16.904C54.4652 16.2 54.6052 15.6 54.8852 15.104C55.1732 14.6 55.5452 14.216 56.0012 13.952C56.4572 13.68 56.9412 13.544 57.4532 13.544C57.8452 13.544 58.2172 13.624 58.5692 13.784C58.9212 13.936 59.2332 14.152 59.5052 14.432C59.7852 14.704 60.0052 15.028 60.1652 15.404C60.3252 15.772 60.4092 16.176 60.4172 16.616C60.4092 16.776 60.3452 16.908 60.2252 17.012C60.1052 17.116 59.9652 17.168 59.8052 17.168H55.1372L54.8492 16.148H59.3612L59.1332 16.364V16.064C59.1172 15.784 59.0252 15.54 58.8572 15.332C58.6892 15.116 58.4812 14.952 58.2332 14.84C57.9852 14.72 57.7252 14.66 57.4532 14.66C57.2132 14.66 56.9812 14.7 56.7572 14.78C56.5412 14.852 56.3452 14.972 56.1692 15.14C56.0012 15.308 55.8652 15.532 55.7612 15.812C55.6652 16.084 55.6172 16.424 55.6172 16.832C55.6172 17.272 55.7092 17.656 55.8932 17.984C56.0772 18.312 56.3252 18.568 56.6372 18.752C56.9492 18.928 57.2932 19.016 57.6692 19.016C57.9652 19.016 58.2092 18.988 58.4012 18.932C58.5932 18.868 58.7532 18.792 58.8812 18.704C59.0092 18.616 59.1212 18.532 59.2172 18.452C59.3372 18.38 59.4572 18.344 59.5772 18.344C59.7212 18.344 59.8412 18.396 59.9372 18.5C60.0332 18.596 60.0812 18.712 60.0812 18.848C60.0812 19.024 59.9932 19.184 59.8172 19.328C59.6012 19.536 59.3012 19.72 58.9172 19.88C58.5412 20.04 58.1452 20.12 57.7292 20.12ZM64.5696 13.544C65.0016 13.544 65.3856 13.592 65.7216 13.688C66.0576 13.776 66.3176 13.904 66.5016 14.072C66.6936 14.232 66.7896 14.42 66.7896 14.636C66.7896 14.772 66.7496 14.9 66.6696 15.02C66.5896 15.132 66.4696 15.188 66.3096 15.188C66.1976 15.188 66.1016 15.168 66.0216 15.128C65.9496 15.088 65.8816 15.04 65.8176 14.984C65.7536 14.928 65.6736 14.872 65.5776 14.816C65.4896 14.768 65.3576 14.728 65.1816 14.696C65.0136 14.664 64.8616 14.648 64.7256 14.648C64.3016 14.648 63.9336 14.744 63.6216 14.936C63.3176 15.128 63.0776 15.388 62.9016 15.716C62.7336 16.044 62.6496 16.416 62.6496 16.832C62.6496 17.248 62.7336 17.62 62.9016 17.948C63.0776 18.276 63.3136 18.536 63.6096 18.728C63.9136 18.92 64.2656 19.016 64.6656 19.016C64.9056 19.016 65.1016 19 65.2536 18.968C65.4056 18.928 65.5376 18.88 65.6496 18.824C65.7696 18.752 65.8696 18.68 65.9496 18.608C66.0376 18.528 66.1576 18.488 66.3096 18.488C66.4856 18.488 66.6176 18.544 66.7056 18.656C66.8016 18.76 66.8496 18.892 66.8496 19.052C66.8496 19.228 66.7416 19.4 66.5256 19.568C66.3176 19.728 66.0376 19.86 65.6856 19.964C65.3336 20.068 64.9456 20.12 64.5216 20.12C63.8976 20.12 63.3536 19.976 62.8896 19.688C62.4336 19.4 62.0776 19.008 61.8216 18.512C61.5736 18.016 61.4496 17.456 61.4496 16.832C61.4496 16.2 61.5816 15.64 61.8456 15.152C62.1096 14.656 62.4776 14.264 62.9496 13.976C63.4216 13.688 63.9616 13.544 64.5696 13.544ZM68.6923 20C68.5243 20 68.3803 19.944 68.2603 19.832C68.1483 19.712 68.0923 19.564 68.0923 19.388V11.732C68.0923 11.556 68.1483 11.412 68.2603 11.3C68.3803 11.18 68.5243 11.12 68.6923 11.12C68.8683 11.12 69.0123 11.18 69.1243 11.3C69.2363 11.412 69.2923 11.556 69.2923 11.732V19.388C69.2923 19.564 69.2363 19.712 69.1243 19.832C69.0123 19.944 68.8683 20 68.6923 20ZM72.6043 13.664C72.7563 13.664 72.8883 13.728 73.0003 13.856C73.1123 13.984 73.1683 14.112 73.1683 14.24C73.1683 14.4 73.0923 14.548 72.9403 14.684L69.1843 18.044L69.1363 16.664L72.1603 13.856C72.2883 13.728 72.4363 13.664 72.6043 13.664ZM72.7483 19.988C72.5803 19.988 72.4363 19.92 72.3163 19.784L69.9163 17.252L70.8283 16.412L73.1683 18.944C73.2963 19.08 73.3603 19.232 73.3603 19.4C73.3603 19.576 73.2883 19.72 73.1443 19.832C73.0083 19.936 72.8763 19.988 72.7483 19.988ZM76.0797 19.388C76.0717 19.564 76.0037 19.712 75.8757 19.832C75.7557 19.944 75.6117 20 75.4437 20C75.2597 20 75.1077 19.944 74.9877 19.832C74.8757 19.712 74.8197 19.564 74.8197 19.388V12.212C74.8197 12.036 74.8797 11.892 74.9997 11.78C75.1197 11.66 75.2757 11.6 75.4677 11.6C75.6277 11.6 75.7677 11.66 75.8877 11.78C76.0157 11.892 76.0797 12.036 76.0797 12.212V19.388ZM81.1389 13.544C81.7069 13.544 82.1469 13.664 82.4589 13.904C82.7709 14.136 82.9869 14.452 83.1069 14.852C83.2349 15.244 83.2989 15.684 83.2989 16.172V19.388C83.2989 19.564 83.2389 19.712 83.1189 19.832C83.0069 19.944 82.8669 20 82.6989 20C82.5229 20 82.3789 19.944 82.2669 19.832C82.1549 19.712 82.0989 19.564 82.0989 19.388V16.184C82.0989 15.896 82.0589 15.64 81.9789 15.416C81.8989 15.184 81.7589 15 81.5589 14.864C81.3669 14.72 81.0949 14.648 80.7429 14.648C80.4149 14.648 80.1269 14.72 79.8789 14.864C79.6309 15 79.4349 15.184 79.2909 15.416C79.1549 15.64 79.0869 15.896 79.0869 16.184V19.388C79.0869 19.564 79.0269 19.712 78.9069 19.832C78.7949 19.944 78.6549 20 78.4869 20C78.3109 20 78.1669 19.944 78.0549 19.832C77.9429 19.712 77.8869 19.564 77.8869 19.388V14.3C77.8869 14.124 77.9429 13.98 78.0549 13.868C78.1669 13.748 78.3109 13.688 78.4869 13.688C78.6549 13.688 78.7949 13.748 78.9069 13.868C79.0269 13.98 79.0869 14.124 79.0869 14.3V14.972L78.8709 15.092C78.9269 14.916 79.0229 14.74 79.1589 14.564C79.3029 14.38 79.4749 14.212 79.6749 14.06C79.8749 13.9 80.0989 13.776 80.3469 13.688C80.5949 13.592 80.8589 13.544 81.1389 13.544Z" fill="#161117"/>
</svg>
