<svg width="110" height="34" viewBox="0 0 110 34" fill="none" xmlns="http://www.w3.org/2000/svg">
<rect x="0.75" y="0.75" width="108.5" height="32.5" rx="16.25" fill="white"/>
<rect x="0.75" y="0.75" width="108.5" height="32.5" rx="16.25" stroke="#E9E9E9" stroke-width="1.5"/>
<path d="M18.144 22.14C17.472 22.14 16.8747 22.0467 16.352 21.86C15.8293 21.6733 15.33 21.3653 14.854 20.936C14.7513 20.8613 14.672 20.7727 14.616 20.67C14.5693 20.558 14.546 20.446 14.546 20.334C14.546 20.1567 14.6113 19.998 14.742 19.858C14.8727 19.718 15.036 19.648 15.232 19.648C15.3813 19.648 15.5213 19.6993 15.652 19.802C16.0067 20.1287 16.3753 20.376 16.758 20.544C17.15 20.712 17.6073 20.796 18.13 20.796C18.5033 20.796 18.844 20.7353 19.152 20.614C19.4693 20.4927 19.7213 20.3293 19.908 20.124C20.0947 19.9187 20.188 19.6807 20.188 19.41C20.188 19.074 20.09 18.7987 19.894 18.584C19.7073 18.36 19.432 18.178 19.068 18.038C18.7133 17.8887 18.284 17.7627 17.78 17.66C17.3133 17.576 16.8933 17.4593 16.52 17.31C16.156 17.1607 15.8433 16.974 15.582 16.75C15.3207 16.5167 15.12 16.2413 14.98 15.924C14.84 15.6067 14.77 15.238 14.77 14.818C14.77 14.2487 14.9193 13.7587 15.218 13.348C15.5167 12.9373 15.9227 12.62 16.436 12.396C16.9493 12.172 17.528 12.06 18.172 12.06C18.76 12.06 19.3107 12.1533 19.824 12.34C20.3373 12.5173 20.7527 12.76 21.07 13.068C21.294 13.264 21.406 13.474 21.406 13.698C21.406 13.866 21.336 14.0247 21.196 14.174C21.0653 14.314 20.9113 14.384 20.734 14.384C20.6033 14.384 20.4913 14.3467 20.398 14.272C20.2487 14.1133 20.048 13.9733 19.796 13.852C19.544 13.7213 19.2733 13.614 18.984 13.53C18.704 13.446 18.4333 13.404 18.172 13.404C17.752 13.404 17.3927 13.4647 17.094 13.586C16.7953 13.698 16.5667 13.8567 16.408 14.062C16.2493 14.258 16.17 14.4913 16.17 14.762C16.17 15.0793 16.2587 15.3407 16.436 15.546C16.6227 15.7513 16.8793 15.9193 17.206 16.05C17.5327 16.1713 17.906 16.2833 18.326 16.386C18.8393 16.498 19.2967 16.624 19.698 16.764C20.1087 16.904 20.454 17.086 20.734 17.31C21.014 17.5247 21.2287 17.7953 21.378 18.122C21.5273 18.4487 21.602 18.8547 21.602 19.34C21.602 19.9 21.4433 20.39 21.126 20.81C20.8087 21.23 20.3887 21.5567 19.866 21.79C19.3527 22.0233 18.7787 22.14 18.144 22.14ZM26.5995 22.14C25.8248 22.14 25.1528 21.9813 24.5835 21.664C24.0141 21.3373 23.5708 20.894 23.2535 20.334C22.9455 19.7647 22.7915 19.116 22.7915 18.388C22.7915 17.5667 22.9548 16.8667 23.2815 16.288C23.6175 15.7 24.0515 15.252 24.5835 14.944C25.1155 14.6267 25.6801 14.468 26.2775 14.468C26.7348 14.468 27.1688 14.5613 27.5795 14.748C27.9901 14.9253 28.3541 15.1773 28.6715 15.504C28.9981 15.8213 29.2548 16.1993 29.4415 16.638C29.6281 17.0673 29.7261 17.5387 29.7355 18.052C29.7261 18.2387 29.6515 18.3927 29.5115 18.514C29.3715 18.6353 29.2081 18.696 29.0215 18.696H23.5755L23.2395 17.506H28.5035L28.2375 17.758V17.408C28.2188 17.0813 28.1115 16.7967 27.9155 16.554C27.7195 16.302 27.4768 16.1107 27.1875 15.98C26.8981 15.84 26.5948 15.77 26.2775 15.77C25.9975 15.77 25.7268 15.8167 25.4655 15.91C25.2135 15.994 24.9848 16.134 24.7795 16.33C24.5835 16.526 24.4248 16.7873 24.3035 17.114C24.1915 17.4313 24.1355 17.828 24.1355 18.304C24.1355 18.8173 24.2428 19.2653 24.4575 19.648C24.6721 20.0307 24.9615 20.3293 25.3255 20.544C25.6895 20.7493 26.0908 20.852 26.5295 20.852C26.8748 20.852 27.1595 20.8193 27.3835 20.754C27.6075 20.6793 27.7941 20.5907 27.9435 20.488C28.0928 20.3853 28.2235 20.2873 28.3355 20.194C28.4755 20.11 28.6155 20.068 28.7555 20.068C28.9235 20.068 29.0635 20.1287 29.1755 20.25C29.2875 20.362 29.3435 20.4973 29.3435 20.656C29.3435 20.8613 29.2408 21.048 29.0355 21.216C28.7835 21.4587 28.4335 21.6733 27.9855 21.86C27.5468 22.0467 27.0848 22.14 26.5995 22.14ZM32.8299 21.286C32.8299 21.4913 32.7599 21.664 32.6199 21.804C32.4892 21.9347 32.3259 22 32.1299 22C31.9339 22 31.7659 21.9347 31.6259 21.804C31.4952 21.664 31.4299 21.4913 31.4299 21.286V12.354C31.4299 12.1487 31.4999 11.9807 31.6399 11.85C31.7799 11.71 31.9479 11.64 32.1439 11.64C32.3492 11.64 32.5126 11.71 32.6339 11.85C32.7646 11.9807 32.8299 12.1487 32.8299 12.354V21.286ZM38.3436 11.654C38.5209 11.654 38.7029 11.6773 38.8896 11.724C39.0763 11.7707 39.2303 11.85 39.3516 11.962C39.4823 12.0647 39.5476 12.2093 39.5476 12.396C39.5476 12.5827 39.4916 12.7367 39.3796 12.858C39.2676 12.97 39.1369 13.026 38.9876 13.026C38.8943 13.026 38.7683 13.0073 38.6096 12.97C38.4509 12.9233 38.2923 12.9 38.1336 12.9C37.9189 12.9 37.7463 12.9513 37.6156 13.054C37.4849 13.1473 37.3916 13.2687 37.3356 13.418C37.2796 13.558 37.2516 13.698 37.2516 13.838V21.286C37.2516 21.4913 37.1816 21.664 37.0416 21.804C36.9109 21.9347 36.7476 22 36.5516 22C36.3463 22 36.1783 21.9347 36.0476 21.804C35.9169 21.664 35.8516 21.4913 35.8516 21.286V13.852C35.8516 13.208 36.0616 12.6807 36.4816 12.27C36.9109 11.8593 37.5316 11.654 38.3436 11.654ZM38.6236 14.762C38.8103 14.762 38.9643 14.8227 39.0856 14.944C39.2069 15.0653 39.2676 15.2193 39.2676 15.406C39.2676 15.5927 39.2069 15.7467 39.0856 15.868C38.9643 15.9893 38.8103 16.05 38.6236 16.05H34.9976C34.8203 16.05 34.6663 15.9893 34.5356 15.868C34.4143 15.7467 34.3536 15.5927 34.3536 15.406C34.3536 15.2193 34.4143 15.0653 34.5356 14.944C34.6663 14.8227 34.8203 14.762 34.9976 14.762H38.6236ZM51.6779 12.76C51.8833 12.8627 51.9999 13.0213 52.0279 13.236C52.0653 13.4507 52.0139 13.6467 51.8739 13.824C51.7713 13.964 51.6359 14.0433 51.4679 14.062C51.3093 14.0807 51.1506 14.048 50.9919 13.964C50.7213 13.824 50.4366 13.712 50.1379 13.628C49.8393 13.544 49.5219 13.502 49.1859 13.502C48.6539 13.502 48.1733 13.5907 47.7439 13.768C47.3239 13.936 46.9599 14.1833 46.6519 14.51C46.3439 14.8273 46.1059 15.2053 45.9379 15.644C45.7793 16.0827 45.6999 16.568 45.6999 17.1C45.6999 17.688 45.7886 18.2107 45.9659 18.668C46.1433 19.116 46.3859 19.4987 46.6939 19.816C47.0113 20.124 47.3799 20.3573 47.7999 20.516C48.2293 20.6653 48.6913 20.74 49.1859 20.74C49.5033 20.74 49.8113 20.7027 50.1099 20.628C50.4179 20.5533 50.7073 20.4413 50.9779 20.292C51.1459 20.208 51.3093 20.18 51.4679 20.208C51.6359 20.2267 51.7713 20.306 51.8739 20.446C52.0326 20.642 52.0886 20.8427 52.0419 21.048C52.0046 21.244 51.8879 21.3933 51.6919 21.496C51.4586 21.6267 51.2019 21.7387 50.9219 21.832C50.6419 21.9253 50.3573 22 50.0679 22.056C49.7786 22.112 49.4846 22.14 49.1859 22.14C48.5139 22.14 47.8793 22.028 47.2819 21.804C46.6846 21.58 46.1526 21.2533 45.6859 20.824C45.2193 20.3947 44.8506 19.8673 44.5799 19.242C44.3186 18.6167 44.1879 17.9027 44.1879 17.1C44.1879 16.3813 44.3093 15.7187 44.5519 15.112C44.8039 14.496 45.1539 13.9687 45.6019 13.53C46.0593 13.082 46.5913 12.7367 47.1979 12.494C47.8046 12.242 48.4673 12.116 49.1859 12.116C49.6339 12.116 50.0679 12.172 50.4879 12.284C50.9173 12.396 51.3139 12.5547 51.6779 12.76ZM57.1763 14.51C57.8203 14.51 58.3197 14.65 58.6743 14.93C59.029 15.2007 59.2763 15.5693 59.4163 16.036C59.5657 16.5027 59.6403 17.016 59.6403 17.576V21.286C59.6403 21.4913 59.5703 21.664 59.4303 21.804C59.2997 21.9347 59.1363 22 58.9403 22C58.735 22 58.567 21.9347 58.4363 21.804C58.3057 21.664 58.2403 21.4913 58.2403 21.286V17.576C58.2403 17.2493 58.1937 16.9507 58.1003 16.68C58.0163 16.4093 57.8623 16.1947 57.6383 16.036C57.4237 15.8773 57.1203 15.798 56.7283 15.798C56.3643 15.798 56.0377 15.8773 55.7483 16.036C55.4683 16.1947 55.249 16.4093 55.0903 16.68C54.941 16.9507 54.8663 17.2493 54.8663 17.576V21.286C54.8663 21.4913 54.7963 21.664 54.6563 21.804C54.5257 21.9347 54.3623 22 54.1663 22C53.961 22 53.793 21.9347 53.6623 21.804C53.5317 21.664 53.4663 21.4913 53.4663 21.286V12.354C53.4663 12.1487 53.5317 11.9807 53.6623 11.85C53.793 11.71 53.961 11.64 54.1663 11.64C54.3623 11.64 54.5257 11.71 54.6563 11.85C54.7963 11.9807 54.8663 12.1487 54.8663 12.354V16.176L54.6143 16.316C54.6797 16.1107 54.787 15.9007 54.9363 15.686C55.095 15.4713 55.2863 15.2753 55.5103 15.098C55.7437 14.9207 56.0003 14.7807 56.2803 14.678C56.5603 14.566 56.859 14.51 57.1763 14.51ZM65.0174 22.14C64.2428 22.14 63.5708 21.9813 63.0014 21.664C62.4321 21.3373 61.9888 20.894 61.6714 20.334C61.3634 19.7647 61.2094 19.116 61.2094 18.388C61.2094 17.5667 61.3728 16.8667 61.6994 16.288C62.0354 15.7 62.4694 15.252 63.0014 14.944C63.5334 14.6267 64.0981 14.468 64.6954 14.468C65.1528 14.468 65.5868 14.5613 65.9974 14.748C66.4081 14.9253 66.7721 15.1773 67.0894 15.504C67.4161 15.8213 67.6728 16.1993 67.8594 16.638C68.0461 17.0673 68.1441 17.5387 68.1534 18.052C68.1441 18.2387 68.0694 18.3927 67.9294 18.514C67.7894 18.6353 67.6261 18.696 67.4394 18.696H61.9934L61.6574 17.506H66.9214L66.6554 17.758V17.408C66.6368 17.0813 66.5294 16.7967 66.3334 16.554C66.1374 16.302 65.8948 16.1107 65.6054 15.98C65.3161 15.84 65.0128 15.77 64.6954 15.77C64.4154 15.77 64.1448 15.8167 63.8834 15.91C63.6314 15.994 63.4028 16.134 63.1974 16.33C63.0014 16.526 62.8428 16.7873 62.7214 17.114C62.6094 17.4313 62.5534 17.828 62.5534 18.304C62.5534 18.8173 62.6608 19.2653 62.8754 19.648C63.0901 20.0307 63.3794 20.3293 63.7434 20.544C64.1074 20.7493 64.5088 20.852 64.9474 20.852C65.2928 20.852 65.5774 20.8193 65.8014 20.754C66.0254 20.6793 66.2121 20.5907 66.3614 20.488C66.5108 20.3853 66.6414 20.2873 66.7534 20.194C66.8934 20.11 67.0334 20.068 67.1734 20.068C67.3414 20.068 67.4814 20.1287 67.5934 20.25C67.7054 20.362 67.7614 20.4973 67.7614 20.656C67.7614 20.8613 67.6588 21.048 67.4534 21.216C67.2014 21.4587 66.8514 21.6733 66.4034 21.86C65.9648 22.0467 65.5028 22.14 65.0174 22.14ZM72.9979 14.468C73.5019 14.468 73.9499 14.524 74.3419 14.636C74.7339 14.7387 75.0372 14.888 75.2519 15.084C75.4759 15.2707 75.5879 15.49 75.5879 15.742C75.5879 15.9007 75.5412 16.05 75.4479 16.19C75.3545 16.3207 75.2145 16.386 75.0279 16.386C74.8972 16.386 74.7852 16.3627 74.6919 16.316C74.6079 16.2693 74.5285 16.2133 74.4539 16.148C74.3792 16.0827 74.2859 16.0173 74.1739 15.952C74.0712 15.896 73.9172 15.8493 73.7119 15.812C73.5159 15.7747 73.3385 15.756 73.1799 15.756C72.6852 15.756 72.2559 15.868 71.8919 16.092C71.5372 16.316 71.2572 16.6193 71.0519 17.002C70.8559 17.3847 70.7579 17.8187 70.7579 18.304C70.7579 18.7893 70.8559 19.2233 71.0519 19.606C71.2572 19.9887 71.5325 20.292 71.8779 20.516C72.2325 20.74 72.6432 20.852 73.1099 20.852C73.3899 20.852 73.6185 20.8333 73.7959 20.796C73.9732 20.7493 74.1272 20.6933 74.2579 20.628C74.3979 20.544 74.5145 20.46 74.6079 20.376C74.7105 20.2827 74.8505 20.236 75.0279 20.236C75.2332 20.236 75.3872 20.3013 75.4899 20.432C75.6019 20.5533 75.6579 20.7073 75.6579 20.894C75.6579 21.0993 75.5319 21.3 75.2799 21.496C75.0372 21.6827 74.7105 21.8367 74.2999 21.958C73.8892 22.0793 73.4365 22.14 72.9419 22.14C72.2139 22.14 71.5792 21.972 71.0379 21.636C70.5059 21.3 70.0905 20.8427 69.7919 20.264C69.5025 19.6853 69.3579 19.032 69.3579 18.304C69.3579 17.5667 69.5119 16.9133 69.8199 16.344C70.1279 15.7653 70.5572 15.308 71.1079 14.972C71.6585 14.636 72.2885 14.468 72.9979 14.468ZM77.8076 22C77.6116 22 77.4436 21.9347 77.3036 21.804C77.173 21.664 77.1076 21.4913 77.1076 21.286V12.354C77.1076 12.1487 77.173 11.9807 77.3036 11.85C77.4436 11.71 77.6116 11.64 77.8076 11.64C78.013 11.64 78.181 11.71 78.3116 11.85C78.4423 11.9807 78.5076 12.1487 78.5076 12.354V21.286C78.5076 21.4913 78.4423 21.664 78.3116 21.804C78.181 21.9347 78.013 22 77.8076 22ZM82.3716 14.608C82.549 14.608 82.703 14.6827 82.8336 14.832C82.9643 14.9813 83.0296 15.1307 83.0296 15.28C83.0296 15.4667 82.941 15.6393 82.7636 15.798L78.3816 19.718L78.3256 18.108L81.8536 14.832C82.003 14.6827 82.1756 14.608 82.3716 14.608ZM82.5396 21.986C82.3436 21.986 82.1756 21.9067 82.0356 21.748L79.2356 18.794L80.2996 17.814L83.0296 20.768C83.179 20.9267 83.2536 21.104 83.2536 21.3C83.2536 21.5053 83.1696 21.6733 83.0016 21.804C82.843 21.9253 82.689 21.986 82.5396 21.986ZM86.4263 21.286C86.4169 21.4913 86.3376 21.664 86.1883 21.804C86.0483 21.9347 85.8803 22 85.6843 22C85.4696 22 85.2923 21.9347 85.1523 21.804C85.0216 21.664 84.9563 21.4913 84.9563 21.286V12.914C84.9563 12.7087 85.0263 12.5407 85.1663 12.41C85.3063 12.27 85.4883 12.2 85.7123 12.2C85.8989 12.2 86.0623 12.27 86.2023 12.41C86.3516 12.5407 86.4263 12.7087 86.4263 12.914V21.286ZM92.3287 14.468C92.9914 14.468 93.5047 14.608 93.8687 14.888C94.2327 15.1587 94.4847 15.5273 94.6247 15.994C94.774 16.4513 94.8487 16.9647 94.8487 17.534V21.286C94.8487 21.4913 94.7787 21.664 94.6387 21.804C94.508 21.9347 94.3447 22 94.1487 22C93.9434 22 93.7754 21.9347 93.6447 21.804C93.514 21.664 93.4487 21.4913 93.4487 21.286V17.548C93.4487 17.212 93.402 16.9133 93.3087 16.652C93.2154 16.3813 93.052 16.1667 92.8187 16.008C92.5947 15.84 92.2774 15.756 91.8667 15.756C91.484 15.756 91.148 15.84 90.8587 16.008C90.5694 16.1667 90.3407 16.3813 90.1727 16.652C90.014 16.9133 89.9347 17.212 89.9347 17.548V21.286C89.9347 21.4913 89.8647 21.664 89.7247 21.804C89.594 21.9347 89.4307 22 89.2347 22C89.0294 22 88.8614 21.9347 88.7307 21.804C88.6 21.664 88.5347 21.4913 88.5347 21.286V15.35C88.5347 15.1447 88.6 14.9767 88.7307 14.846C88.8614 14.706 89.0294 14.636 89.2347 14.636C89.4307 14.636 89.594 14.706 89.7247 14.846C89.8647 14.9767 89.9347 15.1447 89.9347 15.35V16.134L89.6827 16.274C89.748 16.0687 89.86 15.8633 90.0187 15.658C90.1867 15.4433 90.3874 15.2473 90.6207 15.07C90.854 14.8833 91.1154 14.7387 91.4047 14.636C91.694 14.524 92.002 14.468 92.3287 14.468Z" fill="#161117"/>
</svg>
