<svg width="81" height="27" viewBox="0 0 81 27" fill="none" xmlns="http://www.w3.org/2000/svg">
<rect x="0.75" y="0.75" width="79.5" height="25.5" rx="12.75" fill="white"/>
<rect x="0.75" y="0.75" width="79.5" height="25.5" rx="12.75" stroke="#E9E9E9" stroke-width="1.5"/>
<path d="M16.664 17.09C16.232 17.09 15.848 17.03 15.512 16.91C15.176 16.79 14.855 16.592 14.549 16.316C14.483 16.268 14.432 16.211 14.396 16.145C14.366 16.073 14.351 16.001 14.351 15.929C14.351 15.815 14.393 15.713 14.477 15.623C14.561 15.533 14.666 15.488 14.792 15.488C14.888 15.488 14.978 15.521 15.062 15.587C15.29 15.797 15.527 15.956 15.773 16.064C16.025 16.172 16.319 16.226 16.655 16.226C16.895 16.226 17.114 16.187 17.312 16.109C17.516 16.031 17.678 15.926 17.798 15.794C17.918 15.662 17.978 15.509 17.978 15.335C17.978 15.119 17.915 14.942 17.789 14.804C17.669 14.66 17.492 14.543 17.258 14.453C17.03 14.357 16.754 14.276 16.43 14.21C16.13 14.156 15.86 14.081 15.62 13.985C15.386 13.889 15.185 13.769 15.017 13.625C14.849 13.475 14.72 13.298 14.63 13.094C14.54 12.89 14.495 12.653 14.495 12.383C14.495 12.017 14.591 11.702 14.783 11.438C14.975 11.174 15.236 10.97 15.566 10.826C15.896 10.682 16.268 10.61 16.682 10.61C17.06 10.61 17.414 10.67 17.744 10.79C18.074 10.904 18.341 11.06 18.545 11.258C18.689 11.384 18.761 11.519 18.761 11.663C18.761 11.771 18.716 11.873 18.626 11.969C18.542 12.059 18.443 12.104 18.329 12.104C18.245 12.104 18.173 12.08 18.113 12.032C18.017 11.93 17.888 11.84 17.726 11.762C17.564 11.678 17.39 11.609 17.204 11.555C17.024 11.501 16.85 11.474 16.682 11.474C16.412 11.474 16.181 11.513 15.989 11.591C15.797 11.663 15.65 11.765 15.548 11.897C15.446 12.023 15.395 12.173 15.395 12.347C15.395 12.551 15.452 12.719 15.566 12.851C15.686 12.983 15.851 13.091 16.061 13.175C16.271 13.253 16.511 13.325 16.781 13.391C17.111 13.463 17.405 13.544 17.663 13.634C17.927 13.724 18.149 13.841 18.329 13.985C18.509 14.123 18.647 14.297 18.743 14.507C18.839 14.717 18.887 14.978 18.887 15.29C18.887 15.65 18.785 15.965 18.581 16.235C18.377 16.505 18.107 16.715 17.771 16.865C17.441 17.015 17.072 17.09 16.664 17.09ZM22.0996 17.09C21.6016 17.09 21.1696 16.988 20.8036 16.784C20.4376 16.574 20.1526 16.289 19.9486 15.929C19.7506 15.563 19.6516 15.146 19.6516 14.678C19.6516 14.15 19.7566 13.7 19.9666 13.328C20.1826 12.95 20.4616 12.662 20.8036 12.464C21.1456 12.26 21.5086 12.158 21.8926 12.158C22.1866 12.158 22.4656 12.218 22.7296 12.338C22.9936 12.452 23.2276 12.614 23.4316 12.824C23.6416 13.028 23.8066 13.271 23.9266 13.553C24.0466 13.829 24.1096 14.132 24.1156 14.462C24.1096 14.582 24.0616 14.681 23.9716 14.759C23.8816 14.837 23.7766 14.876 23.6566 14.876H20.1556L19.9396 14.111H23.3236L23.1526 14.273V14.048C23.1406 13.838 23.0716 13.655 22.9456 13.499C22.8196 13.337 22.6636 13.214 22.4776 13.13C22.2916 13.04 22.0966 12.995 21.8926 12.995C21.7126 12.995 21.5386 13.025 21.3706 13.085C21.2086 13.139 21.0616 13.229 20.9296 13.355C20.8036 13.481 20.7016 13.649 20.6236 13.859C20.5516 14.063 20.5156 14.318 20.5156 14.624C20.5156 14.954 20.5846 15.242 20.7226 15.488C20.8606 15.734 21.0466 15.926 21.2806 16.064C21.5146 16.196 21.7726 16.262 22.0546 16.262C22.2766 16.262 22.4596 16.241 22.6036 16.199C22.7476 16.151 22.8676 16.094 22.9636 16.028C23.0596 15.962 23.1436 15.899 23.2156 15.839C23.3056 15.785 23.3956 15.758 23.4856 15.758C23.5936 15.758 23.6836 15.797 23.7556 15.875C23.8276 15.947 23.8636 16.034 23.8636 16.136C23.8636 16.268 23.7976 16.388 23.6656 16.496C23.5036 16.652 23.2786 16.79 22.9906 16.91C22.7086 17.03 22.4116 17.09 22.0996 17.09ZM26.1049 16.541C26.1049 16.673 26.0599 16.784 25.9699 16.874C25.8859 16.958 25.7809 17 25.6549 17C25.5289 17 25.4209 16.958 25.3309 16.874C25.2469 16.784 25.2049 16.673 25.2049 16.541V10.799C25.2049 10.667 25.2499 10.559 25.3399 10.475C25.4299 10.385 25.5379 10.34 25.6639 10.34C25.7959 10.34 25.9009 10.385 25.9789 10.475C26.0629 10.559 26.1049 10.667 26.1049 10.799V16.541ZM29.6495 10.349C29.7635 10.349 29.8805 10.364 30.0005 10.394C30.1205 10.424 30.2195 10.475 30.2975 10.547C30.3815 10.613 30.4235 10.706 30.4235 10.826C30.4235 10.946 30.3875 11.045 30.3155 11.123C30.2435 11.195 30.1595 11.231 30.0635 11.231C30.0035 11.231 29.9225 11.219 29.8205 11.195C29.7185 11.165 29.6165 11.15 29.5145 11.15C29.3765 11.15 29.2655 11.183 29.1815 11.249C29.0975 11.309 29.0375 11.387 29.0015 11.483C28.9655 11.573 28.9475 11.663 28.9475 11.753V16.541C28.9475 16.673 28.9025 16.784 28.8125 16.874C28.7285 16.958 28.6235 17 28.4975 17C28.3655 17 28.2575 16.958 28.1735 16.874C28.0895 16.784 28.0475 16.673 28.0475 16.541V11.762C28.0475 11.348 28.1825 11.009 28.4525 10.745C28.7285 10.481 29.1275 10.349 29.6495 10.349ZM29.8295 12.347C29.9495 12.347 30.0485 12.386 30.1265 12.464C30.2045 12.542 30.2435 12.641 30.2435 12.761C30.2435 12.881 30.2045 12.98 30.1265 13.058C30.0485 13.136 29.9495 13.175 29.8295 13.175H27.4985C27.3845 13.175 27.2855 13.136 27.2015 13.058C27.1235 12.98 27.0845 12.881 27.0845 12.761C27.0845 12.641 27.1235 12.542 27.2015 12.464C27.2855 12.386 27.3845 12.347 27.4985 12.347H29.8295ZM38.2215 11.06C38.3535 11.126 38.4285 11.228 38.4465 11.366C38.4705 11.504 38.4375 11.63 38.3475 11.744C38.2815 11.834 38.1945 11.885 38.0865 11.897C37.9845 11.909 37.8825 11.888 37.7805 11.834C37.6065 11.744 37.4235 11.672 37.2315 11.618C37.0395 11.564 36.8355 11.537 36.6195 11.537C36.2775 11.537 35.9685 11.594 35.6925 11.708C35.4225 11.816 35.1885 11.975 34.9905 12.185C34.7925 12.389 34.6395 12.632 34.5315 12.914C34.4295 13.196 34.3785 13.508 34.3785 13.85C34.3785 14.228 34.4355 14.564 34.5495 14.858C34.6635 15.146 34.8195 15.392 35.0175 15.596C35.2215 15.794 35.4585 15.944 35.7285 16.046C36.0045 16.142 36.3015 16.19 36.6195 16.19C36.8235 16.19 37.0215 16.166 37.2135 16.118C37.4115 16.07 37.5975 15.998 37.7715 15.902C37.8795 15.848 37.9845 15.83 38.0865 15.848C38.1945 15.86 38.2815 15.911 38.3475 16.001C38.4495 16.127 38.4855 16.256 38.4555 16.388C38.4315 16.514 38.3565 16.61 38.2305 16.676C38.0805 16.76 37.9155 16.832 37.7355 16.892C37.5555 16.952 37.3725 17 37.1865 17.036C37.0005 17.072 36.8115 17.09 36.6195 17.09C36.1875 17.09 35.7795 17.018 35.3955 16.874C35.0115 16.73 34.6695 16.52 34.3695 16.244C34.0695 15.968 33.8325 15.629 33.6585 15.227C33.4905 14.825 33.4065 14.366 33.4065 13.85C33.4065 13.388 33.4845 12.962 33.6405 12.572C33.8025 12.176 34.0275 11.837 34.3155 11.555C34.6095 11.267 34.9515 11.045 35.3415 10.889C35.7315 10.727 36.1575 10.646 36.6195 10.646C36.9075 10.646 37.1865 10.682 37.4565 10.754C37.7325 10.826 37.9875 10.928 38.2215 11.06ZM41.7562 12.185C42.1702 12.185 42.4912 12.275 42.7192 12.455C42.9472 12.629 43.1062 12.866 43.1962 13.166C43.2922 13.466 43.3402 13.796 43.3402 14.156V16.541C43.3402 16.673 43.2952 16.784 43.2052 16.874C43.1212 16.958 43.0162 17 42.8902 17C42.7582 17 42.6502 16.958 42.5662 16.874C42.4822 16.784 42.4402 16.673 42.4402 16.541V14.156C42.4402 13.946 42.4102 13.754 42.3502 13.58C42.2962 13.406 42.1972 13.268 42.0532 13.166C41.9152 13.064 41.7202 13.013 41.4682 13.013C41.2342 13.013 41.0242 13.064 40.8382 13.166C40.6582 13.268 40.5172 13.406 40.4152 13.58C40.3192 13.754 40.2712 13.946 40.2712 14.156V16.541C40.2712 16.673 40.2262 16.784 40.1362 16.874C40.0522 16.958 39.9472 17 39.8212 17C39.6892 17 39.5812 16.958 39.4972 16.874C39.4132 16.784 39.3712 16.673 39.3712 16.541V10.799C39.3712 10.667 39.4132 10.559 39.4972 10.475C39.5812 10.385 39.6892 10.34 39.8212 10.34C39.9472 10.34 40.0522 10.385 40.1362 10.475C40.2262 10.559 40.2712 10.667 40.2712 10.799V13.256L40.1092 13.346C40.1512 13.214 40.2202 13.079 40.3162 12.941C40.4182 12.803 40.5412 12.677 40.6852 12.563C40.8352 12.449 41.0002 12.359 41.1802 12.293C41.3602 12.221 41.5522 12.185 41.7562 12.185ZM46.7969 17.09C46.2989 17.09 45.8669 16.988 45.5009 16.784C45.1349 16.574 44.8499 16.289 44.6459 15.929C44.4479 15.563 44.3489 15.146 44.3489 14.678C44.3489 14.15 44.4539 13.7 44.6639 13.328C44.8799 12.95 45.1589 12.662 45.5009 12.464C45.8429 12.26 46.2059 12.158 46.5899 12.158C46.8839 12.158 47.1629 12.218 47.4269 12.338C47.6909 12.452 47.9249 12.614 48.1289 12.824C48.3389 13.028 48.5039 13.271 48.6239 13.553C48.7439 13.829 48.8069 14.132 48.8129 14.462C48.8069 14.582 48.7589 14.681 48.6689 14.759C48.5789 14.837 48.4739 14.876 48.3539 14.876H44.8529L44.6369 14.111H48.0209L47.8499 14.273V14.048C47.8379 13.838 47.7689 13.655 47.6429 13.499C47.5169 13.337 47.3609 13.214 47.1749 13.13C46.9889 13.04 46.7939 12.995 46.5899 12.995C46.4099 12.995 46.2359 13.025 46.0679 13.085C45.9059 13.139 45.7589 13.229 45.6269 13.355C45.5009 13.481 45.3989 13.649 45.3209 13.859C45.2489 14.063 45.2129 14.318 45.2129 14.624C45.2129 14.954 45.2819 15.242 45.4199 15.488C45.5579 15.734 45.7439 15.926 45.9779 16.064C46.2119 16.196 46.4699 16.262 46.7519 16.262C46.9739 16.262 47.1569 16.241 47.3009 16.199C47.4449 16.151 47.5649 16.094 47.6609 16.028C47.7569 15.962 47.8409 15.899 47.9129 15.839C48.0029 15.785 48.0929 15.758 48.1829 15.758C48.2909 15.758 48.3809 15.797 48.4529 15.875C48.5249 15.947 48.5609 16.034 48.5609 16.136C48.5609 16.268 48.4949 16.388 48.3629 16.496C48.2009 16.652 47.9759 16.79 47.6879 16.91C47.4059 17.03 47.1089 17.09 46.7969 17.09ZM51.9272 12.158C52.2512 12.158 52.5392 12.194 52.7912 12.266C53.0432 12.332 53.2382 12.428 53.3762 12.554C53.5202 12.674 53.5922 12.815 53.5922 12.977C53.5922 13.079 53.5622 13.175 53.5022 13.265C53.4422 13.349 53.3522 13.391 53.2322 13.391C53.1482 13.391 53.0762 13.376 53.0162 13.346C52.9622 13.316 52.9112 13.28 52.8632 13.238C52.8152 13.196 52.7552 13.154 52.6832 13.112C52.6172 13.076 52.5182 13.046 52.3862 13.022C52.2602 12.998 52.1462 12.986 52.0442 12.986C51.7262 12.986 51.4502 13.058 51.2162 13.202C50.9882 13.346 50.8082 13.541 50.6762 13.787C50.5502 14.033 50.4872 14.312 50.4872 14.624C50.4872 14.936 50.5502 15.215 50.6762 15.461C50.8082 15.707 50.9852 15.902 51.2072 16.046C51.4352 16.19 51.6992 16.262 51.9992 16.262C52.1792 16.262 52.3262 16.25 52.4402 16.226C52.5542 16.196 52.6532 16.16 52.7372 16.118C52.8272 16.064 52.9022 16.01 52.9622 15.956C53.0282 15.896 53.1182 15.866 53.2322 15.866C53.3642 15.866 53.4632 15.908 53.5292 15.992C53.6012 16.07 53.6372 16.169 53.6372 16.289C53.6372 16.421 53.5562 16.55 53.3942 16.676C53.2382 16.796 53.0282 16.895 52.7642 16.973C52.5002 17.051 52.2092 17.09 51.8912 17.09C51.4232 17.09 51.0152 16.982 50.6672 16.766C50.3252 16.55 50.0582 16.256 49.8662 15.884C49.6802 15.512 49.5872 15.092 49.5872 14.624C49.5872 14.15 49.6862 13.73 49.8842 13.364C50.0822 12.992 50.3582 12.698 50.7122 12.482C51.0662 12.266 51.4712 12.158 51.9272 12.158ZM55.0192 17C54.8932 17 54.7852 16.958 54.6952 16.874C54.6112 16.784 54.5692 16.673 54.5692 16.541V10.799C54.5692 10.667 54.6112 10.559 54.6952 10.475C54.7852 10.385 54.8932 10.34 55.0192 10.34C55.1512 10.34 55.2592 10.385 55.3432 10.475C55.4272 10.559 55.4692 10.667 55.4692 10.799V16.541C55.4692 16.673 55.4272 16.784 55.3432 16.874C55.2592 16.958 55.1512 17 55.0192 17ZM57.9532 12.248C58.0672 12.248 58.1662 12.296 58.2502 12.392C58.3342 12.488 58.3762 12.584 58.3762 12.68C58.3762 12.8 58.3192 12.911 58.2052 13.013L55.3882 15.533L55.3522 14.498L57.6202 12.392C57.7162 12.296 57.8272 12.248 57.9532 12.248ZM58.0612 16.991C57.9352 16.991 57.8272 16.94 57.7372 16.838L55.9372 14.939L56.6212 14.309L58.3762 16.208C58.4722 16.31 58.5202 16.424 58.5202 16.55C58.5202 16.682 58.4662 16.79 58.3582 16.874C58.2562 16.952 58.1572 16.991 58.0612 16.991ZM60.5597 16.541C60.5537 16.673 60.5027 16.784 60.4067 16.874C60.3167 16.958 60.2087 17 60.0827 17C59.9447 17 59.8307 16.958 59.7407 16.874C59.6567 16.784 59.6147 16.673 59.6147 16.541V11.159C59.6147 11.027 59.6597 10.919 59.7497 10.835C59.8397 10.745 59.9567 10.7 60.1007 10.7C60.2207 10.7 60.3257 10.745 60.4157 10.835C60.5117 10.919 60.5597 11.027 60.5597 11.159V16.541ZM64.3542 12.158C64.7802 12.158 65.1102 12.248 65.3442 12.428C65.5782 12.602 65.7402 12.839 65.8302 13.139C65.9262 13.433 65.9742 13.763 65.9742 14.129V16.541C65.9742 16.673 65.9292 16.784 65.8392 16.874C65.7552 16.958 65.6502 17 65.5242 17C65.3922 17 65.2842 16.958 65.2002 16.874C65.1162 16.784 65.0742 16.673 65.0742 16.541V14.138C65.0742 13.922 65.0442 13.73 64.9842 13.562C64.9242 13.388 64.8192 13.25 64.6692 13.148C64.5252 13.04 64.3212 12.986 64.0572 12.986C63.8112 12.986 63.5952 13.04 63.4092 13.148C63.2232 13.25 63.0762 13.388 62.9682 13.562C62.8662 13.73 62.8152 13.922 62.8152 14.138V16.541C62.8152 16.673 62.7702 16.784 62.6802 16.874C62.5962 16.958 62.4912 17 62.3652 17C62.2332 17 62.1252 16.958 62.0412 16.874C61.9572 16.784 61.9152 16.673 61.9152 16.541V12.725C61.9152 12.593 61.9572 12.485 62.0412 12.401C62.1252 12.311 62.2332 12.266 62.3652 12.266C62.4912 12.266 62.5962 12.311 62.6802 12.401C62.7702 12.485 62.8152 12.593 62.8152 12.725V13.229L62.6532 13.319C62.6952 13.187 62.7672 13.055 62.8692 12.923C62.9772 12.785 63.1062 12.659 63.2562 12.545C63.4062 12.425 63.5742 12.332 63.7602 12.266C63.9462 12.194 64.1442 12.158 64.3542 12.158Z" fill="#161117"/>
</svg>
