<svg width="319" height="46" viewBox="0 0 319 46" fill="none" xmlns="http://www.w3.org/2000/svg">
<rect x="0.5" y="0.5" width="318" height="45" rx="14.5" fill="white"/>
<rect x="0.5" y="0.5" width="318" height="45" rx="14.5" stroke="#AEAEAE"/>
<path d="M102.114 28.6409C101.419 28.6409 100.809 28.5376 100.283 28.3309C99.7566 28.1243 99.2493 27.7955 98.7609 27.3446C98.6951 27.2789 98.6387 27.2084 98.5918 27.1333C98.5542 27.0487 98.5354 26.9595 98.5354 26.8656C98.5354 26.7153 98.5871 26.5838 98.6904 26.471C98.8031 26.3489 98.9393 26.2879 99.099 26.2879C99.2305 26.2879 99.3479 26.3395 99.4513 26.4429C99.8176 26.7998 100.212 27.0722 100.635 27.2601C101.067 27.4479 101.551 27.5419 102.086 27.5419C102.499 27.5419 102.87 27.4761 103.199 27.3446C103.537 27.2131 103.805 27.0299 104.002 26.7951C104.2 26.5603 104.298 26.2879 104.298 25.9779C104.289 25.6022 104.176 25.2922 103.96 25.0479C103.753 24.8037 103.462 24.6018 103.086 24.4421C102.72 24.273 102.293 24.1321 101.804 24.0194C101.372 23.9161 100.973 23.7892 100.607 23.6389C100.25 23.4887 99.9397 23.3055 99.6767 23.0894C99.4137 22.864 99.207 22.5963 99.0568 22.2863C98.9159 21.9669 98.8454 21.5959 98.8454 21.1732C98.8454 20.6378 98.9863 20.1681 99.2681 19.7642C99.5499 19.3603 99.9397 19.0503 100.438 18.8343C100.935 18.6088 101.508 18.4961 102.157 18.4961C102.73 18.4961 103.27 18.59 103.777 18.7779C104.294 18.9658 104.707 19.2241 105.017 19.5528C105.205 19.7313 105.299 19.9051 105.299 20.0742C105.299 20.2151 105.238 20.3466 105.115 20.4687C105.003 20.5814 104.871 20.6378 104.721 20.6378C104.618 20.6378 104.524 20.6002 104.439 20.5251C104.279 20.3466 104.077 20.1869 103.833 20.046C103.589 19.9051 103.321 19.7924 103.03 19.7078C102.739 19.6233 102.448 19.581 102.157 19.581C101.724 19.581 101.344 19.6468 101.015 19.7783C100.686 19.9004 100.428 20.0789 100.24 20.3137C100.062 20.5391 99.9726 20.8116 99.9726 21.1309C99.9726 21.4879 100.076 21.7838 100.283 22.0186C100.489 22.244 100.766 22.4319 101.114 22.5822C101.461 22.7231 101.847 22.8499 102.269 22.9626C102.73 23.0753 103.152 23.2069 103.537 23.3571C103.932 23.498 104.27 23.6765 104.552 23.8926C104.834 24.1086 105.05 24.3857 105.2 24.7239C105.36 25.0526 105.44 25.4613 105.44 25.9497C105.44 26.4663 105.294 26.9266 105.003 27.3305C104.712 27.7344 104.312 28.0538 103.805 28.2886C103.307 28.5141 102.744 28.6315 102.114 28.6409ZM110.656 21.1027C111.276 21.1027 111.764 21.239 112.121 21.5114C112.488 21.7744 112.746 22.1313 112.896 22.5822C113.056 23.0237 113.136 23.5168 113.136 24.0616V27.9223C113.136 28.082 113.079 28.2182 112.967 28.3309C112.863 28.4436 112.732 28.5 112.572 28.5C112.412 28.5 112.276 28.4436 112.164 28.3309C112.06 28.2182 112.009 28.082 112.009 27.9223V24.0616C112.009 23.7047 111.957 23.3853 111.854 23.1035C111.75 22.8123 111.576 22.5822 111.332 22.4131C111.097 22.2346 110.773 22.1454 110.36 22.1454C109.975 22.1454 109.623 22.2346 109.303 22.4131C108.984 22.5822 108.73 22.8123 108.542 23.1035C108.355 23.3853 108.261 23.7047 108.261 24.0616V27.9223C108.261 28.082 108.204 28.2182 108.092 28.3309C107.988 28.4436 107.857 28.5 107.697 28.5C107.537 28.5 107.401 28.4436 107.288 28.3309C107.185 28.2182 107.133 28.082 107.133 27.9223V18.637C107.133 18.4773 107.185 18.3458 107.288 18.2425C107.401 18.1298 107.537 18.0734 107.697 18.0734C107.866 18.0734 108.002 18.1298 108.106 18.2425C108.209 18.3458 108.261 18.4773 108.261 18.637V22.8499L107.979 23.1599C108.026 22.9157 108.129 22.6714 108.289 22.4272C108.448 22.1736 108.65 21.9481 108.895 21.7509C109.139 21.5536 109.411 21.3986 109.712 21.2859C110.012 21.1638 110.327 21.1027 110.656 21.1027ZM122.142 24.8366C122.142 25.5693 121.978 26.2221 121.649 26.7951C121.33 27.3681 120.893 27.819 120.339 28.1477C119.794 28.4765 119.179 28.6409 118.493 28.6409C117.807 28.6409 117.187 28.4765 116.633 28.1477C116.079 27.819 115.637 27.3681 115.309 26.7951C114.989 26.2221 114.83 25.5693 114.83 24.8366C114.83 24.1039 114.989 23.4511 115.309 22.8781C115.637 22.3051 116.079 21.8542 116.633 21.5254C117.187 21.1967 117.807 21.0323 118.493 21.0323C119.179 21.0323 119.794 21.1967 120.339 21.5254C120.893 21.8542 121.33 22.3051 121.649 22.8781C121.978 23.4511 122.142 24.1039 122.142 24.8366ZM121.015 24.8366C121.015 24.2918 120.902 23.8127 120.677 23.3994C120.461 22.9861 120.16 22.662 119.775 22.4272C119.399 22.1924 118.972 22.075 118.493 22.075C118.014 22.075 117.582 22.1924 117.197 22.4272C116.821 22.662 116.52 22.9861 116.295 23.3994C116.07 23.8127 115.957 24.2918 115.957 24.8366C115.957 25.372 116.07 25.8464 116.295 26.2597C116.52 26.673 116.821 27.0018 117.197 27.246C117.582 27.4808 118.014 27.5982 118.493 27.5982C118.972 27.5982 119.399 27.4808 119.775 27.246C120.16 27.0018 120.461 26.673 120.677 26.2597C120.902 25.8464 121.015 25.372 121.015 24.8366ZM132.433 21.0887C132.583 21.0887 132.71 21.1403 132.813 21.2436C132.926 21.347 132.982 21.4832 132.982 21.6523C132.982 21.6898 132.977 21.7321 132.968 21.7791C132.968 21.8166 132.959 21.8542 132.94 21.8918L130.77 28.1337C130.723 28.2558 130.643 28.3497 130.531 28.4155C130.427 28.4812 130.314 28.5094 130.192 28.5C129.976 28.4906 129.812 28.3685 129.699 28.1337L127.924 23.6812L128.206 23.7235L126.599 28.1337C126.496 28.3685 126.332 28.4906 126.106 28.5C125.984 28.5094 125.867 28.4812 125.754 28.4155C125.641 28.3497 125.566 28.2558 125.529 28.1337L123.316 21.8918C123.288 21.8072 123.274 21.7274 123.274 21.6523C123.274 21.502 123.326 21.3705 123.429 21.2577C123.532 21.145 123.673 21.0887 123.852 21.0887C123.965 21.0887 124.068 21.1168 124.162 21.1732C124.256 21.2296 124.322 21.3188 124.359 21.4409L126.261 26.9924L125.965 26.9783L127.614 22.7513C127.708 22.5164 127.882 22.399 128.135 22.399C128.267 22.399 128.37 22.4319 128.445 22.4977C128.53 22.554 128.591 22.6386 128.628 22.7513L130.347 26.9783L129.995 27.0065L131.897 21.4409C131.982 21.2061 132.16 21.0887 132.433 21.0887ZM144.384 21.145C144.544 21.145 144.675 21.2014 144.779 21.3141C144.891 21.4174 144.948 21.5489 144.948 21.7086V27.9223C144.948 28.082 144.891 28.2182 144.779 28.3309C144.675 28.4436 144.544 28.5 144.384 28.5C144.215 28.5 144.079 28.4436 143.976 28.3309C143.872 28.2182 143.821 28.082 143.821 27.9223V26.5838L144.088 26.5556C144.088 26.7622 144.018 26.9877 143.877 27.2319C143.736 27.4761 143.543 27.7063 143.299 27.9223C143.055 28.129 142.764 28.3027 142.426 28.4436C142.097 28.5751 141.74 28.6409 141.355 28.6409C140.716 28.6409 140.143 28.4765 139.636 28.1477C139.129 27.8096 138.725 27.354 138.424 26.781C138.133 26.208 137.987 25.5552 137.987 24.8225C137.987 24.0804 138.133 23.4276 138.424 22.864C138.725 22.291 139.129 21.8448 139.636 21.5254C140.143 21.1967 140.707 21.0323 141.327 21.0323C141.731 21.0323 142.106 21.0981 142.454 21.2296C142.801 21.3611 143.102 21.5395 143.356 21.765C143.619 21.9904 143.821 22.2393 143.961 22.5117C144.112 22.7842 144.187 23.0566 144.187 23.329L143.821 23.2444V21.7086C143.821 21.5489 143.872 21.4174 143.976 21.3141C144.079 21.2014 144.215 21.145 144.384 21.145ZM141.482 27.5982C141.951 27.5982 142.365 27.4761 142.722 27.2319C143.088 26.9877 143.37 26.6589 143.567 26.2456C143.774 25.8229 143.877 25.3485 143.877 24.8225C143.877 24.3059 143.774 23.8409 143.567 23.4276C143.37 23.0049 143.088 22.6761 142.722 22.4413C142.365 22.1971 141.951 22.075 141.482 22.075C141.021 22.075 140.608 22.1924 140.242 22.4272C139.885 22.662 139.603 22.9861 139.396 23.3994C139.19 23.8127 139.086 24.2871 139.086 24.8225C139.086 25.3485 139.185 25.8229 139.382 26.2456C139.589 26.6589 139.871 26.9877 140.228 27.2319C140.594 27.4761 141.012 27.5982 141.482 27.5982ZM148.277 27.9223C148.277 28.082 148.22 28.2182 148.108 28.3309C147.995 28.4436 147.859 28.5 147.699 28.5C147.539 28.5 147.408 28.4436 147.304 28.3309C147.201 28.2182 147.149 28.082 147.149 27.9223V18.637C147.149 18.4773 147.201 18.3458 147.304 18.2425C147.417 18.1298 147.553 18.0734 147.713 18.0734C147.882 18.0734 148.018 18.1298 148.122 18.2425C148.225 18.3458 148.277 18.4773 148.277 18.637V27.9223ZM151.703 27.9223C151.703 28.082 151.646 28.2182 151.534 28.3309C151.421 28.4436 151.285 28.5 151.125 28.5C150.965 28.5 150.834 28.4436 150.731 28.3309C150.627 28.2182 150.576 28.082 150.576 27.9223V18.637C150.576 18.4773 150.627 18.3458 150.731 18.2425C150.843 18.1298 150.98 18.0734 151.139 18.0734C151.308 18.0734 151.445 18.1298 151.548 18.2425C151.651 18.3458 151.703 18.4773 151.703 18.637V27.9223ZM163.772 21.145C163.931 21.145 164.063 21.2014 164.166 21.3141C164.279 21.4174 164.335 21.5489 164.335 21.7086V27.9223C164.335 28.082 164.279 28.2182 164.166 28.3309C164.063 28.4436 163.931 28.5 163.772 28.5C163.603 28.5 163.466 28.4436 163.363 28.3309C163.26 28.2182 163.208 28.082 163.208 27.9223V26.5838L163.476 26.5556C163.476 26.7622 163.405 26.9877 163.264 27.2319C163.124 27.4761 162.931 27.7063 162.687 27.9223C162.443 28.129 162.151 28.3027 161.813 28.4436C161.484 28.5751 161.127 28.6409 160.742 28.6409C160.104 28.6409 159.531 28.4765 159.023 28.1477C158.516 27.8096 158.112 27.354 157.812 26.781C157.52 26.208 157.375 25.5552 157.375 24.8225C157.375 24.0804 157.52 23.4276 157.812 22.864C158.112 22.291 158.516 21.8448 159.023 21.5254C159.531 21.1967 160.094 21.0323 160.714 21.0323C161.118 21.0323 161.494 21.0981 161.841 21.2296C162.189 21.3611 162.489 21.5395 162.743 21.765C163.006 21.9904 163.208 22.2393 163.349 22.5117C163.499 22.7842 163.574 23.0566 163.574 23.329L163.208 23.2444V21.7086C163.208 21.5489 163.26 21.4174 163.363 21.3141C163.466 21.2014 163.603 21.145 163.772 21.145ZM160.869 27.5982C161.339 27.5982 161.752 27.4761 162.109 27.2319C162.475 26.9877 162.757 26.6589 162.954 26.2456C163.161 25.8229 163.264 25.3485 163.264 24.8225C163.264 24.3059 163.161 23.8409 162.954 23.4276C162.757 23.0049 162.475 22.6761 162.109 22.4413C161.752 22.1971 161.339 22.075 160.869 22.075C160.409 22.075 159.996 22.1924 159.629 22.4272C159.272 22.662 158.99 22.9861 158.784 23.3994C158.577 23.8127 158.474 24.2871 158.474 24.8225C158.474 25.3485 158.572 25.8229 158.77 26.2456C158.976 26.6589 159.258 26.9877 159.615 27.2319C159.981 27.4761 160.399 27.5982 160.869 27.5982ZM169.904 21.1027C170.543 21.1027 171.06 21.2671 171.454 21.5959C171.858 21.9153 172.126 22.3708 172.257 22.9626H172.046L172.145 22.709C172.257 22.446 172.45 22.1924 172.722 21.9481C172.995 21.7039 173.31 21.502 173.666 21.3423C174.023 21.1826 174.394 21.1027 174.78 21.1027C175.4 21.1027 175.888 21.239 176.245 21.5114C176.602 21.7744 176.856 22.1313 177.006 22.5822C177.166 23.0237 177.245 23.5215 177.245 24.0757V27.9223C177.245 28.082 177.189 28.2182 177.076 28.3309C176.973 28.4436 176.841 28.5 176.682 28.5C176.513 28.5 176.376 28.4436 176.273 28.3309C176.17 28.2182 176.118 28.082 176.118 27.9223V24.1039C176.118 23.7376 176.062 23.4088 175.949 23.1176C175.846 22.817 175.672 22.5822 175.428 22.4131C175.193 22.2346 174.869 22.1454 174.456 22.1454C174.07 22.1454 173.718 22.2346 173.399 22.4131C173.079 22.5822 172.826 22.817 172.638 23.1176C172.45 23.4088 172.356 23.7376 172.356 24.1039V27.9223C172.356 28.082 172.304 28.2182 172.201 28.3309C172.098 28.4436 171.962 28.5 171.793 28.5C171.633 28.5 171.497 28.4436 171.384 28.3309C171.281 28.2182 171.229 28.082 171.229 27.9223V24.0616C171.229 23.7047 171.177 23.3853 171.074 23.1035C170.98 22.8123 170.816 22.5822 170.581 22.4131C170.346 22.2346 170.022 22.1454 169.609 22.1454C169.233 22.1454 168.89 22.2346 168.58 22.4131C168.27 22.5822 168.021 22.8123 167.833 23.1035C167.645 23.3853 167.551 23.7047 167.551 24.0616V27.9223C167.551 28.082 167.495 28.2182 167.382 28.3309C167.279 28.4436 167.148 28.5 166.988 28.5C166.828 28.5 166.692 28.4436 166.579 28.3309C166.476 28.2182 166.424 28.082 166.424 27.9223V21.7791C166.424 21.6194 166.476 21.4879 166.579 21.3845C166.692 21.2718 166.828 21.2155 166.988 21.2155C167.157 21.2155 167.293 21.2718 167.396 21.3845C167.5 21.4879 167.551 21.6194 167.551 21.7791V22.8499L167.241 23.1881C167.279 22.9438 167.373 22.6996 167.523 22.4554C167.683 22.2112 167.885 21.9857 168.129 21.7791C168.373 21.5724 168.646 21.408 168.946 21.2859C169.247 21.1638 169.566 21.1027 169.904 21.1027ZM182.698 28.6409C181.947 28.6409 181.289 28.4812 180.726 28.1618C180.162 27.8425 179.721 27.4057 179.401 26.8515C179.091 26.2879 178.936 25.6397 178.936 24.907C178.936 24.0898 179.096 23.3947 179.415 22.8217C179.744 22.2393 180.167 21.7979 180.684 21.4973C181.21 21.1873 181.764 21.0323 182.346 21.0323C182.778 21.0323 183.196 21.1121 183.6 21.2718C184.004 21.4315 184.361 21.6663 184.671 21.9763C184.981 22.2769 185.23 22.6433 185.418 23.0753C185.606 23.498 185.704 23.9724 185.714 24.4984C185.714 24.6487 185.657 24.7755 185.545 24.8789C185.432 24.9822 185.3 25.0339 185.15 25.0339H179.585L179.331 24.0616H184.756L184.53 24.2589V23.9489C184.493 23.5638 184.361 23.235 184.136 22.9626C183.92 22.6808 183.652 22.4648 183.332 22.3145C183.022 22.1642 182.694 22.089 182.346 22.089C182.064 22.089 181.783 22.1407 181.501 22.244C181.228 22.338 180.979 22.4977 180.754 22.7231C180.538 22.9391 180.359 23.2209 180.219 23.5685C180.087 23.9161 180.021 24.3341 180.021 24.8225C180.021 25.3673 180.129 25.8464 180.345 26.2597C180.571 26.673 180.881 27.0018 181.275 27.246C181.67 27.4808 182.13 27.5982 182.656 27.5982C182.985 27.5982 183.271 27.556 183.516 27.4714C183.76 27.3869 183.971 27.2836 184.15 27.1614C184.328 27.0299 184.478 26.8984 184.601 26.7669C184.723 26.6824 184.84 26.6401 184.953 26.6401C185.094 26.6401 185.206 26.6871 185.291 26.781C185.385 26.875 185.432 26.9877 185.432 27.1192C185.432 27.2789 185.357 27.4198 185.206 27.5419C184.943 27.8331 184.586 28.0914 184.136 28.3168C183.685 28.5329 183.206 28.6409 182.698 28.6409ZM191.029 21.0323C191.668 21.0323 192.17 21.1638 192.537 21.4268C192.903 21.6898 193.161 22.0421 193.312 22.4836C193.471 22.9251 193.551 23.4182 193.551 23.963V27.9223C193.551 28.082 193.495 28.2182 193.382 28.3309C193.279 28.4436 193.147 28.5 192.988 28.5C192.828 28.5 192.692 28.4436 192.579 28.3309C192.476 28.2182 192.424 28.082 192.424 27.9223V23.9912C192.424 23.6343 192.368 23.3149 192.255 23.0331C192.152 22.7419 191.973 22.5117 191.719 22.3427C191.475 22.1642 191.137 22.075 190.705 22.075C190.31 22.075 189.949 22.1642 189.62 22.3427C189.291 22.5117 189.028 22.7419 188.831 23.0331C188.634 23.3149 188.535 23.6343 188.535 23.9912V27.9223C188.535 28.082 188.479 28.2182 188.366 28.3309C188.263 28.4436 188.131 28.5 187.971 28.5C187.812 28.5 187.676 28.4436 187.563 28.3309C187.46 28.2182 187.408 28.082 187.408 27.9223V21.7791C187.408 21.6194 187.46 21.4879 187.563 21.3845C187.676 21.2718 187.812 21.2155 187.971 21.2155C188.141 21.2155 188.277 21.2718 188.38 21.3845C188.483 21.4879 188.535 21.6194 188.535 21.7791V22.7795L188.253 23.0894C188.3 22.8452 188.408 22.601 188.577 22.3568C188.746 22.1031 188.958 21.8777 189.211 21.6804C189.465 21.4832 189.747 21.3282 190.057 21.2155C190.367 21.0934 190.691 21.0323 191.029 21.0323ZM196.721 27.9223C196.721 28.082 196.665 28.2182 196.552 28.3309C196.449 28.4436 196.317 28.5 196.158 28.5C195.988 28.5 195.852 28.4436 195.749 28.3309C195.646 28.2182 195.594 28.082 195.594 27.9223V21.6663C195.594 21.5067 195.646 21.3752 195.749 21.2718C195.862 21.1591 195.998 21.1027 196.158 21.1027C196.317 21.1027 196.449 21.1591 196.552 21.2718C196.665 21.3752 196.721 21.5067 196.721 21.6663V27.9223ZM196.158 20.1587C195.923 20.1587 195.749 20.1118 195.636 20.0178C195.523 19.9239 195.467 19.7783 195.467 19.581V19.3838C195.467 19.1865 195.528 19.0409 195.65 18.947C195.772 18.853 195.946 18.8061 196.172 18.8061C196.397 18.8061 196.566 18.853 196.679 18.947C196.792 19.0409 196.848 19.1865 196.848 19.3838V19.581C196.848 19.7783 196.787 19.9239 196.665 20.0178C196.552 20.1118 196.383 20.1587 196.158 20.1587ZM198.464 21.2577H201.775C201.926 21.2577 202.048 21.3094 202.142 21.4127C202.245 21.5161 202.297 21.6382 202.297 21.7791C202.297 21.9294 202.245 22.0562 202.142 22.1595C202.048 22.2534 201.926 22.3004 201.775 22.3004H198.464C198.323 22.3004 198.201 22.2487 198.098 22.1454C197.994 22.0421 197.943 21.9153 197.943 21.765C197.943 21.6241 197.994 21.5067 198.098 21.4127C198.201 21.3094 198.323 21.2577 198.464 21.2577ZM199.944 19.3415C200.103 19.3415 200.235 19.3979 200.338 19.5106C200.441 19.6139 200.493 19.7454 200.493 19.9051V26.7106C200.493 26.936 200.526 27.1051 200.592 27.2178C200.657 27.3305 200.742 27.4104 200.845 27.4573C200.958 27.4949 201.066 27.5137 201.169 27.5137C201.263 27.5137 201.343 27.4996 201.409 27.4714C201.484 27.4339 201.569 27.4151 201.663 27.4151C201.756 27.4151 201.841 27.462 201.916 27.556C202.001 27.6405 202.043 27.7532 202.043 27.8941C202.043 28.0632 201.944 28.2088 201.747 28.3309C201.55 28.4436 201.329 28.5 201.085 28.5C200.953 28.5 200.789 28.4906 200.592 28.4718C200.404 28.453 200.216 28.392 200.028 28.2886C199.84 28.1853 199.681 28.0162 199.549 27.7814C199.427 27.5372 199.366 27.199 199.366 26.7669V19.9051C199.366 19.7454 199.422 19.6139 199.535 19.5106C199.648 19.3979 199.784 19.3415 199.944 19.3415ZM204.949 27.9223C204.949 28.082 204.893 28.2182 204.78 28.3309C204.677 28.4436 204.546 28.5 204.386 28.5C204.217 28.5 204.081 28.4436 203.977 28.3309C203.874 28.2182 203.822 28.082 203.822 27.9223V21.6663C203.822 21.5067 203.874 21.3752 203.977 21.2718C204.09 21.1591 204.226 21.1027 204.386 21.1027C204.546 21.1027 204.677 21.1591 204.78 21.2718C204.893 21.3752 204.949 21.5067 204.949 21.6663V27.9223ZM204.386 20.1587C204.151 20.1587 203.977 20.1118 203.865 20.0178C203.752 19.9239 203.695 19.7783 203.695 19.581V19.3838C203.695 19.1865 203.757 19.0409 203.879 18.947C204.001 18.853 204.175 18.8061 204.4 18.8061C204.625 18.8061 204.794 18.853 204.907 18.947C205.02 19.0409 205.076 19.1865 205.076 19.3838V19.581C205.076 19.7783 205.015 19.9239 204.893 20.0178C204.78 20.1118 204.611 20.1587 204.386 20.1587ZM210.342 28.6409C209.59 28.6409 208.933 28.4812 208.369 28.1618C207.806 27.8425 207.364 27.4057 207.045 26.8515C206.735 26.2879 206.58 25.6397 206.58 24.907C206.58 24.0898 206.739 23.3947 207.059 22.8217C207.388 22.2393 207.81 21.7979 208.327 21.4973C208.853 21.1873 209.407 21.0323 209.99 21.0323C210.422 21.0323 210.84 21.1121 211.244 21.2718C211.647 21.4315 212.004 21.6663 212.314 21.9763C212.624 22.2769 212.873 22.6433 213.061 23.0753C213.249 23.498 213.348 23.9724 213.357 24.4984C213.357 24.6487 213.301 24.7755 213.188 24.8789C213.075 24.9822 212.944 25.0339 212.793 25.0339H207.228L206.974 24.0616H212.399L212.173 24.2589V23.9489C212.136 23.5638 212.004 23.235 211.779 22.9626C211.563 22.6808 211.295 22.4648 210.976 22.3145C210.666 22.1642 210.337 22.089 209.99 22.089C209.708 22.089 209.426 22.1407 209.144 22.244C208.872 22.338 208.623 22.4977 208.397 22.7231C208.181 22.9391 208.003 23.2209 207.862 23.5685C207.73 23.9161 207.665 24.3341 207.665 24.8225C207.665 25.3673 207.773 25.8464 207.989 26.2597C208.214 26.673 208.524 27.0018 208.919 27.246C209.313 27.4808 209.773 27.5982 210.3 27.5982C210.628 27.5982 210.915 27.556 211.159 27.4714C211.403 27.3869 211.615 27.2836 211.793 27.1614C211.972 27.0299 212.122 26.8984 212.244 26.7669C212.366 26.6824 212.483 26.6401 212.596 26.6401C212.737 26.6401 212.85 26.6871 212.934 26.781C213.028 26.875 213.075 26.9877 213.075 27.1192C213.075 27.2789 213 27.4198 212.85 27.5419C212.587 27.8331 212.23 28.0914 211.779 28.3168C211.328 28.5329 210.849 28.6409 210.342 28.6409ZM214.643 27.3446C214.558 27.2225 214.521 27.0957 214.53 26.9642C214.539 26.8233 214.619 26.7012 214.769 26.5978C214.863 26.5321 214.971 26.5039 215.094 26.5133C215.225 26.5227 215.342 26.5838 215.446 26.6965C215.709 27.0065 216.009 27.2554 216.348 27.4432C216.686 27.6217 217.099 27.711 217.587 27.711C217.813 27.7016 218.038 27.664 218.264 27.5982C218.489 27.5325 218.677 27.4198 218.827 27.2601C218.987 27.091 219.067 26.8703 219.067 26.5978C219.067 26.3348 218.987 26.1282 218.827 25.9779C218.668 25.8182 218.461 25.6914 218.207 25.5975C217.954 25.4941 217.677 25.4049 217.376 25.3297C217.066 25.2452 216.761 25.1513 216.46 25.0479C216.16 24.9352 215.887 24.799 215.643 24.6393C215.408 24.4703 215.216 24.2636 215.065 24.0194C214.924 23.7658 214.854 23.4605 214.854 23.1035C214.854 22.6808 214.967 22.3145 215.192 22.0045C215.427 21.6945 215.737 21.455 216.122 21.2859C216.517 21.1168 216.944 21.0323 217.404 21.0323C217.667 21.0323 217.94 21.0652 218.221 21.1309C218.513 21.1873 218.794 21.2906 219.067 21.4409C219.339 21.5818 219.579 21.7791 219.785 22.0327C219.87 22.1266 219.917 22.244 219.926 22.3849C219.936 22.5258 219.875 22.6526 219.743 22.7654C219.64 22.8405 219.522 22.8734 219.391 22.864C219.269 22.8546 219.166 22.8076 219.081 22.7231C218.884 22.4883 218.635 22.3098 218.334 22.1877C218.043 22.0562 217.719 21.9904 217.362 21.9904C217.137 21.9904 216.916 22.0233 216.7 22.089C216.484 22.1548 216.301 22.2675 216.15 22.4272C216.009 22.5775 215.939 22.7889 215.939 23.0613C215.948 23.3149 216.033 23.5215 216.193 23.6812C216.352 23.8409 216.568 23.9724 216.841 24.0757C217.113 24.1697 217.414 24.2636 217.742 24.3575C218.043 24.4327 218.33 24.5219 218.602 24.6252C218.884 24.7192 219.137 24.846 219.363 25.0057C219.588 25.1654 219.767 25.372 219.898 25.6256C220.03 25.8699 220.095 26.1798 220.095 26.5556C220.095 26.9877 219.973 27.3634 219.729 27.6828C219.485 27.9928 219.161 28.2323 218.757 28.4014C218.362 28.5611 217.935 28.6409 217.475 28.6409C216.958 28.6409 216.446 28.5423 215.939 28.345C215.441 28.1477 215.009 27.8143 214.643 27.3446Z" fill="black"/>
</svg>
