<svg width="76" height="27" viewBox="0 0 76 27" fill="none" xmlns="http://www.w3.org/2000/svg">
<rect width="76" height="27" rx="13.5" fill="#161117"/>
<path d="M16.628 17.09C16.184 17.09 15.794 17.024 15.458 16.892C15.122 16.76 14.798 16.55 14.486 16.262C14.444 16.22 14.408 16.175 14.378 16.127C14.354 16.073 14.342 16.016 14.342 15.956C14.342 15.86 14.375 15.776 14.441 15.704C14.513 15.626 14.6 15.587 14.702 15.587C14.786 15.587 14.861 15.62 14.927 15.686C15.161 15.914 15.413 16.088 15.683 16.208C15.959 16.328 16.268 16.388 16.61 16.388C16.874 16.388 17.111 16.346 17.321 16.262C17.537 16.178 17.708 16.061 17.834 15.911C17.96 15.761 18.023 15.587 18.023 15.389C18.017 15.149 17.945 14.951 17.807 14.795C17.675 14.639 17.489 14.51 17.249 14.408C17.015 14.3 16.742 14.21 16.43 14.138C16.154 14.072 15.899 13.991 15.665 13.895C15.437 13.799 15.239 13.682 15.071 13.544C14.903 13.4 14.771 13.229 14.675 13.031C14.585 12.827 14.54 12.59 14.54 12.32C14.54 11.978 14.63 11.678 14.81 11.42C14.99 11.162 15.239 10.964 15.557 10.826C15.875 10.682 16.241 10.61 16.655 10.61C17.021 10.61 17.366 10.67 17.69 10.79C18.02 10.91 18.284 11.075 18.482 11.285C18.602 11.399 18.662 11.51 18.662 11.618C18.662 11.708 18.623 11.792 18.545 11.87C18.473 11.942 18.389 11.978 18.293 11.978C18.227 11.978 18.167 11.954 18.113 11.906C18.011 11.792 17.882 11.69 17.726 11.6C17.57 11.51 17.399 11.438 17.213 11.384C17.027 11.33 16.841 11.303 16.655 11.303C16.379 11.303 16.136 11.345 15.926 11.429C15.716 11.507 15.551 11.621 15.431 11.771C15.317 11.915 15.26 12.089 15.26 12.293C15.26 12.521 15.326 12.71 15.458 12.86C15.59 13.004 15.767 13.124 15.989 13.22C16.211 13.31 16.457 13.391 16.727 13.463C17.021 13.535 17.291 13.619 17.537 13.715C17.789 13.805 18.005 13.919 18.185 14.057C18.365 14.195 18.503 14.372 18.599 14.588C18.701 14.798 18.752 15.059 18.752 15.371C18.752 15.701 18.659 15.995 18.473 16.253C18.287 16.511 18.032 16.715 17.708 16.865C17.39 17.009 17.03 17.084 16.628 17.09ZM22.084 12.275C22.48 12.275 22.792 12.362 23.02 12.536C23.254 12.704 23.419 12.932 23.515 13.22C23.617 13.502 23.668 13.817 23.668 14.165V16.631C23.668 16.733 23.632 16.82 23.56 16.892C23.494 16.964 23.41 17 23.308 17C23.206 17 23.119 16.964 23.047 16.892C22.981 16.82 22.948 16.733 22.948 16.631V14.165C22.948 13.937 22.915 13.733 22.849 13.553C22.783 13.367 22.672 13.22 22.516 13.112C22.366 12.998 22.159 12.941 21.895 12.941C21.649 12.941 21.424 12.998 21.22 13.112C21.016 13.22 20.854 13.367 20.734 13.553C20.614 13.733 20.554 13.937 20.554 14.165V16.631C20.554 16.733 20.518 16.82 20.446 16.892C20.38 16.964 20.296 17 20.194 17C20.092 17 20.005 16.964 19.933 16.892C19.867 16.82 19.834 16.733 19.834 16.631V10.7C19.834 10.598 19.867 10.514 19.933 10.448C20.005 10.376 20.092 10.34 20.194 10.34C20.302 10.34 20.389 10.376 20.455 10.448C20.521 10.514 20.554 10.598 20.554 10.7V13.391L20.374 13.589C20.404 13.433 20.47 13.277 20.572 13.121C20.674 12.959 20.803 12.815 20.959 12.689C21.115 12.563 21.289 12.464 21.481 12.392C21.673 12.314 21.874 12.275 22.084 12.275ZM29.4209 14.66C29.4209 15.128 29.3159 15.545 29.1059 15.911C28.9019 16.277 28.6229 16.565 28.2689 16.775C27.9209 16.985 27.5279 17.09 27.0899 17.09C26.6519 17.09 26.2559 16.985 25.9019 16.775C25.5479 16.565 25.2659 16.277 25.0559 15.911C24.8519 15.545 24.7499 15.128 24.7499 14.66C24.7499 14.192 24.8519 13.775 25.0559 13.409C25.2659 13.043 25.5479 12.755 25.9019 12.545C26.2559 12.335 26.6519 12.23 27.0899 12.23C27.5279 12.23 27.9209 12.335 28.2689 12.545C28.6229 12.755 28.9019 13.043 29.1059 13.409C29.3159 13.775 29.4209 14.192 29.4209 14.66ZM28.7009 14.66C28.7009 14.312 28.6289 14.006 28.4849 13.742C28.3469 13.478 28.1549 13.271 27.9089 13.121C27.6689 12.971 27.3959 12.896 27.0899 12.896C26.7839 12.896 26.5079 12.971 26.2619 13.121C26.0219 13.271 25.8299 13.478 25.6859 13.742C25.5419 14.006 25.4699 14.312 25.4699 14.66C25.4699 15.002 25.5419 15.305 25.6859 15.569C25.8299 15.833 26.0219 16.043 26.2619 16.199C26.5079 16.349 26.7839 16.424 27.0899 16.424C27.3959 16.424 27.6689 16.349 27.9089 16.199C28.1549 16.043 28.3469 15.833 28.4849 15.569C28.6289 15.305 28.7009 15.002 28.7009 14.66ZM35.9939 12.266C36.0899 12.266 36.1709 12.299 36.2369 12.365C36.3089 12.431 36.3449 12.518 36.3449 12.626C36.3449 12.65 36.3419 12.677 36.3359 12.707C36.3359 12.731 36.3299 12.755 36.3179 12.779L34.9319 16.766C34.9019 16.844 34.8509 16.904 34.7789 16.946C34.7129 16.988 34.6409 17.006 34.5629 17C34.4249 16.994 34.3199 16.916 34.2479 16.766L33.1139 13.922L33.2939 13.949L32.2679 16.766C32.2019 16.916 32.0969 16.994 31.9529 17C31.8749 17.006 31.7999 16.988 31.7279 16.946C31.6559 16.904 31.6079 16.844 31.5839 16.766L30.1709 12.779C30.1529 12.725 30.1439 12.674 30.1439 12.626C30.1439 12.53 30.1769 12.446 30.2429 12.374C30.3089 12.302 30.3989 12.266 30.5129 12.266C30.5849 12.266 30.6509 12.284 30.7109 12.32C30.7709 12.356 30.8129 12.413 30.8369 12.491L32.0519 16.037L31.8629 16.028L32.9159 13.328C32.9759 13.178 33.0869 13.103 33.2489 13.103C33.3329 13.103 33.3989 13.124 33.4469 13.166C33.5009 13.202 33.5399 13.256 33.5639 13.328L34.6619 16.028L34.4369 16.046L35.6519 12.491C35.7059 12.341 35.8199 12.266 35.9939 12.266ZM42.0169 12.275C42.4249 12.275 42.7549 12.38 43.0069 12.59C43.2649 12.794 43.4359 13.085 43.5199 13.463H43.3849L43.4479 13.301C43.5199 13.133 43.6429 12.971 43.8169 12.815C43.9909 12.659 44.1919 12.53 44.4199 12.428C44.6479 12.326 44.8849 12.275 45.1309 12.275C45.5269 12.275 45.8389 12.362 46.0669 12.536C46.2949 12.704 46.4569 12.932 46.5529 13.22C46.6549 13.502 46.7059 13.82 46.7059 14.174V16.631C46.7059 16.733 46.6699 16.82 46.5979 16.892C46.5319 16.964 46.4479 17 46.3459 17C46.2379 17 46.1509 16.964 46.0849 16.892C46.0189 16.82 45.9859 16.733 45.9859 16.631V14.192C45.9859 13.958 45.9499 13.748 45.8779 13.562C45.8119 13.37 45.7009 13.22 45.5449 13.112C45.3949 12.998 45.1879 12.941 44.9239 12.941C44.6779 12.941 44.4529 12.998 44.2489 13.112C44.0449 13.22 43.8829 13.37 43.7629 13.562C43.6429 13.748 43.5829 13.958 43.5829 14.192V16.631C43.5829 16.733 43.5499 16.82 43.4839 16.892C43.4179 16.964 43.3309 17 43.2229 17C43.1209 17 43.0339 16.964 42.9619 16.892C42.8959 16.82 42.8629 16.733 42.8629 16.631V14.165C42.8629 13.937 42.8299 13.733 42.7639 13.553C42.7039 13.367 42.5989 13.22 42.4489 13.112C42.2989 12.998 42.0919 12.941 41.8279 12.941C41.5879 12.941 41.3689 12.998 41.1709 13.112C40.9729 13.22 40.8139 13.367 40.6939 13.553C40.5739 13.733 40.5139 13.937 40.5139 14.165V16.631C40.5139 16.733 40.4779 16.82 40.4059 16.892C40.3399 16.964 40.2559 17 40.1539 17C40.0519 17 39.9649 16.964 39.8929 16.892C39.8269 16.82 39.7939 16.733 39.7939 16.631V12.707C39.7939 12.605 39.8269 12.521 39.8929 12.455C39.9649 12.383 40.0519 12.347 40.1539 12.347C40.2619 12.347 40.3489 12.383 40.4149 12.455C40.4809 12.521 40.5139 12.605 40.5139 12.707V13.391L40.3159 13.607C40.3399 13.451 40.3999 13.295 40.4959 13.139C40.5979 12.983 40.7269 12.839 40.8829 12.707C41.0389 12.575 41.2129 12.47 41.4049 12.392C41.5969 12.314 41.8009 12.275 42.0169 12.275ZM52.4571 14.66C52.4571 15.128 52.3521 15.545 52.1421 15.911C51.9381 16.277 51.6591 16.565 51.3051 16.775C50.9571 16.985 50.5641 17.09 50.1261 17.09C49.6881 17.09 49.2921 16.985 48.9381 16.775C48.5841 16.565 48.3021 16.277 48.0921 15.911C47.8881 15.545 47.7861 15.128 47.7861 14.66C47.7861 14.192 47.8881 13.775 48.0921 13.409C48.3021 13.043 48.5841 12.755 48.9381 12.545C49.2921 12.335 49.6881 12.23 50.1261 12.23C50.5641 12.23 50.9571 12.335 51.3051 12.545C51.6591 12.755 51.9381 13.043 52.1421 13.409C52.3521 13.775 52.4571 14.192 52.4571 14.66ZM51.7371 14.66C51.7371 14.312 51.6651 14.006 51.5211 13.742C51.3831 13.478 51.1911 13.271 50.9451 13.121C50.7051 12.971 50.4321 12.896 50.1261 12.896C49.8201 12.896 49.5441 12.971 49.2981 13.121C49.0581 13.271 48.8661 13.478 48.7221 13.742C48.5781 14.006 48.5061 14.312 48.5061 14.66C48.5061 15.002 48.5781 15.305 48.7221 15.569C48.8661 15.833 49.0581 16.043 49.2981 16.199C49.5441 16.349 49.8201 16.424 50.1261 16.424C50.4321 16.424 50.7051 16.349 50.9451 16.199C51.1911 16.043 51.3831 15.833 51.5211 15.569C51.6651 15.305 51.7371 15.002 51.7371 14.66ZM53.9 17C53.798 17 53.711 16.964 53.639 16.892C53.573 16.82 53.54 16.733 53.54 16.631V12.707C53.54 12.605 53.573 12.521 53.639 12.455C53.711 12.383 53.798 12.347 53.9 12.347C54.008 12.347 54.095 12.383 54.161 12.455C54.227 12.521 54.26 12.605 54.26 12.707V13.895L54.152 13.706C54.188 13.52 54.251 13.34 54.341 13.166C54.437 12.986 54.557 12.827 54.701 12.689C54.845 12.545 55.01 12.434 55.196 12.356C55.382 12.272 55.586 12.23 55.808 12.23C55.94 12.23 56.06 12.263 56.168 12.329C56.282 12.389 56.339 12.476 56.339 12.59C56.339 12.716 56.306 12.809 56.24 12.869C56.174 12.929 56.099 12.959 56.015 12.959C55.937 12.959 55.862 12.944 55.79 12.914C55.718 12.878 55.628 12.86 55.52 12.86C55.37 12.86 55.22 12.902 55.07 12.986C54.926 13.064 54.791 13.178 54.665 13.328C54.545 13.478 54.446 13.649 54.368 13.841C54.296 14.027 54.26 14.228 54.26 14.444V16.631C54.26 16.733 54.224 16.82 54.152 16.892C54.086 16.964 54.002 17 53.9 17ZM59.1012 17.09C58.6212 17.09 58.2012 16.988 57.8412 16.784C57.4812 16.58 57.1992 16.301 56.9952 15.947C56.7972 15.587 56.6982 15.173 56.6982 14.705C56.6982 14.183 56.8002 13.739 57.0042 13.373C57.2142 13.001 57.4842 12.719 57.8142 12.527C58.1502 12.329 58.5042 12.23 58.8762 12.23C59.1522 12.23 59.4192 12.281 59.6772 12.383C59.9352 12.485 60.1632 12.635 60.3612 12.833C60.5592 13.025 60.7182 13.259 60.8382 13.535C60.9582 13.805 61.0212 14.108 61.0272 14.444C61.0272 14.54 60.9912 14.621 60.9192 14.687C60.8472 14.753 60.7632 14.786 60.6672 14.786H57.1122L56.9502 14.165H60.4152L60.2712 14.291V14.093C60.2472 13.847 60.1632 13.637 60.0192 13.463C59.8812 13.283 59.7102 13.145 59.5062 13.049C59.3082 12.953 59.0982 12.905 58.8762 12.905C58.6962 12.905 58.5162 12.938 58.3362 13.004C58.1622 13.064 58.0032 13.166 57.8592 13.31C57.7212 13.448 57.6072 13.628 57.5172 13.85C57.4332 14.072 57.3912 14.339 57.3912 14.651C57.3912 14.999 57.4602 15.305 57.5982 15.569C57.7422 15.833 57.9402 16.043 58.1922 16.199C58.4442 16.349 58.7382 16.424 59.0742 16.424C59.2842 16.424 59.4672 16.397 59.6232 16.343C59.7792 16.289 59.9142 16.223 60.0282 16.145C60.1422 16.061 60.2382 15.977 60.3162 15.893C60.3942 15.839 60.4692 15.812 60.5412 15.812C60.6312 15.812 60.7032 15.842 60.7572 15.902C60.8172 15.962 60.8472 16.034 60.8472 16.118C60.8472 16.22 60.7992 16.31 60.7032 16.388C60.5352 16.574 60.3072 16.739 60.0192 16.883C59.7312 17.021 59.4252 17.09 59.1012 17.09Z" fill="white"/>
</svg>
