<svg width="380" height="59" viewBox="0 0 380 59" fill="none" xmlns="http://www.w3.org/2000/svg">
<rect x="0.5" y="0.5" width="379" height="58" rx="19.5" fill="white"/>
<rect x="0.5" y="0.5" width="379" height="58" rx="19.5" stroke="#AEAEAE"/>
<path d="M104.158 37.2109C103.118 37.2109 102.204 37.0562 101.417 36.7469C100.629 36.4376 99.87 35.9455 99.1389 35.2706C99.0404 35.1722 98.9561 35.0667 98.8858 34.9543C98.8295 34.8277 98.8014 34.6942 98.8014 34.5536C98.8014 34.3286 98.8788 34.1318 99.0334 33.963C99.2021 33.7803 99.406 33.6889 99.645 33.6889C99.8419 33.6889 100.018 33.7662 100.172 33.9209C100.721 34.4551 101.311 34.8629 101.944 35.1441C102.591 35.4253 103.315 35.5659 104.116 35.5659C104.735 35.5659 105.29 35.4675 105.782 35.2706C106.288 35.0738 106.689 34.7996 106.984 34.4481C107.28 34.0966 107.427 33.6889 107.427 33.2249C107.413 32.6625 107.244 32.1985 106.921 31.8329C106.612 31.4674 106.176 31.1651 105.613 30.9261C105.065 30.673 104.425 30.4621 103.694 30.2934C103.048 30.1387 102.45 29.9489 101.902 29.7239C101.367 29.499 100.903 29.2248 100.51 28.9014C100.116 28.564 99.8067 28.1633 99.5818 27.6993C99.3709 27.2213 99.2654 26.6659 99.2654 26.0332C99.2654 25.2318 99.4763 24.5288 99.8981 23.9242C100.32 23.3196 100.903 22.8556 101.649 22.5323C102.394 22.1948 103.251 22.0261 104.222 22.0261C105.079 22.0261 105.888 22.1667 106.647 22.4479C107.42 22.7291 108.039 23.1157 108.503 23.6078C108.784 23.875 108.925 24.1351 108.925 24.3882C108.925 24.5991 108.833 24.7959 108.65 24.9787C108.482 25.1474 108.285 25.2318 108.06 25.2318C107.905 25.2318 107.765 25.1755 107.638 25.0631C107.399 24.7959 107.097 24.5569 106.731 24.346C106.366 24.1351 105.965 23.9664 105.529 23.8398C105.093 23.7133 104.657 23.65 104.222 23.65C103.575 23.65 103.005 23.7484 102.513 23.9453C102.021 24.1281 101.635 24.3952 101.353 24.7467C101.086 25.0841 100.953 25.4919 100.953 25.9699C100.953 26.5042 101.107 26.9471 101.417 27.2986C101.726 27.636 102.141 27.9172 102.661 28.1422C103.181 28.3531 103.758 28.5429 104.39 28.7116C105.079 28.8803 105.712 29.0772 106.288 29.3021C106.879 29.513 107.385 29.7802 107.807 30.1036C108.229 30.4269 108.552 30.8417 108.777 31.3479C109.016 31.84 109.136 32.4516 109.136 33.1827C109.136 33.956 108.918 34.6449 108.482 35.2495C108.046 35.8541 107.448 36.3321 106.689 36.6836C105.944 37.0211 105.1 37.1968 104.158 37.2109ZM116.943 25.9277C117.871 25.9277 118.603 26.1316 119.137 26.5394C119.685 26.933 120.072 27.4673 120.297 28.1422C120.536 28.803 120.655 29.5412 120.655 30.3566V36.1353C120.655 36.3743 120.571 36.5782 120.402 36.7469C120.248 36.9156 120.051 37 119.812 37C119.573 37 119.369 36.9156 119.2 36.7469C119.045 36.5782 118.968 36.3743 118.968 36.1353V30.3566C118.968 29.8224 118.891 29.3443 118.736 28.9225C118.581 28.4867 118.321 28.1422 117.956 27.8891C117.604 27.622 117.119 27.4884 116.501 27.4884C115.924 27.4884 115.397 27.622 114.919 27.8891C114.441 28.1422 114.061 28.4867 113.78 28.9225C113.499 29.3443 113.358 29.8224 113.358 30.3566V36.1353C113.358 36.3743 113.274 36.5782 113.105 36.7469C112.95 36.9156 112.754 37 112.515 37C112.276 37 112.072 36.9156 111.903 36.7469C111.748 36.5782 111.671 36.3743 111.671 36.1353V22.237C111.671 21.998 111.748 21.8011 111.903 21.6465C112.072 21.4778 112.276 21.3934 112.515 21.3934C112.768 21.3934 112.971 21.4778 113.126 21.6465C113.281 21.8011 113.358 21.998 113.358 22.237V28.5429L112.936 29.0069C113.007 28.6413 113.161 28.2758 113.4 27.9102C113.639 27.5306 113.942 27.1931 114.307 26.8979C114.673 26.6026 115.08 26.3706 115.53 26.2019C115.98 26.0191 116.451 25.9277 116.943 25.9277ZM134.136 31.5166C134.136 32.6133 133.89 33.5904 133.398 34.4481C132.92 35.3058 132.266 35.9806 131.437 36.4727C130.621 36.9649 129.7 37.2109 128.674 37.2109C127.648 37.2109 126.72 36.9649 125.89 36.4727C125.061 35.9806 124.4 35.3058 123.908 34.4481C123.43 33.5904 123.191 32.6133 123.191 31.5166C123.191 30.4199 123.43 29.4427 123.908 28.5851C124.4 27.7274 125.061 27.0525 125.89 26.5604C126.72 26.0683 127.648 25.8223 128.674 25.8223C129.7 25.8223 130.621 26.0683 131.437 26.5604C132.266 27.0525 132.92 27.7274 133.398 28.5851C133.89 29.4427 134.136 30.4199 134.136 31.5166ZM132.449 31.5166C132.449 30.7011 132.28 29.9841 131.943 29.3654C131.62 28.7468 131.17 28.2617 130.593 27.9102C130.031 27.5587 129.391 27.383 128.674 27.383C127.957 27.383 127.31 27.5587 126.734 27.9102C126.171 28.2617 125.721 28.7468 125.384 29.3654C125.047 29.9841 124.878 30.7011 124.878 31.5166C124.878 32.318 125.047 33.028 125.384 33.6467C125.721 34.2653 126.171 34.7574 126.734 35.123C127.31 35.4745 127.957 35.6502 128.674 35.6502C129.391 35.6502 130.031 35.4745 130.593 35.123C131.17 34.7574 131.62 34.2653 131.943 33.6467C132.28 33.028 132.449 32.318 132.449 31.5166ZM149.539 25.9067C149.764 25.9067 149.954 25.984 150.108 26.1386C150.277 26.2933 150.362 26.4972 150.362 26.7503C150.362 26.8065 150.354 26.8698 150.34 26.9401C150.34 26.9963 150.326 27.0525 150.298 27.1088L147.05 36.4517C146.98 36.6344 146.861 36.775 146.692 36.8735C146.537 36.9719 146.368 37.0141 146.186 37C145.862 36.9859 145.616 36.8032 145.448 36.4517L142.79 29.7872L143.212 29.8505L140.808 36.4517C140.653 36.8032 140.407 36.9859 140.07 37C139.887 37.0141 139.711 36.9719 139.542 36.8735C139.374 36.775 139.261 36.6344 139.205 36.4517L135.894 27.1088C135.852 26.9822 135.831 26.8627 135.831 26.7503C135.831 26.5253 135.908 26.3285 136.063 26.1597C136.217 25.991 136.428 25.9067 136.695 25.9067C136.864 25.9067 137.019 25.9488 137.159 26.0332C137.3 26.1176 137.398 26.2511 137.454 26.4339L140.302 34.7434L139.859 34.7223L142.326 28.3953C142.467 28.0438 142.727 27.868 143.107 27.868C143.303 27.868 143.458 27.9172 143.571 28.0157C143.697 28.1 143.788 28.2266 143.845 28.3953L146.418 34.7223L145.89 34.7645L148.738 26.4339C148.864 26.0824 149.131 25.9067 149.539 25.9067ZM167.428 25.991C167.667 25.991 167.864 26.0754 168.019 26.2441C168.187 26.3988 168.272 26.5956 168.272 26.8346V36.1353C168.272 36.3743 168.187 36.5782 168.019 36.7469C167.864 36.9156 167.667 37 167.428 37C167.175 37 166.971 36.9156 166.817 36.7469C166.662 36.5782 166.585 36.3743 166.585 36.1353V34.1318L166.985 34.0896C166.985 34.3989 166.88 34.7363 166.669 35.1019C166.458 35.4675 166.17 35.8119 165.804 36.1353C165.439 36.4446 165.003 36.7047 164.497 36.9156C164.005 37.1125 163.47 37.2109 162.894 37.2109C161.938 37.2109 161.08 36.9649 160.321 36.4727C159.562 35.9666 158.957 35.2847 158.507 34.427C158.071 33.5694 157.853 32.5922 157.853 31.4955C157.853 30.3848 158.071 29.4076 158.507 28.564C158.957 27.7063 159.562 27.0385 160.321 26.5604C161.08 26.0683 161.924 25.8223 162.852 25.8223C163.456 25.8223 164.019 25.9207 164.539 26.1176C165.059 26.3144 165.509 26.5815 165.889 26.919C166.282 27.2564 166.585 27.629 166.795 28.0367C167.02 28.4445 167.133 28.8522 167.133 29.26L166.585 29.1334V26.8346C166.585 26.5956 166.662 26.3988 166.817 26.2441C166.971 26.0754 167.175 25.991 167.428 25.991ZM163.084 35.6502C163.787 35.6502 164.405 35.4675 164.939 35.1019C165.488 34.7363 165.91 34.2442 166.205 33.6256C166.514 32.9929 166.669 32.2829 166.669 31.4955C166.669 30.7222 166.514 30.0262 166.205 29.4076C165.91 28.7749 165.488 28.2828 164.939 27.9313C164.405 27.5657 163.787 27.383 163.084 27.383C162.395 27.383 161.776 27.5587 161.228 27.9102C160.693 28.2617 160.272 28.7468 159.962 29.3654C159.653 29.9841 159.498 30.6941 159.498 31.4955C159.498 32.2829 159.646 32.9929 159.941 33.6256C160.25 34.2442 160.672 34.7363 161.207 35.1019C161.755 35.4675 162.381 35.6502 163.084 35.6502ZM173.254 36.1353C173.254 36.3743 173.17 36.5782 173.001 36.7469C172.833 36.9156 172.629 37 172.39 37C172.151 37 171.954 36.9156 171.799 36.7469C171.645 36.5782 171.567 36.3743 171.567 36.1353V22.237C171.567 21.998 171.645 21.8011 171.799 21.6465C171.968 21.4778 172.172 21.3934 172.411 21.3934C172.664 21.3934 172.868 21.4778 173.022 21.6465C173.177 21.8011 173.254 21.998 173.254 22.237V36.1353ZM178.383 36.1353C178.383 36.3743 178.298 36.5782 178.13 36.7469C177.961 36.9156 177.757 37 177.518 37C177.279 37 177.082 36.9156 176.928 36.7469C176.773 36.5782 176.696 36.3743 176.696 36.1353V22.237C176.696 21.998 176.773 21.8011 176.928 21.6465C177.096 21.4778 177.3 21.3934 177.539 21.3934C177.792 21.3934 177.996 21.4778 178.151 21.6465C178.305 21.8011 178.383 21.998 178.383 22.237V36.1353ZM196.447 25.991C196.686 25.991 196.883 26.0754 197.038 26.2441C197.207 26.3988 197.291 26.5956 197.291 26.8346V36.1353C197.291 36.3743 197.207 36.5782 197.038 36.7469C196.883 36.9156 196.686 37 196.447 37C196.194 37 195.991 36.9156 195.836 36.7469C195.681 36.5782 195.604 36.3743 195.604 36.1353V34.1318L196.005 34.0896C196.005 34.3989 195.899 34.7363 195.688 35.1019C195.477 35.4675 195.189 35.8119 194.824 36.1353C194.458 36.4446 194.022 36.7047 193.516 36.9156C193.024 37.1125 192.49 37.2109 191.913 37.2109C190.957 37.2109 190.099 36.9649 189.34 36.4727C188.581 35.9666 187.976 35.2847 187.526 34.427C187.091 33.5694 186.873 32.5922 186.873 31.4955C186.873 30.3848 187.091 29.4076 187.526 28.564C187.976 27.7063 188.581 27.0385 189.34 26.5604C190.099 26.0683 190.943 25.8223 191.871 25.8223C192.476 25.8223 193.038 25.9207 193.558 26.1176C194.078 26.3144 194.528 26.5815 194.908 26.919C195.302 27.2564 195.604 27.629 195.815 28.0367C196.04 28.4445 196.152 28.8522 196.152 29.26L195.604 29.1334V26.8346C195.604 26.5956 195.681 26.3988 195.836 26.2441C195.991 26.0754 196.194 25.991 196.447 25.991ZM192.103 35.6502C192.806 35.6502 193.425 35.4675 193.959 35.1019C194.507 34.7363 194.929 34.2442 195.224 33.6256C195.534 32.9929 195.688 32.2829 195.688 31.4955C195.688 30.7222 195.534 30.0262 195.224 29.4076C194.929 28.7749 194.507 28.2828 193.959 27.9313C193.425 27.5657 192.806 27.383 192.103 27.383C191.414 27.383 190.795 27.5587 190.247 27.9102C189.713 28.2617 189.291 28.7468 188.982 29.3654C188.672 29.9841 188.518 30.6941 188.518 31.4955C188.518 32.2829 188.665 32.9929 188.961 33.6256C189.27 34.2442 189.692 34.7363 190.226 35.1019C190.774 35.4675 191.4 35.6502 192.103 35.6502ZM205.627 25.9277C206.583 25.9277 207.356 26.1738 207.947 26.6659C208.552 27.1439 208.952 27.8258 209.149 28.7116H208.833L208.98 28.332C209.149 27.9383 209.437 27.5587 209.845 27.1931C210.253 26.8276 210.724 26.5253 211.258 26.2863C211.792 26.0473 212.348 25.9277 212.924 25.9277C213.852 25.9277 214.583 26.1316 215.118 26.5394C215.652 26.933 216.031 27.4673 216.256 28.1422C216.495 28.803 216.615 29.5482 216.615 30.3777V36.1353C216.615 36.3743 216.531 36.5782 216.362 36.7469C216.207 36.9156 216.01 37 215.771 37C215.518 37 215.314 36.9156 215.16 36.7469C215.005 36.5782 214.928 36.3743 214.928 36.1353V30.4199C214.928 29.8716 214.843 29.3795 214.675 28.9436C214.52 28.4937 214.26 28.1422 213.894 27.8891C213.543 27.622 213.058 27.4884 212.439 27.4884C211.863 27.4884 211.335 27.622 210.857 27.8891C210.379 28.1422 210 28.4937 209.719 28.9436C209.437 29.3795 209.297 29.8716 209.297 30.4199V36.1353C209.297 36.3743 209.219 36.5782 209.065 36.7469C208.91 36.9156 208.706 37 208.453 37C208.214 37 208.01 36.9156 207.842 36.7469C207.687 36.5782 207.61 36.3743 207.61 36.1353V30.3566C207.61 29.8224 207.532 29.3443 207.378 28.9225C207.237 28.4867 206.991 28.1422 206.639 27.8891C206.288 27.622 205.803 27.4884 205.184 27.4884C204.622 27.4884 204.109 27.622 203.645 27.8891C203.181 28.1422 202.808 28.4867 202.527 28.9225C202.246 29.3443 202.105 29.8224 202.105 30.3566V36.1353C202.105 36.3743 202.021 36.5782 201.852 36.7469C201.697 36.9156 201.5 37 201.261 37C201.022 37 200.819 36.9156 200.65 36.7469C200.495 36.5782 200.418 36.3743 200.418 36.1353V26.9401C200.418 26.701 200.495 26.5042 200.65 26.3496C200.819 26.1808 201.022 26.0965 201.261 26.0965C201.515 26.0965 201.718 26.1808 201.873 26.3496C202.028 26.5042 202.105 26.701 202.105 26.9401V28.5429L201.641 29.0491C201.697 28.6835 201.838 28.3179 202.063 27.9524C202.302 27.5868 202.604 27.2494 202.97 26.9401C203.335 26.6307 203.743 26.3847 204.193 26.2019C204.643 26.0191 205.121 25.9277 205.627 25.9277ZM224.777 37.2109C223.652 37.2109 222.668 36.9719 221.824 36.4938C220.981 36.0158 220.32 35.362 219.842 34.5325C219.378 33.6889 219.146 32.7187 219.146 31.622C219.146 30.3988 219.385 29.3584 219.863 28.5007C220.355 27.629 220.988 26.9682 221.761 26.5183C222.549 26.0543 223.378 25.8223 224.25 25.8223C224.897 25.8223 225.522 25.9418 226.127 26.1808C226.731 26.4198 227.266 26.7713 227.73 27.2353C228.194 27.6852 228.566 28.2336 228.847 28.8803C229.129 29.513 229.276 30.2231 229.29 31.0104C229.29 31.2354 229.206 31.4252 229.037 31.5799C228.869 31.7345 228.672 31.8119 228.447 31.8119H220.116L219.737 30.3566H227.856L227.519 30.6519V30.1879C227.463 29.6115 227.266 29.1194 226.928 28.7116C226.605 28.2898 226.204 27.9664 225.726 27.7415C225.262 27.5165 224.77 27.404 224.25 27.404C223.828 27.404 223.406 27.4814 222.984 27.636C222.577 27.7766 222.204 28.0157 221.867 28.3531C221.543 28.6765 221.276 29.0983 221.065 29.6185C220.868 30.1387 220.77 30.7644 220.77 31.4955C220.77 32.311 220.932 33.028 221.255 33.6467C221.593 34.2653 222.056 34.7574 222.647 35.123C223.238 35.4745 223.926 35.6502 224.714 35.6502C225.206 35.6502 225.635 35.587 226 35.4604C226.366 35.3339 226.682 35.1792 226.949 34.9964C227.217 34.7996 227.441 34.6028 227.624 34.4059C227.807 34.2794 227.983 34.2161 228.151 34.2161C228.362 34.2161 228.531 34.2864 228.658 34.427C228.798 34.5676 228.869 34.7363 228.869 34.9332C228.869 35.1722 228.756 35.3831 228.531 35.5659C228.137 36.0017 227.603 36.3884 226.928 36.7258C226.253 37.0492 225.536 37.2109 224.777 37.2109ZM237.246 25.8223C238.202 25.8223 238.955 26.0191 239.503 26.4128C240.051 26.8065 240.438 27.3337 240.663 27.9946C240.902 28.6554 241.022 29.3935 241.022 30.209V36.1353C241.022 36.3743 240.937 36.5782 240.768 36.7469C240.614 36.9156 240.417 37 240.178 37C239.939 37 239.735 36.9156 239.566 36.7469C239.412 36.5782 239.334 36.3743 239.334 36.1353V30.2512C239.334 29.7169 239.25 29.2389 239.081 28.8171C238.927 28.3812 238.659 28.0367 238.28 27.7837C237.914 27.5165 237.408 27.383 236.761 27.383C236.171 27.383 235.629 27.5165 235.137 27.7837C234.645 28.0367 234.252 28.3812 233.956 28.8171C233.661 29.2389 233.513 29.7169 233.513 30.2512V36.1353C233.513 36.3743 233.429 36.5782 233.26 36.7469C233.106 36.9156 232.909 37 232.67 37C232.431 37 232.227 36.9156 232.058 36.7469C231.904 36.5782 231.826 36.3743 231.826 36.1353V26.9401C231.826 26.701 231.904 26.5042 232.058 26.3496C232.227 26.1808 232.431 26.0965 232.67 26.0965C232.923 26.0965 233.127 26.1808 233.281 26.3496C233.436 26.5042 233.513 26.701 233.513 26.9401V28.4375L233.092 28.9014C233.162 28.5359 233.324 28.1703 233.577 27.8048C233.83 27.4251 234.146 27.0877 234.526 26.7924C234.905 26.4972 235.327 26.2652 235.791 26.0965C236.255 25.9137 236.74 25.8223 237.246 25.8223ZM245.766 36.1353C245.766 36.3743 245.682 36.5782 245.513 36.7469C245.359 36.9156 245.162 37 244.923 37C244.67 37 244.466 36.9156 244.311 36.7469C244.157 36.5782 244.079 36.3743 244.079 36.1353V26.7713C244.079 26.5323 244.157 26.3355 244.311 26.1808C244.48 26.0121 244.684 25.9277 244.923 25.9277C245.162 25.9277 245.359 26.0121 245.513 26.1808C245.682 26.3355 245.766 26.5323 245.766 26.7713V36.1353ZM244.923 24.5147C244.571 24.5147 244.311 24.4444 244.142 24.3038C243.974 24.1632 243.889 23.9453 243.889 23.65V23.3548C243.889 23.0595 243.981 22.8416 244.164 22.701C244.346 22.5604 244.606 22.4901 244.944 22.4901C245.281 22.4901 245.534 22.5604 245.703 22.701C245.872 22.8416 245.956 23.0595 245.956 23.3548V23.65C245.956 23.9453 245.865 24.1632 245.682 24.3038C245.513 24.4444 245.26 24.5147 244.923 24.5147ZM248.375 26.1597H253.331C253.556 26.1597 253.739 26.2371 253.88 26.3917C254.034 26.5464 254.112 26.7292 254.112 26.9401C254.112 27.165 254.034 27.3548 253.88 27.5095C253.739 27.6501 253.556 27.7204 253.331 27.7204H248.375C248.164 27.7204 247.982 27.6431 247.827 27.4884C247.672 27.3337 247.595 27.1439 247.595 26.919C247.595 26.7081 247.672 26.5323 247.827 26.3917C247.982 26.2371 248.164 26.1597 248.375 26.1597ZM250.59 23.2915C250.829 23.2915 251.026 23.3759 251.18 23.5446C251.335 23.6992 251.412 23.8961 251.412 24.1351V34.3216C251.412 34.659 251.461 34.9121 251.56 35.0808C251.658 35.2495 251.785 35.369 251.94 35.4393C252.108 35.4956 252.27 35.5237 252.425 35.5237C252.565 35.5237 252.685 35.5026 252.783 35.4604C252.896 35.4042 253.022 35.3761 253.163 35.3761C253.303 35.3761 253.43 35.4464 253.542 35.587C253.669 35.7135 253.732 35.8822 253.732 36.0931C253.732 36.3462 253.585 36.5641 253.289 36.7469C252.994 36.9156 252.664 37 252.298 37C252.101 37 251.855 36.9859 251.56 36.9578C251.279 36.9297 250.998 36.8383 250.716 36.6836C250.435 36.529 250.196 36.2759 249.999 35.9244C249.816 35.5588 249.725 35.0527 249.725 34.4059V24.1351C249.725 23.8961 249.809 23.6992 249.978 23.5446C250.147 23.3759 250.351 23.2915 250.59 23.2915ZM258.083 36.1353C258.083 36.3743 257.998 36.5782 257.83 36.7469C257.675 36.9156 257.478 37 257.239 37C256.986 37 256.782 36.9156 256.627 36.7469C256.473 36.5782 256.395 36.3743 256.395 36.1353V26.7713C256.395 26.5323 256.473 26.3355 256.627 26.1808C256.796 26.0121 257 25.9277 257.239 25.9277C257.478 25.9277 257.675 26.0121 257.83 26.1808C257.998 26.3355 258.083 26.5323 258.083 26.7713V36.1353ZM257.239 24.5147C256.888 24.5147 256.627 24.4444 256.459 24.3038C256.29 24.1632 256.206 23.9453 256.206 23.65V23.3548C256.206 23.0595 256.297 22.8416 256.48 22.701C256.663 22.5604 256.923 22.4901 257.26 22.4901C257.598 22.4901 257.851 22.5604 258.019 22.701C258.188 22.8416 258.272 23.0595 258.272 23.3548V23.65C258.272 23.9453 258.181 24.1632 257.998 24.3038C257.83 24.4444 257.577 24.5147 257.239 24.5147ZM266.154 37.2109C265.029 37.2109 264.045 36.9719 263.201 36.4938C262.358 36.0158 261.697 35.362 261.219 34.5325C260.755 33.6889 260.523 32.7187 260.523 31.622C260.523 30.3988 260.762 29.3584 261.24 28.5007C261.732 27.629 262.365 26.9682 263.138 26.5183C263.925 26.0543 264.755 25.8223 265.627 25.8223C266.273 25.8223 266.899 25.9418 267.504 26.1808C268.108 26.4198 268.642 26.7713 269.106 27.2353C269.57 27.6852 269.943 28.2336 270.224 28.8803C270.505 29.513 270.653 30.2231 270.667 31.0104C270.667 31.2354 270.583 31.4252 270.414 31.5799C270.245 31.7345 270.048 31.8119 269.824 31.8119H261.493L261.113 30.3566H269.233L268.896 30.6519V30.1879C268.839 29.6115 268.642 29.1194 268.305 28.7116C267.982 28.2898 267.581 27.9664 267.103 27.7415C266.639 27.5165 266.147 27.404 265.627 27.404C265.205 27.404 264.783 27.4814 264.361 27.636C263.953 27.7766 263.581 28.0157 263.243 28.3531C262.92 28.6765 262.653 29.0983 262.442 29.6185C262.245 30.1387 262.147 30.7644 262.147 31.4955C262.147 32.311 262.308 33.028 262.632 33.6467C262.969 34.2653 263.433 34.7574 264.024 35.123C264.614 35.4745 265.303 35.6502 266.091 35.6502C266.583 35.6502 267.012 35.587 267.377 35.4604C267.743 35.3339 268.059 35.1792 268.326 34.9964C268.593 34.7996 268.818 34.6028 269.001 34.4059C269.184 34.2794 269.36 34.2161 269.528 34.2161C269.739 34.2161 269.908 34.2864 270.034 34.427C270.175 34.5676 270.245 34.7363 270.245 34.9332C270.245 35.1722 270.133 35.3831 269.908 35.5659C269.514 36.0017 268.98 36.3884 268.305 36.7258C267.63 37.0492 266.913 37.2109 266.154 37.2109ZM272.591 35.2706C272.465 35.0878 272.409 34.898 272.423 34.7012C272.437 34.4903 272.556 34.3075 272.781 34.1528C272.922 34.0544 273.084 34.0122 273.266 34.0263C273.463 34.0404 273.639 34.1318 273.794 34.3005C274.187 34.7645 274.637 35.137 275.143 35.4182C275.649 35.6854 276.268 35.819 276.999 35.819C277.337 35.8049 277.674 35.7487 278.012 35.6502C278.349 35.5518 278.63 35.3831 278.855 35.1441C279.094 34.891 279.214 34.5606 279.214 34.1528C279.214 33.7592 279.094 33.4498 278.855 33.2249C278.616 32.9859 278.307 32.7961 277.927 32.6555C277.548 32.5008 277.133 32.3672 276.683 32.2547C276.219 32.1282 275.762 31.9876 275.312 31.8329C274.862 31.6642 274.454 31.4604 274.089 31.2213C273.737 30.9683 273.449 30.6589 273.224 30.2934C273.013 29.9138 272.908 29.4568 272.908 28.9225C272.908 28.2898 273.076 27.7415 273.414 27.2775C273.765 26.8135 274.229 26.455 274.806 26.2019C275.396 25.9488 276.036 25.8223 276.725 25.8223C277.119 25.8223 277.526 25.8715 277.948 25.9699C278.384 26.0543 278.806 26.2089 279.214 26.4339C279.621 26.6448 279.98 26.9401 280.289 27.3197C280.416 27.4603 280.486 27.636 280.5 27.8469C280.514 28.0578 280.423 28.2476 280.226 28.4164C280.071 28.5288 279.896 28.5781 279.699 28.564C279.516 28.5499 279.361 28.4796 279.235 28.3531C278.94 28.0016 278.567 27.7345 278.117 27.5517C277.681 27.3548 277.196 27.2564 276.662 27.2564C276.324 27.2564 275.994 27.3056 275.671 27.404C275.347 27.5025 275.073 27.6712 274.848 27.9102C274.637 28.1352 274.532 28.4515 274.532 28.8593C274.546 29.2389 274.672 29.5482 274.911 29.7872C275.15 30.0262 275.474 30.2231 275.881 30.3777C276.289 30.5183 276.739 30.6589 277.231 30.7995C277.681 30.912 278.11 31.0456 278.518 31.2002C278.94 31.3408 279.319 31.5307 279.657 31.7697C279.994 32.0087 280.261 32.318 280.458 32.6976C280.655 33.0632 280.753 33.5272 280.753 34.0896C280.753 34.7363 280.57 35.2987 280.205 35.7768C279.839 36.2408 279.354 36.5993 278.75 36.8524C278.159 37.0914 277.519 37.2109 276.831 37.2109C276.057 37.2109 275.291 37.0633 274.532 36.768C273.787 36.4727 273.14 35.9736 272.591 35.2706Z" fill="black"/>
</svg>
