<svg width="102" height="34" viewBox="0 0 102 34" fill="none" xmlns="http://www.w3.org/2000/svg">
<rect width="102" height="34" rx="17" fill="#161117"/>
<path d="M18.088 22.14C17.3973 22.14 16.7907 22.0373 16.268 21.832C15.7453 21.6267 15.2413 21.3 14.756 20.852C14.6907 20.7867 14.6347 20.7167 14.588 20.642C14.5507 20.558 14.532 20.4693 14.532 20.376C14.532 20.2267 14.5833 20.096 14.686 19.984C14.798 19.8627 14.9333 19.802 15.092 19.802C15.2227 19.802 15.3393 19.8533 15.442 19.956C15.806 20.3107 16.198 20.5813 16.618 20.768C17.0473 20.9547 17.528 21.048 18.06 21.048C18.4707 21.048 18.8393 20.9827 19.166 20.852C19.502 20.7213 19.768 20.5393 19.964 20.306C20.16 20.0727 20.258 19.802 20.258 19.494C20.2487 19.1207 20.1367 18.8127 19.922 18.57C19.7167 18.3273 19.4273 18.1267 19.054 17.968C18.69 17.8 18.2653 17.66 17.78 17.548C17.3507 17.4453 16.954 17.3193 16.59 17.17C16.2353 17.0207 15.9273 16.8387 15.666 16.624C15.4047 16.4 15.1993 16.134 15.05 15.826C14.91 15.5087 14.84 15.14 14.84 14.72C14.84 14.188 14.98 13.7213 15.26 13.32C15.54 12.9187 15.9273 12.6107 16.422 12.396C16.9167 12.172 17.486 12.06 18.13 12.06C18.6993 12.06 19.236 12.1533 19.74 12.34C20.2533 12.5267 20.664 12.7833 20.972 13.11C21.1587 13.2873 21.252 13.46 21.252 13.628C21.252 13.768 21.1913 13.8987 21.07 14.02C20.958 14.132 20.8273 14.188 20.678 14.188C20.5753 14.188 20.482 14.1507 20.398 14.076C20.2393 13.8987 20.0387 13.74 19.796 13.6C19.5533 13.46 19.2873 13.348 18.998 13.264C18.7087 13.18 18.4193 13.138 18.13 13.138C17.7007 13.138 17.3227 13.2033 16.996 13.334C16.6693 13.4553 16.4127 13.6327 16.226 13.866C16.0487 14.09 15.96 14.3607 15.96 14.678C15.96 15.0327 16.0627 15.3267 16.268 15.56C16.4733 15.784 16.7487 15.9707 17.094 16.12C17.4393 16.26 17.822 16.386 18.242 16.498C18.6993 16.61 19.1193 16.7407 19.502 16.89C19.894 17.03 20.23 17.2073 20.51 17.422C20.79 17.6367 21.0047 17.912 21.154 18.248C21.3127 18.5747 21.392 18.9807 21.392 19.466C21.392 19.9793 21.2473 20.4367 20.958 20.838C20.6687 21.2393 20.272 21.5567 19.768 21.79C19.2733 22.014 18.7133 22.1307 18.088 22.14ZM26.5751 14.65C27.1911 14.65 27.6764 14.7853 28.0311 15.056C28.3951 15.3173 28.6517 15.672 28.8011 16.12C28.9597 16.5587 29.0391 17.0487 29.0391 17.59V21.426C29.0391 21.5847 28.9831 21.72 28.8711 21.832C28.7684 21.944 28.6377 22 28.4791 22C28.3204 22 28.1851 21.944 28.0731 21.832C27.9704 21.72 27.9191 21.5847 27.9191 21.426V17.59C27.9191 17.2353 27.8677 16.918 27.7651 16.638C27.6624 16.3487 27.4897 16.12 27.2471 15.952C27.0137 15.7747 26.6917 15.686 26.2811 15.686C25.8984 15.686 25.5484 15.7747 25.2311 15.952C24.9137 16.12 24.6617 16.3487 24.4751 16.638C24.2884 16.918 24.1951 17.2353 24.1951 17.59V21.426C24.1951 21.5847 24.1391 21.72 24.0271 21.832C23.9244 21.944 23.7937 22 23.6351 22C23.4764 22 23.3411 21.944 23.2291 21.832C23.1264 21.72 23.0751 21.5847 23.0751 21.426V12.2C23.0751 12.0413 23.1264 11.9107 23.2291 11.808C23.3411 11.696 23.4764 11.64 23.6351 11.64C23.8031 11.64 23.9384 11.696 24.0411 11.808C24.1437 11.9107 24.1951 12.0413 24.1951 12.2V16.386L23.9151 16.694C23.9617 16.4513 24.0644 16.2087 24.2231 15.966C24.3817 15.714 24.5824 15.49 24.8251 15.294C25.0677 15.098 25.3384 14.944 25.6371 14.832C25.9357 14.7107 26.2484 14.65 26.5751 14.65ZM37.9881 18.36C37.9881 19.088 37.8248 19.7367 37.4981 20.306C37.1808 20.8753 36.7468 21.3233 36.1961 21.65C35.6548 21.9767 35.0435 22.14 34.3621 22.14C33.6808 22.14 33.0648 21.9767 32.5141 21.65C31.9635 21.3233 31.5248 20.8753 31.1981 20.306C30.8808 19.7367 30.7221 19.088 30.7221 18.36C30.7221 17.632 30.8808 16.9833 31.1981 16.414C31.5248 15.8447 31.9635 15.3967 32.5141 15.07C33.0648 14.7433 33.6808 14.58 34.3621 14.58C35.0435 14.58 35.6548 14.7433 36.1961 15.07C36.7468 15.3967 37.1808 15.8447 37.4981 16.414C37.8248 16.9833 37.9881 17.632 37.9881 18.36ZM36.8681 18.36C36.8681 17.8187 36.7561 17.3427 36.5321 16.932C36.3175 16.5213 36.0188 16.1993 35.6361 15.966C35.2628 15.7327 34.8381 15.616 34.3621 15.616C33.8861 15.616 33.4568 15.7327 33.0741 15.966C32.7008 16.1993 32.4021 16.5213 32.1781 16.932C31.9541 17.3427 31.8421 17.8187 31.8421 18.36C31.8421 18.892 31.9541 19.3633 32.1781 19.774C32.4021 20.1847 32.7008 20.5113 33.0741 20.754C33.4568 20.9873 33.8861 21.104 34.3621 21.104C34.8381 21.104 35.2628 20.9873 35.6361 20.754C36.0188 20.5113 36.3175 20.1847 36.5321 19.774C36.7561 19.3633 36.8681 18.892 36.8681 18.36ZM48.2127 14.636C48.3621 14.636 48.4881 14.6873 48.5907 14.79C48.7027 14.8927 48.7587 15.028 48.7587 15.196C48.7587 15.2333 48.7541 15.2753 48.7447 15.322C48.7447 15.3593 48.7354 15.3967 48.7167 15.434L46.5607 21.636C46.5141 21.7573 46.4347 21.8507 46.3227 21.916C46.2201 21.9813 46.1081 22.0093 45.9867 22C45.7721 21.9907 45.6087 21.8693 45.4967 21.636L43.7327 17.212L44.0127 17.254L42.4167 21.636C42.3141 21.8693 42.1507 21.9907 41.9267 22C41.8054 22.0093 41.6887 21.9813 41.5767 21.916C41.4647 21.8507 41.3901 21.7573 41.3527 21.636L39.1547 15.434C39.1267 15.35 39.1127 15.2707 39.1127 15.196C39.1127 15.0467 39.1641 14.916 39.2667 14.804C39.3694 14.692 39.5094 14.636 39.6867 14.636C39.7987 14.636 39.9014 14.664 39.9947 14.72C40.0881 14.776 40.1534 14.8647 40.1907 14.986L42.0807 20.502L41.7867 20.488L43.4247 16.288C43.5181 16.0547 43.6907 15.938 43.9427 15.938C44.0734 15.938 44.1761 15.9707 44.2507 16.036C44.3347 16.092 44.3954 16.176 44.4327 16.288L46.1407 20.488L45.7907 20.516L47.6807 14.986C47.7647 14.7527 47.9421 14.636 48.2127 14.636ZM57.5819 14.65C58.2166 14.65 58.7299 14.8133 59.1219 15.14C59.5232 15.4573 59.7892 15.91 59.9199 16.498H59.7099L59.8079 16.246C59.9199 15.9847 60.1112 15.7327 60.3819 15.49C60.6526 15.2473 60.9652 15.0467 61.3199 14.888C61.6746 14.7293 62.0432 14.65 62.4259 14.65C63.0419 14.65 63.5272 14.7853 63.8819 15.056C64.2366 15.3173 64.4886 15.672 64.6379 16.12C64.7966 16.5587 64.8759 17.0533 64.8759 17.604V21.426C64.8759 21.5847 64.8199 21.72 64.7079 21.832C64.6052 21.944 64.4746 22 64.3159 22C64.1479 22 64.0126 21.944 63.9099 21.832C63.8072 21.72 63.7559 21.5847 63.7559 21.426V17.632C63.7559 17.268 63.6999 16.9413 63.5879 16.652C63.4852 16.3533 63.3126 16.12 63.0699 15.952C62.8366 15.7747 62.5146 15.686 62.1039 15.686C61.7212 15.686 61.3712 15.7747 61.0539 15.952C60.7366 16.12 60.4846 16.3533 60.2979 16.652C60.1112 16.9413 60.0179 17.268 60.0179 17.632V21.426C60.0179 21.5847 59.9666 21.72 59.8639 21.832C59.7612 21.944 59.6259 22 59.4579 22C59.2992 22 59.1639 21.944 59.0519 21.832C58.9492 21.72 58.8979 21.5847 58.8979 21.426V17.59C58.8979 17.2353 58.8466 16.918 58.7439 16.638C58.6506 16.3487 58.4872 16.12 58.2539 15.952C58.0206 15.7747 57.6986 15.686 57.2879 15.686C56.9146 15.686 56.5739 15.7747 56.2659 15.952C55.9579 16.12 55.7106 16.3487 55.5239 16.638C55.3372 16.918 55.2439 17.2353 55.2439 17.59V21.426C55.2439 21.5847 55.1879 21.72 55.0759 21.832C54.9732 21.944 54.8426 22 54.6839 22C54.5252 22 54.3899 21.944 54.2779 21.832C54.1752 21.72 54.1239 21.5847 54.1239 21.426V15.322C54.1239 15.1633 54.1752 15.0327 54.2779 14.93C54.3899 14.818 54.5252 14.762 54.6839 14.762C54.8519 14.762 54.9872 14.818 55.0899 14.93C55.1926 15.0327 55.2439 15.1633 55.2439 15.322V16.386L54.9359 16.722C54.9732 16.4793 55.0666 16.2367 55.2159 15.994C55.3746 15.7513 55.5752 15.5273 55.8179 15.322C56.0606 15.1167 56.3312 14.9533 56.6299 14.832C56.9286 14.7107 57.2459 14.65 57.5819 14.65ZM73.8221 18.36C73.8221 19.088 73.6588 19.7367 73.3321 20.306C73.0148 20.8753 72.5808 21.3233 72.0301 21.65C71.4888 21.9767 70.8774 22.14 70.1961 22.14C69.5148 22.14 68.8988 21.9767 68.3481 21.65C67.7974 21.3233 67.3588 20.8753 67.0321 20.306C66.7148 19.7367 66.5561 19.088 66.5561 18.36C66.5561 17.632 66.7148 16.9833 67.0321 16.414C67.3588 15.8447 67.7974 15.3967 68.3481 15.07C68.8988 14.7433 69.5148 14.58 70.1961 14.58C70.8774 14.58 71.4888 14.7433 72.0301 15.07C72.5808 15.3967 73.0148 15.8447 73.3321 16.414C73.6588 16.9833 73.8221 17.632 73.8221 18.36ZM72.7021 18.36C72.7021 17.8187 72.5901 17.3427 72.3661 16.932C72.1514 16.5213 71.8528 16.1993 71.4701 15.966C71.0968 15.7327 70.6721 15.616 70.1961 15.616C69.7201 15.616 69.2908 15.7327 68.9081 15.966C68.5348 16.1993 68.2361 16.5213 68.0121 16.932C67.7881 17.3427 67.6761 17.8187 67.6761 18.36C67.6761 18.892 67.7881 19.3633 68.0121 19.774C68.2361 20.1847 68.5348 20.5113 68.9081 20.754C69.2908 20.9873 69.7201 21.104 70.1961 21.104C70.6721 21.104 71.0968 20.9873 71.4701 20.754C71.8528 20.5113 72.1514 20.1847 72.3661 19.774C72.5901 19.3633 72.7021 18.892 72.7021 18.36ZM76.0667 22C75.908 22 75.7727 21.944 75.6607 21.832C75.558 21.72 75.5067 21.5847 75.5067 21.426V15.322C75.5067 15.1633 75.558 15.0327 75.6607 14.93C75.7727 14.818 75.908 14.762 76.0667 14.762C76.2347 14.762 76.37 14.818 76.4727 14.93C76.5754 15.0327 76.6267 15.1633 76.6267 15.322V17.17L76.4587 16.876C76.5147 16.5867 76.6127 16.3067 76.7527 16.036C76.902 15.756 77.0887 15.5087 77.3127 15.294C77.5367 15.07 77.7934 14.8973 78.0827 14.776C78.372 14.6453 78.6894 14.58 79.0347 14.58C79.24 14.58 79.4267 14.6313 79.5947 14.734C79.772 14.8273 79.8607 14.9627 79.8607 15.14C79.8607 15.336 79.8094 15.4807 79.7067 15.574C79.604 15.6673 79.4874 15.714 79.3567 15.714C79.2354 15.714 79.1187 15.6907 79.0067 15.644C78.8947 15.588 78.7547 15.56 78.5867 15.56C78.3534 15.56 78.12 15.6253 77.8867 15.756C77.6627 15.8773 77.4527 16.0547 77.2567 16.288C77.07 16.5213 76.916 16.7873 76.7947 17.086C76.6827 17.3753 76.6267 17.688 76.6267 18.024V21.426C76.6267 21.5847 76.5707 21.72 76.4587 21.832C76.356 21.944 76.2254 22 76.0667 22ZM84.1574 22.14C83.4107 22.14 82.7574 21.9813 82.1974 21.664C81.6374 21.3467 81.1987 20.9127 80.8814 20.362C80.5734 19.802 80.4194 19.158 80.4194 18.43C80.4194 17.618 80.5781 16.9273 80.8954 16.358C81.2221 15.7793 81.6421 15.3407 82.1554 15.042C82.6781 14.734 83.2287 14.58 83.8074 14.58C84.2367 14.58 84.6521 14.6593 85.0534 14.818C85.4547 14.9767 85.8094 15.21 86.1174 15.518C86.4254 15.8167 86.6727 16.1807 86.8594 16.61C87.0461 17.03 87.1441 17.5013 87.1534 18.024C87.1534 18.1733 87.0974 18.2993 86.9854 18.402C86.8734 18.5047 86.7427 18.556 86.5934 18.556H81.0634L80.8114 17.59H86.2014L85.9774 17.786V17.478C85.9401 17.0953 85.8094 16.7687 85.5854 16.498C85.3707 16.218 85.1047 16.0033 84.7874 15.854C84.4794 15.7047 84.1527 15.63 83.8074 15.63C83.5274 15.63 83.2474 15.6813 82.9674 15.784C82.6967 15.8773 82.4494 16.036 82.2254 16.26C82.0107 16.4747 81.8334 16.7547 81.6934 17.1C81.5627 17.4453 81.4974 17.8607 81.4974 18.346C81.4974 18.8873 81.6047 19.3633 81.8194 19.774C82.0434 20.1847 82.3514 20.5113 82.7434 20.754C83.1354 20.9873 83.5927 21.104 84.1154 21.104C84.4421 21.104 84.7267 21.062 84.9694 20.978C85.2121 20.894 85.4221 20.7913 85.5994 20.67C85.7767 20.5393 85.9261 20.4087 86.0474 20.278C86.1687 20.194 86.2854 20.152 86.3974 20.152C86.5374 20.152 86.6494 20.1987 86.7334 20.292C86.8267 20.3853 86.8734 20.4973 86.8734 20.628C86.8734 20.7867 86.7987 20.9267 86.6494 21.048C86.3881 21.3373 86.0334 21.594 85.5854 21.818C85.1374 22.0327 84.6614 22.14 84.1574 22.14Z" fill="white"/>
</svg>
