<svg width="92" height="31" viewBox="0 0 92 31" fill="none" xmlns="http://www.w3.org/2000/svg">
<rect width="92" height="31" rx="15.5" fill="#161117"/>
<path d="M17.504 20.12C16.912 20.12 16.392 20.032 15.944 19.856C15.496 19.68 15.064 19.4 14.648 19.016C14.592 18.96 14.544 18.9 14.504 18.836C14.472 18.764 14.456 18.688 14.456 18.608C14.456 18.48 14.5 18.368 14.588 18.272C14.684 18.168 14.8 18.116 14.936 18.116C15.048 18.116 15.148 18.16 15.236 18.248C15.548 18.552 15.884 18.784 16.244 18.944C16.612 19.104 17.024 19.184 17.48 19.184C17.832 19.184 18.148 19.128 18.428 19.016C18.716 18.904 18.944 18.748 19.112 18.548C19.28 18.348 19.364 18.116 19.364 17.852C19.356 17.532 19.26 17.268 19.076 17.06C18.9 16.852 18.652 16.68 18.332 16.544C18.02 16.4 17.656 16.28 17.24 16.184C16.872 16.096 16.532 15.988 16.22 15.86C15.916 15.732 15.652 15.576 15.428 15.392C15.204 15.2 15.028 14.972 14.9 14.708C14.78 14.436 14.72 14.12 14.72 13.76C14.72 13.304 14.84 12.904 15.08 12.56C15.32 12.216 15.652 11.952 16.076 11.768C16.5 11.576 16.988 11.48 17.54 11.48C18.028 11.48 18.488 11.56 18.92 11.72C19.36 11.88 19.712 12.1 19.976 12.38C20.136 12.532 20.216 12.68 20.216 12.824C20.216 12.944 20.164 13.056 20.06 13.16C19.964 13.256 19.852 13.304 19.724 13.304C19.636 13.304 19.556 13.272 19.484 13.208C19.348 13.056 19.176 12.92 18.968 12.8C18.76 12.68 18.532 12.584 18.284 12.512C18.036 12.44 17.788 12.404 17.54 12.404C17.172 12.404 16.848 12.46 16.568 12.572C16.288 12.676 16.068 12.828 15.908 13.028C15.756 13.22 15.68 13.452 15.68 13.724C15.68 14.028 15.768 14.28 15.944 14.48C16.12 14.672 16.356 14.832 16.652 14.96C16.948 15.08 17.276 15.188 17.636 15.284C18.028 15.38 18.388 15.492 18.716 15.62C19.052 15.74 19.34 15.892 19.58 16.076C19.82 16.26 20.004 16.496 20.132 16.784C20.268 17.064 20.336 17.412 20.336 17.828C20.336 18.268 20.212 18.66 19.964 19.004C19.716 19.348 19.376 19.62 18.944 19.82C18.52 20.012 18.04 20.112 17.504 20.12ZM24.7786 13.7C25.3066 13.7 25.7226 13.816 26.0266 14.048C26.3386 14.272 26.5586 14.576 26.6866 14.96C26.8226 15.336 26.8906 15.756 26.8906 16.22V19.508C26.8906 19.644 26.8426 19.76 26.7466 19.856C26.6586 19.952 26.5466 20 26.4106 20C26.2746 20 26.1586 19.952 26.0626 19.856C25.9746 19.76 25.9306 19.644 25.9306 19.508V16.22C25.9306 15.916 25.8866 15.644 25.7986 15.404C25.7106 15.156 25.5626 14.96 25.3546 14.816C25.1546 14.664 24.8786 14.588 24.5266 14.588C24.1986 14.588 23.8986 14.664 23.6266 14.816C23.3546 14.96 23.1386 15.156 22.9786 15.404C22.8186 15.644 22.7386 15.916 22.7386 16.22V19.508C22.7386 19.644 22.6906 19.76 22.5946 19.856C22.5066 19.952 22.3946 20 22.2586 20C22.1226 20 22.0066 19.952 21.9106 19.856C21.8226 19.76 21.7786 19.644 21.7786 19.508V11.6C21.7786 11.464 21.8226 11.352 21.9106 11.264C22.0066 11.168 22.1226 11.12 22.2586 11.12C22.4026 11.12 22.5186 11.168 22.6066 11.264C22.6946 11.352 22.7386 11.464 22.7386 11.6V15.188L22.4986 15.452C22.5386 15.244 22.6266 15.036 22.7626 14.828C22.8986 14.612 23.0706 14.42 23.2786 14.252C23.4866 14.084 23.7186 13.952 23.9746 13.856C24.2306 13.752 24.4986 13.7 24.7786 13.7ZM34.5612 16.88C34.5612 17.504 34.4213 18.06 34.1413 18.548C33.8693 19.036 33.4973 19.42 33.0253 19.7C32.5613 19.98 32.0373 20.12 31.4533 20.12C30.8693 20.12 30.3413 19.98 29.8693 19.7C29.3973 19.42 29.0213 19.036 28.7413 18.548C28.4693 18.06 28.3333 17.504 28.3333 16.88C28.3333 16.256 28.4693 15.7 28.7413 15.212C29.0213 14.724 29.3973 14.34 29.8693 14.06C30.3413 13.78 30.8693 13.64 31.4533 13.64C32.0373 13.64 32.5613 13.78 33.0253 14.06C33.4973 14.34 33.8693 14.724 34.1413 15.212C34.4213 15.7 34.5612 16.256 34.5612 16.88ZM33.6013 16.88C33.6013 16.416 33.5053 16.008 33.3133 15.656C33.1293 15.304 32.8733 15.028 32.5453 14.828C32.2253 14.628 31.8613 14.528 31.4533 14.528C31.0453 14.528 30.6773 14.628 30.3493 14.828C30.0293 15.028 29.7733 15.304 29.5813 15.656C29.3893 16.008 29.2933 16.416 29.2933 16.88C29.2933 17.336 29.3893 17.74 29.5813 18.092C29.7733 18.444 30.0293 18.724 30.3493 18.932C30.6773 19.132 31.0453 19.232 31.4533 19.232C31.8613 19.232 32.2253 19.132 32.5453 18.932C32.8733 18.724 33.1293 18.444 33.3133 18.092C33.5053 17.74 33.6013 17.336 33.6013 16.88ZM43.3252 13.688C43.4532 13.688 43.5612 13.732 43.6492 13.82C43.7452 13.908 43.7932 14.024 43.7932 14.168C43.7932 14.2 43.7892 14.236 43.7812 14.276C43.7812 14.308 43.7732 14.34 43.7572 14.372L41.9092 19.688C41.8692 19.792 41.8012 19.872 41.7052 19.928C41.6172 19.984 41.5212 20.008 41.4172 20C41.2332 19.992 41.0932 19.888 40.9972 19.688L39.4852 15.896L39.7252 15.932L38.3572 19.688C38.2692 19.888 38.1292 19.992 37.9372 20C37.8332 20.008 37.7332 19.984 37.6372 19.928C37.5412 19.872 37.4772 19.792 37.4452 19.688L35.5612 14.372C35.5372 14.3 35.5252 14.232 35.5252 14.168C35.5252 14.04 35.5692 13.928 35.6572 13.832C35.7452 13.736 35.8652 13.688 36.0172 13.688C36.1132 13.688 36.2012 13.712 36.2812 13.76C36.3612 13.808 36.4172 13.884 36.4492 13.988L38.0692 18.716L37.8172 18.704L39.2212 15.104C39.3012 14.904 39.4492 14.804 39.6652 14.804C39.7772 14.804 39.8652 14.832 39.9292 14.888C40.0012 14.936 40.0532 15.008 40.0852 15.104L41.5492 18.704L41.2492 18.728L42.8692 13.988C42.9412 13.788 43.0932 13.688 43.3252 13.688ZM51.3559 13.7C51.8999 13.7 52.3399 13.84 52.6759 14.12C53.0199 14.392 53.2479 14.78 53.3599 15.284H53.1799L53.2639 15.068C53.3599 14.844 53.5239 14.628 53.7559 14.42C53.9879 14.212 54.2559 14.04 54.5599 13.904C54.8639 13.768 55.1799 13.7 55.5079 13.7C56.0359 13.7 56.4519 13.816 56.7559 14.048C57.0599 14.272 57.2759 14.576 57.4039 14.96C57.5399 15.336 57.6079 15.76 57.6079 16.232V19.508C57.6079 19.644 57.5599 19.76 57.4639 19.856C57.3759 19.952 57.2639 20 57.1279 20C56.9839 20 56.8679 19.952 56.7799 19.856C56.6919 19.76 56.6479 19.644 56.6479 19.508V16.256C56.6479 15.944 56.5999 15.664 56.5039 15.416C56.4159 15.16 56.2679 14.96 56.0599 14.816C55.8599 14.664 55.5839 14.588 55.2319 14.588C54.9039 14.588 54.6039 14.664 54.3319 14.816C54.0599 14.96 53.8439 15.16 53.6839 15.416C53.5239 15.664 53.4439 15.944 53.4439 16.256V19.508C53.4439 19.644 53.3999 19.76 53.3119 19.856C53.2239 19.952 53.1079 20 52.9639 20C52.8279 20 52.7119 19.952 52.6159 19.856C52.5279 19.76 52.4839 19.644 52.4839 19.508V16.22C52.4839 15.916 52.4399 15.644 52.3519 15.404C52.2719 15.156 52.1319 14.96 51.9319 14.816C51.7319 14.664 51.4559 14.588 51.1039 14.588C50.7839 14.588 50.4919 14.664 50.2279 14.816C49.9639 14.96 49.7519 15.156 49.5919 15.404C49.4319 15.644 49.3519 15.916 49.3519 16.22V19.508C49.3519 19.644 49.3039 19.76 49.2079 19.856C49.1199 19.952 49.0079 20 48.8719 20C48.7359 20 48.6199 19.952 48.5239 19.856C48.4359 19.76 48.3919 19.644 48.3919 19.508V14.276C48.3919 14.14 48.4359 14.028 48.5239 13.94C48.6199 13.844 48.7359 13.796 48.8719 13.796C49.0159 13.796 49.1319 13.844 49.2199 13.94C49.3079 14.028 49.3519 14.14 49.3519 14.276V15.188L49.0879 15.476C49.1199 15.268 49.1999 15.06 49.3279 14.852C49.4639 14.644 49.6359 14.452 49.8439 14.276C50.0519 14.1 50.2839 13.96 50.5399 13.856C50.7959 13.752 51.0679 13.7 51.3559 13.7ZM65.2761 16.88C65.2761 17.504 65.1361 18.06 64.8561 18.548C64.5841 19.036 64.2121 19.42 63.7401 19.7C63.2761 19.98 62.7521 20.12 62.1681 20.12C61.5841 20.12 61.0561 19.98 60.5841 19.7C60.1121 19.42 59.7361 19.036 59.4561 18.548C59.1841 18.06 59.0481 17.504 59.0481 16.88C59.0481 16.256 59.1841 15.7 59.4561 15.212C59.7361 14.724 60.1121 14.34 60.5841 14.06C61.0561 13.78 61.5841 13.64 62.1681 13.64C62.7521 13.64 63.2761 13.78 63.7401 14.06C64.2121 14.34 64.5841 14.724 64.8561 15.212C65.1361 15.7 65.2761 16.256 65.2761 16.88ZM64.3161 16.88C64.3161 16.416 64.2201 16.008 64.0281 15.656C63.8441 15.304 63.5881 15.028 63.2601 14.828C62.9401 14.628 62.5761 14.528 62.1681 14.528C61.7601 14.528 61.3921 14.628 61.0641 14.828C60.7441 15.028 60.4881 15.304 60.2961 15.656C60.1041 16.008 60.0081 16.416 60.0081 16.88C60.0081 17.336 60.1041 17.74 60.2961 18.092C60.4881 18.444 60.7441 18.724 61.0641 18.932C61.3921 19.132 61.7601 19.232 62.1681 19.232C62.5761 19.232 62.9401 19.132 63.2601 18.932C63.5881 18.724 63.8441 18.444 64.0281 18.092C64.2201 17.74 64.3161 17.336 64.3161 16.88ZM67.2 20C67.064 20 66.948 19.952 66.852 19.856C66.764 19.76 66.72 19.644 66.72 19.508V14.276C66.72 14.14 66.764 14.028 66.852 13.94C66.948 13.844 67.064 13.796 67.2 13.796C67.344 13.796 67.46 13.844 67.548 13.94C67.636 14.028 67.68 14.14 67.68 14.276V15.86L67.536 15.608C67.584 15.36 67.668 15.12 67.788 14.888C67.916 14.648 68.076 14.436 68.268 14.252C68.46 14.06 68.68 13.912 68.928 13.808C69.176 13.696 69.448 13.64 69.744 13.64C69.92 13.64 70.08 13.684 70.224 13.772C70.376 13.852 70.452 13.968 70.452 14.12C70.452 14.288 70.408 14.412 70.32 14.492C70.232 14.572 70.132 14.612 70.02 14.612C69.916 14.612 69.816 14.592 69.72 14.552C69.624 14.504 69.504 14.48 69.36 14.48C69.16 14.48 68.96 14.536 68.76 14.648C68.568 14.752 68.388 14.904 68.22 15.104C68.06 15.304 67.928 15.532 67.824 15.788C67.728 16.036 67.68 16.304 67.68 16.592V19.508C67.68 19.644 67.632 19.76 67.536 19.856C67.448 19.952 67.336 20 67.2 20ZM74.1349 20.12C73.4949 20.12 72.9349 19.984 72.4549 19.712C71.9749 19.44 71.5989 19.068 71.3269 18.596C71.0629 18.116 70.9309 17.564 70.9309 16.94C70.9309 16.244 71.0669 15.652 71.3389 15.164C71.6189 14.668 71.9789 14.292 72.4189 14.036C72.8669 13.772 73.3389 13.64 73.8349 13.64C74.2029 13.64 74.5589 13.708 74.9029 13.844C75.2469 13.98 75.5509 14.18 75.8149 14.444C76.0789 14.7 76.2909 15.012 76.4509 15.38C76.6109 15.74 76.6949 16.144 76.7029 16.592C76.7029 16.72 76.6549 16.828 76.5589 16.916C76.4629 17.004 76.3509 17.048 76.2229 17.048H71.4829L71.2669 16.22H75.8869L75.6949 16.388V16.124C75.6629 15.796 75.5509 15.516 75.3589 15.284C75.1749 15.044 74.9469 14.86 74.6749 14.732C74.4109 14.604 74.1309 14.54 73.8349 14.54C73.5949 14.54 73.3549 14.584 73.1149 14.672C72.8829 14.752 72.6709 14.888 72.4789 15.08C72.2949 15.264 72.1429 15.504 72.0229 15.8C71.9109 16.096 71.8549 16.452 71.8549 16.868C71.8549 17.332 71.9469 17.74 72.1309 18.092C72.3229 18.444 72.5869 18.724 72.9229 18.932C73.2589 19.132 73.6509 19.232 74.0989 19.232C74.3789 19.232 74.6229 19.196 74.8309 19.124C75.0389 19.052 75.2189 18.964 75.3709 18.86C75.5229 18.748 75.6509 18.636 75.7549 18.524C75.8589 18.452 75.9589 18.416 76.0549 18.416C76.1749 18.416 76.2709 18.456 76.3429 18.536C76.4229 18.616 76.4629 18.712 76.4629 18.824C76.4629 18.96 76.3989 19.08 76.2709 19.184C76.0469 19.432 75.7429 19.652 75.3589 19.844C74.9749 20.028 74.5669 20.12 74.1349 20.12Z" fill="white"/>
</svg>
