<svg width="441" height="78" viewBox="0 0 441 78" fill="none" xmlns="http://www.w3.org/2000/svg">
<rect x="0.5" y="0.5" width="440" height="77" rx="19.5" fill="white"/>
<rect x="0.5" y="0.5" width="440" height="77" rx="19.5" stroke="#AEAEAE"/>
<path d="M106.202 49.7809C104.817 49.7809 103.599 49.5749 102.551 49.1629C101.502 48.7509 100.491 48.0955 99.5169 47.1966C99.3858 47.0655 99.2734 46.9251 99.1798 46.7753C99.1049 46.6067 99.0674 46.4288 99.0674 46.2416C99.0674 45.9419 99.1704 45.6798 99.3764 45.455C99.6011 45.2116 99.8727 45.0899 100.191 45.0899C100.453 45.0899 100.687 45.1929 100.893 45.3989C101.624 46.1105 102.41 46.6535 103.253 47.0281C104.114 47.4026 105.079 47.5899 106.146 47.5899C106.97 47.5899 107.71 47.4588 108.365 47.1966C109.039 46.9344 109.573 46.5693 109.966 46.1011C110.36 45.6329 110.556 45.0899 110.556 44.4719C110.538 43.7228 110.313 43.1048 109.882 42.6179C109.47 42.1311 108.89 41.7284 108.14 41.4101C107.41 41.073 106.558 40.7921 105.584 40.5674C104.723 40.3614 103.927 40.1086 103.197 39.8089C102.485 39.5093 101.867 39.1442 101.343 38.7134C100.818 38.264 100.406 37.7303 100.107 37.1123C99.8259 36.4756 99.6854 35.7359 99.6854 34.8932C99.6854 33.8258 99.9663 32.8894 100.528 32.0842C101.09 31.279 101.867 30.661 102.86 30.2303C103.852 29.7808 104.994 29.5561 106.287 29.5561C107.429 29.5561 108.506 29.7434 109.517 30.1179C110.547 30.4924 111.371 31.0074 111.989 31.6628C112.363 32.0187 112.551 32.3651 112.551 32.7022C112.551 32.9831 112.429 33.2453 112.185 33.4887C111.961 33.7134 111.699 33.8258 111.399 33.8258C111.193 33.8258 111.006 33.7509 110.837 33.6011C110.519 33.2453 110.116 32.9269 109.629 32.646C109.142 32.3651 108.609 32.1404 108.028 31.9718C107.448 31.8033 106.867 31.719 106.287 31.719C105.425 31.719 104.667 31.8501 104.011 32.1123C103.356 32.3557 102.841 32.7115 102.466 33.1797C102.111 33.6291 101.933 34.1722 101.933 34.8089C101.933 35.5205 102.139 36.1104 102.551 36.5786C102.963 37.028 103.515 37.4026 104.208 37.7022C104.901 37.9831 105.669 38.2359 106.511 38.4606C107.429 38.6853 108.272 38.9475 109.039 39.2471C109.826 39.528 110.5 39.8839 111.062 40.3146C111.624 40.7453 112.054 41.2977 112.354 41.9719C112.672 42.6273 112.832 43.4419 112.832 44.4157C112.832 45.4457 112.541 46.3633 111.961 47.1685C111.38 47.9738 110.584 48.6105 109.573 49.0786C108.581 49.5281 107.457 49.7622 106.202 49.7809ZM123.231 34.7527C124.467 34.7527 125.441 35.0243 126.152 35.5674C126.883 36.0917 127.398 36.8033 127.697 37.7022C128.016 38.5824 128.175 39.5655 128.175 40.6516V48.3483C128.175 48.6667 128.062 48.9382 127.838 49.1629C127.632 49.3876 127.37 49.5 127.051 49.5C126.733 49.5 126.461 49.3876 126.237 49.1629C126.031 48.9382 125.928 48.6667 125.928 48.3483V40.6516C125.928 39.94 125.825 39.3033 125.619 38.7415C125.413 38.161 125.066 37.7022 124.579 37.3651C124.111 37.0093 123.465 36.8314 122.641 36.8314C121.873 36.8314 121.171 37.0093 120.534 37.3651C119.898 37.7022 119.392 38.161 119.017 38.7415C118.643 39.3033 118.456 39.94 118.456 40.6516V48.3483C118.456 48.6667 118.343 48.9382 118.119 49.1629C117.913 49.3876 117.65 49.5 117.332 49.5C117.014 49.5 116.742 49.3876 116.517 49.1629C116.311 48.9382 116.208 48.6667 116.208 48.3483V29.837C116.208 29.5186 116.311 29.2565 116.517 29.0505C116.742 28.8258 117.014 28.7134 117.332 28.7134C117.669 28.7134 117.941 28.8258 118.147 29.0505C118.353 29.2565 118.456 29.5186 118.456 29.837V38.2359L117.894 38.8539C117.987 38.367 118.193 37.8801 118.512 37.3932C118.83 36.8876 119.233 36.4381 119.72 36.0449C120.207 35.6516 120.75 35.3426 121.349 35.1179C121.948 34.8745 122.576 34.7527 123.231 34.7527ZM146.13 42.1966C146.13 43.6573 145.803 44.9588 145.147 46.1011C144.511 47.2434 143.64 48.1423 142.535 48.7977C141.449 49.4532 140.222 49.7809 138.855 49.7809C137.488 49.7809 136.252 49.4532 135.147 48.7977C134.042 48.1423 133.162 47.2434 132.507 46.1011C131.87 44.9588 131.552 43.6573 131.552 42.1966C131.552 40.7359 131.87 39.4344 132.507 38.2921C133.162 37.1498 134.042 36.2509 135.147 35.5954C136.252 34.94 137.488 34.6123 138.855 34.6123C140.222 34.6123 141.449 34.94 142.535 35.5954C143.64 36.2509 144.511 37.1498 145.147 38.2921C145.803 39.4344 146.13 40.7359 146.13 42.1966ZM143.883 42.1966C143.883 41.1105 143.659 40.1554 143.209 39.3314C142.778 38.5074 142.179 37.8614 141.411 37.3932C140.662 36.925 139.81 36.691 138.855 36.691C137.9 36.691 137.039 36.925 136.271 37.3932C135.522 37.8614 134.923 38.5074 134.473 39.3314C134.024 40.1554 133.799 41.1105 133.799 42.1966C133.799 43.264 134.024 44.2097 134.473 45.0337C134.923 45.8577 135.522 46.5131 136.271 47C137.039 47.4682 137.9 47.7022 138.855 47.7022C139.81 47.7022 140.662 47.4682 141.411 47C142.179 46.5131 142.778 45.8577 143.209 45.0337C143.659 44.2097 143.883 43.264 143.883 42.1966ZM166.645 34.7247C166.945 34.7247 167.198 34.8277 167.404 35.0336C167.629 35.2396 167.741 35.5112 167.741 35.8483C167.741 35.9232 167.732 36.0074 167.713 36.1011C167.713 36.176 167.694 36.2509 167.657 36.3258L163.331 48.7697C163.237 49.0131 163.078 49.2004 162.853 49.3315C162.647 49.4625 162.423 49.5187 162.179 49.5C161.748 49.4813 161.421 49.2378 161.196 48.7697L157.657 39.8932L158.218 39.9775L155.016 48.7697C154.81 49.2378 154.482 49.4813 154.033 49.5C153.79 49.5187 153.555 49.4625 153.331 49.3315C153.106 49.2004 152.956 49.0131 152.881 48.7697L148.471 36.3258C148.415 36.1572 148.387 35.9981 148.387 35.8483C148.387 35.5486 148.49 35.2865 148.696 35.0617C148.902 34.837 149.183 34.7247 149.539 34.7247C149.763 34.7247 149.969 34.7808 150.157 34.8932C150.344 35.0056 150.475 35.1835 150.55 35.4269L154.342 46.4944L153.752 46.4663L157.039 38.0393C157.226 37.5711 157.572 37.337 158.078 37.337C158.34 37.337 158.546 37.4026 158.696 37.5337C158.864 37.646 158.986 37.8146 159.061 38.0393L162.488 46.4663L161.786 46.5225L165.578 35.4269C165.746 34.9587 166.102 34.7247 166.645 34.7247ZM190.472 34.837C190.79 34.837 191.053 34.9494 191.259 35.1741C191.483 35.3801 191.596 35.6423 191.596 35.9606V48.3483C191.596 48.6667 191.483 48.9382 191.259 49.1629C191.053 49.3876 190.79 49.5 190.472 49.5C190.135 49.5 189.863 49.3876 189.657 49.1629C189.451 48.9382 189.348 48.6667 189.348 48.3483V45.6798L189.882 45.6236C189.882 46.0356 189.742 46.485 189.461 46.9719C189.18 47.4588 188.796 47.9176 188.309 48.3483C187.822 48.7603 187.242 49.1067 186.568 49.3876C185.912 49.6498 185.201 49.7809 184.433 49.7809C183.159 49.7809 182.017 49.4532 181.006 48.7977C179.994 48.1236 179.189 47.2153 178.59 46.073C178.009 44.9307 177.719 43.6292 177.719 42.1685C177.719 40.6891 178.009 39.3876 178.59 38.264C179.189 37.1217 179.994 36.2322 181.006 35.5954C182.017 34.94 183.141 34.6123 184.377 34.6123C185.182 34.6123 185.931 34.7434 186.624 35.0056C187.317 35.2677 187.916 35.6235 188.421 36.073C188.946 36.5224 189.348 37.0187 189.629 37.5617C189.929 38.1048 190.079 38.6479 190.079 39.191L189.348 39.0224V35.9606C189.348 35.6423 189.451 35.3801 189.657 35.1741C189.863 34.9494 190.135 34.837 190.472 34.837ZM184.686 47.7022C185.622 47.7022 186.446 47.4588 187.157 46.9719C187.888 46.485 188.45 45.8296 188.843 45.0056C189.255 44.1629 189.461 43.2172 189.461 42.1685C189.461 41.1385 189.255 40.2116 188.843 39.3876C188.45 38.5449 187.888 37.8895 187.157 37.4213C186.446 36.9344 185.622 36.691 184.686 36.691C183.768 36.691 182.944 36.925 182.214 37.3932C181.502 37.8614 180.94 38.5074 180.528 39.3314C180.116 40.1554 179.91 41.1011 179.91 42.1685C179.91 43.2172 180.107 44.1629 180.5 45.0056C180.912 45.8296 181.474 46.485 182.186 46.9719C182.916 47.4588 183.749 47.7022 184.686 47.7022ZM198.232 48.3483C198.232 48.6667 198.12 48.9382 197.895 49.1629C197.67 49.3876 197.399 49.5 197.08 49.5C196.762 49.5 196.5 49.3876 196.294 49.1629C196.088 48.9382 195.985 48.6667 195.985 48.3483V29.837C195.985 29.5186 196.088 29.2565 196.294 29.0505C196.519 28.8258 196.79 28.7134 197.109 28.7134C197.446 28.7134 197.717 28.8258 197.923 29.0505C198.129 29.2565 198.232 29.5186 198.232 29.837V48.3483ZM205.063 48.3483C205.063 48.6667 204.95 48.9382 204.726 49.1629C204.501 49.3876 204.229 49.5 203.911 49.5C203.593 49.5 203.33 49.3876 203.124 49.1629C202.918 48.9382 202.815 48.6667 202.815 48.3483V29.837C202.815 29.5186 202.918 29.2565 203.124 29.0505C203.349 28.8258 203.621 28.7134 203.939 28.7134C204.276 28.7134 204.548 28.8258 204.754 29.0505C204.96 29.2565 205.063 29.5186 205.063 29.837V48.3483ZM229.123 34.837C229.442 34.837 229.704 34.9494 229.91 35.1741C230.134 35.3801 230.247 35.6423 230.247 35.9606V48.3483C230.247 48.6667 230.134 48.9382 229.91 49.1629C229.704 49.3876 229.442 49.5 229.123 49.5C228.786 49.5 228.515 49.3876 228.309 49.1629C228.103 48.9382 228 48.6667 228 48.3483V45.6798L228.533 45.6236C228.533 46.0356 228.393 46.485 228.112 46.9719C227.831 47.4588 227.447 47.9176 226.96 48.3483C226.473 48.7603 225.893 49.1067 225.219 49.3876C224.563 49.6498 223.852 49.7809 223.084 49.7809C221.81 49.7809 220.668 49.4532 219.657 48.7977C218.646 48.1236 217.84 47.2153 217.241 46.073C216.661 44.9307 216.37 43.6292 216.37 42.1685C216.37 40.6891 216.661 39.3876 217.241 38.264C217.84 37.1217 218.646 36.2322 219.657 35.5954C220.668 34.94 221.792 34.6123 223.028 34.6123C223.833 34.6123 224.582 34.7434 225.275 35.0056C225.968 35.2677 226.567 35.6235 227.073 36.073C227.597 36.5224 228 37.0187 228.281 37.5617C228.58 38.1048 228.73 38.6479 228.73 39.191L228 39.0224V35.9606C228 35.6423 228.103 35.3801 228.309 35.1741C228.515 34.9494 228.786 34.837 229.123 34.837ZM223.337 47.7022C224.273 47.7022 225.097 47.4588 225.809 46.9719C226.539 46.485 227.101 45.8296 227.494 45.0056C227.906 44.1629 228.112 43.2172 228.112 42.1685C228.112 41.1385 227.906 40.2116 227.494 39.3876C227.101 38.5449 226.539 37.8895 225.809 37.4213C225.097 36.9344 224.273 36.691 223.337 36.691C222.419 36.691 221.595 36.925 220.865 37.3932C220.153 37.8614 219.591 38.5074 219.179 39.3314C218.767 40.1554 218.561 41.1011 218.561 42.1685C218.561 43.2172 218.758 44.1629 219.151 45.0056C219.563 45.8296 220.125 46.485 220.837 46.9719C221.567 47.4588 222.4 47.7022 223.337 47.7022ZM241.35 34.7527C242.623 34.7527 243.653 35.0805 244.44 35.7359C245.245 36.3726 245.778 37.2808 246.041 38.4606H245.619L245.816 37.955C246.041 37.4307 246.425 36.925 246.968 36.4381C247.511 35.9513 248.138 35.5486 248.85 35.2303C249.561 34.9119 250.301 34.7527 251.069 34.7527C252.305 34.7527 253.279 35.0243 253.99 35.5674C254.702 36.0917 255.207 36.8033 255.507 37.7022C255.825 38.5824 255.985 39.5749 255.985 40.6797V48.3483C255.985 48.6667 255.872 48.9382 255.647 49.1629C255.441 49.3876 255.179 49.5 254.861 49.5C254.524 49.5 254.252 49.3876 254.046 49.1629C253.84 48.9382 253.737 48.6667 253.737 48.3483V40.7359C253.737 40.0056 253.625 39.3501 253.4 38.7696C253.194 38.1704 252.848 37.7022 252.361 37.3651C251.893 37.0093 251.247 36.8314 250.423 36.8314C249.655 36.8314 248.953 37.0093 248.316 37.3651C247.679 37.7022 247.174 38.1704 246.799 38.7696C246.425 39.3501 246.237 40.0056 246.237 40.7359V48.3483C246.237 48.6667 246.134 48.9382 245.928 49.1629C245.722 49.3876 245.451 49.5 245.114 49.5C244.795 49.5 244.524 49.3876 244.299 49.1629C244.093 48.9382 243.99 48.6667 243.99 48.3483V40.6516C243.99 39.94 243.887 39.3033 243.681 38.7415C243.494 38.161 243.166 37.7022 242.698 37.3651C242.23 37.0093 241.584 36.8314 240.76 36.8314C240.011 36.8314 239.327 37.0093 238.709 37.3651C238.091 37.7022 237.595 38.161 237.22 38.7415C236.846 39.3033 236.659 39.94 236.659 40.6516V48.3483C236.659 48.6667 236.546 48.9382 236.322 49.1629C236.116 49.3876 235.853 49.5 235.535 49.5C235.217 49.5 234.945 49.3876 234.72 49.1629C234.514 48.9382 234.411 48.6667 234.411 48.3483V36.1011C234.411 35.7827 234.514 35.5205 234.72 35.3146C234.945 35.0898 235.217 34.9775 235.535 34.9775C235.872 34.9775 236.144 35.0898 236.35 35.3146C236.556 35.5205 236.659 35.7827 236.659 36.1011V38.2359L236.041 38.9101C236.116 38.4232 236.303 37.9363 236.602 37.4494C236.921 36.9625 237.323 36.5131 237.81 36.1011C238.297 35.6891 238.84 35.3614 239.44 35.1179C240.039 34.8745 240.675 34.7527 241.35 34.7527ZM266.856 49.7809C265.358 49.7809 264.047 49.4625 262.923 48.8258C261.8 48.1891 260.919 47.3183 260.283 46.2135C259.665 45.0899 259.356 43.7977 259.356 42.337C259.356 40.7078 259.674 39.3221 260.311 38.1797C260.966 37.0187 261.809 36.1385 262.839 35.5393C263.888 34.9213 264.992 34.6123 266.154 34.6123C267.015 34.6123 267.848 34.7715 268.654 35.0898C269.459 35.4082 270.17 35.8763 270.788 36.4943C271.406 37.0936 271.903 37.8239 272.277 38.6853C272.652 39.528 272.848 40.4737 272.867 41.5224C272.867 41.8221 272.755 42.0749 272.53 42.2809C272.305 42.4869 272.043 42.5899 271.743 42.5899H260.648L260.142 40.6516H270.957L270.507 41.0449V40.4269C270.433 39.6591 270.17 39.0037 269.721 38.4606C269.29 37.8988 268.757 37.4681 268.12 37.1685C267.502 36.8689 266.846 36.719 266.154 36.719C265.592 36.719 265.03 36.822 264.468 37.028C263.925 37.2153 263.429 37.5337 262.979 37.9831C262.549 38.4138 262.193 38.9756 261.912 39.6685C261.65 40.3614 261.519 41.1947 261.519 42.1685C261.519 43.2547 261.734 44.2097 262.165 45.0337C262.614 45.8577 263.232 46.5131 264.019 47C264.805 47.4682 265.723 47.7022 266.772 47.7022C267.427 47.7022 267.998 47.618 268.485 47.4494C268.972 47.2809 269.393 47.0749 269.749 46.8314C270.105 46.5693 270.405 46.3071 270.648 46.0449C270.891 45.8764 271.125 45.7921 271.35 45.7921C271.631 45.7921 271.856 45.8858 272.024 46.073C272.212 46.2603 272.305 46.485 272.305 46.7472C272.305 47.0655 272.155 47.3464 271.856 47.5899C271.331 48.1704 270.62 48.6854 269.721 49.1348C268.822 49.5655 267.867 49.7809 266.856 49.7809ZM283.464 34.6123C284.737 34.6123 285.739 34.8745 286.469 35.3988C287.2 35.9232 287.715 36.6254 288.014 37.5056C288.333 38.3857 288.492 39.3689 288.492 40.455V48.3483C288.492 48.6667 288.38 48.9382 288.155 49.1629C287.949 49.3876 287.687 49.5 287.368 49.5C287.05 49.5 286.778 49.3876 286.554 49.1629C286.348 48.9382 286.245 48.6667 286.245 48.3483V40.5112C286.245 39.7996 286.132 39.1629 285.908 38.6011C285.702 38.0206 285.346 37.5617 284.84 37.2247C284.353 36.8689 283.679 36.691 282.818 36.691C282.031 36.691 281.31 36.8689 280.655 37.2247C279.999 37.5617 279.475 38.0206 279.082 38.6011C278.688 39.1629 278.492 39.7996 278.492 40.5112V48.3483C278.492 48.6667 278.38 48.9382 278.155 49.1629C277.949 49.3876 277.687 49.5 277.368 49.5C277.05 49.5 276.778 49.3876 276.554 49.1629C276.348 48.9382 276.245 48.6667 276.245 48.3483V36.1011C276.245 35.7827 276.348 35.5205 276.554 35.3146C276.778 35.0898 277.05 34.9775 277.368 34.9775C277.705 34.9775 277.977 35.0898 278.183 35.3146C278.389 35.5205 278.492 35.7827 278.492 36.1011V38.0955L277.93 38.7134C278.024 38.2265 278.239 37.7397 278.576 37.2528C278.913 36.7471 279.335 36.2977 279.84 35.9044C280.346 35.5112 280.908 35.2022 281.526 34.9775C282.144 34.734 282.79 34.6123 283.464 34.6123ZM294.812 48.3483C294.812 48.6667 294.699 48.9382 294.475 49.1629C294.269 49.3876 294.006 49.5 293.688 49.5C293.351 49.5 293.079 49.3876 292.873 49.1629C292.668 48.9382 292.565 48.6667 292.565 48.3483V35.8763C292.565 35.558 292.668 35.2958 292.873 35.0898C293.098 34.8651 293.37 34.7527 293.688 34.7527C294.006 34.7527 294.269 34.8651 294.475 35.0898C294.699 35.2958 294.812 35.558 294.812 35.8763V48.3483ZM293.688 32.8707C293.22 32.8707 292.873 32.7771 292.649 32.5898C292.424 32.4026 292.312 32.1123 292.312 31.719V31.3258C292.312 30.9325 292.433 30.6422 292.677 30.455C292.92 30.2677 293.267 30.1741 293.716 30.1741C294.166 30.1741 294.503 30.2677 294.727 30.455C294.952 30.6422 295.065 30.9325 295.065 31.3258V31.719C295.065 32.1123 294.943 32.4026 294.699 32.5898C294.475 32.7771 294.138 32.8707 293.688 32.8707ZM298.287 35.0617H304.888C305.187 35.0617 305.431 35.1647 305.618 35.3707C305.824 35.5767 305.927 35.8202 305.927 36.1011C305.927 36.4007 305.824 36.6535 305.618 36.8595C305.431 37.0468 305.187 37.1404 304.888 37.1404H298.287C298.006 37.1404 297.762 37.0374 297.556 36.8314C297.35 36.6254 297.247 36.3726 297.247 36.073C297.247 35.7921 297.35 35.558 297.556 35.3707C297.762 35.1647 298.006 35.0617 298.287 35.0617ZM301.236 31.2415C301.554 31.2415 301.817 31.3539 302.022 31.5786C302.228 31.7846 302.331 32.0467 302.331 32.3651V45.9326C302.331 46.382 302.397 46.7191 302.528 46.9438C302.659 47.1685 302.828 47.3277 303.034 47.4213C303.258 47.4962 303.474 47.5337 303.68 47.5337C303.867 47.5337 304.026 47.5056 304.157 47.4494C304.307 47.3745 304.476 47.3371 304.663 47.3371C304.85 47.3371 305.019 47.4307 305.169 47.618C305.337 47.7865 305.421 48.0112 305.421 48.2921C305.421 48.6292 305.225 48.9195 304.831 49.1629C304.438 49.3876 303.998 49.5 303.511 49.5C303.249 49.5 302.921 49.4813 302.528 49.4438C302.154 49.4064 301.779 49.2846 301.405 49.0786C301.03 48.8727 300.712 48.5356 300.449 48.0674C300.206 47.5805 300.084 46.9064 300.084 46.0449V32.3651C300.084 32.0467 300.197 31.7846 300.421 31.5786C300.646 31.3539 300.918 31.2415 301.236 31.2415ZM311.216 48.3483C311.216 48.6667 311.103 48.9382 310.879 49.1629C310.673 49.3876 310.411 49.5 310.092 49.5C309.755 49.5 309.484 49.3876 309.278 49.1629C309.072 48.9382 308.969 48.6667 308.969 48.3483V35.8763C308.969 35.558 309.072 35.2958 309.278 35.0898C309.502 34.8651 309.774 34.7527 310.092 34.7527C310.411 34.7527 310.673 34.8651 310.879 35.0898C311.103 35.2958 311.216 35.558 311.216 35.8763V48.3483ZM310.092 32.8707C309.624 32.8707 309.278 32.7771 309.053 32.5898C308.828 32.4026 308.716 32.1123 308.716 31.719V31.3258C308.716 30.9325 308.838 30.6422 309.081 30.455C309.324 30.2677 309.671 30.1741 310.12 30.1741C310.57 30.1741 310.907 30.2677 311.132 30.455C311.356 30.6422 311.469 30.9325 311.469 31.3258V31.719C311.469 32.1123 311.347 32.4026 311.103 32.5898C310.879 32.7771 310.542 32.8707 310.092 32.8707ZM321.966 49.7809C320.468 49.7809 319.157 49.4625 318.033 48.8258C316.91 48.1891 316.03 47.3183 315.393 46.2135C314.775 45.0899 314.466 43.7977 314.466 42.337C314.466 40.7078 314.784 39.3221 315.421 38.1797C316.076 37.0187 316.919 36.1385 317.949 35.5393C318.998 34.9213 320.103 34.6123 321.264 34.6123C322.125 34.6123 322.958 34.7715 323.764 35.0898C324.569 35.4082 325.281 35.8763 325.899 36.4943C326.517 37.0936 327.013 37.8239 327.387 38.6853C327.762 39.528 327.958 40.4737 327.977 41.5224C327.977 41.8221 327.865 42.0749 327.64 42.2809C327.415 42.4869 327.153 42.5899 326.854 42.5899H315.758L315.252 40.6516H326.067L325.618 41.0449V40.4269C325.543 39.6591 325.281 39.0037 324.831 38.4606C324.4 37.8988 323.867 37.4681 323.23 37.1685C322.612 36.8689 321.957 36.719 321.264 36.719C320.702 36.719 320.14 36.822 319.578 37.028C319.035 37.2153 318.539 37.5337 318.09 37.9831C317.659 38.4138 317.303 38.9756 317.022 39.6685C316.76 40.3614 316.629 41.1947 316.629 42.1685C316.629 43.2547 316.844 44.2097 317.275 45.0337C317.724 45.8577 318.342 46.5131 319.129 47C319.915 47.4682 320.833 47.7022 321.882 47.7022C322.537 47.7022 323.108 47.618 323.595 47.4494C324.082 47.2809 324.503 47.0749 324.859 46.8314C325.215 46.5693 325.515 46.3071 325.758 46.0449C326.002 45.8764 326.236 45.7921 326.46 45.7921C326.741 45.7921 326.966 45.8858 327.135 46.073C327.322 46.2603 327.415 46.485 327.415 46.7472C327.415 47.0655 327.266 47.3464 326.966 47.5899C326.442 48.1704 325.73 48.6854 324.831 49.1348C323.932 49.5655 322.977 49.7809 321.966 49.7809ZM330.54 47.1966C330.372 46.9532 330.297 46.7004 330.315 46.4382C330.334 46.1573 330.493 45.9138 330.793 45.7078C330.98 45.5768 331.196 45.5206 331.439 45.5393C331.701 45.558 331.935 45.6798 332.141 45.9045C332.666 46.5225 333.265 47.0187 333.939 47.3932C334.613 47.7491 335.437 47.927 336.411 47.927C336.86 47.9082 337.31 47.8333 337.759 47.7022C338.209 47.5712 338.583 47.3464 338.883 47.0281C339.201 46.691 339.36 46.2509 339.36 45.7078C339.36 45.1835 339.201 44.7715 338.883 44.4719C338.565 44.1535 338.153 43.9007 337.647 43.7135C337.141 43.5075 336.589 43.3296 335.99 43.1797C335.372 43.0112 334.763 42.8239 334.164 42.6179C333.565 42.3932 333.021 42.1217 332.535 41.8033C332.066 41.4663 331.683 41.0543 331.383 40.5674C331.102 40.0618 330.962 39.4531 330.962 38.7415C330.962 37.8988 331.186 37.1685 331.636 36.5505C332.104 35.9325 332.722 35.455 333.49 35.1179C334.276 34.7808 335.128 34.6123 336.046 34.6123C336.57 34.6123 337.113 34.6778 337.675 34.8089C338.256 34.9213 338.817 35.1273 339.36 35.4269C339.904 35.7078 340.381 36.1011 340.793 36.6067C340.962 36.794 341.055 37.028 341.074 37.3089C341.093 37.5898 340.971 37.8426 340.709 38.0674C340.503 38.2172 340.269 38.2827 340.007 38.264C339.763 38.2453 339.557 38.1516 339.389 37.9831C338.995 37.5149 338.499 37.1591 337.9 36.9157C337.319 36.6535 336.673 36.5224 335.962 36.5224C335.512 36.5224 335.072 36.588 334.641 36.719C334.211 36.8501 333.845 37.0749 333.546 37.3932C333.265 37.6928 333.124 38.1142 333.124 38.6573C333.143 39.1629 333.312 39.5749 333.63 39.8932C333.948 40.2116 334.379 40.4737 334.922 40.6797C335.465 40.867 336.065 41.0543 336.72 41.2415C337.319 41.3914 337.89 41.5693 338.433 41.7752C338.995 41.9625 339.501 42.2153 339.95 42.5337C340.4 42.852 340.756 43.264 341.018 43.7696C341.28 44.2565 341.411 44.8745 341.411 45.6236C341.411 46.485 341.168 47.2341 340.681 47.8708C340.194 48.4888 339.548 48.9663 338.742 49.3034C337.956 49.6217 337.104 49.7809 336.186 49.7809C335.156 49.7809 334.136 49.5843 333.124 49.191C332.132 48.7977 331.271 48.133 330.54 47.1966Z" fill="black"/>
</svg>
