<svg width="69" height="27" viewBox="0 0 69 27" fill="none" xmlns="http://www.w3.org/2000/svg">
<rect width="69" height="27" rx="13.5" fill="#34967C"/>
<path d="M22.664 17.09C22.232 17.09 21.848 17.03 21.512 16.91C21.176 16.79 20.855 16.592 20.549 16.316C20.483 16.268 20.432 16.211 20.396 16.145C20.366 16.073 20.351 16.001 20.351 15.929C20.351 15.815 20.393 15.713 20.477 15.623C20.561 15.533 20.666 15.488 20.792 15.488C20.888 15.488 20.978 15.521 21.062 15.587C21.29 15.797 21.527 15.956 21.773 16.064C22.025 16.172 22.319 16.226 22.655 16.226C22.895 16.226 23.114 16.187 23.312 16.109C23.516 16.031 23.678 15.926 23.798 15.794C23.918 15.662 23.978 15.509 23.978 15.335C23.978 15.119 23.915 14.942 23.789 14.804C23.669 14.66 23.492 14.543 23.258 14.453C23.03 14.357 22.754 14.276 22.43 14.21C22.13 14.156 21.86 14.081 21.62 13.985C21.386 13.889 21.185 13.769 21.017 13.625C20.849 13.475 20.72 13.298 20.63 13.094C20.54 12.89 20.495 12.653 20.495 12.383C20.495 12.017 20.591 11.702 20.783 11.438C20.975 11.174 21.236 10.97 21.566 10.826C21.896 10.682 22.268 10.61 22.682 10.61C23.06 10.61 23.414 10.67 23.744 10.79C24.074 10.904 24.341 11.06 24.545 11.258C24.689 11.384 24.761 11.519 24.761 11.663C24.761 11.771 24.716 11.873 24.626 11.969C24.542 12.059 24.443 12.104 24.329 12.104C24.245 12.104 24.173 12.08 24.113 12.032C24.017 11.93 23.888 11.84 23.726 11.762C23.564 11.678 23.39 11.609 23.204 11.555C23.024 11.501 22.85 11.474 22.682 11.474C22.412 11.474 22.181 11.513 21.989 11.591C21.797 11.663 21.65 11.765 21.548 11.897C21.446 12.023 21.395 12.173 21.395 12.347C21.395 12.551 21.452 12.719 21.566 12.851C21.686 12.983 21.851 13.091 22.061 13.175C22.271 13.253 22.511 13.325 22.781 13.391C23.111 13.463 23.405 13.544 23.663 13.634C23.927 13.724 24.149 13.841 24.329 13.985C24.509 14.123 24.647 14.297 24.743 14.507C24.839 14.717 24.887 14.978 24.887 15.29C24.887 15.65 24.785 15.965 24.581 16.235C24.377 16.505 24.107 16.715 23.771 16.865C23.441 17.015 23.072 17.09 22.664 17.09ZM26.7406 16.541C26.7406 16.673 26.6986 16.784 26.6146 16.874C26.5306 16.958 26.4226 17 26.2906 17C26.1646 17 26.0566 16.958 25.9666 16.874C25.8826 16.784 25.8406 16.673 25.8406 16.541V12.689C25.8406 12.557 25.8826 12.449 25.9666 12.365C26.0566 12.275 26.1646 12.23 26.2906 12.23C26.4226 12.23 26.5306 12.275 26.6146 12.365C26.6986 12.449 26.7406 12.557 26.7406 12.689V16.541ZM26.2816 11.636C26.1076 11.636 25.9816 11.606 25.9036 11.546C25.8256 11.48 25.7866 11.372 25.7866 11.222V11.078C25.7866 10.928 25.8286 10.823 25.9126 10.763C25.9966 10.703 26.1226 10.673 26.2906 10.673C26.4706 10.673 26.5996 10.706 26.6776 10.772C26.7556 10.832 26.7946 10.934 26.7946 11.078V11.222C26.7946 11.378 26.7526 11.486 26.6686 11.546C26.5906 11.606 26.4616 11.636 26.2816 11.636ZM29.9223 12.158C30.1803 12.158 30.4173 12.2 30.6333 12.284C30.8493 12.368 31.0353 12.476 31.1913 12.608C31.3533 12.734 31.4793 12.866 31.5693 13.004C31.6593 13.142 31.7043 13.262 31.7043 13.364L31.4973 13.373V12.653C31.4973 12.527 31.5393 12.419 31.6233 12.329C31.7073 12.239 31.8153 12.194 31.9473 12.194C32.0793 12.194 32.1873 12.239 32.2713 12.329C32.3553 12.413 32.3973 12.521 32.3973 12.653V16.622C32.3973 17.132 32.2893 17.546 32.0733 17.864C31.8573 18.188 31.5693 18.425 31.2093 18.575C30.8553 18.725 30.4653 18.8 30.0393 18.8C29.8893 18.8 29.7123 18.779 29.5083 18.737C29.3043 18.701 29.1153 18.656 28.9413 18.602C28.7733 18.548 28.6563 18.494 28.5903 18.44C28.4523 18.368 28.3593 18.284 28.3113 18.188C28.2693 18.092 28.2693 17.996 28.3113 17.9C28.3713 17.768 28.4523 17.687 28.5543 17.657C28.6563 17.627 28.7733 17.636 28.9053 17.684C28.9653 17.702 29.0583 17.735 29.1843 17.783C29.3103 17.831 29.4513 17.873 29.6073 17.909C29.7633 17.951 29.9103 17.972 30.0483 17.972C30.5283 17.972 30.8883 17.861 31.1283 17.639C31.3743 17.417 31.4973 17.114 31.4973 16.73V15.92L31.5963 15.983C31.5783 16.109 31.5213 16.238 31.4253 16.37C31.3353 16.496 31.2153 16.613 31.0653 16.721C30.9153 16.829 30.7413 16.919 30.5433 16.991C30.3513 17.057 30.1533 17.09 29.9493 17.09C29.5233 17.09 29.1423 16.985 28.8063 16.775C28.4703 16.559 28.2033 16.268 28.0053 15.902C27.8073 15.53 27.7083 15.104 27.7083 14.624C27.7083 14.144 27.8073 13.721 28.0053 13.355C28.2033 12.983 28.4673 12.692 28.7973 12.482C29.1333 12.266 29.5083 12.158 29.9223 12.158ZM30.0573 12.986C29.7633 12.986 29.5053 13.058 29.2833 13.202C29.0613 13.346 28.8873 13.541 28.7613 13.787C28.6353 14.033 28.5723 14.312 28.5723 14.624C28.5723 14.936 28.6353 15.215 28.7613 15.461C28.8873 15.707 29.0613 15.902 29.2833 16.046C29.5053 16.19 29.7633 16.262 30.0573 16.262C30.3513 16.262 30.6093 16.193 30.8313 16.055C31.0533 15.911 31.2273 15.716 31.3533 15.47C31.4793 15.218 31.5423 14.936 31.5423 14.624C31.5423 14.312 31.4793 14.033 31.3533 13.787C31.2273 13.535 31.0533 13.34 30.8313 13.202C30.6093 13.058 30.3513 12.986 30.0573 12.986ZM36.0856 12.158C36.5116 12.158 36.8416 12.248 37.0756 12.428C37.3096 12.602 37.4716 12.839 37.5616 13.139C37.6576 13.433 37.7056 13.763 37.7056 14.129V16.541C37.7056 16.673 37.6606 16.784 37.5706 16.874C37.4866 16.958 37.3816 17 37.2556 17C37.1236 17 37.0156 16.958 36.9316 16.874C36.8476 16.784 36.8056 16.673 36.8056 16.541V14.138C36.8056 13.922 36.7756 13.73 36.7156 13.562C36.6556 13.388 36.5506 13.25 36.4006 13.148C36.2566 13.04 36.0526 12.986 35.7886 12.986C35.5426 12.986 35.3266 13.04 35.1406 13.148C34.9546 13.25 34.8076 13.388 34.6996 13.562C34.5976 13.73 34.5466 13.922 34.5466 14.138V16.541C34.5466 16.673 34.5016 16.784 34.4116 16.874C34.3276 16.958 34.2226 17 34.0966 17C33.9646 17 33.8566 16.958 33.7726 16.874C33.6886 16.784 33.6466 16.673 33.6466 16.541V12.725C33.6466 12.593 33.6886 12.485 33.7726 12.401C33.8566 12.311 33.9646 12.266 34.0966 12.266C34.2226 12.266 34.3276 12.311 34.4116 12.401C34.5016 12.485 34.5466 12.593 34.5466 12.725V13.229L34.3846 13.319C34.4266 13.187 34.4986 13.055 34.6006 12.923C34.7086 12.785 34.8376 12.659 34.9876 12.545C35.1376 12.425 35.3056 12.332 35.4916 12.266C35.6776 12.194 35.8756 12.158 36.0856 12.158ZM42.3061 16.541C42.3061 16.673 42.2641 16.784 42.1801 16.874C42.0961 16.958 41.9881 17 41.8561 17C41.7301 17 41.6221 16.958 41.5321 16.874C41.4481 16.784 41.4061 16.673 41.4061 16.541V12.689C41.4061 12.557 41.4481 12.449 41.5321 12.365C41.6221 12.275 41.7301 12.23 41.8561 12.23C41.9881 12.23 42.0961 12.275 42.1801 12.365C42.2641 12.449 42.3061 12.557 42.3061 12.689V16.541ZM41.8471 11.636C41.6731 11.636 41.5471 11.606 41.4691 11.546C41.3911 11.48 41.3521 11.372 41.3521 11.222V11.078C41.3521 10.928 41.3941 10.823 41.4781 10.763C41.5621 10.703 41.6881 10.673 41.8561 10.673C42.0361 10.673 42.1651 10.706 42.2431 10.772C42.3211 10.832 42.3601 10.934 42.3601 11.078V11.222C42.3601 11.378 42.3181 11.486 42.2341 11.546C42.1561 11.606 42.0271 11.636 41.8471 11.636ZM45.9557 12.158C46.3817 12.158 46.7117 12.248 46.9457 12.428C47.1797 12.602 47.3417 12.839 47.4317 13.139C47.5277 13.433 47.5757 13.763 47.5757 14.129V16.541C47.5757 16.673 47.5307 16.784 47.4407 16.874C47.3567 16.958 47.2517 17 47.1257 17C46.9937 17 46.8857 16.958 46.8017 16.874C46.7177 16.784 46.6757 16.673 46.6757 16.541V14.138C46.6757 13.922 46.6457 13.73 46.5857 13.562C46.5257 13.388 46.4207 13.25 46.2707 13.148C46.1267 13.04 45.9227 12.986 45.6587 12.986C45.4127 12.986 45.1967 13.04 45.0107 13.148C44.8247 13.25 44.6777 13.388 44.5697 13.562C44.4677 13.73 44.4167 13.922 44.4167 14.138V16.541C44.4167 16.673 44.3717 16.784 44.2817 16.874C44.1977 16.958 44.0927 17 43.9667 17C43.8347 17 43.7267 16.958 43.6427 16.874C43.5587 16.784 43.5167 16.673 43.5167 16.541V12.725C43.5167 12.593 43.5587 12.485 43.6427 12.401C43.7267 12.311 43.8347 12.266 43.9667 12.266C44.0927 12.266 44.1977 12.311 44.2817 12.401C44.3717 12.485 44.4167 12.593 44.4167 12.725V13.229L44.2547 13.319C44.2967 13.187 44.3687 13.055 44.4707 12.923C44.5787 12.785 44.7077 12.659 44.8577 12.545C45.0077 12.425 45.1757 12.332 45.3617 12.266C45.5477 12.194 45.7457 12.158 45.9557 12.158Z" fill="white"/>
</svg>
