<svg width="75" height="35" viewBox="0 0 75 35" fill="none" xmlns="http://www.w3.org/2000/svg">
<rect width="75" height="35" rx="17.5" fill="#34967C"/>
<path d="M18.44 23.15C17.72 23.15 17.08 23.05 16.52 22.85C15.96 22.65 15.425 22.32 14.915 21.86C14.805 21.78 14.72 21.685 14.66 21.575C14.61 21.455 14.585 21.335 14.585 21.215C14.585 21.025 14.655 20.855 14.795 20.705C14.935 20.555 15.11 20.48 15.32 20.48C15.48 20.48 15.63 20.535 15.77 20.645C16.15 20.995 16.545 21.26 16.955 21.44C17.375 21.62 17.865 21.71 18.425 21.71C18.825 21.71 19.19 21.645 19.52 21.515C19.86 21.385 20.13 21.21 20.33 20.99C20.53 20.77 20.63 20.515 20.63 20.225C20.63 19.865 20.525 19.57 20.315 19.34C20.115 19.1 19.82 18.905 19.43 18.755C19.05 18.595 18.59 18.46 18.05 18.35C17.55 18.26 17.1 18.135 16.7 17.975C16.31 17.815 15.975 17.615 15.695 17.375C15.415 17.125 15.2 16.83 15.05 16.49C14.9 16.15 14.825 15.755 14.825 15.305C14.825 14.695 14.985 14.17 15.305 13.73C15.625 13.29 16.06 12.95 16.61 12.71C17.16 12.47 17.78 12.35 18.47 12.35C19.1 12.35 19.69 12.45 20.24 12.65C20.79 12.84 21.235 13.1 21.575 13.43C21.815 13.64 21.935 13.865 21.935 14.105C21.935 14.285 21.86 14.455 21.71 14.615C21.57 14.765 21.405 14.84 21.215 14.84C21.075 14.84 20.955 14.8 20.855 14.72C20.695 14.55 20.48 14.4 20.21 14.27C19.94 14.13 19.65 14.015 19.34 13.925C19.04 13.835 18.75 13.79 18.47 13.79C18.02 13.79 17.635 13.855 17.315 13.985C16.995 14.105 16.75 14.275 16.58 14.495C16.41 14.705 16.325 14.955 16.325 15.245C16.325 15.585 16.42 15.865 16.61 16.085C16.81 16.305 17.085 16.485 17.435 16.625C17.785 16.755 18.185 16.875 18.635 16.985C19.185 17.105 19.675 17.24 20.105 17.39C20.545 17.54 20.915 17.735 21.215 17.975C21.515 18.205 21.745 18.495 21.905 18.845C22.065 19.195 22.145 19.63 22.145 20.15C22.145 20.75 21.975 21.275 21.635 21.725C21.295 22.175 20.845 22.525 20.285 22.775C19.735 23.025 19.12 23.15 18.44 23.15ZM25.2344 22.235C25.2344 22.455 25.1644 22.64 25.0244 22.79C24.8844 22.93 24.7044 23 24.4844 23C24.2744 23 24.0944 22.93 23.9444 22.79C23.8044 22.64 23.7344 22.455 23.7344 22.235V15.815C23.7344 15.595 23.8044 15.415 23.9444 15.275C24.0944 15.125 24.2744 15.05 24.4844 15.05C24.7044 15.05 24.8844 15.125 25.0244 15.275C25.1644 15.415 25.2344 15.595 25.2344 15.815V22.235ZM24.4694 14.06C24.1794 14.06 23.9694 14.01 23.8394 13.91C23.7094 13.8 23.6444 13.62 23.6444 13.37V13.13C23.6444 12.88 23.7144 12.705 23.8544 12.605C23.9944 12.505 24.2044 12.455 24.4844 12.455C24.7844 12.455 24.9994 12.51 25.1294 12.62C25.2594 12.72 25.3244 12.89 25.3244 13.13V13.37C25.3244 13.63 25.2544 13.81 25.1144 13.91C24.9844 14.01 24.7694 14.06 24.4694 14.06ZM30.5371 14.93C30.9671 14.93 31.3621 15 31.7221 15.14C32.0821 15.28 32.3921 15.46 32.6521 15.68C32.9221 15.89 33.1321 16.11 33.2821 16.34C33.4321 16.57 33.5071 16.77 33.5071 16.94L33.1621 16.955V15.755C33.1621 15.545 33.2321 15.365 33.3721 15.215C33.5121 15.065 33.6921 14.99 33.9121 14.99C34.1321 14.99 34.3121 15.065 34.4521 15.215C34.5921 15.355 34.6621 15.535 34.6621 15.755V22.37C34.6621 23.22 34.4821 23.91 34.1221 24.44C33.7621 24.98 33.2821 25.375 32.6821 25.625C32.0921 25.875 31.4421 26 30.7321 26C30.4821 26 30.1871 25.965 29.8471 25.895C29.5071 25.835 29.1921 25.76 28.9021 25.67C28.6221 25.58 28.4271 25.49 28.3171 25.4C28.0871 25.28 27.9321 25.14 27.8521 24.98C27.7821 24.82 27.7821 24.66 27.8521 24.5C27.9521 24.28 28.0871 24.145 28.2571 24.095C28.4271 24.045 28.6221 24.06 28.8421 24.14C28.9421 24.17 29.0971 24.225 29.3071 24.305C29.5171 24.385 29.7521 24.455 30.0121 24.515C30.2721 24.585 30.5171 24.62 30.7471 24.62C31.5471 24.62 32.1471 24.435 32.5471 24.065C32.9571 23.695 33.1621 23.19 33.1621 22.55V21.2L33.3271 21.305C33.2971 21.515 33.2021 21.73 33.0421 21.95C32.8921 22.16 32.6921 22.355 32.4421 22.535C32.1921 22.715 31.9021 22.865 31.5721 22.985C31.2521 23.095 30.9221 23.15 30.5821 23.15C29.8721 23.15 29.2371 22.975 28.6771 22.625C28.1171 22.265 27.6721 21.78 27.3421 21.17C27.0121 20.55 26.8471 19.84 26.8471 19.04C26.8471 18.24 27.0121 17.535 27.3421 16.925C27.6721 16.305 28.1121 15.82 28.6621 15.47C29.2221 15.11 29.8471 14.93 30.5371 14.93ZM30.7621 16.31C30.2721 16.31 29.8421 16.43 29.4721 16.67C29.1021 16.91 28.8121 17.235 28.6021 17.645C28.3921 18.055 28.2871 18.52 28.2871 19.04C28.2871 19.56 28.3921 20.025 28.6021 20.435C28.8121 20.845 29.1021 21.17 29.4721 21.41C29.8421 21.65 30.2721 21.77 30.7621 21.77C31.2521 21.77 31.6821 21.655 32.0521 21.425C32.4221 21.185 32.7121 20.86 32.9221 20.45C33.1321 20.03 33.2371 19.56 33.2371 19.04C33.2371 18.52 33.1321 18.055 32.9221 17.645C32.7121 17.225 32.4221 16.9 32.0521 16.67C31.6821 16.43 31.2521 16.31 30.7621 16.31ZM40.8093 14.93C41.5193 14.93 42.0693 15.08 42.4593 15.38C42.8493 15.67 43.1193 16.065 43.2693 16.565C43.4293 17.055 43.5093 17.605 43.5093 18.215V22.235C43.5093 22.455 43.4343 22.64 43.2843 22.79C43.1443 22.93 42.9693 23 42.7593 23C42.5393 23 42.3593 22.93 42.2193 22.79C42.0793 22.64 42.0093 22.455 42.0093 22.235V18.23C42.0093 17.87 41.9593 17.55 41.8593 17.27C41.7593 16.98 41.5843 16.75 41.3343 16.58C41.0943 16.4 40.7543 16.31 40.3143 16.31C39.9043 16.31 39.5443 16.4 39.2343 16.58C38.9243 16.75 38.6793 16.98 38.4993 17.27C38.3293 17.55 38.2443 17.87 38.2443 18.23V22.235C38.2443 22.455 38.1693 22.64 38.0193 22.79C37.8793 22.93 37.7043 23 37.4943 23C37.2743 23 37.0943 22.93 36.9543 22.79C36.8143 22.64 36.7443 22.455 36.7443 22.235V15.875C36.7443 15.655 36.8143 15.475 36.9543 15.335C37.0943 15.185 37.2743 15.11 37.4943 15.11C37.7043 15.11 37.8793 15.185 38.0193 15.335C38.1693 15.475 38.2443 15.655 38.2443 15.875V16.715L37.9743 16.865C38.0443 16.645 38.1643 16.425 38.3343 16.205C38.5143 15.975 38.7293 15.765 38.9793 15.575C39.2293 15.375 39.5093 15.22 39.8193 15.11C40.1293 14.99 40.4593 14.93 40.8093 14.93ZM51.1768 22.235C51.1768 22.455 51.1068 22.64 50.9668 22.79C50.8268 22.93 50.6468 23 50.4268 23C50.2168 23 50.0368 22.93 49.8868 22.79C49.7468 22.64 49.6768 22.455 49.6768 22.235V15.815C49.6768 15.595 49.7468 15.415 49.8868 15.275C50.0368 15.125 50.2168 15.05 50.4268 15.05C50.6468 15.05 50.8268 15.125 50.9668 15.275C51.1068 15.415 51.1768 15.595 51.1768 15.815V22.235ZM50.4118 14.06C50.1218 14.06 49.9118 14.01 49.7818 13.91C49.6518 13.8 49.5868 13.62 49.5868 13.37V13.13C49.5868 12.88 49.6568 12.705 49.7968 12.605C49.9368 12.505 50.1468 12.455 50.4268 12.455C50.7268 12.455 50.9418 12.51 51.0718 12.62C51.2018 12.72 51.2668 12.89 51.2668 13.13V13.37C51.2668 13.63 51.1968 13.81 51.0568 13.91C50.9268 14.01 50.7118 14.06 50.4118 14.06ZM57.2595 14.93C57.9695 14.93 58.5195 15.08 58.9095 15.38C59.2995 15.67 59.5695 16.065 59.7195 16.565C59.8795 17.055 59.9595 17.605 59.9595 18.215V22.235C59.9595 22.455 59.8845 22.64 59.7345 22.79C59.5945 22.93 59.4195 23 59.2095 23C58.9895 23 58.8095 22.93 58.6695 22.79C58.5295 22.64 58.4595 22.455 58.4595 22.235V18.23C58.4595 17.87 58.4095 17.55 58.3095 17.27C58.2095 16.98 58.0345 16.75 57.7845 16.58C57.5445 16.4 57.2045 16.31 56.7645 16.31C56.3545 16.31 55.9945 16.4 55.6845 16.58C55.3745 16.75 55.1295 16.98 54.9495 17.27C54.7795 17.55 54.6945 17.87 54.6945 18.23V22.235C54.6945 22.455 54.6195 22.64 54.4695 22.79C54.3295 22.93 54.1545 23 53.9445 23C53.7245 23 53.5445 22.93 53.4045 22.79C53.2645 22.64 53.1945 22.455 53.1945 22.235V15.875C53.1945 15.655 53.2645 15.475 53.4045 15.335C53.5445 15.185 53.7245 15.11 53.9445 15.11C54.1545 15.11 54.3295 15.185 54.4695 15.335C54.6195 15.475 54.6945 15.655 54.6945 15.875V16.715L54.4245 16.865C54.4945 16.645 54.6145 16.425 54.7845 16.205C54.9645 15.975 55.1795 15.765 55.4295 15.575C55.6795 15.375 55.9595 15.22 56.2695 15.11C56.5795 14.99 56.9095 14.93 57.2595 14.93Z" fill="white"/>
</svg>
