<svg width="66" height="31" viewBox="0 0 66 31" fill="none" xmlns="http://www.w3.org/2000/svg">
<rect width="66" height="31" rx="15.5" fill="#34967C"/>
<path d="M17.552 20.12C16.976 20.12 16.464 20.04 16.016 19.88C15.568 19.72 15.14 19.456 14.732 19.088C14.644 19.024 14.576 18.948 14.528 18.86C14.488 18.764 14.468 18.668 14.468 18.572C14.468 18.42 14.524 18.284 14.636 18.164C14.748 18.044 14.888 17.984 15.056 17.984C15.184 17.984 15.304 18.028 15.416 18.116C15.72 18.396 16.036 18.608 16.364 18.752C16.7 18.896 17.092 18.968 17.54 18.968C17.86 18.968 18.152 18.916 18.416 18.812C18.688 18.708 18.904 18.568 19.064 18.392C19.224 18.216 19.304 18.012 19.304 17.78C19.304 17.492 19.22 17.256 19.052 17.072C18.892 16.88 18.656 16.724 18.344 16.604C18.04 16.476 17.672 16.368 17.24 16.28C16.84 16.208 16.48 16.108 16.16 15.98C15.848 15.852 15.58 15.692 15.356 15.5C15.132 15.3 14.96 15.064 14.84 14.792C14.72 14.52 14.66 14.204 14.66 13.844C14.66 13.356 14.788 12.936 15.044 12.584C15.3 12.232 15.648 11.96 16.088 11.768C16.528 11.576 17.024 11.48 17.576 11.48C18.08 11.48 18.552 11.56 18.992 11.72C19.432 11.872 19.788 12.08 20.06 12.344C20.252 12.512 20.348 12.692 20.348 12.884C20.348 13.028 20.288 13.164 20.168 13.292C20.056 13.412 19.924 13.472 19.772 13.472C19.66 13.472 19.564 13.44 19.484 13.376C19.356 13.24 19.184 13.12 18.968 13.016C18.752 12.904 18.52 12.812 18.272 12.74C18.032 12.668 17.8 12.632 17.576 12.632C17.216 12.632 16.908 12.684 16.652 12.788C16.396 12.884 16.2 13.02 16.064 13.196C15.928 13.364 15.86 13.564 15.86 13.796C15.86 14.068 15.936 14.292 16.088 14.468C16.248 14.644 16.468 14.788 16.748 14.9C17.028 15.004 17.348 15.1 17.708 15.188C18.148 15.284 18.54 15.392 18.884 15.512C19.236 15.632 19.532 15.788 19.772 15.98C20.012 16.164 20.196 16.396 20.324 16.676C20.452 16.956 20.516 17.304 20.516 17.72C20.516 18.2 20.38 18.62 20.108 18.98C19.836 19.34 19.476 19.62 19.028 19.82C18.588 20.02 18.096 20.12 17.552 20.12ZM22.9875 19.388C22.9875 19.564 22.9315 19.712 22.8195 19.832C22.7075 19.944 22.5635 20 22.3875 20C22.2195 20 22.0755 19.944 21.9555 19.832C21.8435 19.712 21.7875 19.564 21.7875 19.388V14.252C21.7875 14.076 21.8435 13.932 21.9555 13.82C22.0755 13.7 22.2195 13.64 22.3875 13.64C22.5635 13.64 22.7075 13.7 22.8195 13.82C22.9315 13.932 22.9875 14.076 22.9875 14.252V19.388ZM22.3755 12.848C22.1435 12.848 21.9755 12.808 21.8715 12.728C21.7675 12.64 21.7155 12.496 21.7155 12.296V12.104C21.7155 11.904 21.7715 11.764 21.8835 11.684C21.9955 11.604 22.1635 11.564 22.3875 11.564C22.6275 11.564 22.7995 11.608 22.9035 11.696C23.0075 11.776 23.0595 11.912 23.0595 12.104V12.296C23.0595 12.504 23.0035 12.648 22.8915 12.728C22.7875 12.808 22.6155 12.848 22.3755 12.848ZM27.2297 13.544C27.5737 13.544 27.8897 13.6 28.1777 13.712C28.4657 13.824 28.7137 13.968 28.9217 14.144C29.1377 14.312 29.3057 14.488 29.4257 14.672C29.5457 14.856 29.6057 15.016 29.6057 15.152L29.3297 15.164V14.204C29.3297 14.036 29.3857 13.892 29.4977 13.772C29.6097 13.652 29.7537 13.592 29.9297 13.592C30.1057 13.592 30.2497 13.652 30.3617 13.772C30.4737 13.884 30.5297 14.028 30.5297 14.204V19.496C30.5297 20.176 30.3857 20.728 30.0977 21.152C29.8097 21.584 29.4257 21.9 28.9457 22.1C28.4737 22.3 27.9537 22.4 27.3857 22.4C27.1857 22.4 26.9497 22.372 26.6777 22.316C26.4057 22.268 26.1537 22.208 25.9217 22.136C25.6977 22.064 25.5417 21.992 25.4537 21.92C25.2697 21.824 25.1457 21.712 25.0817 21.584C25.0257 21.456 25.0257 21.328 25.0817 21.2C25.1617 21.024 25.2697 20.916 25.4057 20.876C25.5417 20.836 25.6977 20.848 25.8737 20.912C25.9537 20.936 26.0777 20.98 26.2457 21.044C26.4137 21.108 26.6017 21.164 26.8097 21.212C27.0177 21.268 27.2137 21.296 27.3977 21.296C28.0377 21.296 28.5177 21.148 28.8377 20.852C29.1657 20.556 29.3297 20.152 29.3297 19.64V18.56L29.4617 18.644C29.4377 18.812 29.3617 18.984 29.2337 19.16C29.1137 19.328 28.9537 19.484 28.7537 19.628C28.5537 19.772 28.3217 19.892 28.0577 19.988C27.8017 20.076 27.5377 20.12 27.2657 20.12C26.6977 20.12 26.1897 19.98 25.7417 19.7C25.2937 19.412 24.9377 19.024 24.6737 18.536C24.4097 18.04 24.2777 17.472 24.2777 16.832C24.2777 16.192 24.4097 15.628 24.6737 15.14C24.9377 14.644 25.2897 14.256 25.7297 13.976C26.1777 13.688 26.6777 13.544 27.2297 13.544ZM27.4097 14.648C27.0177 14.648 26.6737 14.744 26.3777 14.936C26.0817 15.128 25.8497 15.388 25.6817 15.716C25.5137 16.044 25.4297 16.416 25.4297 16.832C25.4297 17.248 25.5137 17.62 25.6817 17.948C25.8497 18.276 26.0817 18.536 26.3777 18.728C26.6737 18.92 27.0177 19.016 27.4097 19.016C27.8017 19.016 28.1457 18.924 28.4417 18.74C28.7377 18.548 28.9697 18.288 29.1377 17.96C29.3057 17.624 29.3897 17.248 29.3897 16.832C29.3897 16.416 29.3057 16.044 29.1377 15.716C28.9697 15.38 28.7377 15.12 28.4417 14.936C28.1457 14.744 27.8017 14.648 27.4097 14.648ZM35.4475 13.544C36.0155 13.544 36.4555 13.664 36.7675 13.904C37.0795 14.136 37.2955 14.452 37.4155 14.852C37.5435 15.244 37.6075 15.684 37.6075 16.172V19.388C37.6075 19.564 37.5475 19.712 37.4275 19.832C37.3155 19.944 37.1755 20 37.0075 20C36.8315 20 36.6875 19.944 36.5755 19.832C36.4635 19.712 36.4075 19.564 36.4075 19.388V16.184C36.4075 15.896 36.3675 15.64 36.2875 15.416C36.2075 15.184 36.0675 15 35.8675 14.864C35.6755 14.72 35.4035 14.648 35.0515 14.648C34.7235 14.648 34.4355 14.72 34.1875 14.864C33.9395 15 33.7435 15.184 33.5995 15.416C33.4635 15.64 33.3955 15.896 33.3955 16.184V19.388C33.3955 19.564 33.3355 19.712 33.2155 19.832C33.1035 19.944 32.9635 20 32.7955 20C32.6195 20 32.4755 19.944 32.3635 19.832C32.2515 19.712 32.1955 19.564 32.1955 19.388V14.3C32.1955 14.124 32.2515 13.98 32.3635 13.868C32.4755 13.748 32.6195 13.688 32.7955 13.688C32.9635 13.688 33.1035 13.748 33.2155 13.868C33.3355 13.98 33.3955 14.124 33.3955 14.3V14.972L33.1795 15.092C33.2355 14.916 33.3315 14.74 33.4675 14.564C33.6115 14.38 33.7835 14.212 33.9835 14.06C34.1835 13.9 34.4075 13.776 34.6555 13.688C34.9035 13.592 35.1675 13.544 35.4475 13.544ZM43.7414 19.388C43.7414 19.564 43.6854 19.712 43.5734 19.832C43.4614 19.944 43.3174 20 43.1414 20C42.9734 20 42.8294 19.944 42.7094 19.832C42.5974 19.712 42.5414 19.564 42.5414 19.388V14.252C42.5414 14.076 42.5974 13.932 42.7094 13.82C42.8294 13.7 42.9734 13.64 43.1414 13.64C43.3174 13.64 43.4614 13.7 43.5734 13.82C43.6854 13.932 43.7414 14.076 43.7414 14.252V19.388ZM43.1294 12.848C42.8974 12.848 42.7294 12.808 42.6254 12.728C42.5214 12.64 42.4694 12.496 42.4694 12.296V12.104C42.4694 11.904 42.5254 11.764 42.6374 11.684C42.7494 11.604 42.9174 11.564 43.1414 11.564C43.3814 11.564 43.5534 11.608 43.6574 11.696C43.7614 11.776 43.8134 11.912 43.8134 12.104V12.296C43.8134 12.504 43.7574 12.648 43.6454 12.728C43.5414 12.808 43.3694 12.848 43.1294 12.848ZM48.6076 13.544C49.1756 13.544 49.6156 13.664 49.9276 13.904C50.2396 14.136 50.4556 14.452 50.5756 14.852C50.7036 15.244 50.7676 15.684 50.7676 16.172V19.388C50.7676 19.564 50.7076 19.712 50.5876 19.832C50.4756 19.944 50.3356 20 50.1676 20C49.9916 20 49.8476 19.944 49.7356 19.832C49.6236 19.712 49.5676 19.564 49.5676 19.388V16.184C49.5676 15.896 49.5276 15.64 49.4476 15.416C49.3676 15.184 49.2276 15 49.0276 14.864C48.8356 14.72 48.5636 14.648 48.2116 14.648C47.8836 14.648 47.5956 14.72 47.3476 14.864C47.0996 15 46.9036 15.184 46.7596 15.416C46.6236 15.64 46.5556 15.896 46.5556 16.184V19.388C46.5556 19.564 46.4956 19.712 46.3756 19.832C46.2636 19.944 46.1236 20 45.9556 20C45.7796 20 45.6356 19.944 45.5236 19.832C45.4116 19.712 45.3556 19.564 45.3556 19.388V14.3C45.3556 14.124 45.4116 13.98 45.5236 13.868C45.6356 13.748 45.7796 13.688 45.9556 13.688C46.1236 13.688 46.2636 13.748 46.3756 13.868C46.4956 13.98 46.5556 14.124 46.5556 14.3V14.972L46.3396 15.092C46.3956 14.916 46.4916 14.74 46.6276 14.564C46.7716 14.38 46.9436 14.212 47.1436 14.06C47.3436 13.9 47.5676 13.776 47.8156 13.688C48.0636 13.592 48.3276 13.544 48.6076 13.544Z" fill="white"/>
</svg>
