<svg width="121" height="27" viewBox="0 0 121 27" fill="none" xmlns="http://www.w3.org/2000/svg">
<rect x="0.75" y="0.75" width="119.5" height="25.5" rx="12.75" fill="white"/>
<rect x="0.75" y="0.75" width="119.5" height="25.5" rx="12.75" stroke="#E9E9E9" stroke-width="1.5"/>
<path d="M16.664 17.09C16.232 17.09 15.848 17.03 15.512 16.91C15.176 16.79 14.855 16.592 14.549 16.316C14.483 16.268 14.432 16.211 14.396 16.145C14.366 16.073 14.351 16.001 14.351 15.929C14.351 15.815 14.393 15.713 14.477 15.623C14.561 15.533 14.666 15.488 14.792 15.488C14.888 15.488 14.978 15.521 15.062 15.587C15.29 15.797 15.527 15.956 15.773 16.064C16.025 16.172 16.319 16.226 16.655 16.226C16.895 16.226 17.114 16.187 17.312 16.109C17.516 16.031 17.678 15.926 17.798 15.794C17.918 15.662 17.978 15.509 17.978 15.335C17.978 15.119 17.915 14.942 17.789 14.804C17.669 14.66 17.492 14.543 17.258 14.453C17.03 14.357 16.754 14.276 16.43 14.21C16.13 14.156 15.86 14.081 15.62 13.985C15.386 13.889 15.185 13.769 15.017 13.625C14.849 13.475 14.72 13.298 14.63 13.094C14.54 12.89 14.495 12.653 14.495 12.383C14.495 12.017 14.591 11.702 14.783 11.438C14.975 11.174 15.236 10.97 15.566 10.826C15.896 10.682 16.268 10.61 16.682 10.61C17.06 10.61 17.414 10.67 17.744 10.79C18.074 10.904 18.341 11.06 18.545 11.258C18.689 11.384 18.761 11.519 18.761 11.663C18.761 11.771 18.716 11.873 18.626 11.969C18.542 12.059 18.443 12.104 18.329 12.104C18.245 12.104 18.173 12.08 18.113 12.032C18.017 11.93 17.888 11.84 17.726 11.762C17.564 11.678 17.39 11.609 17.204 11.555C17.024 11.501 16.85 11.474 16.682 11.474C16.412 11.474 16.181 11.513 15.989 11.591C15.797 11.663 15.65 11.765 15.548 11.897C15.446 12.023 15.395 12.173 15.395 12.347C15.395 12.551 15.452 12.719 15.566 12.851C15.686 12.983 15.851 13.091 16.061 13.175C16.271 13.253 16.511 13.325 16.781 13.391C17.111 13.463 17.405 13.544 17.663 13.634C17.927 13.724 18.149 13.841 18.329 13.985C18.509 14.123 18.647 14.297 18.743 14.507C18.839 14.717 18.887 14.978 18.887 15.29C18.887 15.65 18.785 15.965 18.581 16.235C18.377 16.505 18.107 16.715 17.771 16.865C17.441 17.015 17.072 17.09 16.664 17.09ZM24.4306 14.633C24.4306 15.113 24.3256 15.539 24.1156 15.911C23.9056 16.277 23.6206 16.565 23.2606 16.775C22.9006 16.985 22.4956 17.09 22.0456 17.09C21.5956 17.09 21.1906 16.985 20.8306 16.775C20.4706 16.565 20.1826 16.277 19.9666 15.911C19.7566 15.539 19.6516 15.113 19.6516 14.633C19.6516 14.147 19.7566 13.721 19.9666 13.355C20.1826 12.983 20.4706 12.692 20.8306 12.482C21.1906 12.266 21.5956 12.158 22.0456 12.158C22.4956 12.158 22.9006 12.266 23.2606 12.482C23.6206 12.692 23.9056 12.983 24.1156 13.355C24.3256 13.721 24.4306 14.147 24.4306 14.633ZM23.5306 14.633C23.5306 14.303 23.4646 14.018 23.3326 13.778C23.2006 13.532 23.0206 13.34 22.7926 13.202C22.5706 13.058 22.3216 12.986 22.0456 12.986C21.7696 12.986 21.5176 13.058 21.2896 13.202C21.0616 13.34 20.8816 13.532 20.7496 13.778C20.6176 14.018 20.5516 14.303 20.5516 14.633C20.5516 14.951 20.6176 15.233 20.7496 15.479C20.8816 15.725 21.0616 15.917 21.2896 16.055C21.5176 16.193 21.7696 16.262 22.0456 16.262C22.3216 16.262 22.5706 16.193 22.7926 16.055C23.0206 15.917 23.2006 15.725 23.3326 15.479C23.4646 15.233 23.5306 14.951 23.5306 14.633ZM25.8993 17C25.7673 17 25.6593 16.958 25.5753 16.874C25.4913 16.784 25.4493 16.673 25.4493 16.541V12.725C25.4493 12.593 25.4913 12.485 25.5753 12.401C25.6593 12.311 25.7673 12.266 25.8993 12.266C26.0253 12.266 26.1303 12.311 26.2143 12.401C26.3043 12.485 26.3493 12.593 26.3493 12.725V13.733L26.2593 13.346C26.3073 13.178 26.3793 13.022 26.4753 12.878C26.5773 12.734 26.6973 12.608 26.8353 12.5C26.9733 12.392 27.1263 12.308 27.2943 12.248C27.4683 12.188 27.6483 12.158 27.8343 12.158C27.9903 12.158 28.1253 12.2 28.2393 12.284C28.3533 12.368 28.4103 12.473 28.4103 12.599C28.4103 12.761 28.3683 12.881 28.2843 12.959C28.2003 13.031 28.1073 13.067 28.0053 13.067C27.9153 13.067 27.8283 13.049 27.7443 13.013C27.6603 12.971 27.5613 12.95 27.4473 12.95C27.3213 12.95 27.1923 12.983 27.0603 13.049C26.9283 13.115 26.8083 13.214 26.7003 13.346C26.5923 13.472 26.5053 13.622 26.4393 13.796C26.3793 13.97 26.3493 14.165 26.3493 14.381V16.541C26.3493 16.673 26.3043 16.784 26.2143 16.874C26.1303 16.958 26.0253 17 25.8993 17ZM29.1481 12.32H31.2631C31.3831 12.32 31.4821 12.362 31.5601 12.446C31.6441 12.524 31.6861 12.623 31.6861 12.743C31.6861 12.857 31.6441 12.953 31.5601 13.031C31.4821 13.109 31.3831 13.148 31.2631 13.148H29.1481C29.0281 13.148 28.9261 13.109 28.8421 13.031C28.7641 12.947 28.7251 12.848 28.7251 12.734C28.7251 12.614 28.7641 12.515 28.8421 12.437C28.9261 12.359 29.0281 12.32 29.1481 12.32ZM30.0931 11.15C30.2251 11.15 30.3331 11.195 30.4171 11.285C30.5011 11.369 30.5431 11.477 30.5431 11.609V15.785C30.5431 15.893 30.5611 15.98 30.5971 16.046C30.6331 16.112 30.6811 16.157 30.7411 16.181C30.8071 16.205 30.8731 16.217 30.9391 16.217C31.0051 16.217 31.0621 16.205 31.1101 16.181C31.1641 16.157 31.2271 16.145 31.2991 16.145C31.3711 16.145 31.4371 16.178 31.4971 16.244C31.5571 16.31 31.5871 16.4 31.5871 16.514C31.5871 16.658 31.5091 16.775 31.3531 16.865C31.1971 16.955 31.0291 17 30.8491 17C30.7471 17 30.6271 16.991 30.4891 16.973C30.3511 16.955 30.2161 16.91 30.0841 16.838C29.9581 16.766 29.8531 16.652 29.7691 16.496C29.6851 16.334 29.6431 16.109 29.6431 15.821V11.609C29.6431 11.477 29.6851 11.369 29.7691 11.285C29.8591 11.195 29.9671 11.15 30.0931 11.15ZM37.5726 12.158C37.9926 12.158 38.3646 12.263 38.6886 12.473C39.0186 12.683 39.2796 12.974 39.4716 13.346C39.6636 13.712 39.7596 14.135 39.7596 14.615C39.7596 15.095 39.6636 15.521 39.4716 15.893C39.2796 16.265 39.0216 16.559 38.6976 16.775C38.3736 16.985 38.0076 17.09 37.5996 17.09C37.3716 17.09 37.1556 17.054 36.9516 16.982C36.7476 16.904 36.5676 16.808 36.4116 16.694C36.2556 16.574 36.1266 16.448 36.0246 16.316C35.9286 16.184 35.8686 16.061 35.8446 15.947L36.0876 15.83V16.613C36.0876 16.739 36.0426 16.847 35.9526 16.937C35.8686 17.021 35.7636 17.063 35.6376 17.063C35.5056 17.063 35.3976 17.021 35.3136 16.937C35.2296 16.853 35.1876 16.745 35.1876 16.613V10.799C35.1876 10.667 35.2296 10.559 35.3136 10.475C35.3976 10.385 35.5056 10.34 35.6376 10.34C35.7636 10.34 35.8686 10.385 35.9526 10.475C36.0426 10.559 36.0876 10.667 36.0876 10.799V13.328L35.9436 13.247C35.9616 13.133 36.0186 13.016 36.1146 12.896C36.2106 12.77 36.3306 12.65 36.4746 12.536C36.6246 12.422 36.7926 12.332 36.9786 12.266C37.1706 12.194 37.3686 12.158 37.5726 12.158ZM37.4736 12.986C37.1856 12.986 36.9336 13.058 36.7176 13.202C36.5076 13.346 36.3426 13.541 36.2226 13.787C36.1026 14.027 36.0426 14.303 36.0426 14.615C36.0426 14.927 36.1026 15.209 36.2226 15.461C36.3426 15.707 36.5076 15.902 36.7176 16.046C36.9336 16.19 37.1856 16.262 37.4736 16.262C37.7556 16.262 38.0016 16.19 38.2116 16.046C38.4216 15.902 38.5866 15.704 38.7066 15.452C38.8326 15.2 38.8956 14.921 38.8956 14.615C38.8956 14.303 38.8326 14.027 38.7066 13.787C38.5866 13.541 38.4216 13.346 38.2116 13.202C38.0016 13.058 37.7556 12.986 37.4736 12.986ZM44.2965 12.23C44.4285 12.23 44.5365 12.275 44.6205 12.365C44.7045 12.449 44.7465 12.557 44.7465 12.689V16.559C44.7465 17.087 44.6445 17.516 44.4405 17.846C44.2425 18.176 43.9725 18.416 43.6305 18.566C43.2945 18.722 42.9135 18.8 42.4875 18.8C42.2715 18.8 42.0555 18.779 41.8395 18.737C41.6235 18.701 41.4465 18.647 41.3085 18.575C41.1645 18.509 41.0625 18.428 41.0025 18.332C40.9425 18.236 40.9335 18.131 40.9755 18.017C41.0175 17.873 41.0895 17.774 41.1915 17.72C41.2935 17.672 41.3985 17.669 41.5065 17.711C41.6085 17.753 41.7435 17.807 41.9115 17.873C42.0795 17.939 42.2715 17.972 42.4875 17.972C42.7815 17.972 43.0305 17.924 43.2345 17.828C43.4385 17.732 43.5915 17.582 43.6935 17.378C43.8015 17.174 43.8555 16.91 43.8555 16.586V15.965L43.9995 16.181C43.9035 16.379 43.7775 16.544 43.6215 16.676C43.4655 16.808 43.2795 16.91 43.0635 16.982C42.8535 17.054 42.6195 17.09 42.3615 17.09C42.0315 17.09 41.7465 17.018 41.5065 16.874C41.2725 16.724 41.0925 16.52 40.9665 16.262C40.8405 15.998 40.7775 15.698 40.7775 15.362V12.689C40.7775 12.557 40.8195 12.449 40.9035 12.365C40.9875 12.275 41.0955 12.23 41.2275 12.23C41.3535 12.23 41.4585 12.275 41.5425 12.365C41.6325 12.449 41.6775 12.557 41.6775 12.689V15.119C41.6775 15.515 41.7645 15.806 41.9385 15.992C42.1125 16.172 42.3705 16.262 42.7125 16.262C42.9405 16.262 43.1385 16.214 43.3065 16.118C43.4745 16.022 43.6065 15.89 43.7025 15.722C43.7985 15.548 43.8465 15.347 43.8465 15.119V12.689C43.8465 12.557 43.8885 12.449 43.9725 12.365C44.0625 12.275 44.1705 12.23 44.2965 12.23ZM46.43 13.4C46.28 13.4 46.163 13.361 46.079 13.283C46.001 13.199 45.962 13.082 45.962 12.932V12.761C45.962 12.611 46.001 12.494 46.079 12.41C46.163 12.326 46.28 12.284 46.43 12.284H46.529C46.679 12.284 46.793 12.326 46.871 12.41C46.949 12.494 46.988 12.611 46.988 12.761V12.932C46.988 13.082 46.949 13.199 46.871 13.283C46.793 13.361 46.679 13.4 46.529 13.4H46.43ZM46.43 17C46.28 17 46.163 16.958 46.079 16.874C46.001 16.79 45.962 16.673 45.962 16.523V16.361C45.962 16.205 46.001 16.088 46.079 16.01C46.163 15.926 46.28 15.884 46.43 15.884H46.529C46.679 15.884 46.793 15.926 46.871 16.01C46.949 16.088 46.988 16.205 46.988 16.361V16.523C46.988 16.673 46.949 16.79 46.871 16.874C46.793 16.958 46.679 17 46.529 17H46.43Z" fill="#8C8C8C"/>
<path d="M51.2941 10.7C51.4141 10.7 51.5191 10.745 51.6091 10.835C51.7051 10.919 51.7531 11.027 51.7531 11.159V16.541C51.7471 16.673 51.6961 16.784 51.6001 16.874C51.5101 16.958 51.4021 17 51.2761 17C51.1381 17 51.0241 16.958 50.9341 16.874C50.8501 16.784 50.8081 16.673 50.8081 16.541V11.159C50.8081 11.027 50.8531 10.919 50.9431 10.835C51.0331 10.745 51.1501 10.7 51.2941 10.7ZM55.3531 10.7C55.4971 10.7 55.6111 10.745 55.6951 10.835C55.7791 10.919 55.8211 11.027 55.8211 11.159V16.541C55.8211 16.673 55.7761 16.784 55.6861 16.874C55.6021 16.958 55.4881 17 55.3441 17C55.2181 17 55.1101 16.958 55.0201 16.874C54.9301 16.784 54.8851 16.673 54.8851 16.541V11.159C54.8851 11.027 54.9301 10.919 55.0201 10.835C55.1161 10.745 55.2271 10.7 55.3531 10.7ZM51.2581 13.382H55.3621L55.3531 14.246H51.2491L51.2581 13.382ZM58.0239 16.541C58.0239 16.673 57.9819 16.784 57.8979 16.874C57.8139 16.958 57.7059 17 57.5739 17C57.4479 17 57.3399 16.958 57.2499 16.874C57.1659 16.784 57.1239 16.673 57.1239 16.541V12.689C57.1239 12.557 57.1659 12.449 57.2499 12.365C57.3399 12.275 57.4479 12.23 57.5739 12.23C57.7059 12.23 57.8139 12.275 57.8979 12.365C57.9819 12.449 58.0239 12.557 58.0239 12.689V16.541ZM57.5649 11.636C57.3909 11.636 57.2649 11.606 57.1869 11.546C57.1089 11.48 57.0699 11.372 57.0699 11.222V11.078C57.0699 10.928 57.1119 10.823 57.1959 10.763C57.2799 10.703 57.4059 10.673 57.5739 10.673C57.7539 10.673 57.8829 10.706 57.9609 10.772C58.0389 10.832 58.0779 10.934 58.0779 11.078V11.222C58.0779 11.378 58.0359 11.486 57.9519 11.546C57.8739 11.606 57.7449 11.636 57.5649 11.636ZM61.2055 12.158C61.4635 12.158 61.7005 12.2 61.9165 12.284C62.1325 12.368 62.3185 12.476 62.4745 12.608C62.6365 12.734 62.7625 12.866 62.8525 13.004C62.9425 13.142 62.9875 13.262 62.9875 13.364L62.7805 13.373V12.653C62.7805 12.527 62.8225 12.419 62.9065 12.329C62.9905 12.239 63.0985 12.194 63.2305 12.194C63.3625 12.194 63.4705 12.239 63.5545 12.329C63.6385 12.413 63.6805 12.521 63.6805 12.653V16.622C63.6805 17.132 63.5725 17.546 63.3565 17.864C63.1405 18.188 62.8525 18.425 62.4925 18.575C62.1385 18.725 61.7485 18.8 61.3225 18.8C61.1725 18.8 60.9955 18.779 60.7915 18.737C60.5875 18.701 60.3985 18.656 60.2245 18.602C60.0565 18.548 59.9395 18.494 59.8735 18.44C59.7355 18.368 59.6425 18.284 59.5945 18.188C59.5525 18.092 59.5525 17.996 59.5945 17.9C59.6545 17.768 59.7355 17.687 59.8375 17.657C59.9395 17.627 60.0565 17.636 60.1885 17.684C60.2485 17.702 60.3415 17.735 60.4675 17.783C60.5935 17.831 60.7345 17.873 60.8905 17.909C61.0465 17.951 61.1935 17.972 61.3315 17.972C61.8115 17.972 62.1715 17.861 62.4115 17.639C62.6575 17.417 62.7805 17.114 62.7805 16.73V15.92L62.8795 15.983C62.8615 16.109 62.8045 16.238 62.7085 16.37C62.6185 16.496 62.4985 16.613 62.3485 16.721C62.1985 16.829 62.0245 16.919 61.8265 16.991C61.6345 17.057 61.4365 17.09 61.2325 17.09C60.8065 17.09 60.4255 16.985 60.0895 16.775C59.7535 16.559 59.4865 16.268 59.2885 15.902C59.0905 15.53 58.9915 15.104 58.9915 14.624C58.9915 14.144 59.0905 13.721 59.2885 13.355C59.4865 12.983 59.7505 12.692 60.0805 12.482C60.4165 12.266 60.7915 12.158 61.2055 12.158ZM61.3405 12.986C61.0465 12.986 60.7885 13.058 60.5665 13.202C60.3445 13.346 60.1705 13.541 60.0445 13.787C59.9185 14.033 59.8555 14.312 59.8555 14.624C59.8555 14.936 59.9185 15.215 60.0445 15.461C60.1705 15.707 60.3445 15.902 60.5665 16.046C60.7885 16.19 61.0465 16.262 61.3405 16.262C61.6345 16.262 61.8925 16.193 62.1145 16.055C62.3365 15.911 62.5105 15.716 62.6365 15.47C62.7625 15.218 62.8255 14.936 62.8255 14.624C62.8255 14.312 62.7625 14.033 62.6365 13.787C62.5105 13.535 62.3365 13.34 62.1145 13.202C61.8925 13.058 61.6345 12.986 61.3405 12.986ZM67.3148 12.185C67.7288 12.185 68.0498 12.275 68.2778 12.455C68.5058 12.629 68.6648 12.866 68.7548 13.166C68.8508 13.466 68.8988 13.796 68.8988 14.156V16.541C68.8988 16.673 68.8538 16.784 68.7638 16.874C68.6798 16.958 68.5748 17 68.4488 17C68.3168 17 68.2088 16.958 68.1248 16.874C68.0408 16.784 67.9988 16.673 67.9988 16.541V14.156C67.9988 13.946 67.9688 13.754 67.9088 13.58C67.8548 13.406 67.7558 13.268 67.6118 13.166C67.4738 13.064 67.2788 13.013 67.0268 13.013C66.7928 13.013 66.5828 13.064 66.3968 13.166C66.2168 13.268 66.0758 13.406 65.9738 13.58C65.8778 13.754 65.8298 13.946 65.8298 14.156V16.541C65.8298 16.673 65.7848 16.784 65.6948 16.874C65.6108 16.958 65.5058 17 65.3798 17C65.2478 17 65.1398 16.958 65.0558 16.874C64.9718 16.784 64.9298 16.673 64.9298 16.541V10.799C64.9298 10.667 64.9718 10.559 65.0558 10.475C65.1398 10.385 65.2478 10.34 65.3798 10.34C65.5058 10.34 65.6108 10.385 65.6948 10.475C65.7848 10.559 65.8298 10.667 65.8298 10.799V13.256L65.6678 13.346C65.7098 13.214 65.7788 13.079 65.8748 12.941C65.9768 12.803 66.0998 12.677 66.2438 12.563C66.3938 12.449 66.5588 12.359 66.7388 12.293C66.9188 12.221 67.1108 12.185 67.3148 12.185ZM72.3555 17.09C71.8575 17.09 71.4255 16.988 71.0595 16.784C70.6935 16.574 70.4085 16.289 70.2045 15.929C70.0065 15.563 69.9075 15.146 69.9075 14.678C69.9075 14.15 70.0125 13.7 70.2225 13.328C70.4385 12.95 70.7175 12.662 71.0595 12.464C71.4015 12.26 71.7645 12.158 72.1485 12.158C72.4425 12.158 72.7215 12.218 72.9855 12.338C73.2495 12.452 73.4835 12.614 73.6875 12.824C73.8975 13.028 74.0625 13.271 74.1825 13.553C74.3025 13.829 74.3655 14.132 74.3715 14.462C74.3655 14.582 74.3175 14.681 74.2275 14.759C74.1375 14.837 74.0325 14.876 73.9125 14.876H70.4115L70.1955 14.111H73.5795L73.4085 14.273V14.048C73.3965 13.838 73.3275 13.655 73.2015 13.499C73.0755 13.337 72.9195 13.214 72.7335 13.13C72.5475 13.04 72.3525 12.995 72.1485 12.995C71.9685 12.995 71.7945 13.025 71.6265 13.085C71.4645 13.139 71.3175 13.229 71.1855 13.355C71.0595 13.481 70.9575 13.649 70.8795 13.859C70.8075 14.063 70.7715 14.318 70.7715 14.624C70.7715 14.954 70.8405 15.242 70.9785 15.488C71.1165 15.734 71.3025 15.926 71.5365 16.064C71.7705 16.196 72.0285 16.262 72.3105 16.262C72.5325 16.262 72.7155 16.241 72.8595 16.199C73.0035 16.151 73.1235 16.094 73.2195 16.028C73.3155 15.962 73.3995 15.899 73.4715 15.839C73.5615 15.785 73.6515 15.758 73.7415 15.758C73.8495 15.758 73.9395 15.797 74.0115 15.875C74.0835 15.947 74.1195 16.034 74.1195 16.136C74.1195 16.268 74.0535 16.388 73.9215 16.496C73.7595 16.652 73.5345 16.79 73.2465 16.91C72.9645 17.03 72.6675 17.09 72.3555 17.09ZM75.1098 16.262C75.0558 16.178 75.0318 16.082 75.0378 15.974C75.0438 15.86 75.1068 15.764 75.2268 15.686C75.3108 15.632 75.3978 15.611 75.4878 15.623C75.5838 15.629 75.6738 15.674 75.7578 15.758C75.9258 15.944 76.1118 16.091 76.3158 16.199C76.5258 16.307 76.7778 16.361 77.0718 16.361C77.1918 16.355 77.3148 16.337 77.4408 16.307C77.5668 16.271 77.6748 16.211 77.7648 16.127C77.8548 16.037 77.8998 15.908 77.8998 15.74C77.8998 15.59 77.8518 15.47 77.7558 15.38C77.6598 15.29 77.5338 15.218 77.3778 15.164C77.2218 15.104 77.0538 15.05 76.8738 15.002C76.6818 14.948 76.4868 14.888 76.2888 14.822C76.0968 14.756 75.9228 14.672 75.7668 14.57C75.6108 14.462 75.4818 14.324 75.3798 14.156C75.2838 13.988 75.2358 13.781 75.2358 13.535C75.2358 13.253 75.3138 13.01 75.4698 12.806C75.6318 12.602 75.8388 12.443 76.0908 12.329C76.3488 12.215 76.6278 12.158 76.9278 12.158C77.1018 12.158 77.2848 12.182 77.4768 12.23C77.6688 12.272 77.8548 12.341 78.0348 12.437C78.2148 12.533 78.3708 12.659 78.5028 12.815C78.5628 12.893 78.5958 12.986 78.6018 13.094C78.6138 13.202 78.5658 13.298 78.4578 13.382C78.3858 13.442 78.2988 13.469 78.1968 13.463C78.0948 13.457 78.0108 13.424 77.9448 13.364C77.8308 13.22 77.6838 13.109 77.5038 13.031C77.3238 12.947 77.1198 12.905 76.8918 12.905C76.7778 12.905 76.6578 12.923 76.5318 12.959C76.4118 12.989 76.3098 13.046 76.2258 13.13C76.1418 13.214 76.0998 13.337 76.0998 13.499C76.0998 13.649 76.1478 13.769 76.2438 13.859C76.3458 13.949 76.4778 14.024 76.6398 14.084C76.8018 14.144 76.9788 14.198 77.1708 14.246C77.3568 14.294 77.5398 14.351 77.7198 14.417C77.9058 14.483 78.0708 14.57 78.2148 14.678C78.3648 14.78 78.4848 14.915 78.5748 15.083C78.6708 15.245 78.7188 15.452 78.7188 15.704C78.7188 15.998 78.6318 16.25 78.4578 16.46C78.2898 16.664 78.0738 16.82 77.8098 16.928C77.5518 17.036 77.2788 17.09 76.9908 17.09C76.6488 17.09 76.3068 17.03 75.9648 16.91C75.6288 16.784 75.3438 16.568 75.1098 16.262ZM79.6236 12.32H81.7386C81.8586 12.32 81.9576 12.362 82.0356 12.446C82.1196 12.524 82.1616 12.623 82.1616 12.743C82.1616 12.857 82.1196 12.953 82.0356 13.031C81.9576 13.109 81.8586 13.148 81.7386 13.148H79.6236C79.5036 13.148 79.4016 13.109 79.3176 13.031C79.2396 12.947 79.2006 12.848 79.2006 12.734C79.2006 12.614 79.2396 12.515 79.3176 12.437C79.4016 12.359 79.5036 12.32 79.6236 12.32ZM80.5686 11.15C80.7006 11.15 80.8086 11.195 80.8926 11.285C80.9766 11.369 81.0186 11.477 81.0186 11.609V15.785C81.0186 15.893 81.0366 15.98 81.0726 16.046C81.1086 16.112 81.1566 16.157 81.2166 16.181C81.2826 16.205 81.3486 16.217 81.4146 16.217C81.4806 16.217 81.5376 16.205 81.5856 16.181C81.6396 16.157 81.7026 16.145 81.7746 16.145C81.8466 16.145 81.9126 16.178 81.9726 16.244C82.0326 16.31 82.0626 16.4 82.0626 16.514C82.0626 16.658 81.9846 16.775 81.8286 16.865C81.6726 16.955 81.5046 17 81.3246 17C81.2226 17 81.1026 16.991 80.9646 16.973C80.8266 16.955 80.6916 16.91 80.5596 16.838C80.4336 16.766 80.3286 16.652 80.2446 16.496C80.1606 16.334 80.1186 16.109 80.1186 15.821V11.609C80.1186 11.477 80.1606 11.369 80.2446 11.285C80.3346 11.195 80.4426 11.15 80.5686 11.15ZM88.3002 10.7C88.6182 10.7 88.9122 10.787 89.1822 10.961C89.4522 11.129 89.6682 11.36 89.8302 11.654C89.9922 11.948 90.0732 12.278 90.0732 12.644C90.0732 13.01 89.9922 13.343 89.8302 13.643C89.6682 13.937 89.4522 14.174 89.1822 14.354C88.9122 14.528 88.6182 14.615 88.3002 14.615H86.5632L86.6352 14.471V16.541C86.6352 16.673 86.5932 16.784 86.5092 16.874C86.4312 16.958 86.3262 17 86.1942 17C86.0682 17 85.9632 16.958 85.8792 16.874C85.8012 16.784 85.7622 16.673 85.7622 16.541V11.159C85.7622 11.027 85.8072 10.919 85.8972 10.835C85.9872 10.745 86.0952 10.7 86.2212 10.7H88.3002ZM88.3002 13.751C88.4562 13.751 88.5972 13.7 88.7232 13.598C88.8552 13.496 88.9602 13.361 89.0382 13.193C89.1222 13.025 89.1642 12.842 89.1642 12.644C89.1642 12.446 89.1222 12.266 89.0382 12.104C88.9602 11.942 88.8552 11.813 88.7232 11.717C88.5972 11.615 88.4562 11.564 88.3002 11.564H86.5452L86.6352 11.429V13.868L86.5542 13.751H88.3002ZM91.5185 17C91.3865 17 91.2785 16.958 91.1945 16.874C91.1105 16.784 91.0685 16.673 91.0685 16.541V12.725C91.0685 12.593 91.1105 12.485 91.1945 12.401C91.2785 12.311 91.3865 12.266 91.5185 12.266C91.6445 12.266 91.7495 12.311 91.8335 12.401C91.9235 12.485 91.9685 12.593 91.9685 12.725V13.733L91.8785 13.346C91.9265 13.178 91.9985 13.022 92.0945 12.878C92.1965 12.734 92.3165 12.608 92.4545 12.5C92.5925 12.392 92.7455 12.308 92.9135 12.248C93.0875 12.188 93.2675 12.158 93.4535 12.158C93.6095 12.158 93.7445 12.2 93.8585 12.284C93.9725 12.368 94.0295 12.473 94.0295 12.599C94.0295 12.761 93.9875 12.881 93.9035 12.959C93.8195 13.031 93.7265 13.067 93.6245 13.067C93.5345 13.067 93.4475 13.049 93.3635 13.013C93.2795 12.971 93.1805 12.95 93.0665 12.95C92.9405 12.95 92.8115 12.983 92.6795 13.049C92.5475 13.115 92.4275 13.214 92.3195 13.346C92.2115 13.472 92.1245 13.622 92.0585 13.796C91.9985 13.97 91.9685 14.165 91.9685 14.381V16.541C91.9685 16.673 91.9235 16.784 91.8335 16.874C91.7495 16.958 91.6445 17 91.5185 17ZM95.6762 16.541C95.6762 16.673 95.6342 16.784 95.5502 16.874C95.4662 16.958 95.3582 17 95.2262 17C95.1002 17 94.9922 16.958 94.9022 16.874C94.8182 16.784 94.7762 16.673 94.7762 16.541V12.689C94.7762 12.557 94.8182 12.449 94.9022 12.365C94.9922 12.275 95.1002 12.23 95.2262 12.23C95.3582 12.23 95.4662 12.275 95.5502 12.365C95.6342 12.449 95.6762 12.557 95.6762 12.689V16.541ZM95.2172 11.636C95.0432 11.636 94.9172 11.606 94.8392 11.546C94.7612 11.48 94.7222 11.372 94.7222 11.222V11.078C94.7222 10.928 94.7642 10.823 94.8482 10.763C94.9322 10.703 95.0582 10.673 95.2262 10.673C95.4062 10.673 95.5352 10.706 95.6132 10.772C95.6912 10.832 95.7302 10.934 95.7302 11.078V11.222C95.7302 11.378 95.6882 11.486 95.6042 11.546C95.5262 11.606 95.3972 11.636 95.2172 11.636ZM98.9838 12.158C99.3078 12.158 99.5958 12.194 99.8478 12.266C100.1 12.332 100.295 12.428 100.433 12.554C100.577 12.674 100.649 12.815 100.649 12.977C100.649 13.079 100.619 13.175 100.559 13.265C100.499 13.349 100.409 13.391 100.289 13.391C100.205 13.391 100.133 13.376 100.073 13.346C100.019 13.316 99.9678 13.28 99.9198 13.238C99.8718 13.196 99.8118 13.154 99.7398 13.112C99.6738 13.076 99.5748 13.046 99.4428 13.022C99.3168 12.998 99.2028 12.986 99.1008 12.986C98.7828 12.986 98.5068 13.058 98.2728 13.202C98.0448 13.346 97.8648 13.541 97.7328 13.787C97.6068 14.033 97.5438 14.312 97.5438 14.624C97.5438 14.936 97.6068 15.215 97.7328 15.461C97.8648 15.707 98.0418 15.902 98.2638 16.046C98.4918 16.19 98.7558 16.262 99.0558 16.262C99.2358 16.262 99.3828 16.25 99.4968 16.226C99.6108 16.196 99.7098 16.16 99.7938 16.118C99.8838 16.064 99.9588 16.01 100.019 15.956C100.085 15.896 100.175 15.866 100.289 15.866C100.421 15.866 100.52 15.908 100.586 15.992C100.658 16.07 100.694 16.169 100.694 16.289C100.694 16.421 100.613 16.55 100.451 16.676C100.295 16.796 100.085 16.895 99.8208 16.973C99.5568 17.051 99.2658 17.09 98.9478 17.09C98.4798 17.09 98.0718 16.982 97.7238 16.766C97.3818 16.55 97.1148 16.256 96.9228 15.884C96.7368 15.512 96.6438 15.092 96.6438 14.624C96.6438 14.15 96.7428 13.73 96.9408 13.364C97.1388 12.992 97.4148 12.698 97.7688 12.482C98.1228 12.266 98.5278 12.158 98.9838 12.158ZM103.759 17.09C103.261 17.09 102.829 16.988 102.463 16.784C102.097 16.574 101.812 16.289 101.608 15.929C101.41 15.563 101.311 15.146 101.311 14.678C101.311 14.15 101.416 13.7 101.626 13.328C101.842 12.95 102.121 12.662 102.463 12.464C102.805 12.26 103.168 12.158 103.552 12.158C103.846 12.158 104.125 12.218 104.389 12.338C104.653 12.452 104.887 12.614 105.091 12.824C105.301 13.028 105.466 13.271 105.586 13.553C105.706 13.829 105.769 14.132 105.775 14.462C105.769 14.582 105.721 14.681 105.631 14.759C105.541 14.837 105.436 14.876 105.316 14.876H101.815L101.599 14.111H104.983L104.812 14.273V14.048C104.8 13.838 104.731 13.655 104.605 13.499C104.479 13.337 104.323 13.214 104.137 13.13C103.951 13.04 103.756 12.995 103.552 12.995C103.372 12.995 103.198 13.025 103.03 13.085C102.868 13.139 102.721 13.229 102.589 13.355C102.463 13.481 102.361 13.649 102.283 13.859C102.211 14.063 102.175 14.318 102.175 14.624C102.175 14.954 102.244 15.242 102.382 15.488C102.52 15.734 102.706 15.926 102.94 16.064C103.174 16.196 103.432 16.262 103.714 16.262C103.936 16.262 104.119 16.241 104.263 16.199C104.407 16.151 104.527 16.094 104.623 16.028C104.719 15.962 104.803 15.899 104.875 15.839C104.965 15.785 105.055 15.758 105.145 15.758C105.253 15.758 105.343 15.797 105.415 15.875C105.487 15.947 105.523 16.034 105.523 16.136C105.523 16.268 105.457 16.388 105.325 16.496C105.163 16.652 104.938 16.79 104.65 16.91C104.368 17.03 104.071 17.09 103.759 17.09Z" fill="#161117"/>
</svg>
