<svg width="151" height="31" viewBox="0 0 151 31" fill="none" xmlns="http://www.w3.org/2000/svg">
<rect x="0.75" y="0.75" width="149.5" height="29.5" rx="14.75" fill="white"/>
<rect x="0.75" y="0.75" width="149.5" height="29.5" rx="14.75" stroke="#E9E9E9" stroke-width="1.5"/>
<path d="M17.552 20.12C16.976 20.12 16.464 20.04 16.016 19.88C15.568 19.72 15.14 19.456 14.732 19.088C14.644 19.024 14.576 18.948 14.528 18.86C14.488 18.764 14.468 18.668 14.468 18.572C14.468 18.42 14.524 18.284 14.636 18.164C14.748 18.044 14.888 17.984 15.056 17.984C15.184 17.984 15.304 18.028 15.416 18.116C15.72 18.396 16.036 18.608 16.364 18.752C16.7 18.896 17.092 18.968 17.54 18.968C17.86 18.968 18.152 18.916 18.416 18.812C18.688 18.708 18.904 18.568 19.064 18.392C19.224 18.216 19.304 18.012 19.304 17.78C19.304 17.492 19.22 17.256 19.052 17.072C18.892 16.88 18.656 16.724 18.344 16.604C18.04 16.476 17.672 16.368 17.24 16.28C16.84 16.208 16.48 16.108 16.16 15.98C15.848 15.852 15.58 15.692 15.356 15.5C15.132 15.3 14.96 15.064 14.84 14.792C14.72 14.52 14.66 14.204 14.66 13.844C14.66 13.356 14.788 12.936 15.044 12.584C15.3 12.232 15.648 11.96 16.088 11.768C16.528 11.576 17.024 11.48 17.576 11.48C18.08 11.48 18.552 11.56 18.992 11.72C19.432 11.872 19.788 12.08 20.06 12.344C20.252 12.512 20.348 12.692 20.348 12.884C20.348 13.028 20.288 13.164 20.168 13.292C20.056 13.412 19.924 13.472 19.772 13.472C19.66 13.472 19.564 13.44 19.484 13.376C19.356 13.24 19.184 13.12 18.968 13.016C18.752 12.904 18.52 12.812 18.272 12.74C18.032 12.668 17.8 12.632 17.576 12.632C17.216 12.632 16.908 12.684 16.652 12.788C16.396 12.884 16.2 13.02 16.064 13.196C15.928 13.364 15.86 13.564 15.86 13.796C15.86 14.068 15.936 14.292 16.088 14.468C16.248 14.644 16.468 14.788 16.748 14.9C17.028 15.004 17.348 15.1 17.708 15.188C18.148 15.284 18.54 15.392 18.884 15.512C19.236 15.632 19.532 15.788 19.772 15.98C20.012 16.164 20.196 16.396 20.324 16.676C20.452 16.956 20.516 17.304 20.516 17.72C20.516 18.2 20.38 18.62 20.108 18.98C19.836 19.34 19.476 19.62 19.028 19.82C18.588 20.02 18.096 20.12 17.552 20.12ZM27.9075 16.844C27.9075 17.484 27.7675 18.052 27.4875 18.548C27.2075 19.036 26.8275 19.42 26.3475 19.7C25.8675 19.98 25.3275 20.12 24.7275 20.12C24.1275 20.12 23.5875 19.98 23.1075 19.7C22.6275 19.42 22.2435 19.036 21.9555 18.548C21.6755 18.052 21.5355 17.484 21.5355 16.844C21.5355 16.196 21.6755 15.628 21.9555 15.14C22.2435 14.644 22.6275 14.256 23.1075 13.976C23.5875 13.688 24.1275 13.544 24.7275 13.544C25.3275 13.544 25.8675 13.688 26.3475 13.976C26.8275 14.256 27.2075 14.644 27.4875 15.14C27.7675 15.628 27.9075 16.196 27.9075 16.844ZM26.7075 16.844C26.7075 16.404 26.6195 16.024 26.4435 15.704C26.2675 15.376 26.0275 15.12 25.7235 14.936C25.4275 14.744 25.0955 14.648 24.7275 14.648C24.3595 14.648 24.0235 14.744 23.7195 14.936C23.4155 15.12 23.1755 15.376 22.9995 15.704C22.8235 16.024 22.7355 16.404 22.7355 16.844C22.7355 17.268 22.8235 17.644 22.9995 17.972C23.1755 18.3 23.4155 18.556 23.7195 18.74C24.0235 18.924 24.3595 19.016 24.7275 19.016C25.0955 19.016 25.4275 18.924 25.7235 18.74C26.0275 18.556 26.2675 18.3 26.4435 17.972C26.6195 17.644 26.7075 17.268 26.7075 16.844ZM29.8658 20C29.6898 20 29.5458 19.944 29.4338 19.832C29.3218 19.712 29.2658 19.564 29.2658 19.388V14.3C29.2658 14.124 29.3218 13.98 29.4338 13.868C29.5458 13.748 29.6898 13.688 29.8658 13.688C30.0338 13.688 30.1738 13.748 30.2858 13.868C30.4058 13.98 30.4658 14.124 30.4658 14.3V15.644L30.3458 15.128C30.4098 14.904 30.5058 14.696 30.6338 14.504C30.7698 14.312 30.9298 14.144 31.1138 14C31.2978 13.856 31.5018 13.744 31.7258 13.664C31.9578 13.584 32.1978 13.544 32.4458 13.544C32.6538 13.544 32.8338 13.6 32.9858 13.712C33.1378 13.824 33.2138 13.964 33.2138 14.132C33.2138 14.348 33.1578 14.508 33.0458 14.612C32.9338 14.708 32.8098 14.756 32.6738 14.756C32.5538 14.756 32.4378 14.732 32.3258 14.684C32.2138 14.628 32.0818 14.6 31.9298 14.6C31.7618 14.6 31.5898 14.644 31.4138 14.732C31.2378 14.82 31.0778 14.952 30.9338 15.128C30.7898 15.296 30.6738 15.496 30.5858 15.728C30.5058 15.96 30.4658 16.22 30.4658 16.508V19.388C30.4658 19.564 30.4058 19.712 30.2858 19.832C30.1738 19.944 30.0338 20 29.8658 20ZM34.1974 13.76H37.0174C37.1774 13.76 37.3094 13.816 37.4134 13.928C37.5254 14.032 37.5814 14.164 37.5814 14.324C37.5814 14.476 37.5254 14.604 37.4134 14.708C37.3094 14.812 37.1774 14.864 37.0174 14.864H34.1974C34.0374 14.864 33.9014 14.812 33.7894 14.708C33.6854 14.596 33.6334 14.464 33.6334 14.312C33.6334 14.152 33.6854 14.02 33.7894 13.916C33.9014 13.812 34.0374 13.76 34.1974 13.76ZM35.4574 12.2C35.6334 12.2 35.7774 12.26 35.8894 12.38C36.0014 12.492 36.0574 12.636 36.0574 12.812V18.38C36.0574 18.524 36.0814 18.64 36.1294 18.728C36.1774 18.816 36.2414 18.876 36.3214 18.908C36.4094 18.94 36.4974 18.956 36.5854 18.956C36.6734 18.956 36.7494 18.94 36.8134 18.908C36.8854 18.876 36.9694 18.86 37.0654 18.86C37.1614 18.86 37.2494 18.904 37.3294 18.992C37.4094 19.08 37.4494 19.2 37.4494 19.352C37.4494 19.544 37.3454 19.7 37.1374 19.82C36.9294 19.94 36.7054 20 36.4654 20C36.3294 20 36.1694 19.988 35.9854 19.964C35.8014 19.94 35.6214 19.88 35.4454 19.784C35.2774 19.688 35.1374 19.536 35.0254 19.328C34.9134 19.112 34.8574 18.812 34.8574 18.428V12.812C34.8574 12.636 34.9134 12.492 35.0254 12.38C35.1454 12.26 35.2894 12.2 35.4574 12.2ZM45.4302 13.544C45.9902 13.544 46.4862 13.684 46.9182 13.964C47.3582 14.244 47.7062 14.632 47.9622 15.128C48.2182 15.616 48.3462 16.18 48.3462 16.82C48.3462 17.46 48.2182 18.028 47.9622 18.524C47.7062 19.02 47.3622 19.412 46.9302 19.7C46.4982 19.98 46.0102 20.12 45.4662 20.12C45.1622 20.12 44.8742 20.072 44.6022 19.976C44.3302 19.872 44.0902 19.744 43.8822 19.592C43.6742 19.432 43.5022 19.264 43.3662 19.088C43.2382 18.912 43.1582 18.748 43.1262 18.596L43.4502 18.44V19.484C43.4502 19.652 43.3902 19.796 43.2702 19.916C43.1582 20.028 43.0182 20.084 42.8502 20.084C42.6742 20.084 42.5302 20.028 42.4182 19.916C42.3062 19.804 42.2502 19.66 42.2502 19.484V11.732C42.2502 11.556 42.3062 11.412 42.4182 11.3C42.5302 11.18 42.6742 11.12 42.8502 11.12C43.0182 11.12 43.1582 11.18 43.2702 11.3C43.3902 11.412 43.4502 11.556 43.4502 11.732V15.104L43.2582 14.996C43.2822 14.844 43.3582 14.688 43.4862 14.528C43.6142 14.36 43.7742 14.2 43.9662 14.048C44.1662 13.896 44.3902 13.776 44.6382 13.688C44.8942 13.592 45.1582 13.544 45.4302 13.544ZM45.2982 14.648C44.9142 14.648 44.5782 14.744 44.2902 14.936C44.0102 15.128 43.7902 15.388 43.6302 15.716C43.4702 16.036 43.3902 16.404 43.3902 16.82C43.3902 17.236 43.4702 17.612 43.6302 17.948C43.7902 18.276 44.0102 18.536 44.2902 18.728C44.5782 18.92 44.9142 19.016 45.2982 19.016C45.6742 19.016 46.0022 18.92 46.2822 18.728C46.5622 18.536 46.7822 18.272 46.9422 17.936C47.1102 17.6 47.1942 17.228 47.1942 16.82C47.1942 16.404 47.1102 16.036 46.9422 15.716C46.7822 15.388 46.5622 15.128 46.2822 14.936C46.0022 14.744 45.6742 14.648 45.2982 14.648ZM54.3953 13.64C54.5713 13.64 54.7153 13.7 54.8273 13.82C54.9393 13.932 54.9953 14.076 54.9953 14.252V19.412C54.9953 20.116 54.8593 20.688 54.5873 21.128C54.3233 21.568 53.9633 21.888 53.5073 22.088C53.0593 22.296 52.5513 22.4 51.9833 22.4C51.6953 22.4 51.4073 22.372 51.1193 22.316C50.8313 22.268 50.5953 22.196 50.4113 22.1C50.2193 22.012 50.0833 21.904 50.0033 21.776C49.9233 21.648 49.9113 21.508 49.9673 21.356C50.0233 21.164 50.1193 21.032 50.2553 20.96C50.3913 20.896 50.5313 20.892 50.6753 20.948C50.8113 21.004 50.9913 21.076 51.2153 21.164C51.4393 21.252 51.6953 21.296 51.9833 21.296C52.3753 21.296 52.7073 21.232 52.9793 21.104C53.2513 20.976 53.4553 20.776 53.5913 20.504C53.7353 20.232 53.8073 19.88 53.8073 19.448V18.62L53.9993 18.908C53.8713 19.172 53.7033 19.392 53.4953 19.568C53.2873 19.744 53.0393 19.88 52.7513 19.976C52.4713 20.072 52.1593 20.12 51.8153 20.12C51.3753 20.12 50.9953 20.024 50.6753 19.832C50.3633 19.632 50.1233 19.36 49.9553 19.016C49.7873 18.664 49.7033 18.264 49.7033 17.816V14.252C49.7033 14.076 49.7593 13.932 49.8713 13.82C49.9833 13.7 50.1273 13.64 50.3033 13.64C50.4713 13.64 50.6113 13.7 50.7233 13.82C50.8433 13.932 50.9033 14.076 50.9033 14.252V17.492C50.9033 18.02 51.0193 18.408 51.2513 18.656C51.4833 18.896 51.8273 19.016 52.2833 19.016C52.5873 19.016 52.8513 18.952 53.0753 18.824C53.2993 18.696 53.4753 18.52 53.6033 18.296C53.7313 18.064 53.7953 17.796 53.7953 17.492V14.252C53.7953 14.076 53.8513 13.932 53.9633 13.82C54.0833 13.7 54.2273 13.64 54.3953 13.64ZM57.2399 15.2C57.0399 15.2 56.8839 15.148 56.7719 15.044C56.6679 14.932 56.6159 14.776 56.6159 14.576V14.348C56.6159 14.148 56.6679 13.992 56.7719 13.88C56.8839 13.768 57.0399 13.712 57.2399 13.712H57.3719C57.5719 13.712 57.7239 13.768 57.8279 13.88C57.9319 13.992 57.9839 14.148 57.9839 14.348V14.576C57.9839 14.776 57.9319 14.932 57.8279 15.044C57.7239 15.148 57.5719 15.2 57.3719 15.2H57.2399ZM57.2399 20C57.0399 20 56.8839 19.944 56.7719 19.832C56.6679 19.72 56.6159 19.564 56.6159 19.364V19.148C56.6159 18.94 56.6679 18.784 56.7719 18.68C56.8839 18.568 57.0399 18.512 57.2399 18.512H57.3719C57.5719 18.512 57.7239 18.568 57.8279 18.68C57.9319 18.784 57.9839 18.94 57.9839 19.148V19.364C57.9839 19.564 57.9319 19.72 57.8279 19.832C57.7239 19.944 57.5719 20 57.3719 20H57.2399Z" fill="#8C8C8C"/>
<path d="M63.7255 11.6C63.8855 11.6 64.0255 11.66 64.1455 11.78C64.2735 11.892 64.3375 12.036 64.3375 12.212V19.388C64.3295 19.564 64.2615 19.712 64.1335 19.832C64.0135 19.944 63.8695 20 63.7015 20C63.5175 20 63.3655 19.944 63.2455 19.832C63.1335 19.712 63.0775 19.564 63.0775 19.388V12.212C63.0775 12.036 63.1375 11.892 63.2575 11.78C63.3775 11.66 63.5335 11.6 63.7255 11.6ZM69.1375 11.6C69.3295 11.6 69.4815 11.66 69.5935 11.78C69.7055 11.892 69.7615 12.036 69.7615 12.212V19.388C69.7615 19.564 69.7015 19.712 69.5815 19.832C69.4695 19.944 69.3175 20 69.1255 20C68.9575 20 68.8135 19.944 68.6935 19.832C68.5735 19.712 68.5135 19.564 68.5135 19.388V12.212C68.5135 12.036 68.5735 11.892 68.6935 11.78C68.8215 11.66 68.9695 11.6 69.1375 11.6ZM63.6775 15.176H69.1495L69.1375 16.328H63.6655L63.6775 15.176ZM72.6985 19.388C72.6985 19.564 72.6425 19.712 72.5305 19.832C72.4185 19.944 72.2745 20 72.0985 20C71.9305 20 71.7865 19.944 71.6665 19.832C71.5545 19.712 71.4985 19.564 71.4985 19.388V14.252C71.4985 14.076 71.5545 13.932 71.6665 13.82C71.7865 13.7 71.9305 13.64 72.0985 13.64C72.2745 13.64 72.4185 13.7 72.5305 13.82C72.6425 13.932 72.6985 14.076 72.6985 14.252V19.388ZM72.0865 12.848C71.8545 12.848 71.6865 12.808 71.5825 12.728C71.4785 12.64 71.4265 12.496 71.4265 12.296V12.104C71.4265 11.904 71.4825 11.764 71.5945 11.684C71.7065 11.604 71.8745 11.564 72.0985 11.564C72.3385 11.564 72.5105 11.608 72.6145 11.696C72.7185 11.776 72.7705 11.912 72.7705 12.104V12.296C72.7705 12.504 72.7145 12.648 72.6025 12.728C72.4985 12.808 72.3265 12.848 72.0865 12.848ZM76.9407 13.544C77.2847 13.544 77.6007 13.6 77.8887 13.712C78.1767 13.824 78.4247 13.968 78.6327 14.144C78.8487 14.312 79.0167 14.488 79.1367 14.672C79.2567 14.856 79.3167 15.016 79.3167 15.152L79.0407 15.164V14.204C79.0407 14.036 79.0967 13.892 79.2087 13.772C79.3207 13.652 79.4647 13.592 79.6407 13.592C79.8167 13.592 79.9607 13.652 80.0727 13.772C80.1847 13.884 80.2407 14.028 80.2407 14.204V19.496C80.2407 20.176 80.0967 20.728 79.8087 21.152C79.5207 21.584 79.1367 21.9 78.6567 22.1C78.1847 22.3 77.6647 22.4 77.0967 22.4C76.8967 22.4 76.6607 22.372 76.3887 22.316C76.1167 22.268 75.8647 22.208 75.6327 22.136C75.4087 22.064 75.2527 21.992 75.1647 21.92C74.9807 21.824 74.8567 21.712 74.7927 21.584C74.7367 21.456 74.7367 21.328 74.7927 21.2C74.8727 21.024 74.9807 20.916 75.1167 20.876C75.2527 20.836 75.4087 20.848 75.5847 20.912C75.6647 20.936 75.7887 20.98 75.9567 21.044C76.1247 21.108 76.3127 21.164 76.5207 21.212C76.7287 21.268 76.9247 21.296 77.1087 21.296C77.7487 21.296 78.2287 21.148 78.5487 20.852C78.8767 20.556 79.0407 20.152 79.0407 19.64V18.56L79.1727 18.644C79.1487 18.812 79.0727 18.984 78.9447 19.16C78.8247 19.328 78.6647 19.484 78.4647 19.628C78.2647 19.772 78.0327 19.892 77.7687 19.988C77.5127 20.076 77.2487 20.12 76.9767 20.12C76.4087 20.12 75.9007 19.98 75.4527 19.7C75.0047 19.412 74.6487 19.024 74.3847 18.536C74.1207 18.04 73.9887 17.472 73.9887 16.832C73.9887 16.192 74.1207 15.628 74.3847 15.14C74.6487 14.644 75.0007 14.256 75.4407 13.976C75.8887 13.688 76.3887 13.544 76.9407 13.544ZM77.1207 14.648C76.7287 14.648 76.3847 14.744 76.0887 14.936C75.7927 15.128 75.5607 15.388 75.3927 15.716C75.2247 16.044 75.1407 16.416 75.1407 16.832C75.1407 17.248 75.2247 17.62 75.3927 17.948C75.5607 18.276 75.7927 18.536 76.0887 18.728C76.3847 18.92 76.7287 19.016 77.1207 19.016C77.5127 19.016 77.8567 18.924 78.1527 18.74C78.4487 18.548 78.6807 18.288 78.8487 17.96C79.0167 17.624 79.1007 17.248 79.1007 16.832C79.1007 16.416 79.0167 16.044 78.8487 15.716C78.6807 15.38 78.4487 15.12 78.1527 14.936C77.8567 14.744 77.5127 14.648 77.1207 14.648ZM85.0864 13.58C85.6384 13.58 86.0664 13.7 86.3704 13.94C86.6744 14.172 86.8864 14.488 87.0064 14.888C87.1344 15.288 87.1984 15.728 87.1984 16.208V19.388C87.1984 19.564 87.1384 19.712 87.0184 19.832C86.9064 19.944 86.7664 20 86.5984 20C86.4224 20 86.2784 19.944 86.1664 19.832C86.0544 19.712 85.9984 19.564 85.9984 19.388V16.208C85.9984 15.928 85.9584 15.672 85.8784 15.44C85.8064 15.208 85.6744 15.024 85.4824 14.888C85.2984 14.752 85.0384 14.684 84.7024 14.684C84.3904 14.684 84.1104 14.752 83.8624 14.888C83.6224 15.024 83.4344 15.208 83.2984 15.44C83.1704 15.672 83.1064 15.928 83.1064 16.208V19.388C83.1064 19.564 83.0464 19.712 82.9264 19.832C82.8144 19.944 82.6744 20 82.5064 20C82.3304 20 82.1864 19.944 82.0744 19.832C81.9624 19.712 81.9064 19.564 81.9064 19.388V11.732C81.9064 11.556 81.9624 11.412 82.0744 11.3C82.1864 11.18 82.3304 11.12 82.5064 11.12C82.6744 11.12 82.8144 11.18 82.9264 11.3C83.0464 11.412 83.1064 11.556 83.1064 11.732V15.008L82.8904 15.128C82.9464 14.952 83.0384 14.772 83.1664 14.588C83.3024 14.404 83.4664 14.236 83.6584 14.084C83.8584 13.932 84.0784 13.812 84.3184 13.724C84.5584 13.628 84.8144 13.58 85.0864 13.58ZM91.8073 20.12C91.1433 20.12 90.5673 19.984 90.0793 19.712C89.5913 19.432 89.2113 19.052 88.9393 18.572C88.6753 18.084 88.5433 17.528 88.5433 16.904C88.5433 16.2 88.6833 15.6 88.9633 15.104C89.2513 14.6 89.6233 14.216 90.0793 13.952C90.5353 13.68 91.0193 13.544 91.5313 13.544C91.9233 13.544 92.2953 13.624 92.6473 13.784C92.9993 13.936 93.3113 14.152 93.5833 14.432C93.8633 14.704 94.0833 15.028 94.2433 15.404C94.4033 15.772 94.4873 16.176 94.4953 16.616C94.4873 16.776 94.4233 16.908 94.3033 17.012C94.1833 17.116 94.0433 17.168 93.8833 17.168H89.2153L88.9273 16.148H93.4393L93.2113 16.364V16.064C93.1953 15.784 93.1033 15.54 92.9353 15.332C92.7673 15.116 92.5593 14.952 92.3113 14.84C92.0633 14.72 91.8033 14.66 91.5313 14.66C91.2913 14.66 91.0593 14.7 90.8353 14.78C90.6193 14.852 90.4233 14.972 90.2473 15.14C90.0793 15.308 89.9433 15.532 89.8393 15.812C89.7433 16.084 89.6953 16.424 89.6953 16.832C89.6953 17.272 89.7873 17.656 89.9713 17.984C90.1553 18.312 90.4033 18.568 90.7153 18.752C91.0273 18.928 91.3713 19.016 91.7473 19.016C92.0433 19.016 92.2873 18.988 92.4793 18.932C92.6713 18.868 92.8313 18.792 92.9593 18.704C93.0873 18.616 93.1993 18.532 93.2953 18.452C93.4153 18.38 93.5353 18.344 93.6553 18.344C93.7993 18.344 93.9193 18.396 94.0153 18.5C94.1113 18.596 94.1593 18.712 94.1593 18.848C94.1593 19.024 94.0713 19.184 93.8953 19.328C93.6793 19.536 93.3793 19.72 92.9953 19.88C92.6193 20.04 92.2233 20.12 91.8073 20.12ZM95.4797 19.016C95.4077 18.904 95.3757 18.776 95.3837 18.632C95.3917 18.48 95.4757 18.352 95.6357 18.248C95.7477 18.176 95.8637 18.148 95.9837 18.164C96.1117 18.172 96.2317 18.232 96.3437 18.344C96.5677 18.592 96.8157 18.788 97.0877 18.932C97.3677 19.076 97.7037 19.148 98.0957 19.148C98.2557 19.14 98.4197 19.116 98.5877 19.076C98.7557 19.028 98.8997 18.948 99.0197 18.836C99.1397 18.716 99.1997 18.544 99.1997 18.32C99.1997 18.12 99.1357 17.96 99.0077 17.84C98.8797 17.72 98.7117 17.624 98.5037 17.552C98.2957 17.472 98.0717 17.4 97.8317 17.336C97.5757 17.264 97.3157 17.184 97.0517 17.096C96.7957 17.008 96.5637 16.896 96.3557 16.76C96.1477 16.616 95.9757 16.432 95.8397 16.208C95.7117 15.984 95.6477 15.708 95.6477 15.38C95.6477 15.004 95.7517 14.68 95.9597 14.408C96.1757 14.136 96.4517 13.924 96.7877 13.772C97.1317 13.62 97.5037 13.544 97.9037 13.544C98.1357 13.544 98.3797 13.576 98.6357 13.64C98.8917 13.696 99.1397 13.788 99.3797 13.916C99.6197 14.044 99.8277 14.212 100.004 14.42C100.084 14.524 100.128 14.648 100.136 14.792C100.152 14.936 100.088 15.064 99.9437 15.176C99.8477 15.256 99.7317 15.292 99.5957 15.284C99.4597 15.276 99.3477 15.232 99.2597 15.152C99.1077 14.96 98.9117 14.812 98.6717 14.708C98.4317 14.596 98.1597 14.54 97.8557 14.54C97.7037 14.54 97.5437 14.564 97.3757 14.612C97.2157 14.652 97.0797 14.728 96.9677 14.84C96.8557 14.952 96.7997 15.116 96.7997 15.332C96.7997 15.532 96.8637 15.692 96.9917 15.812C97.1277 15.932 97.3037 16.032 97.5197 16.112C97.7357 16.192 97.9717 16.264 98.2277 16.328C98.4757 16.392 98.7197 16.468 98.9597 16.556C99.2077 16.644 99.4277 16.76 99.6197 16.904C99.8197 17.04 99.9797 17.22 100.1 17.444C100.228 17.66 100.292 17.936 100.292 18.272C100.292 18.664 100.176 19 99.9437 19.28C99.7197 19.552 99.4317 19.76 99.0797 19.904C98.7357 20.048 98.3717 20.12 97.9877 20.12C97.5317 20.12 97.0757 20.04 96.6197 19.88C96.1717 19.712 95.7917 19.424 95.4797 19.016ZM101.498 13.76H104.318C104.478 13.76 104.61 13.816 104.714 13.928C104.826 14.032 104.882 14.164 104.882 14.324C104.882 14.476 104.826 14.604 104.714 14.708C104.61 14.812 104.478 14.864 104.318 14.864H101.498C101.338 14.864 101.202 14.812 101.09 14.708C100.986 14.596 100.934 14.464 100.934 14.312C100.934 14.152 100.986 14.02 101.09 13.916C101.202 13.812 101.338 13.76 101.498 13.76ZM102.758 12.2C102.934 12.2 103.078 12.26 103.19 12.38C103.302 12.492 103.358 12.636 103.358 12.812V18.38C103.358 18.524 103.382 18.64 103.43 18.728C103.478 18.816 103.542 18.876 103.622 18.908C103.71 18.94 103.798 18.956 103.886 18.956C103.974 18.956 104.05 18.94 104.114 18.908C104.186 18.876 104.27 18.86 104.366 18.86C104.462 18.86 104.55 18.904 104.63 18.992C104.71 19.08 104.75 19.2 104.75 19.352C104.75 19.544 104.646 19.7 104.438 19.82C104.23 19.94 104.006 20 103.766 20C103.63 20 103.47 19.988 103.286 19.964C103.102 19.94 102.922 19.88 102.746 19.784C102.578 19.688 102.438 19.536 102.326 19.328C102.214 19.112 102.158 18.812 102.158 18.428V12.812C102.158 12.636 102.214 12.492 102.326 12.38C102.446 12.26 102.59 12.2 102.758 12.2ZM113.067 11.6C113.491 11.6 113.883 11.716 114.243 11.948C114.603 12.172 114.891 12.48 115.107 12.872C115.323 13.264 115.431 13.704 115.431 14.192C115.431 14.68 115.323 15.124 115.107 15.524C114.891 15.916 114.603 16.232 114.243 16.472C113.883 16.704 113.491 16.82 113.067 16.82H110.751L110.847 16.628V19.388C110.847 19.564 110.791 19.712 110.679 19.832C110.575 19.944 110.435 20 110.259 20C110.091 20 109.951 19.944 109.839 19.832C109.735 19.712 109.683 19.564 109.683 19.388V12.212C109.683 12.036 109.743 11.892 109.863 11.78C109.983 11.66 110.127 11.6 110.295 11.6H113.067ZM113.067 15.668C113.275 15.668 113.463 15.6 113.631 15.464C113.807 15.328 113.947 15.148 114.051 14.924C114.163 14.7 114.219 14.456 114.219 14.192C114.219 13.928 114.163 13.688 114.051 13.472C113.947 13.256 113.807 13.084 113.631 12.956C113.463 12.82 113.275 12.752 113.067 12.752H110.727L110.847 12.572V15.824L110.739 15.668H113.067ZM117.358 20C117.182 20 117.038 19.944 116.926 19.832C116.814 19.712 116.758 19.564 116.758 19.388V14.3C116.758 14.124 116.814 13.98 116.926 13.868C117.038 13.748 117.182 13.688 117.358 13.688C117.526 13.688 117.666 13.748 117.778 13.868C117.898 13.98 117.958 14.124 117.958 14.3V15.644L117.838 15.128C117.902 14.904 117.998 14.696 118.126 14.504C118.262 14.312 118.422 14.144 118.606 14C118.79 13.856 118.994 13.744 119.218 13.664C119.45 13.584 119.69 13.544 119.938 13.544C120.146 13.544 120.326 13.6 120.478 13.712C120.63 13.824 120.706 13.964 120.706 14.132C120.706 14.348 120.65 14.508 120.538 14.612C120.426 14.708 120.302 14.756 120.166 14.756C120.046 14.756 119.93 14.732 119.818 14.684C119.706 14.628 119.574 14.6 119.422 14.6C119.254 14.6 119.082 14.644 118.906 14.732C118.73 14.82 118.57 14.952 118.426 15.128C118.282 15.296 118.166 15.496 118.078 15.728C117.998 15.96 117.958 16.22 117.958 16.508V19.388C117.958 19.564 117.898 19.712 117.778 19.832C117.666 19.944 117.526 20 117.358 20ZM122.902 19.388C122.902 19.564 122.846 19.712 122.734 19.832C122.622 19.944 122.478 20 122.302 20C122.134 20 121.99 19.944 121.87 19.832C121.758 19.712 121.702 19.564 121.702 19.388V14.252C121.702 14.076 121.758 13.932 121.87 13.82C121.99 13.7 122.134 13.64 122.302 13.64C122.478 13.64 122.622 13.7 122.734 13.82C122.846 13.932 122.902 14.076 122.902 14.252V19.388ZM122.29 12.848C122.058 12.848 121.89 12.808 121.786 12.728C121.682 12.64 121.63 12.496 121.63 12.296V12.104C121.63 11.904 121.686 11.764 121.798 11.684C121.91 11.604 122.078 11.564 122.302 11.564C122.542 11.564 122.714 11.608 122.818 11.696C122.922 11.776 122.974 11.912 122.974 12.104V12.296C122.974 12.504 122.918 12.648 122.806 12.728C122.702 12.808 122.53 12.848 122.29 12.848ZM127.312 13.544C127.744 13.544 128.128 13.592 128.464 13.688C128.8 13.776 129.06 13.904 129.244 14.072C129.436 14.232 129.532 14.42 129.532 14.636C129.532 14.772 129.492 14.9 129.412 15.02C129.332 15.132 129.212 15.188 129.052 15.188C128.94 15.188 128.844 15.168 128.764 15.128C128.692 15.088 128.624 15.04 128.56 14.984C128.496 14.928 128.416 14.872 128.32 14.816C128.232 14.768 128.1 14.728 127.924 14.696C127.756 14.664 127.604 14.648 127.468 14.648C127.044 14.648 126.676 14.744 126.364 14.936C126.06 15.128 125.82 15.388 125.644 15.716C125.476 16.044 125.392 16.416 125.392 16.832C125.392 17.248 125.476 17.62 125.644 17.948C125.82 18.276 126.056 18.536 126.352 18.728C126.656 18.92 127.008 19.016 127.408 19.016C127.648 19.016 127.844 19 127.996 18.968C128.148 18.928 128.28 18.88 128.392 18.824C128.512 18.752 128.612 18.68 128.692 18.608C128.78 18.528 128.9 18.488 129.052 18.488C129.228 18.488 129.36 18.544 129.448 18.656C129.544 18.76 129.592 18.892 129.592 19.052C129.592 19.228 129.484 19.4 129.268 19.568C129.06 19.728 128.78 19.86 128.428 19.964C128.076 20.068 127.688 20.12 127.264 20.12C126.64 20.12 126.096 19.976 125.632 19.688C125.176 19.4 124.82 19.008 124.564 18.512C124.316 18.016 124.192 17.456 124.192 16.832C124.192 16.2 124.324 15.64 124.588 15.152C124.852 14.656 125.22 14.264 125.692 13.976C126.164 13.688 126.704 13.544 127.312 13.544ZM133.678 20.12C133.014 20.12 132.438 19.984 131.95 19.712C131.462 19.432 131.082 19.052 130.81 18.572C130.546 18.084 130.414 17.528 130.414 16.904C130.414 16.2 130.554 15.6 130.834 15.104C131.122 14.6 131.494 14.216 131.95 13.952C132.406 13.68 132.89 13.544 133.402 13.544C133.794 13.544 134.166 13.624 134.518 13.784C134.87 13.936 135.182 14.152 135.454 14.432C135.734 14.704 135.954 15.028 136.114 15.404C136.274 15.772 136.358 16.176 136.366 16.616C136.358 16.776 136.294 16.908 136.174 17.012C136.054 17.116 135.914 17.168 135.754 17.168H131.086L130.798 16.148H135.31L135.082 16.364V16.064C135.066 15.784 134.974 15.54 134.806 15.332C134.638 15.116 134.43 14.952 134.182 14.84C133.934 14.72 133.674 14.66 133.402 14.66C133.162 14.66 132.93 14.7 132.706 14.78C132.49 14.852 132.294 14.972 132.118 15.14C131.95 15.308 131.814 15.532 131.71 15.812C131.614 16.084 131.566 16.424 131.566 16.832C131.566 17.272 131.658 17.656 131.842 17.984C132.026 18.312 132.274 18.568 132.586 18.752C132.898 18.928 133.242 19.016 133.618 19.016C133.914 19.016 134.158 18.988 134.35 18.932C134.542 18.868 134.702 18.792 134.83 18.704C134.958 18.616 135.07 18.532 135.166 18.452C135.286 18.38 135.406 18.344 135.526 18.344C135.67 18.344 135.79 18.396 135.886 18.5C135.982 18.596 136.03 18.712 136.03 18.848C136.03 19.024 135.942 19.184 135.766 19.328C135.55 19.536 135.25 19.72 134.866 19.88C134.49 20.04 134.094 20.12 133.678 20.12Z" fill="#161117"/>
</svg>
