<svg width="172" height="34" viewBox="0 0 172 34" fill="none" xmlns="http://www.w3.org/2000/svg">
<rect x="0.75" y="0.75" width="170.5" height="32.5" rx="16.25" fill="white"/>
<rect x="0.75" y="0.75" width="170.5" height="32.5" rx="16.25" stroke="#E9E9E9" stroke-width="1.5"/>
<path d="M18.144 22.14C17.472 22.14 16.8747 22.0467 16.352 21.86C15.8293 21.6733 15.33 21.3653 14.854 20.936C14.7513 20.8613 14.672 20.7727 14.616 20.67C14.5693 20.558 14.546 20.446 14.546 20.334C14.546 20.1567 14.6113 19.998 14.742 19.858C14.8727 19.718 15.036 19.648 15.232 19.648C15.3813 19.648 15.5213 19.6993 15.652 19.802C16.0067 20.1287 16.3753 20.376 16.758 20.544C17.15 20.712 17.6073 20.796 18.13 20.796C18.5033 20.796 18.844 20.7353 19.152 20.614C19.4693 20.4927 19.7213 20.3293 19.908 20.124C20.0947 19.9187 20.188 19.6807 20.188 19.41C20.188 19.074 20.09 18.7987 19.894 18.584C19.7073 18.36 19.432 18.178 19.068 18.038C18.7133 17.8887 18.284 17.7627 17.78 17.66C17.3133 17.576 16.8933 17.4593 16.52 17.31C16.156 17.1607 15.8433 16.974 15.582 16.75C15.3207 16.5167 15.12 16.2413 14.98 15.924C14.84 15.6067 14.77 15.238 14.77 14.818C14.77 14.2487 14.9193 13.7587 15.218 13.348C15.5167 12.9373 15.9227 12.62 16.436 12.396C16.9493 12.172 17.528 12.06 18.172 12.06C18.76 12.06 19.3107 12.1533 19.824 12.34C20.3373 12.5173 20.7527 12.76 21.07 13.068C21.294 13.264 21.406 13.474 21.406 13.698C21.406 13.866 21.336 14.0247 21.196 14.174C21.0653 14.314 20.9113 14.384 20.734 14.384C20.6033 14.384 20.4913 14.3467 20.398 14.272C20.2487 14.1133 20.048 13.9733 19.796 13.852C19.544 13.7213 19.2733 13.614 18.984 13.53C18.704 13.446 18.4333 13.404 18.172 13.404C17.752 13.404 17.3927 13.4647 17.094 13.586C16.7953 13.698 16.5667 13.8567 16.408 14.062C16.2493 14.258 16.17 14.4913 16.17 14.762C16.17 15.0793 16.2587 15.3407 16.436 15.546C16.6227 15.7513 16.8793 15.9193 17.206 16.05C17.5327 16.1713 17.906 16.2833 18.326 16.386C18.8393 16.498 19.2967 16.624 19.698 16.764C20.1087 16.904 20.454 17.086 20.734 17.31C21.014 17.5247 21.2287 17.7953 21.378 18.122C21.5273 18.4487 21.602 18.8547 21.602 19.34C21.602 19.9 21.4433 20.39 21.126 20.81C20.8087 21.23 20.3887 21.5567 19.866 21.79C19.3527 22.0233 18.7787 22.14 18.144 22.14ZM30.2255 18.318C30.2255 19.0647 30.0621 19.7273 29.7355 20.306C29.4088 20.8753 28.9655 21.3233 28.4055 21.65C27.8455 21.9767 27.2155 22.14 26.5155 22.14C25.8155 22.14 25.1855 21.9767 24.6255 21.65C24.0655 21.3233 23.6175 20.8753 23.2815 20.306C22.9548 19.7273 22.7915 19.0647 22.7915 18.318C22.7915 17.562 22.9548 16.8993 23.2815 16.33C23.6175 15.7513 24.0655 15.2987 24.6255 14.972C25.1855 14.636 25.8155 14.468 26.5155 14.468C27.2155 14.468 27.8455 14.636 28.4055 14.972C28.9655 15.2987 29.4088 15.7513 29.7355 16.33C30.0621 16.8993 30.2255 17.562 30.2255 18.318ZM28.8255 18.318C28.8255 17.8047 28.7228 17.3613 28.5175 16.988C28.3121 16.6053 28.0321 16.3067 27.6775 16.092C27.3321 15.868 26.9448 15.756 26.5155 15.756C26.0861 15.756 25.6941 15.868 25.3395 16.092C24.9848 16.3067 24.7048 16.6053 24.4995 16.988C24.2941 17.3613 24.1915 17.8047 24.1915 18.318C24.1915 18.8127 24.2941 19.2513 24.4995 19.634C24.7048 20.0167 24.9848 20.3153 25.3395 20.53C25.6941 20.7447 26.0861 20.852 26.5155 20.852C26.9448 20.852 27.3321 20.7447 27.6775 20.53C28.0321 20.3153 28.3121 20.0167 28.5175 19.634C28.7228 19.2513 28.8255 18.8127 28.8255 18.318ZM32.5101 22C32.3047 22 32.1367 21.9347 32.0061 21.804C31.8754 21.664 31.8101 21.4913 31.8101 21.286V15.35C31.8101 15.1447 31.8754 14.9767 32.0061 14.846C32.1367 14.706 32.3047 14.636 32.5101 14.636C32.7061 14.636 32.8694 14.706 33.0001 14.846C33.1401 14.9767 33.2101 15.1447 33.2101 15.35V16.918L33.0701 16.316C33.1447 16.0547 33.2567 15.812 33.4061 15.588C33.5647 15.364 33.7514 15.168 33.9661 15C34.1807 14.832 34.4187 14.7013 34.6801 14.608C34.9507 14.5147 35.2307 14.468 35.5201 14.468C35.7627 14.468 35.9727 14.5333 36.1501 14.664C36.3274 14.7947 36.4161 14.958 36.4161 15.154C36.4161 15.406 36.3507 15.5927 36.2201 15.714C36.0894 15.826 35.9447 15.882 35.7861 15.882C35.6461 15.882 35.5107 15.854 35.3801 15.798C35.2494 15.7327 35.0954 15.7 34.9181 15.7C34.7221 15.7 34.5214 15.7513 34.3161 15.854C34.1107 15.9567 33.9241 16.1107 33.7561 16.316C33.5881 16.512 33.4527 16.7453 33.3501 17.016C33.2567 17.2867 33.2101 17.59 33.2101 17.926V21.286C33.2101 21.4913 33.1401 21.664 33.0001 21.804C32.8694 21.9347 32.7061 22 32.5101 22ZM37.5636 14.72H40.8536C41.0403 14.72 41.1943 14.7853 41.3156 14.916C41.4463 15.0373 41.5116 15.1913 41.5116 15.378C41.5116 15.5553 41.4463 15.7047 41.3156 15.826C41.1943 15.9473 41.0403 16.008 40.8536 16.008H37.5636C37.377 16.008 37.2183 15.9473 37.0876 15.826C36.9663 15.6953 36.9056 15.5413 36.9056 15.364C36.9056 15.1773 36.9663 15.0233 37.0876 14.902C37.2183 14.7807 37.377 14.72 37.5636 14.72ZM39.0336 12.9C39.239 12.9 39.407 12.97 39.5376 13.11C39.6683 13.2407 39.7336 13.4087 39.7336 13.614V20.11C39.7336 20.278 39.7616 20.4133 39.8176 20.516C39.8736 20.6187 39.9483 20.6887 40.0416 20.726C40.1443 20.7633 40.247 20.782 40.3496 20.782C40.4523 20.782 40.541 20.7633 40.6156 20.726C40.6996 20.6887 40.7976 20.67 40.9096 20.67C41.0216 20.67 41.1243 20.7213 41.2176 20.824C41.311 20.9267 41.3576 21.0667 41.3576 21.244C41.3576 21.468 41.2363 21.65 40.9936 21.79C40.751 21.93 40.4896 22 40.2096 22C40.051 22 39.8643 21.986 39.6496 21.958C39.435 21.93 39.225 21.86 39.0196 21.748C38.8236 21.636 38.6603 21.4587 38.5296 21.216C38.399 20.964 38.3336 20.614 38.3336 20.166V13.614C38.3336 13.4087 38.399 13.2407 38.5296 13.11C38.6696 12.97 38.8376 12.9 39.0336 12.9ZM50.6685 14.468C51.3218 14.468 51.9005 14.6313 52.4045 14.958C52.9178 15.2847 53.3238 15.7373 53.6225 16.316C53.9212 16.8853 54.0705 17.5433 54.0705 18.29C54.0705 19.0367 53.9212 19.6993 53.6225 20.278C53.3238 20.8567 52.9225 21.314 52.4185 21.65C51.9145 21.9767 51.3452 22.14 50.7105 22.14C50.3558 22.14 50.0198 22.084 49.7025 21.972C49.3852 21.8507 49.1052 21.7013 48.8625 21.524C48.6198 21.3373 48.4192 21.1413 48.2605 20.936C48.1112 20.7307 48.0178 20.5393 47.9805 20.362L48.3585 20.18V21.398C48.3585 21.594 48.2885 21.762 48.1485 21.902C48.0178 22.0327 47.8545 22.098 47.6585 22.098C47.4532 22.098 47.2852 22.0327 47.1545 21.902C47.0238 21.7713 46.9585 21.6033 46.9585 21.398V12.354C46.9585 12.1487 47.0238 11.9807 47.1545 11.85C47.2852 11.71 47.4532 11.64 47.6585 11.64C47.8545 11.64 48.0178 11.71 48.1485 11.85C48.2885 11.9807 48.3585 12.1487 48.3585 12.354V16.288L48.1345 16.162C48.1625 15.9847 48.2512 15.8027 48.4005 15.616C48.5498 15.42 48.7365 15.2333 48.9605 15.056C49.1938 14.8787 49.4552 14.7387 49.7445 14.636C50.0432 14.524 50.3512 14.468 50.6685 14.468ZM50.5145 15.756C50.0665 15.756 49.6745 15.868 49.3385 16.092C49.0118 16.316 48.7552 16.6193 48.5685 17.002C48.3818 17.3753 48.2885 17.8047 48.2885 18.29C48.2885 18.7753 48.3818 19.214 48.5685 19.606C48.7552 19.9887 49.0118 20.292 49.3385 20.516C49.6745 20.74 50.0665 20.852 50.5145 20.852C50.9532 20.852 51.3358 20.74 51.6625 20.516C51.9892 20.292 52.2458 19.984 52.4325 19.592C52.6285 19.2 52.7265 18.766 52.7265 18.29C52.7265 17.8047 52.6285 17.3753 52.4325 17.002C52.2458 16.6193 51.9892 16.316 51.6625 16.092C51.3358 15.868 50.9532 15.756 50.5145 15.756ZM61.1278 14.58C61.3332 14.58 61.5012 14.65 61.6318 14.79C61.7625 14.9207 61.8278 15.0887 61.8278 15.294V21.314C61.8278 22.1353 61.6692 22.8027 61.3518 23.316C61.0438 23.8293 60.6238 24.2027 60.0918 24.436C59.5692 24.6787 58.9765 24.8 58.3138 24.8C57.9778 24.8 57.6418 24.7673 57.3058 24.702C56.9698 24.646 56.6945 24.562 56.4798 24.45C56.2558 24.3473 56.0972 24.2213 56.0038 24.072C55.9105 23.9227 55.8965 23.7593 55.9618 23.582C56.0272 23.358 56.1392 23.204 56.2978 23.12C56.4565 23.0453 56.6198 23.0407 56.7878 23.106C56.9465 23.1713 57.1565 23.2553 57.4178 23.358C57.6792 23.4607 57.9778 23.512 58.3138 23.512C58.7712 23.512 59.1585 23.4373 59.4758 23.288C59.7932 23.1387 60.0312 22.9053 60.1898 22.588C60.3578 22.2707 60.4418 21.86 60.4418 21.356V20.39L60.6658 20.726C60.5165 21.034 60.3205 21.2907 60.0778 21.496C59.8352 21.7013 59.5458 21.86 59.2098 21.972C58.8832 22.084 58.5192 22.14 58.1178 22.14C57.6045 22.14 57.1612 22.028 56.7878 21.804C56.4238 21.5707 56.1438 21.2533 55.9478 20.852C55.7518 20.4413 55.6538 19.9747 55.6538 19.452V15.294C55.6538 15.0887 55.7192 14.9207 55.8498 14.79C55.9805 14.65 56.1485 14.58 56.3538 14.58C56.5498 14.58 56.7132 14.65 56.8438 14.79C56.9838 14.9207 57.0538 15.0887 57.0538 15.294V19.074C57.0538 19.69 57.1892 20.1427 57.4598 20.432C57.7305 20.712 58.1318 20.852 58.6638 20.852C59.0185 20.852 59.3265 20.7773 59.5878 20.628C59.8492 20.4787 60.0545 20.2733 60.2038 20.012C60.3532 19.7413 60.4278 19.4287 60.4278 19.074V15.294C60.4278 15.0887 60.4932 14.9207 60.6238 14.79C60.7638 14.65 60.9318 14.58 61.1278 14.58ZM64.4466 16.4C64.2133 16.4 64.0313 16.3393 63.9006 16.218C63.7793 16.0873 63.7186 15.9053 63.7186 15.672V15.406C63.7186 15.1727 63.7793 14.9907 63.9006 14.86C64.0313 14.7293 64.2133 14.664 64.4466 14.664H64.6006C64.8339 14.664 65.0113 14.7293 65.1326 14.86C65.2539 14.9907 65.3146 15.1727 65.3146 15.406V15.672C65.3146 15.9053 65.2539 16.0873 65.1326 16.218C65.0113 16.3393 64.8339 16.4 64.6006 16.4H64.4466ZM64.4466 22C64.2133 22 64.0313 21.9347 63.9006 21.804C63.7793 21.6733 63.7186 21.4913 63.7186 21.258V21.006C63.7186 20.7633 63.7793 20.5813 63.9006 20.46C64.0313 20.3293 64.2133 20.264 64.4466 20.264H64.6006C64.8339 20.264 65.0113 20.3293 65.1326 20.46C65.2539 20.5813 65.3146 20.7633 65.3146 21.006V21.258C65.3146 21.4913 65.2539 21.6733 65.1326 21.804C65.0113 21.9347 64.8339 22 64.6006 22H64.4466Z" fill="#8C8C8C"/>
<path d="M72.013 12.2C72.1997 12.2 72.363 12.27 72.503 12.41C72.6524 12.5407 72.727 12.7087 72.727 12.914V21.286C72.7177 21.4913 72.6384 21.664 72.489 21.804C72.349 21.9347 72.181 22 71.985 22C71.7704 22 71.593 21.9347 71.453 21.804C71.3224 21.664 71.257 21.4913 71.257 21.286V12.914C71.257 12.7087 71.327 12.5407 71.467 12.41C71.607 12.27 71.789 12.2 72.013 12.2ZM78.327 12.2C78.551 12.2 78.7284 12.27 78.859 12.41C78.9897 12.5407 79.055 12.7087 79.055 12.914V21.286C79.055 21.4913 78.985 21.664 78.845 21.804C78.7144 21.9347 78.537 22 78.313 22C78.117 22 77.949 21.9347 77.809 21.804C77.669 21.664 77.599 21.4913 77.599 21.286V12.914C77.599 12.7087 77.669 12.5407 77.809 12.41C77.9584 12.27 78.131 12.2 78.327 12.2ZM71.957 16.372H78.341L78.327 17.716H71.943L71.957 16.372ZM82.4815 21.286C82.4815 21.4913 82.4162 21.664 82.2855 21.804C82.1549 21.9347 81.9869 22 81.7815 22C81.5855 22 81.4175 21.9347 81.2775 21.804C81.1469 21.664 81.0815 21.4913 81.0815 21.286V15.294C81.0815 15.0887 81.1469 14.9207 81.2775 14.79C81.4175 14.65 81.5855 14.58 81.7815 14.58C81.9869 14.58 82.1549 14.65 82.2855 14.79C82.4162 14.9207 82.4815 15.0887 82.4815 15.294V21.286ZM81.7675 13.656C81.4969 13.656 81.3009 13.6093 81.1795 13.516C81.0582 13.4133 80.9975 13.2453 80.9975 13.012V12.788C80.9975 12.5547 81.0629 12.3913 81.1935 12.298C81.3242 12.2047 81.5202 12.158 81.7815 12.158C82.0615 12.158 82.2622 12.2093 82.3835 12.312C82.5049 12.4053 82.5655 12.564 82.5655 12.788V13.012C82.5655 13.2547 82.5002 13.4227 82.3695 13.516C82.2482 13.6093 82.0475 13.656 81.7675 13.656ZM87.4308 14.468C87.8321 14.468 88.2008 14.5333 88.5368 14.664C88.8728 14.7947 89.1621 14.9627 89.4048 15.168C89.6568 15.364 89.8528 15.5693 89.9928 15.784C90.1328 15.9987 90.2028 16.1853 90.2028 16.344L89.8808 16.358V15.238C89.8808 15.042 89.9461 14.874 90.0768 14.734C90.2074 14.594 90.3754 14.524 90.5808 14.524C90.7861 14.524 90.9541 14.594 91.0848 14.734C91.2154 14.8647 91.2808 15.0327 91.2808 15.238V21.412C91.2808 22.2053 91.1128 22.8493 90.7768 23.344C90.4408 23.848 89.9928 24.2167 89.4328 24.45C88.8821 24.6833 88.2754 24.8 87.6128 24.8C87.3794 24.8 87.1041 24.7673 86.7868 24.702C86.4694 24.646 86.1754 24.576 85.9048 24.492C85.6434 24.408 85.4614 24.324 85.3588 24.24C85.1441 24.128 84.9994 23.9973 84.9248 23.848C84.8594 23.6987 84.8594 23.5493 84.9248 23.4C85.0181 23.1947 85.1441 23.0687 85.3028 23.022C85.4614 22.9753 85.6434 22.9893 85.8488 23.064C85.9421 23.092 86.0868 23.1433 86.2828 23.218C86.4788 23.2927 86.6981 23.358 86.9408 23.414C87.1834 23.4793 87.4121 23.512 87.6268 23.512C88.3734 23.512 88.9334 23.3393 89.3068 22.994C89.6894 22.6487 89.8808 22.1773 89.8808 21.58V20.32L90.0348 20.418C90.0068 20.614 89.9181 20.8147 89.7688 21.02C89.6288 21.216 89.4421 21.398 89.2088 21.566C88.9754 21.734 88.7048 21.874 88.3968 21.986C88.0981 22.0887 87.7901 22.14 87.4728 22.14C86.8101 22.14 86.2174 21.9767 85.6948 21.65C85.1721 21.314 84.7568 20.8613 84.4488 20.292C84.1408 19.7133 83.9868 19.0507 83.9868 18.304C83.9868 17.5573 84.1408 16.8993 84.4488 16.33C84.7568 15.7513 85.1674 15.2987 85.6808 14.972C86.2034 14.636 86.7868 14.468 87.4308 14.468ZM87.6408 15.756C87.1834 15.756 86.7821 15.868 86.4368 16.092C86.0914 16.316 85.8208 16.6193 85.6248 17.002C85.4288 17.3847 85.3308 17.8187 85.3308 18.304C85.3308 18.7893 85.4288 19.2233 85.6248 19.606C85.8208 19.9887 86.0914 20.292 86.4368 20.516C86.7821 20.74 87.1834 20.852 87.6408 20.852C88.0981 20.852 88.4994 20.7447 88.8448 20.53C89.1901 20.306 89.4608 20.0027 89.6568 19.62C89.8528 19.228 89.9508 18.7893 89.9508 18.304C89.9508 17.8187 89.8528 17.3847 89.6568 17.002C89.4608 16.61 89.1901 16.3067 88.8448 16.092C88.4994 15.868 88.0981 15.756 87.6408 15.756ZM96.9341 14.51C97.5781 14.51 98.0775 14.65 98.4321 14.93C98.7868 15.2007 99.0341 15.5693 99.1741 16.036C99.3235 16.5027 99.3981 17.016 99.3981 17.576V21.286C99.3981 21.4913 99.3281 21.664 99.1881 21.804C99.0575 21.9347 98.8941 22 98.6981 22C98.4928 22 98.3248 21.9347 98.1941 21.804C98.0635 21.664 97.9981 21.4913 97.9981 21.286V17.576C97.9981 17.2493 97.9515 16.9507 97.8581 16.68C97.7741 16.4093 97.6201 16.1947 97.3961 16.036C97.1815 15.8773 96.8781 15.798 96.4861 15.798C96.1221 15.798 95.7955 15.8773 95.5061 16.036C95.2261 16.1947 95.0068 16.4093 94.8481 16.68C94.6988 16.9507 94.6241 17.2493 94.6241 17.576V21.286C94.6241 21.4913 94.5541 21.664 94.4141 21.804C94.2835 21.9347 94.1201 22 93.9241 22C93.7188 22 93.5508 21.9347 93.4201 21.804C93.2895 21.664 93.2241 21.4913 93.2241 21.286V12.354C93.2241 12.1487 93.2895 11.9807 93.4201 11.85C93.5508 11.71 93.7188 11.64 93.9241 11.64C94.1201 11.64 94.2835 11.71 94.4141 11.85C94.5541 11.9807 94.6241 12.1487 94.6241 12.354V16.176L94.3721 16.316C94.4375 16.1107 94.5448 15.9007 94.6941 15.686C94.8528 15.4713 95.0441 15.2753 95.2681 15.098C95.5015 14.9207 95.7581 14.7807 96.0381 14.678C96.3181 14.566 96.6168 14.51 96.9341 14.51ZM104.775 22.14C104.001 22.14 103.329 21.9813 102.759 21.664C102.19 21.3373 101.747 20.894 101.429 20.334C101.121 19.7647 100.967 19.116 100.967 18.388C100.967 17.5667 101.131 16.8667 101.457 16.288C101.793 15.7 102.227 15.252 102.759 14.944C103.291 14.6267 103.856 14.468 104.453 14.468C104.911 14.468 105.345 14.5613 105.755 14.748C106.166 14.9253 106.53 15.1773 106.847 15.504C107.174 15.8213 107.431 16.1993 107.617 16.638C107.804 17.0673 107.902 17.5387 107.911 18.052C107.902 18.2387 107.827 18.3927 107.687 18.514C107.547 18.6353 107.384 18.696 107.197 18.696H101.751L101.415 17.506H106.679L106.413 17.758V17.408C106.395 17.0813 106.287 16.7967 106.091 16.554C105.895 16.302 105.653 16.1107 105.363 15.98C105.074 15.84 104.771 15.77 104.453 15.77C104.173 15.77 103.903 15.8167 103.641 15.91C103.389 15.994 103.161 16.134 102.955 16.33C102.759 16.526 102.601 16.7873 102.479 17.114C102.367 17.4313 102.311 17.828 102.311 18.304C102.311 18.8173 102.419 19.2653 102.633 19.648C102.848 20.0307 103.137 20.3293 103.501 20.544C103.865 20.7493 104.267 20.852 104.705 20.852C105.051 20.852 105.335 20.8193 105.559 20.754C105.783 20.6793 105.97 20.5907 106.119 20.488C106.269 20.3853 106.399 20.2873 106.511 20.194C106.651 20.11 106.791 20.068 106.931 20.068C107.099 20.068 107.239 20.1287 107.351 20.25C107.463 20.362 107.519 20.4973 107.519 20.656C107.519 20.8613 107.417 21.048 107.211 21.216C106.959 21.4587 106.609 21.6733 106.161 21.86C105.723 22.0467 105.261 22.14 104.775 22.14ZM109.06 20.852C108.976 20.7213 108.938 20.572 108.948 20.404C108.957 20.2267 109.055 20.0773 109.242 19.956C109.372 19.872 109.508 19.8393 109.648 19.858C109.797 19.8673 109.937 19.9373 110.068 20.068C110.329 20.3573 110.618 20.586 110.936 20.754C111.262 20.922 111.654 21.006 112.112 21.006C112.298 20.9967 112.49 20.9687 112.686 20.922C112.882 20.866 113.05 20.7727 113.19 20.642C113.33 20.502 113.4 20.3013 113.4 20.04C113.4 19.8067 113.325 19.62 113.176 19.48C113.026 19.34 112.83 19.228 112.588 19.144C112.345 19.0507 112.084 18.9667 111.804 18.892C111.505 18.808 111.202 18.7147 110.894 18.612C110.595 18.5093 110.324 18.3787 110.082 18.22C109.839 18.052 109.638 17.8373 109.48 17.576C109.33 17.3147 109.256 16.9927 109.256 16.61C109.256 16.1713 109.377 15.7933 109.62 15.476C109.872 15.1587 110.194 14.9113 110.586 14.734C110.987 14.5567 111.421 14.468 111.888 14.468C112.158 14.468 112.443 14.5053 112.742 14.58C113.04 14.6453 113.33 14.7527 113.61 14.902C113.89 15.0513 114.132 15.2473 114.338 15.49C114.431 15.6113 114.482 15.756 114.492 15.924C114.51 16.092 114.436 16.2413 114.268 16.372C114.156 16.4653 114.02 16.5073 113.862 16.498C113.703 16.4887 113.572 16.4373 113.47 16.344C113.292 16.12 113.064 15.9473 112.784 15.826C112.504 15.6953 112.186 15.63 111.832 15.63C111.654 15.63 111.468 15.658 111.272 15.714C111.085 15.7607 110.926 15.8493 110.796 15.98C110.665 16.1107 110.6 16.302 110.6 16.554C110.6 16.7873 110.674 16.974 110.824 17.114C110.982 17.254 111.188 17.3707 111.44 17.464C111.692 17.5573 111.967 17.6413 112.266 17.716C112.555 17.7907 112.84 17.8793 113.12 17.982C113.409 18.0847 113.666 18.22 113.89 18.388C114.123 18.5467 114.31 18.7567 114.45 19.018C114.599 19.27 114.674 19.592 114.674 19.984C114.674 20.4413 114.538 20.8333 114.268 21.16C114.006 21.4773 113.67 21.72 113.26 21.888C112.858 22.056 112.434 22.14 111.986 22.14C111.454 22.14 110.922 22.0467 110.39 21.86C109.867 21.664 109.424 21.328 109.06 20.852ZM116.081 14.72H119.371C119.558 14.72 119.712 14.7853 119.833 14.916C119.964 15.0373 120.029 15.1913 120.029 15.378C120.029 15.5553 119.964 15.7047 119.833 15.826C119.712 15.9473 119.558 16.008 119.371 16.008H116.081C115.895 16.008 115.736 15.9473 115.605 15.826C115.484 15.6953 115.423 15.5413 115.423 15.364C115.423 15.1773 115.484 15.0233 115.605 14.902C115.736 14.7807 115.895 14.72 116.081 14.72ZM117.551 12.9C117.757 12.9 117.925 12.97 118.055 13.11C118.186 13.2407 118.251 13.4087 118.251 13.614V20.11C118.251 20.278 118.279 20.4133 118.335 20.516C118.391 20.6187 118.466 20.6887 118.559 20.726C118.662 20.7633 118.765 20.782 118.867 20.782C118.97 20.782 119.059 20.7633 119.133 20.726C119.217 20.6887 119.315 20.67 119.427 20.67C119.539 20.67 119.642 20.7213 119.735 20.824C119.829 20.9267 119.875 21.0667 119.875 21.244C119.875 21.468 119.754 21.65 119.511 21.79C119.269 21.93 119.007 22 118.727 22C118.569 22 118.382 21.986 118.167 21.958C117.953 21.93 117.743 21.86 117.537 21.748C117.341 21.636 117.178 21.4587 117.047 21.216C116.917 20.964 116.851 20.614 116.851 20.166V13.614C116.851 13.4087 116.917 13.2407 117.047 13.11C117.187 12.97 117.355 12.9 117.551 12.9ZM129.578 12.2C130.073 12.2 130.53 12.3353 130.95 12.606C131.37 12.8673 131.706 13.2267 131.958 13.684C132.21 14.1413 132.336 14.6547 132.336 15.224C132.336 15.7933 132.21 16.3113 131.958 16.778C131.706 17.2353 131.37 17.604 130.95 17.884C130.53 18.1547 130.073 18.29 129.578 18.29H126.876L126.988 18.066V21.286C126.988 21.4913 126.923 21.664 126.792 21.804C126.671 21.9347 126.507 22 126.302 22C126.106 22 125.943 21.9347 125.812 21.804C125.691 21.664 125.63 21.4913 125.63 21.286V12.914C125.63 12.7087 125.7 12.5407 125.84 12.41C125.98 12.27 126.148 12.2 126.344 12.2H129.578ZM129.578 16.946C129.821 16.946 130.04 16.8667 130.236 16.708C130.441 16.5493 130.605 16.3393 130.726 16.078C130.857 15.8167 130.922 15.532 130.922 15.224C130.922 14.916 130.857 14.636 130.726 14.384C130.605 14.132 130.441 13.9313 130.236 13.782C130.04 13.6233 129.821 13.544 129.578 13.544H126.848L126.988 13.334V17.128L126.862 16.946H129.578ZM134.584 22C134.379 22 134.211 21.9347 134.08 21.804C133.95 21.664 133.884 21.4913 133.884 21.286V15.35C133.884 15.1447 133.95 14.9767 134.08 14.846C134.211 14.706 134.379 14.636 134.584 14.636C134.78 14.636 134.944 14.706 135.074 14.846C135.214 14.9767 135.284 15.1447 135.284 15.35V16.918L135.144 16.316C135.219 16.0547 135.331 15.812 135.48 15.588C135.639 15.364 135.826 15.168 136.04 15C136.255 14.832 136.493 14.7013 136.754 14.608C137.025 14.5147 137.305 14.468 137.594 14.468C137.837 14.468 138.047 14.5333 138.224 14.664C138.402 14.7947 138.49 14.958 138.49 15.154C138.49 15.406 138.425 15.5927 138.294 15.714C138.164 15.826 138.019 15.882 137.86 15.882C137.72 15.882 137.585 15.854 137.454 15.798C137.324 15.7327 137.17 15.7 136.992 15.7C136.796 15.7 136.596 15.7513 136.39 15.854C136.185 15.9567 135.998 16.1107 135.83 16.316C135.662 16.512 135.527 16.7453 135.424 17.016C135.331 17.2867 135.284 17.59 135.284 17.926V21.286C135.284 21.4913 135.214 21.664 135.074 21.804C134.944 21.9347 134.78 22 134.584 22ZM141.052 21.286C141.052 21.4913 140.987 21.664 140.856 21.804C140.725 21.9347 140.557 22 140.352 22C140.156 22 139.988 21.9347 139.848 21.804C139.717 21.664 139.652 21.4913 139.652 21.286V15.294C139.652 15.0887 139.717 14.9207 139.848 14.79C139.988 14.65 140.156 14.58 140.352 14.58C140.557 14.58 140.725 14.65 140.856 14.79C140.987 14.9207 141.052 15.0887 141.052 15.294V21.286ZM140.338 13.656C140.067 13.656 139.871 13.6093 139.75 13.516C139.629 13.4133 139.568 13.2453 139.568 13.012V12.788C139.568 12.5547 139.633 12.3913 139.764 12.298C139.895 12.2047 140.091 12.158 140.352 12.158C140.632 12.158 140.833 12.2093 140.954 12.312C141.075 12.4053 141.136 12.564 141.136 12.788V13.012C141.136 13.2547 141.071 13.4227 140.94 13.516C140.819 13.6093 140.618 13.656 140.338 13.656ZM146.197 14.468C146.701 14.468 147.149 14.524 147.541 14.636C147.933 14.7387 148.236 14.888 148.451 15.084C148.675 15.2707 148.787 15.49 148.787 15.742C148.787 15.9007 148.74 16.05 148.647 16.19C148.554 16.3207 148.414 16.386 148.227 16.386C148.096 16.386 147.984 16.3627 147.891 16.316C147.807 16.2693 147.728 16.2133 147.653 16.148C147.578 16.0827 147.485 16.0173 147.373 15.952C147.27 15.896 147.116 15.8493 146.911 15.812C146.715 15.7747 146.538 15.756 146.379 15.756C145.884 15.756 145.455 15.868 145.091 16.092C144.736 16.316 144.456 16.6193 144.251 17.002C144.055 17.3847 143.957 17.8187 143.957 18.304C143.957 18.7893 144.055 19.2233 144.251 19.606C144.456 19.9887 144.732 20.292 145.077 20.516C145.432 20.74 145.842 20.852 146.309 20.852C146.589 20.852 146.818 20.8333 146.995 20.796C147.172 20.7493 147.326 20.6933 147.457 20.628C147.597 20.544 147.714 20.46 147.807 20.376C147.91 20.2827 148.05 20.236 148.227 20.236C148.432 20.236 148.586 20.3013 148.689 20.432C148.801 20.5533 148.857 20.7073 148.857 20.894C148.857 21.0993 148.731 21.3 148.479 21.496C148.236 21.6827 147.91 21.8367 147.499 21.958C147.088 22.0793 146.636 22.14 146.141 22.14C145.413 22.14 144.778 21.972 144.237 21.636C143.705 21.3 143.29 20.8427 142.991 20.264C142.702 19.6853 142.557 19.032 142.557 18.304C142.557 17.5667 142.711 16.9133 143.019 16.344C143.327 15.7653 143.756 15.308 144.307 14.972C144.858 14.636 145.488 14.468 146.197 14.468ZM153.625 22.14C152.85 22.14 152.178 21.9813 151.609 21.664C151.04 21.3373 150.596 20.894 150.279 20.334C149.971 19.7647 149.817 19.116 149.817 18.388C149.817 17.5667 149.98 16.8667 150.307 16.288C150.643 15.7 151.077 15.252 151.609 14.944C152.141 14.6267 152.706 14.468 153.303 14.468C153.76 14.468 154.194 14.5613 154.605 14.748C155.016 14.9253 155.38 15.1773 155.697 15.504C156.024 15.8213 156.28 16.1993 156.467 16.638C156.654 17.0673 156.752 17.5387 156.761 18.052C156.752 18.2387 156.677 18.3927 156.537 18.514C156.397 18.6353 156.234 18.696 156.047 18.696H150.601L150.265 17.506H155.529L155.263 17.758V17.408C155.244 17.0813 155.137 16.7967 154.941 16.554C154.745 16.302 154.502 16.1107 154.213 15.98C153.924 15.84 153.62 15.77 153.303 15.77C153.023 15.77 152.752 15.8167 152.491 15.91C152.239 15.994 152.01 16.134 151.805 16.33C151.609 16.526 151.45 16.7873 151.329 17.114C151.217 17.4313 151.161 17.828 151.161 18.304C151.161 18.8173 151.268 19.2653 151.483 19.648C151.698 20.0307 151.987 20.3293 152.351 20.544C152.715 20.7493 153.116 20.852 153.555 20.852C153.9 20.852 154.185 20.8193 154.409 20.754C154.633 20.6793 154.82 20.5907 154.969 20.488C155.118 20.3853 155.249 20.2873 155.361 20.194C155.501 20.11 155.641 20.068 155.781 20.068C155.949 20.068 156.089 20.1287 156.201 20.25C156.313 20.362 156.369 20.4973 156.369 20.656C156.369 20.8613 156.266 21.048 156.061 21.216C155.809 21.4587 155.459 21.6733 155.011 21.86C154.572 22.0467 154.11 22.14 153.625 22.14Z" fill="#161117"/>
</svg>
