<svg width="77" height="31" viewBox="0 0 77 31" fill="none" xmlns="http://www.w3.org/2000/svg">
<rect x="0.75" y="0.75" width="75.5" height="29.5" rx="14.75" fill="white"/>
<rect x="0.75" y="0.75" width="75.5" height="29.5" rx="14.75" stroke="#E9E9E9" stroke-width="1.5"/>
<path d="M17.708 20C17.516 20 17.36 19.944 17.24 19.832C17.128 19.712 17.072 19.564 17.072 19.388V12.2H18.356V19.388C18.356 19.564 18.292 19.712 18.164 19.832C18.044 19.944 17.892 20 17.708 20ZM14.984 12.752C14.816 12.752 14.672 12.7 14.552 12.596C14.432 12.484 14.372 12.34 14.372 12.164C14.372 11.996 14.432 11.86 14.552 11.756C14.672 11.652 14.816 11.6 14.984 11.6H20.444C20.612 11.6 20.752 11.656 20.864 11.768C20.984 11.872 21.044 12.008 21.044 12.176C21.044 12.352 20.984 12.492 20.864 12.596C20.752 12.7 20.612 12.752 20.444 12.752H14.984ZM26.8763 16.844C26.8763 17.484 26.7363 18.052 26.4563 18.548C26.1763 19.036 25.7963 19.42 25.3163 19.7C24.8363 19.98 24.2963 20.12 23.6963 20.12C23.0963 20.12 22.5563 19.98 22.0763 19.7C21.5963 19.42 21.2123 19.036 20.9243 18.548C20.6443 18.052 20.5043 17.484 20.5043 16.844C20.5043 16.196 20.6443 15.628 20.9243 15.14C21.2123 14.644 21.5963 14.256 22.0763 13.976C22.5563 13.688 23.0963 13.544 23.6963 13.544C24.2963 13.544 24.8363 13.688 25.3163 13.976C25.7963 14.256 26.1763 14.644 26.4563 15.14C26.7363 15.628 26.8763 16.196 26.8763 16.844ZM25.6763 16.844C25.6763 16.404 25.5883 16.024 25.4123 15.704C25.2363 15.376 24.9963 15.12 24.6923 14.936C24.3963 14.744 24.0643 14.648 23.6963 14.648C23.3283 14.648 22.9923 14.744 22.6883 14.936C22.3843 15.12 22.1443 15.376 21.9683 15.704C21.7923 16.024 21.7043 16.404 21.7043 16.844C21.7043 17.268 21.7923 17.644 21.9683 17.972C22.1443 18.3 22.3843 18.556 22.6883 18.74C22.9923 18.924 23.3283 19.016 23.6963 19.016C24.0643 19.016 24.3963 18.924 24.6923 18.74C24.9963 18.556 25.2363 18.3 25.4123 17.972C25.5883 17.644 25.6763 17.268 25.6763 16.844ZM31.4145 13.58C31.9745 13.58 32.4705 13.72 32.9025 14C33.3425 14.28 33.6905 14.664 33.9465 15.152C34.2025 15.632 34.3305 16.192 34.3305 16.832C34.3305 17.472 34.2025 18.04 33.9465 18.536C33.6905 19.024 33.3465 19.408 32.9145 19.688C32.4825 19.968 31.9945 20.108 31.4505 20.108C31.1465 20.108 30.8585 20.06 30.5865 19.964C30.3145 19.868 30.0745 19.744 29.8665 19.592C29.6585 19.432 29.4865 19.264 29.3505 19.088C29.2225 18.912 29.1425 18.748 29.1105 18.596L29.4345 18.44V21.788C29.4345 21.964 29.3745 22.108 29.2545 22.22C29.1425 22.34 29.0025 22.4 28.8345 22.4C28.6585 22.4 28.5145 22.34 28.4025 22.22C28.2905 22.108 28.2345 21.964 28.2345 21.788V14.276C28.2345 14.108 28.2905 13.964 28.4025 13.844C28.5145 13.724 28.6585 13.664 28.8345 13.664C29.0025 13.664 29.1425 13.724 29.2545 13.844C29.3745 13.964 29.4345 14.108 29.4345 14.276V15.104L29.2425 14.996C29.2665 14.844 29.3425 14.688 29.4705 14.528C29.5985 14.36 29.7585 14.204 29.9505 14.06C30.1505 13.916 30.3745 13.8 30.6225 13.712C30.8785 13.624 31.1425 13.58 31.4145 13.58ZM31.2825 14.684C30.8985 14.684 30.5625 14.78 30.2745 14.972C29.9945 15.156 29.7745 15.408 29.6145 15.728C29.4545 16.048 29.3745 16.416 29.3745 16.832C29.3745 17.24 29.4545 17.612 29.6145 17.948C29.7745 18.276 29.9945 18.536 30.2745 18.728C30.5625 18.912 30.8985 19.004 31.2825 19.004C31.6585 19.004 31.9865 18.912 32.2665 18.728C32.5465 18.536 32.7665 18.276 32.9265 17.948C33.0945 17.612 33.1785 17.24 33.1785 16.832C33.1785 16.424 33.0945 16.06 32.9265 15.74C32.7665 15.412 32.5465 15.156 32.2665 14.972C31.9865 14.78 31.6585 14.684 31.2825 14.684ZM45.2795 11.576C45.4475 11.576 45.5915 11.632 45.7115 11.744C45.8315 11.856 45.8915 11.992 45.8915 12.152C45.8915 12.24 45.8715 12.332 45.8315 12.428L42.7955 19.604C42.7315 19.74 42.6435 19.84 42.5315 19.904C42.4275 19.968 42.3195 20 42.2075 20C42.0955 19.992 41.9875 19.956 41.8835 19.892C41.7875 19.828 41.7115 19.736 41.6555 19.616L38.6195 12.428C38.6035 12.388 38.5915 12.348 38.5835 12.308C38.5755 12.26 38.5715 12.212 38.5715 12.164C38.5715 11.98 38.6395 11.836 38.7755 11.732C38.9115 11.628 39.0435 11.576 39.1715 11.576C39.4275 11.576 39.6155 11.708 39.7355 11.972L42.4835 18.488H42.1355L44.7275 11.96C44.8395 11.704 45.0235 11.576 45.2795 11.576ZM48.2414 19.388C48.2414 19.564 48.1854 19.712 48.0734 19.832C47.9614 19.944 47.8174 20 47.6414 20C47.4734 20 47.3294 19.944 47.2094 19.832C47.0974 19.712 47.0414 19.564 47.0414 19.388V14.252C47.0414 14.076 47.0974 13.932 47.2094 13.82C47.3294 13.7 47.4734 13.64 47.6414 13.64C47.8174 13.64 47.9614 13.7 48.0734 13.82C48.1854 13.932 48.2414 14.076 48.2414 14.252V19.388ZM47.6294 12.848C47.3974 12.848 47.2294 12.808 47.1254 12.728C47.0214 12.64 46.9694 12.496 46.9694 12.296V12.104C46.9694 11.904 47.0254 11.764 47.1374 11.684C47.2494 11.604 47.4174 11.564 47.6414 11.564C47.8814 11.564 48.0534 11.608 48.1574 11.696C48.2614 11.776 48.3134 11.912 48.3134 12.104V12.296C48.3134 12.504 48.2574 12.648 48.1454 12.728C48.0414 12.808 47.8694 12.848 47.6294 12.848ZM51.1516 19.388C51.1516 19.564 51.0916 19.712 50.9716 19.832C50.8596 19.944 50.7196 20 50.5516 20C50.3836 20 50.2396 19.944 50.1196 19.832C50.0076 19.712 49.9516 19.564 49.9516 19.388V11.732C49.9516 11.556 50.0116 11.412 50.1316 11.3C50.2516 11.18 50.3956 11.12 50.5636 11.12C50.7396 11.12 50.8796 11.18 50.9836 11.3C51.0956 11.412 51.1516 11.556 51.1516 11.732V19.388ZM54.2337 19.388C54.2337 19.564 54.1737 19.712 54.0537 19.832C53.9417 19.944 53.8017 20 53.6337 20C53.4657 20 53.3217 19.944 53.2017 19.832C53.0897 19.712 53.0337 19.564 53.0337 19.388V11.732C53.0337 11.556 53.0937 11.412 53.2137 11.3C53.3337 11.18 53.4777 11.12 53.6457 11.12C53.8217 11.12 53.9617 11.18 54.0657 11.3C54.1777 11.412 54.2337 11.556 54.2337 11.732V19.388ZM61.1917 13.592C61.3677 13.592 61.5117 13.652 61.6237 13.772C61.7357 13.884 61.7917 14.028 61.7917 14.204V19.388C61.7917 19.564 61.7357 19.712 61.6237 19.832C61.5117 19.944 61.3677 20 61.1917 20C61.0237 20 60.8797 19.944 60.7597 19.832C60.6477 19.712 60.5917 19.564 60.5917 19.388V18.524L60.8437 18.56C60.8437 18.704 60.7837 18.864 60.6637 19.04C60.5517 19.216 60.3957 19.388 60.1957 19.556C59.9957 19.716 59.7597 19.852 59.4877 19.964C59.2157 20.068 58.9237 20.12 58.6117 20.12C58.0597 20.12 57.5637 19.98 57.1237 19.7C56.6837 19.412 56.3357 19.02 56.0797 18.524C55.8237 18.028 55.6957 17.464 55.6957 16.832C55.6957 16.184 55.8237 15.616 56.0797 15.128C56.3357 14.632 56.6797 14.244 57.1117 13.964C57.5517 13.684 58.0397 13.544 58.5757 13.544C58.9197 13.544 59.2357 13.6 59.5237 13.712C59.8197 13.824 60.0757 13.968 60.2917 14.144C60.5077 14.32 60.6717 14.508 60.7837 14.708C60.9037 14.9 60.9637 15.084 60.9637 15.26L60.5917 15.296V14.204C60.5917 14.036 60.6477 13.892 60.7597 13.772C60.8797 13.652 61.0237 13.592 61.1917 13.592ZM58.7437 19.016C59.1197 19.016 59.4517 18.92 59.7397 18.728C60.0277 18.536 60.2517 18.276 60.4117 17.948C60.5717 17.612 60.6517 17.24 60.6517 16.832C60.6517 16.416 60.5717 16.044 60.4117 15.716C60.2517 15.388 60.0277 15.128 59.7397 14.936C59.4517 14.744 59.1197 14.648 58.7437 14.648C58.3757 14.648 58.0477 14.744 57.7597 14.936C57.4797 15.128 57.2557 15.388 57.0877 15.716C56.9277 16.044 56.8477 16.416 56.8477 16.832C56.8477 17.24 56.9277 17.612 57.0877 17.948C57.2557 18.276 57.4797 18.536 57.7597 18.728C58.0477 18.92 58.3757 19.016 58.7437 19.016Z" fill="#161117"/>
</svg>
