<svg width="85" height="34" viewBox="0 0 85 34" fill="none" xmlns="http://www.w3.org/2000/svg">
<rect x="0.75" y="0.75" width="83.5" height="32.5" rx="16.25" fill="white"/>
<rect x="0.75" y="0.75" width="83.5" height="32.5" rx="16.25" stroke="#E9E9E9" stroke-width="1.5"/>
<path d="M18.326 22C18.102 22 17.92 21.9347 17.78 21.804C17.6493 21.664 17.584 21.4913 17.584 21.286V12.9H19.082V21.286C19.082 21.4913 19.0073 21.664 18.858 21.804C18.718 21.9347 18.5407 22 18.326 22ZM15.148 13.544C14.952 13.544 14.784 13.4833 14.644 13.362C14.504 13.2313 14.434 13.0633 14.434 12.858C14.434 12.662 14.504 12.5033 14.644 12.382C14.784 12.2607 14.952 12.2 15.148 12.2H21.518C21.714 12.2 21.8773 12.2653 22.008 12.396C22.148 12.5173 22.218 12.676 22.218 12.872C22.218 13.0773 22.148 13.2407 22.008 13.362C21.8773 13.4833 21.714 13.544 21.518 13.544H15.148ZM29.0223 18.318C29.0223 19.0647 28.859 19.7273 28.5323 20.306C28.2057 20.8753 27.7623 21.3233 27.2023 21.65C26.6423 21.9767 26.0123 22.14 25.3123 22.14C24.6123 22.14 23.9823 21.9767 23.4223 21.65C22.8623 21.3233 22.4143 20.8753 22.0783 20.306C21.7517 19.7273 21.5883 19.0647 21.5883 18.318C21.5883 17.562 21.7517 16.8993 22.0783 16.33C22.4143 15.7513 22.8623 15.2987 23.4223 14.972C23.9823 14.636 24.6123 14.468 25.3123 14.468C26.0123 14.468 26.6423 14.636 27.2023 14.972C27.7623 15.2987 28.2057 15.7513 28.5323 16.33C28.859 16.8993 29.0223 17.562 29.0223 18.318ZM27.6223 18.318C27.6223 17.8047 27.5197 17.3613 27.3143 16.988C27.109 16.6053 26.829 16.3067 26.4743 16.092C26.129 15.868 25.7417 15.756 25.3123 15.756C24.883 15.756 24.491 15.868 24.1363 16.092C23.7817 16.3067 23.5017 16.6053 23.2963 16.988C23.091 17.3613 22.9883 17.8047 22.9883 18.318C22.9883 18.8127 23.091 19.2513 23.2963 19.634C23.5017 20.0167 23.7817 20.3153 24.1363 20.53C24.491 20.7447 24.883 20.852 25.3123 20.852C25.7417 20.852 26.129 20.7447 26.4743 20.53C26.829 20.3153 27.109 20.0167 27.3143 19.634C27.5197 19.2513 27.6223 18.8127 27.6223 18.318ZM34.317 14.51C34.9703 14.51 35.549 14.6733 36.053 15C36.5663 15.3267 36.9723 15.7747 37.271 16.344C37.5696 16.904 37.719 17.5573 37.719 18.304C37.719 19.0507 37.5696 19.7133 37.271 20.292C36.9723 20.8613 36.571 21.3093 36.067 21.636C35.563 21.9627 34.9936 22.126 34.359 22.126C34.0043 22.126 33.6683 22.07 33.351 21.958C33.0336 21.846 32.7536 21.7013 32.511 21.524C32.2683 21.3373 32.0676 21.1413 31.909 20.936C31.7596 20.7307 31.6663 20.5393 31.629 20.362L32.007 20.18V24.086C32.007 24.2913 31.937 24.4593 31.797 24.59C31.6663 24.73 31.503 24.8 31.307 24.8C31.1016 24.8 30.9336 24.73 30.803 24.59C30.6723 24.4593 30.607 24.2913 30.607 24.086V15.322C30.607 15.126 30.6723 14.958 30.803 14.818C30.9336 14.678 31.1016 14.608 31.307 14.608C31.503 14.608 31.6663 14.678 31.797 14.818C31.937 14.958 32.007 15.126 32.007 15.322V16.288L31.783 16.162C31.811 15.9847 31.8996 15.8027 32.049 15.616C32.1983 15.42 32.385 15.238 32.609 15.07C32.8423 14.902 33.1036 14.7667 33.393 14.664C33.6916 14.5613 33.9996 14.51 34.317 14.51ZM34.163 15.798C33.715 15.798 33.323 15.91 32.987 16.134C32.6603 16.3487 32.4036 16.6427 32.217 17.016C32.0303 17.3893 31.937 17.8187 31.937 18.304C31.937 18.78 32.0303 19.214 32.217 19.606C32.4036 19.9887 32.6603 20.292 32.987 20.516C33.323 20.7307 33.715 20.838 34.163 20.838C34.6016 20.838 34.9843 20.7307 35.311 20.516C35.6376 20.292 35.8943 19.9887 36.081 19.606C36.277 19.214 36.375 18.78 36.375 18.304C36.375 17.828 36.277 17.4033 36.081 17.03C35.8943 16.6473 35.6376 16.3487 35.311 16.134C34.9843 15.91 34.6016 15.798 34.163 15.798ZM50.4928 12.172C50.6888 12.172 50.8568 12.2373 50.9968 12.368C51.1368 12.4987 51.2068 12.6573 51.2068 12.844C51.2068 12.9467 51.1834 13.054 51.1368 13.166L47.5948 21.538C47.5201 21.6967 47.4174 21.8133 47.2868 21.888C47.1654 21.9627 47.0394 22 46.9088 22C46.7781 21.9907 46.6521 21.9487 46.5308 21.874C46.4188 21.7993 46.3301 21.692 46.2648 21.552L42.7228 13.166C42.7041 13.1193 42.6901 13.0727 42.6807 13.026C42.6714 12.97 42.6668 12.914 42.6668 12.858C42.6668 12.6433 42.7461 12.4753 42.9048 12.354C43.0634 12.2327 43.2174 12.172 43.3668 12.172C43.6654 12.172 43.8848 12.326 44.0248 12.634L47.2308 20.236H46.8248L49.8488 12.62C49.9794 12.3213 50.1941 12.172 50.4928 12.172ZM53.9483 21.286C53.9483 21.4913 53.883 21.664 53.7523 21.804C53.6217 21.9347 53.4537 22 53.2483 22C53.0523 22 52.8843 21.9347 52.7443 21.804C52.6137 21.664 52.5483 21.4913 52.5483 21.286V15.294C52.5483 15.0887 52.6137 14.9207 52.7443 14.79C52.8843 14.65 53.0523 14.58 53.2483 14.58C53.4537 14.58 53.6217 14.65 53.7523 14.79C53.883 14.9207 53.9483 15.0887 53.9483 15.294V21.286ZM53.2343 13.656C52.9637 13.656 52.7677 13.6093 52.6463 13.516C52.525 13.4133 52.4643 13.2453 52.4643 13.012V12.788C52.4643 12.5547 52.5297 12.3913 52.6603 12.298C52.791 12.2047 52.987 12.158 53.2483 12.158C53.5283 12.158 53.729 12.2093 53.8503 12.312C53.9717 12.4053 54.0323 12.564 54.0323 12.788V13.012C54.0323 13.2547 53.967 13.4227 53.8363 13.516C53.715 13.6093 53.5143 13.656 53.2343 13.656ZM57.3436 21.286C57.3436 21.4913 57.2736 21.664 57.1336 21.804C57.0029 21.9347 56.8396 22 56.6436 22C56.4476 22 56.2796 21.9347 56.1396 21.804C56.0089 21.664 55.9436 21.4913 55.9436 21.286V12.354C55.9436 12.1487 56.0136 11.9807 56.1536 11.85C56.2936 11.71 56.4616 11.64 56.6576 11.64C56.8629 11.64 57.0262 11.71 57.1476 11.85C57.2782 11.9807 57.3436 12.1487 57.3436 12.354V21.286ZM60.9393 21.286C60.9393 21.4913 60.8693 21.664 60.7293 21.804C60.5986 21.9347 60.4353 22 60.2393 22C60.0433 22 59.8753 21.9347 59.7353 21.804C59.6046 21.664 59.5393 21.4913 59.5393 21.286V12.354C59.5393 12.1487 59.6093 11.9807 59.7493 11.85C59.8893 11.71 60.0573 11.64 60.2533 11.64C60.4586 11.64 60.6219 11.71 60.7433 11.85C60.8739 11.9807 60.9393 12.1487 60.9393 12.354V21.286ZM69.057 14.524C69.2623 14.524 69.4303 14.594 69.561 14.734C69.6916 14.8647 69.757 15.0327 69.757 15.238V21.286C69.757 21.4913 69.6916 21.664 69.561 21.804C69.4303 21.9347 69.2623 22 69.057 22C68.861 22 68.693 21.9347 68.553 21.804C68.4223 21.664 68.357 21.4913 68.357 21.286V20.278L68.651 20.32C68.651 20.488 68.581 20.6747 68.441 20.88C68.3103 21.0853 68.1283 21.286 67.895 21.482C67.6616 21.6687 67.3863 21.8273 67.069 21.958C66.7516 22.0793 66.411 22.14 66.047 22.14C65.403 22.14 64.8243 21.9767 64.311 21.65C63.7976 21.314 63.3916 20.8567 63.093 20.278C62.7943 19.6993 62.645 19.0413 62.645 18.304C62.645 17.548 62.7943 16.8853 63.093 16.316C63.3916 15.7373 63.793 15.2847 64.297 14.958C64.8103 14.6313 65.3796 14.468 66.005 14.468C66.4063 14.468 66.775 14.5333 67.111 14.664C67.4563 14.7947 67.755 14.9627 68.007 15.168C68.259 15.3733 68.4503 15.5927 68.581 15.826C68.721 16.05 68.791 16.2647 68.791 16.47L68.357 16.512V15.238C68.357 15.042 68.4223 14.874 68.553 14.734C68.693 14.594 68.861 14.524 69.057 14.524ZM66.201 20.852C66.6396 20.852 67.027 20.74 67.363 20.516C67.699 20.292 67.9603 19.9887 68.147 19.606C68.3336 19.214 68.427 18.78 68.427 18.304C68.427 17.8187 68.3336 17.3847 68.147 17.002C67.9603 16.6193 67.699 16.316 67.363 16.092C67.027 15.868 66.6396 15.756 66.201 15.756C65.7716 15.756 65.389 15.868 65.053 16.092C64.7263 16.316 64.465 16.6193 64.269 17.002C64.0823 17.3847 63.989 17.8187 63.989 18.304C63.989 18.78 64.0823 19.214 64.269 19.606C64.465 19.9887 64.7263 20.292 65.053 20.516C65.389 20.74 65.7716 20.852 66.201 20.852Z" fill="#161117"/>
</svg>
