<svg width="65" height="27" viewBox="0 0 65 27" fill="none" xmlns="http://www.w3.org/2000/svg">
<rect x="0.75" y="0.75" width="63.5" height="25.5" rx="12.75" fill="white"/>
<rect x="0.75" y="0.75" width="63.5" height="25.5" rx="12.75" stroke="#E9E9E9" stroke-width="1.5"/>
<path d="M16.781 17C16.637 17 16.52 16.958 16.43 16.874C16.346 16.784 16.304 16.673 16.304 16.541V11.15H17.267V16.541C17.267 16.673 17.219 16.784 17.123 16.874C17.033 16.958 16.919 17 16.781 17ZM14.738 11.564C14.612 11.564 14.504 11.525 14.414 11.447C14.324 11.363 14.279 11.255 14.279 11.123C14.279 10.997 14.324 10.895 14.414 10.817C14.504 10.739 14.612 10.7 14.738 10.7H18.833C18.959 10.7 19.064 10.742 19.148 10.826C19.238 10.904 19.283 11.006 19.283 11.132C19.283 11.264 19.238 11.369 19.148 11.447C19.064 11.525 18.959 11.564 18.833 11.564H14.738ZM23.6572 14.633C23.6572 15.113 23.5522 15.539 23.3422 15.911C23.1322 16.277 22.8472 16.565 22.4872 16.775C22.1272 16.985 21.7222 17.09 21.2722 17.09C20.8222 17.09 20.4172 16.985 20.0572 16.775C19.6972 16.565 19.4092 16.277 19.1932 15.911C18.9832 15.539 18.8782 15.113 18.8782 14.633C18.8782 14.147 18.9832 13.721 19.1932 13.355C19.4092 12.983 19.6972 12.692 20.0572 12.482C20.4172 12.266 20.8222 12.158 21.2722 12.158C21.7222 12.158 22.1272 12.266 22.4872 12.482C22.8472 12.692 23.1322 12.983 23.3422 13.355C23.5522 13.721 23.6572 14.147 23.6572 14.633ZM22.7572 14.633C22.7572 14.303 22.6912 14.018 22.5592 13.778C22.4272 13.532 22.2472 13.34 22.0192 13.202C21.7972 13.058 21.5482 12.986 21.2722 12.986C20.9962 12.986 20.7442 13.058 20.5162 13.202C20.2882 13.34 20.1082 13.532 19.9762 13.778C19.8442 14.018 19.7782 14.303 19.7782 14.633C19.7782 14.951 19.8442 15.233 19.9762 15.479C20.1082 15.725 20.2882 15.917 20.5162 16.055C20.7442 16.193 20.9962 16.262 21.2722 16.262C21.5482 16.262 21.7972 16.193 22.0192 16.055C22.2472 15.917 22.4272 15.725 22.5592 15.479C22.6912 15.233 22.7572 14.951 22.7572 14.633ZM27.0609 12.185C27.4809 12.185 27.8529 12.29 28.1769 12.5C28.5069 12.71 28.7679 12.998 28.9599 13.364C29.1519 13.724 29.2479 14.144 29.2479 14.624C29.2479 15.104 29.1519 15.53 28.9599 15.902C28.7679 16.268 28.5099 16.556 28.1859 16.766C27.8619 16.976 27.4959 17.081 27.0879 17.081C26.8599 17.081 26.6439 17.045 26.4399 16.973C26.2359 16.901 26.0559 16.808 25.8999 16.694C25.7439 16.574 25.6149 16.448 25.5129 16.316C25.4169 16.184 25.3569 16.061 25.3329 15.947L25.5759 15.83V18.341C25.5759 18.473 25.5309 18.581 25.4409 18.665C25.3569 18.755 25.2519 18.8 25.1259 18.8C24.9939 18.8 24.8859 18.755 24.8019 18.665C24.7179 18.581 24.6759 18.473 24.6759 18.341V12.707C24.6759 12.581 24.7179 12.473 24.8019 12.383C24.8859 12.293 24.9939 12.248 25.1259 12.248C25.2519 12.248 25.3569 12.293 25.4409 12.383C25.5309 12.473 25.5759 12.581 25.5759 12.707V13.328L25.4319 13.247C25.4499 13.133 25.5069 13.016 25.6029 12.896C25.6989 12.77 25.8189 12.653 25.9629 12.545C26.1129 12.437 26.2809 12.35 26.4669 12.284C26.6589 12.218 26.8569 12.185 27.0609 12.185ZM26.9619 13.013C26.6739 13.013 26.4219 13.085 26.2059 13.229C25.9959 13.367 25.8309 13.556 25.7109 13.796C25.5909 14.036 25.5309 14.312 25.5309 14.624C25.5309 14.93 25.5909 15.209 25.7109 15.461C25.8309 15.707 25.9959 15.902 26.2059 16.046C26.4219 16.184 26.6739 16.253 26.9619 16.253C27.2439 16.253 27.4899 16.184 27.6999 16.046C27.9099 15.902 28.0749 15.707 28.1949 15.461C28.3209 15.209 28.3839 14.93 28.3839 14.624C28.3839 14.318 28.3209 14.045 28.1949 13.805C28.0749 13.559 27.9099 13.367 27.6999 13.229C27.4899 13.085 27.2439 13.013 26.9619 13.013ZM37.4596 10.682C37.5856 10.682 37.6936 10.724 37.7836 10.808C37.8736 10.892 37.9186 10.994 37.9186 11.114C37.9186 11.18 37.9036 11.249 37.8736 11.321L35.5966 16.703C35.5486 16.805 35.4826 16.88 35.3986 16.928C35.3206 16.976 35.2396 17 35.1556 17C35.0716 16.994 34.9906 16.967 34.9126 16.919C34.8406 16.871 34.7836 16.802 34.7416 16.712L32.4646 11.321C32.4526 11.291 32.4436 11.261 32.4376 11.231C32.4316 11.195 32.4286 11.159 32.4286 11.123C32.4286 10.985 32.4796 10.877 32.5816 10.799C32.6836 10.721 32.7826 10.682 32.8786 10.682C33.0706 10.682 33.2116 10.781 33.3016 10.979L35.3626 15.866H35.1016L37.0456 10.97C37.1296 10.778 37.2676 10.682 37.4596 10.682ZM39.6811 16.541C39.6811 16.673 39.6391 16.784 39.5551 16.874C39.4711 16.958 39.3631 17 39.2311 17C39.1051 17 38.9971 16.958 38.9071 16.874C38.8231 16.784 38.7811 16.673 38.7811 16.541V12.689C38.7811 12.557 38.8231 12.449 38.9071 12.365C38.9971 12.275 39.1051 12.23 39.2311 12.23C39.3631 12.23 39.4711 12.275 39.5551 12.365C39.6391 12.449 39.6811 12.557 39.6811 12.689V16.541ZM39.2221 11.636C39.0481 11.636 38.9221 11.606 38.8441 11.546C38.7661 11.48 38.7271 11.372 38.7271 11.222V11.078C38.7271 10.928 38.7691 10.823 38.8531 10.763C38.9371 10.703 39.0631 10.673 39.2311 10.673C39.4111 10.673 39.5401 10.706 39.6181 10.772C39.6961 10.832 39.7351 10.934 39.7351 11.078V11.222C39.7351 11.378 39.6931 11.486 39.6091 11.546C39.5311 11.606 39.4021 11.636 39.2221 11.636ZM41.8637 16.541C41.8637 16.673 41.8187 16.784 41.7287 16.874C41.6447 16.958 41.5397 17 41.4137 17C41.2877 17 41.1797 16.958 41.0897 16.874C41.0057 16.784 40.9637 16.673 40.9637 16.541V10.799C40.9637 10.667 41.0087 10.559 41.0987 10.475C41.1887 10.385 41.2967 10.34 41.4227 10.34C41.5547 10.34 41.6597 10.385 41.7377 10.475C41.8217 10.559 41.8637 10.667 41.8637 10.799V16.541ZM44.1752 16.541C44.1752 16.673 44.1302 16.784 44.0402 16.874C43.9562 16.958 43.8512 17 43.7252 17C43.5992 17 43.4912 16.958 43.4012 16.874C43.3172 16.784 43.2752 16.673 43.2752 16.541V10.799C43.2752 10.667 43.3202 10.559 43.4102 10.475C43.5002 10.385 43.6082 10.34 43.7342 10.34C43.8662 10.34 43.9712 10.385 44.0492 10.475C44.1332 10.559 44.1752 10.667 44.1752 10.799V16.541ZM49.3938 12.194C49.5258 12.194 49.6338 12.239 49.7178 12.329C49.8018 12.413 49.8438 12.521 49.8438 12.653V16.541C49.8438 16.673 49.8018 16.784 49.7178 16.874C49.6338 16.958 49.5258 17 49.3938 17C49.2678 17 49.1598 16.958 49.0698 16.874C48.9858 16.784 48.9438 16.673 48.9438 16.541V15.893L49.1328 15.92C49.1328 16.028 49.0878 16.148 48.9978 16.28C48.9138 16.412 48.7968 16.541 48.6468 16.667C48.4968 16.787 48.3198 16.889 48.1158 16.973C47.9118 17.051 47.6928 17.09 47.4588 17.09C47.0448 17.09 46.6728 16.985 46.3428 16.775C46.0128 16.559 45.7518 16.265 45.5598 15.893C45.3678 15.521 45.2718 15.098 45.2718 14.624C45.2718 14.138 45.3678 13.712 45.5598 13.346C45.7518 12.974 46.0098 12.683 46.3338 12.473C46.6638 12.263 47.0298 12.158 47.4318 12.158C47.6898 12.158 47.9268 12.2 48.1428 12.284C48.3648 12.368 48.5568 12.476 48.7188 12.608C48.8808 12.74 49.0038 12.881 49.0878 13.031C49.1778 13.175 49.2228 13.313 49.2228 13.445L48.9438 13.472V12.653C48.9438 12.527 48.9858 12.419 49.0698 12.329C49.1598 12.239 49.2678 12.194 49.3938 12.194ZM47.5578 16.262C47.8398 16.262 48.0888 16.19 48.3048 16.046C48.5208 15.902 48.6888 15.707 48.8088 15.461C48.9288 15.209 48.9888 14.93 48.9888 14.624C48.9888 14.312 48.9288 14.033 48.8088 13.787C48.6888 13.541 48.5208 13.346 48.3048 13.202C48.0888 13.058 47.8398 12.986 47.5578 12.986C47.2818 12.986 47.0358 13.058 46.8198 13.202C46.6098 13.346 46.4418 13.541 46.3158 13.787C46.1958 14.033 46.1358 14.312 46.1358 14.624C46.1358 14.93 46.1958 15.209 46.3158 15.461C46.4418 15.707 46.6098 15.902 46.8198 16.046C47.0358 16.19 47.2818 16.262 47.5578 16.262Z" fill="#161117"/>
</svg>
